<svg width="24" height="24" viewBox="0 0 24 24" fill="none" xmlns="http://www.w3.org/2000/svg">
<g>
<path d="M13.05 15.5132H16.13C16.344 15.5132 16.519 15.6902 16.519 15.9072V17.7272C16.89 17.8187 17.2194 18.0322 17.4545 18.3334C17.6895 18.6346 17.8165 19.0061 17.815 19.3882C17.815 20.3312 17.06 21.0962 16.13 21.0962C15.199 21.0962 14.444 20.3312 14.444 19.3882C14.444 18.5812 14.998 17.9042 15.741 17.7262V16.3012H13.051V20.9642C13.0513 21.0319 13.0341 21.0986 13.0012 21.1578C12.9683 21.217 12.9207 21.2667 12.863 21.3022L10.173 22.9432C10.112 22.9805 10.0418 23.0001 9.97022 22.9997C9.89868 22.9994 9.82866 22.9791 9.768 22.9412L4.842 19.8552C4.78516 19.8195 4.73835 19.7699 4.70598 19.7111C4.67361 19.6524 4.65675 19.5863 4.657 19.5192V16.3002L2.196 14.8702C2.14003 14.8377 2.09289 14.792 2.05872 14.7371C2.02454 14.6822 2.00438 14.6197 2 14.5552V14.5282V9.40618C2 9.26618 2.073 9.13618 2.192 9.06618L4.657 7.60418V4.44818C4.657 4.31918 4.719 4.19918 4.822 4.12618L4.843 4.11218L9.77 1.05818C9.83107 1.02015 9.90156 1 9.9735 1C10.0454 1 10.1159 1.02015 10.177 1.05818L12.867 2.73318C12.9238 2.76886 12.9707 2.81843 13.003 2.87722C13.0354 2.936 13.0522 3.00207 13.052 3.06918V7.60018H16.908V5.68318C16.5369 5.59166 16.2073 5.37801 15.9722 5.07657C15.7372 4.77514 15.6103 4.40342 15.612 4.02118C15.612 3.07818 16.367 2.31318 17.297 2.31318C18.228 2.31318 18.982 3.07818 18.982 4.02118C18.982 4.82818 18.429 5.50518 17.686 5.68318V7.99418C17.6864 8.04561 17.6766 8.09661 17.6573 8.14427C17.6379 8.19192 17.6094 8.23529 17.5732 8.27189C17.5371 8.30849 17.4941 8.3376 17.4467 8.35756C17.3993 8.37751 17.3484 8.38792 17.297 8.38818H13.052V10.1942H19.676C19.7611 9.82237 19.9694 9.49027 20.2672 9.25189C20.5649 9.0135 20.9346 8.88285 21.316 8.88118C22.246 8.88118 23.001 9.64518 23.001 10.5882C23.001 11.5312 22.247 12.2962 21.316 12.2962C20.9344 12.2945 20.5647 12.1637 20.2669 11.9251C19.9692 11.6865 19.7609 11.3542 19.676 10.9822H13.05V12.9192H18.003L18.918 14.0992C19.1728 13.9502 19.4628 13.8718 19.758 13.8722C20.689 13.8722 21.443 14.6362 21.443 15.5792C21.443 16.5222 20.689 17.2872 19.758 17.2872C18.828 17.2872 18.073 16.5222 18.073 15.5792C18.073 15.2332 18.175 14.9112 18.349 14.6422L17.625 13.7072H13.05V15.5132ZM9.973 1.85618L7.93 3.12218V6.09018H7.152V3.60418L5.435 4.66918V7.61418L7.545 8.97418L9.712 7.61018V5.33418H10.49V7.83018C10.49 7.96618 10.42 8.09318 10.306 8.16518L7.963 9.63818V11.7192L9.385 12.7282L8.939 13.3742L7.533 12.3762L6.003 13.3812L5.58 12.7212L7.185 11.6662V9.67618L5.038 8.29018L2.778 9.63018V11.3062L4.75 10.1172L5.148 10.7942L2.778 12.2232V14.3002L4.944 15.5582L7.214 14.1902L7.611 14.8672L5.435 16.1782V19.3002L7.311 20.4752L9.676 19.0492L10.074 19.7272L8.057 20.9432L9.975 22.1442L12.273 20.7412V14.9612L7.515 17.8542L7.115 17.1792L12.273 14.0432V3.28918L9.973 1.85618ZM16.13 18.4702C16.0099 18.4708 15.8912 18.4952 15.7805 18.5418C15.6699 18.5884 15.5695 18.6564 15.4852 18.7418C15.4008 18.8273 15.3342 18.9285 15.289 19.0398C15.2438 19.151 15.2211 19.2701 15.222 19.3902C15.222 19.8972 15.628 20.3082 16.13 20.3082C16.2499 20.3074 16.3685 20.283 16.4789 20.2364C16.5894 20.1898 16.6896 20.1219 16.7738 20.0365C16.8581 19.9512 16.9246 19.8501 16.9698 19.739C17.015 19.628 17.0378 19.5091 17.037 19.3892C17.0379 19.2692 17.0152 19.1502 16.9701 19.039C16.925 18.9278 16.8584 18.8266 16.7742 18.7412C16.69 18.6557 16.5897 18.5877 16.4792 18.5411C16.3686 18.4944 16.25 18.471 16.13 18.4702ZM19.76 14.6602C19.6399 14.6608 19.5212 14.6852 19.4105 14.7318C19.2999 14.7784 19.1995 14.8464 19.1152 14.9318C19.0308 15.0173 18.9642 15.1185 18.919 15.2298C18.8738 15.341 18.8511 15.4601 18.852 15.5802C18.852 16.0882 19.258 16.5002 19.759 16.5002C19.8791 16.4995 19.9978 16.4752 20.1085 16.4286C20.2191 16.382 20.3195 16.314 20.4038 16.2285C20.4882 16.1431 20.5548 16.0418 20.6 15.9306C20.6452 15.8193 20.6679 15.7002 20.667 15.5802C20.6679 15.4601 20.6452 15.341 20.6 15.2298C20.5548 15.1185 20.4882 15.0173 20.4038 14.9318C20.3195 14.8464 20.2191 14.7784 20.1085 14.7318C19.9978 14.6852 19.8801 14.6608 19.76 14.6602ZM21.315 9.67018C21.1949 9.67083 21.0762 9.69516 20.9655 9.74178C20.8549 9.78839 20.7545 9.85637 20.6702 9.94183C20.5858 10.0273 20.5192 10.1285 20.474 10.2398C20.4288 10.351 20.4061 10.4701 20.407 10.5902C20.407 11.0972 20.814 11.5082 21.315 11.5082C21.4349 11.5074 21.5535 11.483 21.6639 11.4364C21.7744 11.3898 21.8746 11.3219 21.9588 11.2365C22.0431 11.1512 22.1097 11.0501 22.1548 10.939C22.2 10.828 22.2228 10.7091 22.222 10.5892C22.2229 10.4692 22.2002 10.3502 22.1551 10.239C22.11 10.1278 22.0434 10.0266 21.9592 9.94118C21.875 9.85574 21.7747 9.78773 21.6642 9.74106C21.5536 9.69439 21.435 9.66996 21.315 9.66918V9.67018ZM17.296 3.10018C17.176 3.10096 17.0574 3.12539 16.9468 3.17206C16.8363 3.21873 16.736 3.28674 16.6518 3.37218C16.5676 3.45762 16.501 3.55883 16.4559 3.67002C16.4108 3.78121 16.3881 3.9002 16.389 4.02018C16.389 4.52818 16.795 4.94018 17.296 4.94018C17.4161 4.93952 17.5348 4.91519 17.6455 4.86858C17.7561 4.82197 17.8565 4.75398 17.9408 4.66853C18.0252 4.58307 18.0918 4.48182 18.137 4.37056C18.1822 4.25931 18.2049 4.14024 18.204 4.02018C18.2049 3.90011 18.1822 3.78105 18.137 3.66979C18.0918 3.55854 18.0252 3.45728 17.9408 3.37183C17.8565 3.28637 17.7561 3.21839 17.6455 3.17178C17.5348 3.12516 17.4161 3.10083 17.296 3.10018Z" fill="url(#paint0_linear_1643_2220)"/>
</g>
<defs>
<linearGradient id="paint0_linear_1643_2220" x1="1682.08" y1="440.995" x2="363.519" y2="1699.7" gradientUnits="userSpaceOnUse">
<stop stop-color="#6350FB"/>
<stop offset="0.5" stop-color="#3D8FFF"/>
<stop offset="1" stop-color="#9AD8F8"/>
</linearGradient>
</defs>
</svg>
