<svg width="139" height="28" viewBox="0 0 139 28" fill="none" xmlns="http://www.w3.org/2000/svg">
<path d="M9.3751 6.44719C10.7595 5.98372 12.0873 5.86709 13.2059 6.16044L13.2223 6.16479L13.232 6.1671L13.2322 6.16714L13.2422 6.17013C13.5551 6.25501 13.8429 6.37004 14.1048 6.51272L14.1156 6.5182L14.1159 6.51831L14.1161 6.51845L14.1242 6.52334C14.4978 6.72979 14.8182 6.99294 15.083 7.30538L15.094 7.31747L15.0941 7.31765L15.0943 7.31785L15.108 7.33519C15.1406 7.37468 15.1725 7.41496 15.2034 7.45598L15.2049 7.45741L15.2053 7.45786L15.2057 7.45838L15.2122 7.46769C15.2871 7.56784 15.3568 7.67248 15.4213 7.78134L15.4269 7.78886H15.4257C15.4449 7.82152 15.4637 7.85456 15.482 7.88797L15.4838 7.89138C15.4841 7.89192 15.4844 7.89246 15.4847 7.893L15.4902 7.90247H15.4898C15.4943 7.91074 15.4988 7.91905 15.5032 7.92737L15.5068 7.9339C15.5266 7.97129 15.5456 8.00914 15.5642 8.04744L15.5711 8.06119L15.5712 8.06146L15.5713 8.06174L15.5723 8.06424C15.5901 8.10132 15.6073 8.13885 15.624 8.17674L15.6267 8.18207L15.6269 8.18269L15.6294 8.18914C15.6799 8.30486 15.7253 8.42442 15.7655 8.54758C15.769 8.5583 15.7725 8.56906 15.7759 8.57984L15.7765 8.58039L15.777 8.58226L15.779 8.58949C15.8162 8.70775 15.8488 8.82927 15.8767 8.95389L15.8782 8.95846L15.8784 8.95897L15.8785 8.95936L15.8786 8.95975L15.8883 9.00568L15.8883 9.00597L15.8895 9.01285C15.8983 9.05512 15.9066 9.09775 15.9144 9.14069L15.9159 9.14739H15.9174V9.15731C15.9411 9.29039 15.9596 9.42675 15.9728 9.56614L15.9729 9.56714L15.973 9.56757V9.56784C15.9861 9.70635 15.9941 9.84788 15.9968 9.99225L15.9971 9.99512L15.9971 9.99549V9.99584L15.9978 10.0031H15.9971L15.9971 10.0116C15.9981 10.0752 15.9982 10.1393 15.9971 10.2039V10.2162L15.9971 10.2166V10.2231H15.9968C15.9941 10.3692 15.9861 10.518 15.973 10.6692V10.6727H15.9727C15.9538 10.8895 15.9241 11.1114 15.8836 11.338L15.8787 11.3676L15.8786 11.3678L15.872 11.4014C15.7796 11.8951 15.6358 12.4104 15.439 12.9419L15.4313 12.9642L15.4261 12.9792L15.4192 12.9671C15.418 12.9661 15.4172 12.9647 15.4169 12.9632L15.2757 12.7189L15.1307 12.4725L14.9806 12.2316L14.9767 12.2255L14.8226 11.9884L14.8216 11.9869L14.6597 11.7451L14.5631 11.6075L14.4931 11.5061L14.491 11.5032L14.3192 11.2692L14.2177 11.1339L14.1428 11.0323L14.141 11.0299L14.1414 11.027C14.1415 11.0269 14.1415 11.0269 14.1415 11.0268L14.1631 10.8992V10.8946L14.1632 10.8941L14.1801 10.7732L14.1935 10.6727H14.193L14.1947 10.664L14.1954 10.6606L14.197 10.6521L14.209 10.5318L14.2091 10.5313L14.2163 10.4136L14.2235 10.3002L14.2259 10.1867L14.2259 10.1856V10.1795L14.2283 10.0782L14.2261 10.0031L14.226 9.99653L14.2259 9.99604V9.972L14.2211 9.86808L14.2144 9.78795H14.2138V9.78133L14.2138 9.78102V9.76909L14.2043 9.67055L14.1922 9.57879L14.1777 9.48715L14.1652 9.40996L14.1633 9.39799L14.1537 9.36452L14.1536 9.36419L14.1536 9.36387L14.1439 9.3131L14.1247 9.23396L14.1244 9.233L14.1045 9.16674H14.1027V9.16061L14.1027 9.15948L14.1027 9.15575L14.0789 9.08201L14.0547 9.00949L14.0356 8.96407L14.0355 8.96381L14.0354 8.96354L14.0283 8.94216L13.9995 8.87729L13.971 8.81556L13.9706 8.81466L13.9699 8.81335L13.9393 8.7544L13.908 8.6967L13.8744 8.64143L13.8383 8.58838L13.8022 8.53786L13.7274 8.44137L13.6456 8.35465L13.5855 8.29941L13.5231 8.2442L13.4557 8.19115L13.3931 8.14801L13.3859 8.14305L13.3306 8.10735L13.3113 8.09486L13.2657 8.07086L13.2654 8.07072L13.2316 8.05143L13.1475 8.00816L13.0586 7.9697L12.9646 7.93352L12.9643 7.9334L12.8901 7.91187L12.8899 7.9118L12.8896 7.91171L12.8636 7.90224L12.7573 7.87324L12.6465 7.84674L12.5285 7.82265L12.5201 7.82132L12.4055 7.80333L12.2752 7.78884L12.1379 7.77919L11.996 7.77439H11.8469L11.6939 7.77677L11.5347 7.78884L11.4563 7.79577L11.3704 7.80338L11.2041 7.82262L11.0303 7.84919L10.854 7.88304L10.6729 7.92167L10.6722 7.92185L10.4883 7.96484L10.4871 7.96515L10.2987 8.01585L10.1082 8.07133L10.1011 8.07359L9.91266 8.13413L9.71695 8.20423L9.56731 8.26217L9.52089 8.27986L9.51658 8.28152L9.31621 8.36358L9.11371 8.45043L9.11345 8.45057L8.90804 8.54483L8.70525 8.64505L8.70302 8.64624L8.70142 8.64704L8.49521 8.75249L8.28742 8.8637L8.07972 8.97967L7.87207 9.10285L7.72719 9.19223L7.66185 9.23099L7.607 9.26606L7.45425 9.3638L7.45388 9.36403L7.41346 9.3926L7.41327 9.39274L7.24908 9.50139L7.24513 9.5042L7.11139 9.59811L7.04123 9.64646L6.83597 9.79385L6.83562 9.79409L6.64083 9.94025L6.63312 9.94603L6.53654 10.0209L6.43023 10.1031L6.27948 10.2255H6.27998L6.26444 10.2377L6.26362 10.2384L6.2297 10.265L6.03185 10.4315L5.83622 10.6031L5.64389 10.7787L5.64301 10.7795L5.45209 10.956L5.26617 11.1395L5.26377 11.1419L5.08015 11.3256L4.90151 11.5139L4.81212 11.6107L4.72446 11.7031L4.72268 11.705L4.55131 11.9005L4.38241 12.096L4.3805 12.0989H4.38003L4.21553 12.2969L4.18661 12.333L4.05371 12.4974L3.99339 12.577L3.90803 12.6887L3.89918 12.7003L3.74703 12.9032L3.59971 13.1086L3.45716 13.3141L3.31957 13.5217L3.19131 13.7223L3.18672 13.7295L3.18547 13.7315L3.06173 13.9362L3.06114 13.9372L2.98865 14.0605L2.9379 14.1452L2.93743 14.146L2.84862 14.3093L2.84845 14.3096L2.8221 14.3527L2.82007 14.3566L2.71581 14.5581L2.71527 14.5592L2.71445 14.56L2.71294 14.5614L2.6096 14.7682L2.59271 14.8044L2.513 14.9735L2.42169 15.1778L2.37049 15.2973L2.3343 15.3817L2.33423 15.3819L2.25756 15.5808L2.25711 15.5822L2.18261 15.7792L2.18263 15.7827L2.18265 15.79H2.18047L2.11452 15.9785L2.10009 16.0266L2.0542 16.1717L2.02766 16.2658L1.99864 16.3626L1.96487 16.4929L1.9504 16.5484L1.91382 16.7061L1.91176 16.7151L1.90692 16.7345L1.87072 16.9131L1.83937 17.0892L1.83919 17.0904L1.81524 17.2607L1.81479 17.2646L1.80315 17.3717L1.79606 17.4261L1.79593 17.4271L1.78395 17.5877L1.78393 17.588V17.5884L1.78395 17.5957H1.78346L1.77422 17.746L1.7742 17.7464V17.7698L1.77422 17.7939V17.8012L1.7718 17.898L1.77422 17.9992V18.0429L1.78144 18.1823L1.78312 18.1976L1.78386 18.204L1.78389 18.2042L1.79351 18.3177L1.80557 18.4021L1.80559 18.4023L1.81028 18.4447L1.81042 18.4456L1.83204 18.5684L1.85617 18.6866L1.88191 18.7944L1.88276 18.7977L1.91394 18.901L1.93883 18.9711H1.93905L1.94027 18.9752L1.94053 18.976L1.94065 18.9763L1.94713 18.998L1.94778 19.0002L1.98395 19.0918L2.02479 19.1783L2.06568 19.2625L2.10907 19.3349L2.11009 19.3366V19.3412L2.12657 19.3659L2.15707 19.4116L2.20775 19.4817L2.26043 19.5464L2.31589 19.6067L2.37359 19.6668L2.37631 19.6693L2.43317 19.7217L2.43374 19.7222L2.4964 19.7752L2.56366 19.8257L2.6245 19.8655H2.6248L2.62675 19.867L2.63276 19.8715L2.63597 19.8739L2.71279 19.9196L2.73339 19.9305L2.79473 19.963L2.87914 20.004L2.97014 20.0423L2.97063 20.0425L3.04284 20.0696L3.06696 20.0786L3.15981 20.1074L3.16792 20.1099L3.27661 20.1389L3.38973 20.163L3.51025 20.1847L3.56032 20.1919H3.56054L3.56112 20.192L3.63601 20.204L3.74445 20.2139L3.76823 20.216L3.83478 20.2207L3.90573 20.2257L4.05062 20.2305L4.20018 20.2281L4.35693 20.2209L4.51622 20.2112L4.68255 20.1943L4.85154 20.1702L5.02471 20.1413L5.02526 20.1412L5.02848 20.1406L5.03108 20.1425L5.0352 20.1457L5.04071 20.1498L5.06781 20.1701L5.06928 20.1712L5.06972 20.1715L5.07 20.1718L5.07242 20.1738L5.13071 20.2178L5.13522 20.2209L5.13678 20.2219L5.13706 20.2221L5.13739 20.2223L5.14506 20.2281H5.14994V20.2318L5.16432 20.2426H5.16355L5.26627 20.3202L5.26781 20.3214L5.2706 20.3234L5.50449 20.4929L5.5949 20.5569L5.71222 20.6379L5.71238 20.638L5.74358 20.662L5.91265 20.7732L5.91283 20.7733L5.98512 20.8239L5.99451 20.83L6.22917 20.981L6.23374 20.9839L6.29912 21.0245L6.47301 21.1332L6.47434 21.134L6.71939 21.2782L6.72498 21.2814L6.743 21.2917L6.96179 21.4185C6.96382 21.4181 6.96589 21.4186 6.96749 21.4198H7.00399L6.97934 21.4286L6.96468 21.4339L6.897 21.4581L6.89586 21.4585L6.85837 21.4716C6.80524 21.4908 6.7523 21.5095 6.69951 21.5276L6.65054 21.5451L6.64939 21.5455L6.47153 21.6032L6.40635 21.6249L6.40613 21.6249L6.27504 21.664H6.28198L6.2272 21.6782L6.18494 21.6891C6.12201 21.707 6.05936 21.724 5.99701 21.7403L5.98549 21.7435L5.97092 21.7471C5.92798 21.7582 5.88518 21.7689 5.84253 21.7792L5.80084 21.7897H5.80802L5.74432 21.8038L5.74372 21.804L5.74352 21.804L5.70113 21.8134L5.6783 21.8185L5.50665 21.8548L5.50642 21.8548L5.45065 21.8648C5.40544 21.8735 5.36043 21.8819 5.31558 21.8898L5.26967 21.8983L5.26937 21.8984L5.24639 21.9016C5.18798 21.9114 5.12989 21.9204 5.07211 21.9287L5.03512 21.9346L5.03477 21.9346L5.00614 21.9378C4.96478 21.9434 4.92358 21.9486 4.88257 21.9534L4.80536 21.9636L4.80515 21.9636L4.80493 21.9637L4.80093 21.964L4.75334 21.9674C4.70704 21.9719 4.66095 21.976 4.61512 21.9796L4.57788 21.983L4.50526 21.9879L4.46125 21.99C4.42869 21.9918 4.39624 21.9934 4.36392 21.9947L4.35525 21.9951H4.35338L4.35232 21.9952C4.28202 21.9979 4.21233 21.9995 4.14326 21.9999L4.14 21.9999L4.12863 22C4.06868 22.0002 4.0092 21.9995 3.95019 21.9979L3.91744 21.9975L3.91715 21.9975L3.89469 21.9962C3.85952 21.9949 3.82453 21.9934 3.78971 21.9915L3.70461 21.9879L3.70414 21.9878L3.65892 21.9831H3.6587L3.65837 21.983L3.63236 21.9807C3.60815 21.9787 3.58403 21.9765 3.55999 21.9742L3.49698 21.9685H3.49674L3.49639 21.9685L3.44806 21.9636L3.44779 21.9636L3.29151 21.942H3.29119L3.29065 21.9419L3.24292 21.9347H3.24271L3.2421 21.9346L3.09231 21.908L3.04382 21.8983L2.89635 21.8668L2.896 21.8668L2.85016 21.8547L2.70759 21.8184L2.7073 21.8183L2.69084 21.8134L2.65897 21.8039L2.65815 21.8036L2.61162 21.7897H2.61406L2.52228 21.7607H2.52193L2.52066 21.7602L2.47924 21.744C2.45295 21.7349 2.42683 21.7255 2.40089 21.716L2.34325 21.6954L2.34186 21.6949L2.29837 21.678L2.16779 21.6247L2.16744 21.6246L2.16713 21.6244L2.12639 21.6029L2.00075 21.5449L2.00044 21.5447L2.00012 21.5445L1.96729 21.5252C1.94638 21.5144 1.92563 21.5034 1.90501 21.4922L1.83854 21.4577L1.83823 21.4575L1.79714 21.4333L1.68108 21.3632L1.68068 21.3629L1.62078 21.3211C1.60175 21.3084 1.58287 21.2955 1.56413 21.2824L1.53112 21.2616L1.53087 21.2614L1.5306 21.2612L1.38802 21.1524L1.37842 21.1452L1.37824 21.1451L1.32114 21.0966C1.31085 21.088 1.30062 21.0792 1.29044 21.0705L1.25002 21.0362L1.24971 21.0359L1.2324 21.0195C1.20713 20.9968 1.1822 20.9737 1.15763 20.9502L1.11932 20.9151L1.11912 20.9149L1.11894 20.9147L1.08389 20.8774C1.03565 20.8284 0.988829 20.7778 0.943501 20.7256L0.896496 20.6729L0.89636 20.6727L0.876918 20.6484L0.768105 20.5081L0.767679 20.5076L0.767363 20.5069L0.765031 20.5023L0.756353 20.4899C0.734162 20.4593 0.712406 20.4282 0.691115 20.3967L0.666177 20.3611L0.664136 20.3581L0.664001 20.358L0.663822 20.3577L0.646889 20.3311L0.645298 20.3286L0.639826 20.32L0.591273 20.2416L0.591093 20.2413L0.590957 20.241L0.590554 20.2402L0.588537 20.2362L0.586653 20.2324C0.58511 20.2298 0.583546 20.2272 0.582011 20.2247L0.574856 20.2157L0.574184 20.2149L0.57378 20.2139L0.56981 20.204C0.568844 20.2023 0.567879 20.2007 0.566918 20.199L0.564831 20.1959L0.564674 20.1956L0.56454 20.1954L0.557857 20.1834C0.554782 20.178 0.551712 20.1727 0.548662 20.1673L0.538053 20.1497L0.53792 20.1494L0.537785 20.1492L0.532538 20.1387C0.526404 20.1277 0.520296 20.1166 0.51426 20.1056L0.504258 20.0893L0.504145 20.0891L0.486742 20.0565L0.485307 20.0537L0.484725 20.0527L0.484613 20.0525L0.481809 20.0469L0.479767 20.0428L0.465326 20.0138L0.464967 20.0131L0.460077 20.0033H0.460347L0.45492 19.9918C0.445859 19.9736 0.436927 19.9554 0.42812 19.937L0.426214 19.9332L0.424644 19.9301L0.424217 19.9292L0.41897 19.9187H0.419261L0.402598 19.8836L0.398091 19.8768L0.397688 19.8762L0.397597 19.876L0.390623 19.8655H0.393291L0.380553 19.8345L0.36481 19.7978C0.362586 19.7927 0.360334 19.7875 0.358126 19.7823L0.334579 19.7305L0.334491 19.7302L0.324935 19.704L0.314733 19.6794H0.314442L0.312714 19.6746L0.312535 19.6741L0.308699 19.6649H0.309215L0.290982 19.6142L0.288358 19.6069C0.281445 19.5882 0.274626 19.5695 0.267951 19.5506L0.257299 19.5251L0.257119 19.5246L0.245008 19.4883L0.22321 19.4181L0.199124 19.3457L0.198743 19.3446V19.3395L0.19123 19.3113C0.182391 19.2807 0.173823 19.2498 0.165574 19.2187L0.155527 19.1834L0.15546 19.1832L0.150638 19.1639L0.150571 19.1636L0.145615 19.1404C0.134536 19.0953 0.124106 19.0499 0.11433 19.0042L0.107221 18.9805L0.107086 18.98L0.107019 18.9795L0.0987659 18.9284C0.0903405 18.8856 0.0824832 18.8425 0.0751733 18.7991L0.0732895 18.7916L0.0710469 18.7826H0.0719663L0.0685126 18.7584C0.0629873 18.7239 0.057799 18.6892 0.0529712 18.6543L0.0441801 18.6L0.0441352 18.5998L0.0441126 18.5995L0.0416907 18.5706L0.0399639 18.553C0.0310916 18.4779 0.0238105 18.4022 0.0180757 18.3257L0.017515 18.3189L0.0171786 18.3136C0.0147591 18.2804 0.0126192 18.247 0.0107871 18.2135L0.0102713 18.2053L0.0102489 18.2051V18.2031C0.00674175 18.1368 0.00440542 18.0699 0.00318455 18.0026L0.00300515 17.9998V17.9941C-0.00133871 17.7342 0.0112624 17.4674 0.0402553 17.1951L0.0441126 17.1527L0.0441575 17.1523L0.0476562 17.1287C0.0547959 17.0671 0.0627668 17.0052 0.0715626 16.943L0.0716749 16.942C0.0816633 16.8715 0.0927416 16.8007 0.104843 16.7295L0.106974 16.7125L0.106996 16.7123L0.107041 16.7121L0.121147 16.6371C0.126632 16.607 0.132335 16.5768 0.138192 16.5466L0.138438 16.5453L0.138483 16.5451C0.171959 16.3726 0.21148 16.1984 0.256918 16.0229L0.256961 16.0226L0.257028 16.0224C0.318118 15.7865 0.389856 15.5481 0.471987 15.3081L0.474004 15.3017H0.473467L0.477054 15.292L0.478556 15.2872H0.478804L0.485824 15.268C0.538129 15.1172 0.594513 14.9658 0.654896 14.8139L0.66075 14.7988L0.660928 14.7983L0.662004 14.796C0.673435 14.7674 0.684986 14.7387 0.696698 14.7101C1.36021 13.0879 2.47678 11.4217 3.9491 9.94888L4.01828 9.8801C4.04291 9.85573 4.06763 9.83148 4.09239 9.80731H4.09087L4.10161 9.79834C4.90604 9.01398 5.76479 8.33499 6.64017 7.77679H6.62228L6.65933 7.76454C6.73814 7.71447 6.81711 7.66541 6.89614 7.6173H6.89549L6.89934 7.61535C6.98085 7.56577 7.06249 7.51726 7.1442 7.4698L7.14492 7.46937C7.66558 7.16696 8.18949 6.90777 8.70894 6.69514C8.93194 6.60385 9.15415 6.52119 9.37489 6.44728L9.3751 6.44719ZM10.7558 8.78963C10.758 8.78736 10.7614 8.7868 10.7642 8.78824L10.7655 8.78906L10.8356 8.84612C13.7991 11.2703 15.8237 14.6755 15.9891 17.5258L15.9926 17.5929C16.0111 17.9774 15.9947 18.3416 15.9456 18.6835H15.946L15.945 18.6874C15.9171 18.8809 15.8786 19.0673 15.83 19.2462L15.8299 19.2467H15.8324L15.8276 19.2562L15.8276 19.2564L15.8272 19.2572L15.8267 19.2582C15.7416 19.5677 15.626 19.8546 15.4817 20.117L15.4794 20.1223L15.4791 20.123L15.4786 20.1237L15.4766 20.1263C15.4612 20.1541 15.4455 20.1816 15.4295 20.2088H15.4301L15.4237 20.2193L15.422 20.2233H15.4213L15.4194 20.2265L15.4184 20.2281H15.4224L15.4227 20.2281L15.4112 20.2395C15.3909 20.2733 15.37 20.3066 15.3487 20.3395L15.3388 20.3553L15.2855 20.4352L15.2854 20.4353L15.2853 20.4355L15.2686 20.4577C15.2461 20.4895 15.2231 20.5208 15.1997 20.5517L15.179 20.5804L15.1789 20.5806L15.1788 20.5808L15.139 20.6292C15.1197 20.6531 15.1001 20.6767 15.0802 20.7L15.0627 20.7211L15.0625 20.7213L15.0531 20.7315C15.0231 20.7658 14.9924 20.7995 14.9611 20.8326L14.9418 20.8542L14.881 20.915L14.8133 20.9803L14.8131 20.9805L14.7809 21.009C14.7289 21.0563 14.6753 21.1021 14.6203 21.1462L14.6099 21.1547L14.5373 21.2128L14.5371 21.2129L14.5369 21.213L14.4682 21.2612C14.4267 21.2908 14.3844 21.3196 14.3414 21.3475L14.3145 21.3654L14.2347 21.4163L14.2345 21.4164L14.157 21.46L14.1227 21.4786C14.1073 21.4871 14.0919 21.4955 14.0763 21.5038L14.0723 21.506L14.0699 21.5072C14.0403 21.5229 14.0105 21.5382 13.9804 21.5532L13.9054 21.5907L13.9051 21.5908L13.8229 21.6271L13.7334 21.6658L13.7332 21.6659L13.6462 21.6997L13.6375 21.7029C13.6105 21.7132 13.5833 21.7232 13.5559 21.733L13.5542 21.7336L13.554 21.7337L13.5526 21.7342C13.5 21.7529 13.4466 21.7706 13.3924 21.7874L13.3729 21.7941L13.3725 21.7942L13.3353 21.8047C13.3028 21.8143 13.2701 21.8235 13.2371 21.8324L13.184 21.8474L13.1837 21.8475L13.1433 21.8566C13.1087 21.8651 13.0739 21.8732 13.0388 21.881L12.988 21.8934L12.9878 21.8934L12.9875 21.8935L12.9557 21.8989L12.9432 21.9011C12.9003 21.9096 12.8569 21.9176 12.8132 21.9251L12.7895 21.9297L12.7892 21.9298L12.7888 21.9299L12.7564 21.9345C12.7067 21.9423 12.6566 21.9495 12.6059 21.956L12.5862 21.9588L12.5857 21.9589H12.5854L12.5507 21.9627C12.5335 21.9647 12.5163 21.9667 12.499 21.9685L12.4773 21.9709L12.3781 21.9806L12.3778 21.9806L12.3449 21.9826C12.3044 21.9858 12.2636 21.9885 12.2225 21.9908L12.1652 21.9951L12.165 21.9951H12.1636L12.1006 21.9963C12.0579 21.9977 12.015 21.9987 11.9718 21.9992L11.9475 21.9999L11.9472 22L11.9188 21.9996C11.8618 21.9998 11.8043 21.9992 11.7462 21.9977L11.7273 21.9975L11.6458 21.9951H11.6449L11.5031 21.9879H11.5024L11.5021 21.9879L11.438 21.9829C11.4187 21.9815 11.3994 21.9801 11.38 21.9785L11.275 21.9709L11.2746 21.9709L11.2018 21.962C11.1637 21.958 11.1256 21.9536 11.0874 21.949L11.0451 21.9443L11.0449 21.9443L10.9856 21.936C10.9764 21.9347 10.9672 21.9334 10.9579 21.9321L10.9411 21.9298L10.9364 21.9291C10.904 21.9245 10.8716 21.9197 10.8392 21.9147L10.8113 21.9105H10.811L10.8104 21.9105L10.7041 21.8935L10.5735 21.8693L10.5166 21.8577C10.4857 21.8516 10.4548 21.8453 10.4238 21.8389L10.3341 21.8209L10.3338 21.8209L10.2605 21.8029C10.2132 21.7921 10.1659 21.7808 10.1185 21.7691L10.0922 21.7629L10.052 21.7524C10.0237 21.7451 9.99536 21.7378 9.967 21.7302L9.85042 21.7L9.85017 21.6999L9.73665 21.6661L9.60377 21.6274L9.49115 21.5915L9.48994 21.5911L9.48617 21.5899L9.44573 21.5769H9.44671L9.35706 21.5476L9.35684 21.5475L9.29736 21.526C9.26063 21.5134 9.22388 21.5004 9.18711 21.4873L9.10808 21.4605L9.10781 21.4605L8.99431 21.4169L8.85899 21.3661L8.85875 21.3661L8.75741 21.3238C8.74253 21.3178 8.72761 21.3118 8.71273 21.3057L8.60993 21.2646L8.60972 21.2645L8.4938 21.2138L8.35848 21.1557L8.35822 21.1556L8.28496 21.1205C8.25436 21.1065 8.22376 21.0924 8.19314 21.0781L8.10708 21.0397L8.10679 21.0395L7.99077 20.9815L7.85558 20.9163L7.85537 20.9162L7.73938 20.8558L7.60407 20.7857L7.48798 20.7228L7.35666 20.6511L7.35492 20.6502L7.35394 20.6496L7.33014 20.6366H7.33123L7.23822 20.5835L7.23646 20.5824L7.23488 20.5815L7.21287 20.5689H7.21326L7.10358 20.5051L6.98928 20.4384L6.98749 20.4374L6.98624 20.4366L6.96446 20.4239H6.96505L6.8545 20.3575L6.74029 20.2861L6.73847 20.285L6.73228 20.2811L6.71711 20.2716L6.67325 20.2439L6.67257 20.2435L6.67198 20.2429L6.67024 20.2412L6.66733 20.2394L6.65886 20.2343L6.6413 20.2233L6.63939 20.2222L6.61281 20.2052L6.60906 20.2027L6.60541 20.2003L6.57641 20.181L6.53544 20.1544L6.53349 20.1531L6.51488 20.1411H6.51541L6.5025 20.1325C6.49278 20.1261 6.48309 20.1198 6.4734 20.1134L6.42431 20.0819L6.35897 20.0383L6.35835 20.038L6.35587 20.0355L6.32384 20.0138C6.30539 20.0013 6.28696 19.9888 6.26854 19.9763L6.20125 19.9308L6.19937 19.9295L6.19672 19.9277L6.17987 19.9163L6.1148 19.8715L6.10947 19.8679L6.10742 19.8666L6.08774 19.8535H6.08932L6.03312 19.8127C5.98691 19.7799 5.94077 19.7469 5.89476 19.7135L5.87084 19.6975L5.87053 19.6973L5.79564 19.6417L5.67959 19.5547L5.62901 19.5185L5.62872 19.5183L5.55862 19.4627L5.43309 19.3661L5.43288 19.3659L5.41161 19.3484C5.37769 19.3217 5.34379 19.2949 5.30999 19.2679L5.30253 19.2621L5.16715 19.1533L5.15506 19.1436L5.13897 19.1307H5.13948L5.02932 19.0396L4.92055 18.9477L4.88913 18.9211L4.81794 18.8583C4.78923 18.8334 4.76056 18.8084 4.73194 18.7833L4.69101 18.7495L4.69073 18.7493L4.6118 18.6767C4.59382 18.6606 4.57587 18.6445 4.55797 18.6283L4.46365 18.5438L4.45131 18.5315L4.4076 18.4906C4.32959 18.4184 4.25211 18.3452 4.17523 18.2711L4.15423 18.2512L4.12695 18.2244C4.03888 18.1389 3.95158 18.0522 3.86509 17.9644L3.8036 17.9029L3.69729 17.7917L3.59553 17.6852L3.59334 17.6829L3.54503 17.6321L3.39289 17.4655L3.38567 17.4582L3.38551 17.458L3.31607 17.3791C3.2794 17.3381 3.24292 17.2969 3.20664 17.2554L3.18241 17.2283L3.09293 17.1243L3.08477 17.1147C3.05798 17.0833 3.0313 17.0519 3.00472 17.0203L2.98414 16.9961L2.97401 16.9842L2.94308 16.9477L2.79781 16.7715H2.79734L2.79519 16.7682L2.79031 16.7609L2.7885 16.7582L2.78934 16.755L2.81835 16.6463L2.83528 16.5785L2.84737 16.535L2.88125 16.4213L2.91685 16.3097L2.91755 16.3075L2.91837 16.3049L2.94829 16.213L2.95138 16.2035L2.95563 16.1908L2.9562 16.189L2.99486 16.073L3.03841 15.952L3.08668 15.8313L3.08899 15.8221L3.0891 15.8216L3.0893 15.8211L3.13521 15.7099L3.16901 15.6254L3.16907 15.6252L3.18598 15.5865L3.23917 15.4632L3.25364 15.4294L3.25376 15.4292L3.29723 15.3373L3.29764 15.3364L3.34091 15.2413H3.3404L3.34564 15.2308L3.3521 15.2179L3.3553 15.2115L3.35733 15.2075L3.44523 15.0316L3.48096 14.9601L3.54872 14.8318L3.55421 14.8214L3.56099 14.831L3.56159 14.8318L3.70289 15.0307L3.70352 15.0315L3.84839 15.2296L3.93053 15.336L3.9985 15.425L4.00065 15.4278L4.15517 15.6235L4.31461 15.8192L4.47636 16.0124L4.57312 16.1219L4.63096 16.1865L4.63112 16.1866L4.64322 16.2011L4.6434 16.2014L4.81214 16.3894L4.98599 16.5754L5.05121 16.6431L5.15752 16.7519L5.15799 16.7523L5.15836 16.7529L5.16281 16.7595L5.3434 16.9378L5.39412 16.9862L5.52698 17.1142L5.52849 17.1157L5.71158 17.2845L5.71298 17.2858L5.90138 17.4549L5.90162 17.4551L5.9182 17.4676H5.91593L6.09209 17.6215L6.28338 17.7794L6.28535 17.781L6.48108 17.9381L6.6771 18.0888L6.67924 18.0904L6.68061 18.0915L6.87694 18.24L6.99536 18.3222L6.99553 18.3223L7.07749 18.3826L7.27804 18.5204L7.47857 18.6557L7.68126 18.7837L7.88417 18.9093L7.93229 18.9358L7.93252 18.9359L7.95697 18.9494H7.95516L8.08695 19.0277L8.27306 19.1316L8.29003 19.1413L8.49267 19.2499L8.6304 19.32L8.69236 19.3534L8.6933 19.3539L8.89357 19.4504L9.09158 19.5422L9.28955 19.6292L9.29172 19.63L9.48707 19.7087L9.48756 19.7089L9.68088 19.7838L9.71943 19.7978L9.8738 19.8538L10.0645 19.9166L10.2505 19.9721L10.434 20.0229L10.4351 20.0232L10.4436 20.0253L10.6149 20.0688L10.7938 20.1074L10.9668 20.1411L10.9673 20.1412L11.1363 20.1677L11.2765 20.1871L11.2768 20.1871L11.3032 20.1919L11.4621 20.2088L11.6192 20.2209L11.6253 20.2212L11.7712 20.2281L11.917 20.2305H11.9181L12.0607 20.2281H12.0617L12.1955 20.2209L12.3281 20.2088L12.4511 20.192L12.5181 20.181L12.5692 20.1727L12.6825 20.1485L12.7888 20.122L12.7893 20.1218L12.8922 20.0907L12.9676 20.0656L12.9863 20.0593L13.0776 20.0233L13.1646 19.9846L13.2462 19.9438L13.3233 19.9004L13.3953 19.8548L13.4317 19.8288L13.463 19.8065L13.4743 19.7974L13.4828 19.7906H13.4817L13.4991 19.7775L13.5276 19.7561L13.5879 19.7031L13.6457 19.6477L13.6461 19.6473L13.7012 19.5898L13.7541 19.5296L13.8046 19.4646L13.8527 19.3972L13.8983 19.3253L13.9418 19.2503L13.9825 19.1689L14.0186 19.0845L14.0548 18.9929L14.0886 18.8962L14.1175 18.7951L14.1464 18.6892L14.1502 18.669L14.1681 18.5757L14.1801 18.5034L14.1802 18.5032L14.1898 18.4551L14.2042 18.3297L14.2043 18.329L14.2163 18.1995L14.2259 18.0644L14.2283 17.9246L14.2259 17.7772L14.2211 17.6253L14.2211 17.625L14.2096 17.4821H14.209V17.4755L14.209 17.4751V17.4705L14.204 17.4222L14.1921 17.309L14.192 17.3081L14.1849 17.2608L14.1706 17.1458L14.1704 17.1448L14.1701 17.1425L14.1415 16.9735L14.1077 16.7996L14.0692 16.6237L14.0691 16.6235L14.0619 16.5969L14.0232 16.4421L14.0223 16.4389L13.9729 16.2576L13.9725 16.2561L13.917 16.0704L13.8638 15.9108L13.8542 15.8795L13.7859 15.6934H13.7855L13.7841 15.6884L13.7117 15.493L13.6853 15.4328L13.6852 15.4325L13.6324 15.2981L13.632 15.2972L13.5452 15.0993L13.4534 14.8988L13.3612 14.7095H13.3604L13.3588 14.7045L13.3565 14.6978L13.2556 14.4981L13.2338 14.4618L13.2337 14.4616L13.2336 14.4615L13.1468 14.2949L13.1009 14.2152L13.0333 14.092L13.0283 14.0837L12.9125 13.8914L12.9101 13.8876L12.8131 13.7305L12.811 13.7271L12.8042 13.716H12.8048L12.7893 13.6885L12.6593 13.4861L12.6574 13.4842L12.6569 13.4837L12.6565 13.4832L12.5237 13.285L12.386 13.0845L12.3208 12.9951L12.2419 12.885L12.241 12.8839L12.142 12.751L12.0938 12.6859L11.9392 12.4877L11.7843 12.2947L11.7835 12.2937L11.7822 12.292L11.6228 12.0988L11.6223 12.0982L11.5671 12.036L11.5648 12.0335L11.564 12.0326L11.5542 12.0215H11.5547L11.4594 11.9088L11.4585 11.9078L11.4577 11.9069L11.2895 11.7194L11.1445 11.5623L11.1443 11.5621L11.1177 11.5307L10.9417 11.3473L10.9249 11.3304L10.763 11.1661L10.5828 10.9907L10.5818 10.9897L10.461 10.8737L10.3984 10.8134L10.2192 10.6534H10.219L10.2169 10.6512L10.2097 10.6441L10.0191 10.4751L10.0181 10.4742L9.82834 10.3133L9.82582 10.3112L9.6332 10.1542L9.63265 10.1538L9.4371 9.99922L9.23894 9.84935L9.23696 9.84783L9.04083 9.7019L8.86951 9.58364L8.86926 9.58346L8.8411 9.56231L8.84044 9.56186L8.83083 9.55511L8.83122 9.55487L8.84118 9.54952L8.96684 9.48182L9.09502 9.4165L9.16428 9.38186H9.15878L9.19195 9.36803L9.19219 9.3679L9.22095 9.35593L9.34653 9.29555L9.46989 9.23989L9.59313 9.18428L9.59336 9.1842L9.71596 9.13368L9.7166 9.13343L9.83736 9.08268L9.83757 9.0826L9.95595 9.03671L10.0362 9.0072H10.03L10.074 8.99328L10.0745 8.99312L10.193 8.952L10.1932 8.9519L10.3092 8.91568L10.4227 8.87943L10.423 8.87932L10.5366 8.84792L10.6477 8.81648L10.648 8.81642L10.7518 8.78986L10.7526 8.78963H10.7558ZM12.4514 14.8318L12.5191 14.9599L12.5844 15.0881L12.5845 15.0883L12.6449 15.214L12.7024 15.3386L12.7038 15.3401L12.7163 15.3525H12.71L12.7609 15.4631L12.8142 15.5865L12.8673 15.7098L12.8674 15.71L12.9139 15.8287H12.9146L12.9158 15.8337L12.9617 15.9518L13.0052 16.0728L13.0059 16.0749L13.0463 16.1913L13.085 16.3074L13.0923 16.3292L13.1204 16.4184L13.1212 16.421L13.1214 16.4214L13.1528 16.5349L13.1624 16.5662L13.1625 16.5665L13.1842 16.6462L13.1843 16.6465L13.2097 16.7529C13.2119 16.7549 13.2126 16.7581 13.2116 16.7608L13.2116 16.7611L13.2113 16.7615C13.211 16.7619 13.2108 16.7624 13.2104 16.7628C13.209 16.7645 13.2076 16.7663 13.2062 16.768L13.1757 16.8073L13.1755 16.8075L13.1023 16.8952C12.9612 17.066 12.8163 17.2344 12.6678 17.3999L12.6486 17.4216L12.6485 17.4218L12.6424 17.4281C12.5262 17.5571 12.4079 17.6843 12.2875 17.8097L12.2546 17.8448L12.2291 17.8703C11.9689 18.1387 11.6994 18.3986 11.4219 18.6484L11.4215 18.6493L11.4204 18.6502L11.3856 18.6811C11.3412 18.7208 11.2966 18.7603 11.2519 18.7995L11.232 18.8169L11.2193 18.8285H11.2215L11.2055 18.8411L11.2034 18.843H11.2031L11.1912 18.8524C11.1439 18.8934 11.0964 18.934 11.0487 18.9744L11.0096 19.0081L11.0094 19.0082L10.9967 19.0184C10.9199 19.0829 10.8425 19.1468 10.7646 19.2098L10.7633 19.2109L10.7604 19.2136L10.7565 19.2126L10.7533 19.2117L10.6486 19.1838L10.6479 19.1836L10.5367 19.1546L10.423 19.1232L10.4227 19.1231L10.3092 19.0868L10.2318 19.061L10.1931 19.0481L10.0747 19.0095L10.0745 19.0094L9.95609 18.9658L9.83519 18.9199L9.83494 18.9198L9.71547 18.8696L9.7142 18.8691L9.65028 18.843L9.64886 18.8425L9.59369 18.8184L9.5933 18.8183L9.47141 18.7657L9.46999 18.7651L9.34419 18.707L9.34327 18.7066L9.2272 18.6521H9.22665L9.22533 18.6512L9.22478 18.6508L9.22115 18.6484L9.21796 18.6463L9.09279 18.5861L9.09258 18.586L8.9669 18.5207L8.84128 18.4554L8.83741 18.4534L8.83737 18.4491L8.83735 18.4467L8.83733 18.4429L8.8404 18.4407L9.07567 18.2726H9.07541L9.08957 18.2626L9.0941 18.2594L9.34052 18.0763L9.34772 18.0709L9.34821 18.0705L9.59879 17.8753L9.84757 17.6723L10.0916 17.4621L10.333 17.2472L10.3885 17.194L10.5673 17.0248L10.6056 16.9865H10.6053L10.6164 16.9757L10.6179 16.9742L10.6201 16.9721L10.792 16.8047L10.7992 16.7977L10.9371 16.6554L10.9489 16.6431L10.951 16.6409L11.0262 16.5633L11.0551 16.532L11.159 16.4184L11.2461 16.3265L11.4609 16.0851L11.4729 16.0706L11.5769 15.9497L11.6691 15.8432H11.6688L11.6782 15.8314L11.6802 15.8287L11.7773 15.7081L11.874 15.5921L11.8784 15.5854L11.8786 15.5851L11.8788 15.5849L11.9754 15.4617L12.0628 15.3495L12.0696 15.3408L12.2579 15.0872L12.4391 14.831L12.4459 14.8214L12.4514 14.8318ZM2.93571 6.12634C3.83496 5.92097 4.88978 5.96614 6.02945 6.26783L6.05221 6.27328H6.04997C6.33185 6.34859 6.6189 6.43953 6.91 6.54626L6.96728 6.56744L6.96858 6.56809C6.9697 6.5688 6.97058 6.56982 6.97116 6.57096L6.97946 6.57397L6.96958 6.57956C6.96878 6.58029 6.96784 6.58082 6.96681 6.58113L6.96579 6.58173L6.76099 6.69821L6.7182 6.7226L6.47303 6.86925L6.33384 6.9539L6.14936 7.06979L6.05516 7.13025L5.95594 7.19403L5.85432 7.26217L5.75565 7.32837L5.57256 7.45609L5.5707 7.458L5.57024 7.45845L5.56975 7.45878L5.43313 7.55536L5.40779 7.57374H5.40825L5.40259 7.57748L5.27746 7.66816L5.25334 7.68593L5.20985 7.7188H5.21087L5.19324 7.73158L5.19123 7.73329H5.19095L5.18365 7.73856L5.14266 7.76954V7.77159L5.1387 7.77358L5.13461 7.7756L5.12364 7.7839L5.11444 7.7913H5.11827L5.09876 7.80432L5.09695 7.80582H5.09654L5.09292 7.80822L5.08039 7.81659L5.04067 7.84658L5.03151 7.85473L5.02901 7.85695L5.02788 7.85679L5.02514 7.85818L5.02315 7.85919L5.02098 7.8589L5.00976 7.85751L5.00163 7.8565L5.00124 7.85643L4.8929 7.83718L4.83118 7.82868L4.76972 7.82025L4.64648 7.80577L4.52623 7.79373L4.5259 7.79371L4.41047 7.78408L4.41006 7.78406L4.35381 7.78051L4.29407 7.77679L4.18321 7.77437H4.12037L4.07491 7.77197L4.05369 7.77432L4.05328 7.77437H3.96864L3.86493 7.77917L3.76341 7.78648L3.76316 7.7865H3.76294L3.66708 7.79608L3.57315 7.80811L3.48379 7.82262L3.39721 7.83705L3.32232 7.85414L3.31267 7.85636L3.23304 7.8757L3.15735 7.89697L3.15597 7.89735L3.11793 7.90841L3.08112 7.91911L3.01164 7.94305L2.94427 7.96952L2.87903 7.99855L2.81634 8.02752L2.75628 8.05873L2.69849 8.09005L2.64323 8.12372L2.59023 8.15988L2.54036 8.19548L2.53991 8.19581L2.49865 8.22882L2.44339 8.27305L2.35711 8.35459L2.35688 8.35483L2.27514 8.44139L2.19792 8.53794L2.1619 8.58838L2.12602 8.64093L2.10925 8.67221L2.10907 8.6725L2.09548 8.69504L2.09466 8.69652L2.06094 8.7543L2.0297 8.81443L2.01959 8.83798H2.02026L2.01546 8.84766L2.01526 8.84811L2.01508 8.84848L2.00073 8.87717L1.97426 8.94214L1.94782 9.00949L1.94219 9.02636L1.9406 9.03122L1.94049 9.03152L1.92123 9.08207L1.89958 9.15655L1.89846 9.16067L1.8827 9.21703L1.87785 9.2339L1.85617 9.31347L1.84105 9.3891H1.84139L1.83962 9.39637L1.83932 9.3977L1.82289 9.4845L1.82241 9.48711L1.80797 9.57879L1.80674 9.59108L1.80562 9.60252L1.80497 9.60906H1.80468L1.79588 9.67055L1.78628 9.76895V9.76932L1.78631 9.80006V9.8003L1.78628 9.80057L1.78144 9.86806L1.77664 9.972L1.77662 9.97222L1.77422 10.0782V10.1867L1.77664 10.3002L1.78346 10.4068H1.78389V10.4135L1.79223 10.5162L1.79353 10.5318L1.8032 10.6284L1.80546 10.6512L1.80559 10.6526L1.82006 10.7731L1.83937 10.8987L1.8611 11.0268L1.86162 11.0299L1.8598 11.0323L1.83322 11.0686L1.68312 11.2664L1.68102 11.2692L1.50945 11.506L1.343 11.7449L1.3413 11.7484H1.34069L1.21235 11.9385L1.1792 11.9859L1.17853 11.9869L1.17662 11.9898L1.07954 12.1415L1.02164 12.2283L0.949131 12.3468L0.869472 12.4724L0.868732 12.4737L0.82361 12.5521L0.725359 12.7174L0.724529 12.7188L0.702822 12.7575L0.62065 12.9026L0.585643 12.9632C0.585329 12.9647 0.584552 12.9661 0.583401 12.9671L0.576785 12.9786L0.571335 12.9644L0.547182 12.9016L0.547092 12.9014L0.496408 12.7565L0.481899 12.7178L0.481809 12.7175L0.426259 12.5508L0.426191 12.5506L0.41092 12.5001C0.404076 12.4787 0.397314 12.4574 0.390645 12.4361L0.360975 12.3453L0.360908 12.345L0.327067 12.2266L0.302913 12.1395L0.259406 11.9848L0.259338 11.9846L0.247274 11.9362L0.201389 11.7429L0.198945 11.7332L0.198877 11.733L0.150571 11.5081L0.150414 11.5074V11.5024L0.148911 11.4946C0.138497 11.4422 0.128656 11.39 0.119376 11.338L0.109531 11.286L0.104709 11.2667L0.104642 11.2664L0.104597 11.266L0.0731774 11.0654L0.0731325 11.0651L0.07311 11.0648L0.0709348 11.0326C0.0655769 10.9938 0.0605673 10.955 0.0558642 10.9165L0.0538234 10.9009L0.0474094 10.8516L0.0465348 10.8451L0.0464451 10.8442L0.0455031 10.8371L0.039291 10.7749L0.027876 10.6606L0.0271585 10.654L0.025454 10.6364H0.0250951L0.0247588 10.6295L0.0247363 10.6292L0.024041 10.6219H0.0243776L0.0208566 10.552C0.0179996 10.5109 0.015537 10.47 0.0134558 10.4293L0.0128279 10.4196L0 10.4068H0.0101143L0.00784924 10.3006L0.00542718 10.2088V10.1715C0.00495637 10.1276 0.00496404 10.084 0.00542718 10.0406V9.97151L0.00547205 9.97093L0.00820806 9.91195C0.00926385 9.8794 0.0105401 9.84697 0.0121327 9.81471L0.0126709 9.80006L0.0126485 9.76866V9.76837L0.0126709 9.76811L0.0199371 9.66899L0.0242206 9.60906L0.0247139 9.60205L0.0247811 9.60131L0.0248037 9.60111L0.0272031 9.57694L0.036869 9.48504L0.0465123 9.40553V9.39574L0.0466244 9.39514L0.0579049 9.32923C0.0597475 9.31619 0.0616401 9.30316 0.0635788 9.29016L0.0697686 9.23923L0.0707552 9.23097L0.0731549 9.21404L0.0732221 9.21365L0.08531 9.15321L0.0997975 9.07832L0.109463 9.02757L0.109508 9.02736L0.114307 9.00568L0.128817 8.938L0.141376 8.88147H0.141062L0.143327 8.87246L0.150616 8.84348L0.150683 8.84325L0.160349 8.80939L0.164699 8.79385C0.170618 8.77125 0.176663 8.7487 0.18291 8.7263L0.189458 8.70019H0.188942L0.191768 8.69084L0.193069 8.6857H0.193316L0.199057 8.66668L0.20583 8.6446L0.208408 8.63618L0.208699 8.63522L0.210269 8.63011L0.225655 8.58197L0.23079 8.56647C0.235114 8.55303 0.239529 8.5396 0.243977 8.52624L0.252163 8.49759L0.25223 8.49738L0.274028 8.43434L0.274118 8.43409L0.307848 8.34737L0.312691 8.3329L0.312781 8.33262L0.312894 8.33235L0.326954 8.29951C0.339321 8.26861 0.352004 8.23792 0.365079 8.20753L0.373131 8.18773L0.377952 8.17334L0.378155 8.17271L0.378491 8.17213L0.389008 8.15311C0.390082 8.15071 0.391182 8.14832 0.39226 8.14592L0.400692 8.12489H0.399639L0.404886 8.1144L0.406478 8.1104H0.406905L0.421707 8.08076L0.436193 8.04935L0.445949 8.02819H0.444603L0.450995 8.01729L0.466537 7.99068C0.469999 7.98385 0.473463 7.97702 0.476966 7.97022L0.482213 7.9597L0.484209 7.95568L0.487863 7.94931C0.492436 7.94057 0.497041 7.93185 0.501679 7.92315L0.508787 7.90893L0.510806 7.90494H0.51103L0.520876 7.88717L0.530564 7.86783L0.531079 7.8668L0.531886 7.86599L0.533682 7.86415L0.534668 7.8626C0.540675 7.85183 0.546746 7.8411 0.552856 7.83041L0.554694 7.82675L0.554897 7.82635L0.555143 7.82597L0.556916 7.82327C0.559808 7.81824 0.56279 7.81324 0.565707 7.80822H0.565258L0.571874 7.79723L0.573667 7.79373H0.573981L0.577547 7.78783L0.578355 7.7865H0.576672L0.583759 7.7758L0.583895 7.77558L0.584141 7.7752L0.588289 7.76898L0.588828 7.7682L0.59098 7.76387L0.592595 7.76064V7.75747L0.595645 7.75745L0.609236 7.73329H0.608742L0.615358 7.7223L0.615942 7.72131L0.617354 7.7188L0.622646 7.71023L0.622804 7.70996L0.703158 7.58825H0.701543L0.709526 7.57737L0.711344 7.57376L0.712217 7.57374L0.804256 7.44857L0.804569 7.44815L0.804951 7.44774L0.807261 7.44543L0.816859 7.43332C0.836916 7.40723 0.857336 7.38143 0.878129 7.35594L0.908313 7.31785L0.908584 7.31753L0.939488 7.28283C0.96116 7.25774 0.983224 7.23297 1.00564 7.2085L1.02697 7.18459L1.02711 7.18443L1.02726 7.1843L1.04094 7.17059C1.06264 7.14764 1.08465 7.12494 1.10701 7.10257C1.11521 7.09437 1.12345 7.08622 1.13173 7.07812L1.15041 7.05869L1.15059 7.05851L1.15077 7.05835L1.17999 7.03181C1.20862 7.00485 1.23771 6.9784 1.26723 6.95248H1.26608L1.28057 6.94043L1.29207 6.93081C1.32875 6.89924 1.36613 6.86849 1.40412 6.83852L1.41926 6.82607L1.41955 6.82582L1.43693 6.81294C1.56616 6.7135 1.70274 6.62312 1.84616 6.54182L1.86962 6.52807L1.8698 6.52796L1.8844 6.52044C1.93087 6.49484 1.97804 6.47017 2.02589 6.44645L2.03177 6.44331L2.03215 6.44313L2.0399 6.43954C2.08898 6.41547 2.13879 6.39239 2.18927 6.37029L2.19884 6.36582L2.19904 6.36573L2.20613 6.36288C2.28017 6.33089 2.35571 6.30106 2.43268 6.27328H2.43036L2.46795 6.26072C2.53927 6.23571 2.61181 6.21252 2.68551 6.1911H2.67959L2.72804 6.17897C2.7898 6.16171 2.85235 6.14568 2.91568 6.13091L2.92499 6.12847L2.92523 6.1284L2.93571 6.12634Z" fill="white"/>
<path d="M25.72 21V6.8H30.82C32.5267 6.8 33.8133 7.10667 34.68 7.72C35.5467 8.33333 35.98 9.30667 35.98 10.64C35.98 11.24 35.8533 11.7667 35.6 12.22C35.3467 12.6733 34.9733 13.0333 34.48 13.3C34 13.5533 33.4267 13.6867 32.76 13.7L32.74 13.62C33.9533 13.6467 34.8933 13.98 35.56 14.62C36.24 15.2467 36.58 16.0733 36.58 17.1C36.58 18.3933 36.1467 19.3667 35.28 20.02C34.4133 20.6733 33.18 21 31.58 21H25.72ZM27.88 19.06H31.52C32.4133 19.06 33.1067 18.88 33.6 18.52C34.1067 18.1467 34.36 17.6067 34.36 16.9C34.36 16.2067 34.1067 15.6667 33.6 15.28C33.1067 14.8933 32.4133 14.7 31.52 14.7H27.88V19.06ZM27.88 12.86H30.78C31.7267 12.86 32.46 12.68 32.98 12.32C33.5 11.96 33.76 11.4533 33.76 10.8C33.76 10.1067 33.5067 9.59333 33 9.26C32.5067 8.91333 31.7667 8.74 30.78 8.74H27.88V12.86ZM38.6742 21V10.36H40.6142L40.6942 13.18L40.5142 13.12C40.6609 12.16 40.9542 11.46 41.3942 11.02C41.8476 10.58 42.4542 10.36 43.2142 10.36H44.2342V12.26H43.2142C42.6809 12.26 42.2342 12.3467 41.8742 12.52C41.5142 12.6933 41.2409 12.96 41.0542 13.32C40.8809 13.68 40.7942 14.1467 40.7942 14.72V21H38.6742ZM49.7245 21.24C48.7112 21.24 47.8245 21.0133 47.0645 20.56C46.3045 20.1067 45.7179 19.46 45.3045 18.62C44.8912 17.78 44.6845 16.8 44.6845 15.68C44.6845 14.5467 44.8912 13.5667 45.3045 12.74C45.7179 11.9133 46.3045 11.2733 47.0645 10.82C47.8245 10.3533 48.7112 10.12 49.7245 10.12C50.7379 10.12 51.6245 10.3533 52.3845 10.82C53.1445 11.2733 53.7312 11.9133 54.1445 12.74C54.5579 13.5667 54.7645 14.5467 54.7645 15.68C54.7645 16.8 54.5579 17.78 54.1445 18.62C53.7312 19.46 53.1445 20.1067 52.3845 20.56C51.6245 21.0133 50.7379 21.24 49.7245 21.24ZM49.7245 19.4C50.6312 19.4 51.3312 19.0733 51.8245 18.42C52.3179 17.7533 52.5645 16.84 52.5645 15.68C52.5645 14.52 52.3179 13.6133 51.8245 12.96C51.3312 12.2933 50.6312 11.96 49.7245 11.96C48.8312 11.96 48.1312 12.2933 47.6245 12.96C47.1312 13.6133 46.8845 14.52 46.8845 15.68C46.8845 16.84 47.1312 17.7533 47.6245 18.42C48.1312 19.0733 48.8312 19.4 49.7245 19.4ZM58.355 21L55.115 10.36H57.335L59.615 18.68L61.955 10.36H63.955L66.295 18.68L68.595 10.36H70.815L67.575 21H65.195L62.955 13.4L60.715 21H58.355ZM75.9102 21.24C74.9102 21.24 74.0635 21.0867 73.3702 20.78C72.6902 20.4733 72.1635 20.0533 71.7902 19.52C71.4168 18.9733 71.2035 18.3467 71.1502 17.64L73.3302 17.54C73.4368 18.1267 73.6902 18.5933 74.0902 18.94C74.4902 19.2867 75.0968 19.46 75.9102 19.46C76.5768 19.46 77.1035 19.3533 77.4902 19.14C77.8768 18.9267 78.0702 18.5867 78.0702 18.12C78.0702 17.8667 78.0035 17.6533 77.8702 17.48C77.7502 17.2933 77.5102 17.14 77.1502 17.02C76.7902 16.8867 76.2568 16.76 75.5502 16.64C74.4968 16.44 73.6702 16.2067 73.0702 15.94C72.4702 15.6733 72.0435 15.3333 71.7902 14.92C71.5368 14.5067 71.4102 14.0067 71.4102 13.42C71.4102 12.4467 71.7702 11.6533 72.4902 11.04C73.2235 10.4267 74.2768 10.12 75.6502 10.12C76.5702 10.12 77.3435 10.28 77.9702 10.6C78.5968 10.9067 79.0835 11.3267 79.4302 11.86C79.7902 12.38 80.0168 12.9667 80.1102 13.62L77.9302 13.74C77.8635 13.3667 77.7302 13.0467 77.5302 12.78C77.3435 12.5 77.0902 12.2867 76.7702 12.14C76.4502 11.98 76.0702 11.9 75.6302 11.9C74.9502 11.9 74.4435 12.0333 74.1102 12.3C73.7768 12.5667 73.6102 12.9133 73.6102 13.34C73.6102 13.66 73.6835 13.92 73.8302 14.12C73.9902 14.32 74.2435 14.4867 74.5902 14.62C74.9368 14.74 75.3968 14.8467 75.9702 14.94C77.0768 15.1267 77.9435 15.36 78.5702 15.64C79.1968 15.9067 79.6368 16.24 79.8902 16.64C80.1435 17.04 80.2702 17.5267 80.2702 18.1C80.2702 18.7667 80.0835 19.3333 79.7102 19.8C79.3368 20.2667 78.8235 20.6267 78.1702 20.88C77.5168 21.12 76.7635 21.24 75.9102 21.24ZM86.3956 21.24C85.3556 21.24 84.4556 21.0133 83.6956 20.56C82.949 20.1067 82.369 19.46 81.9556 18.62C81.5556 17.78 81.3556 16.8 81.3556 15.68C81.3556 14.56 81.5556 13.5867 81.9556 12.76C82.369 11.92 82.949 11.2733 83.6956 10.82C84.4423 10.3533 85.3223 10.12 86.3356 10.12C87.2956 10.12 88.1423 10.3467 88.8756 10.8C89.609 11.24 90.1756 11.88 90.5756 12.72C90.989 13.56 91.1956 14.5733 91.1956 15.76V16.3H83.5556C83.609 17.34 83.8823 18.12 84.3756 18.64C84.8823 19.16 85.5623 19.42 86.4156 19.42C87.0423 19.42 87.5623 19.2733 87.9756 18.98C88.389 18.6867 88.6756 18.2933 88.8356 17.8L91.0356 17.94C90.7556 18.9267 90.2023 19.7267 89.3756 20.34C88.5623 20.94 87.569 21.24 86.3956 21.24ZM83.5556 14.7H88.9556C88.889 13.7533 88.6156 13.0533 88.1356 12.6C87.669 12.1467 87.069 11.92 86.3356 11.92C85.5756 11.92 84.949 12.16 84.4556 12.64C83.9756 13.1067 83.6756 13.7933 83.5556 14.7ZM92.9437 21V10.36H94.8837L94.9637 13.18L94.7837 13.12C94.9304 12.16 95.2237 11.46 95.6637 11.02C96.1171 10.58 96.7237 10.36 97.4837 10.36H98.5037V12.26H97.4837C96.9504 12.26 96.5037 12.3467 96.1437 12.52C95.7837 12.6933 95.5104 12.96 95.3237 13.32C95.1504 13.68 95.0637 14.1467 95.0637 14.72V21H92.9437ZM110.318 21.32C109.198 21.32 108.218 21.1067 107.378 20.68C106.551 20.24 105.911 19.62 105.458 18.82C105.018 18.02 104.798 17.0733 104.798 15.98V6.78H106.958V15.98C106.958 17.06 107.251 17.8933 107.838 18.48C108.425 19.0533 109.251 19.34 110.318 19.34C111.385 19.34 112.211 19.0533 112.798 18.48C113.385 17.8933 113.678 17.06 113.678 15.98V6.78H115.838V15.98C115.838 17.0733 115.611 18.02 115.158 18.82C114.718 19.62 114.085 20.24 113.258 20.68C112.431 21.1067 111.451 21.32 110.318 21.32ZM122.465 21.24C121.465 21.24 120.618 21.0867 119.925 20.78C119.245 20.4733 118.718 20.0533 118.345 19.52C117.972 18.9733 117.758 18.3467 117.705 17.64L119.885 17.54C119.992 18.1267 120.245 18.5933 120.645 18.94C121.045 19.2867 121.652 19.46 122.465 19.46C123.132 19.46 123.658 19.3533 124.045 19.14C124.432 18.9267 124.625 18.5867 124.625 18.12C124.625 17.8667 124.558 17.6533 124.425 17.48C124.305 17.2933 124.065 17.14 123.705 17.02C123.345 16.8867 122.812 16.76 122.105 16.64C121.052 16.44 120.225 16.2067 119.625 15.94C119.025 15.6733 118.598 15.3333 118.345 14.92C118.092 14.5067 117.965 14.0067 117.965 13.42C117.965 12.4467 118.325 11.6533 119.045 11.04C119.778 10.4267 120.832 10.12 122.205 10.12C123.125 10.12 123.898 10.28 124.525 10.6C125.152 10.9067 125.638 11.3267 125.985 11.86C126.345 12.38 126.572 12.9667 126.665 13.62L124.485 13.74C124.418 13.3667 124.285 13.0467 124.085 12.78C123.898 12.5 123.645 12.2867 123.325 12.14C123.005 11.98 122.625 11.9 122.185 11.9C121.505 11.9 120.998 12.0333 120.665 12.3C120.332 12.5667 120.165 12.9133 120.165 13.34C120.165 13.66 120.238 13.92 120.385 14.12C120.545 14.32 120.798 14.4867 121.145 14.62C121.492 14.74 121.952 14.8467 122.525 14.94C123.632 15.1267 124.498 15.36 125.125 15.64C125.752 15.9067 126.192 16.24 126.445 16.64C126.698 17.04 126.825 17.5267 126.825 18.1C126.825 18.7667 126.638 19.3333 126.265 19.8C125.892 20.2667 125.378 20.6267 124.725 20.88C124.072 21.12 123.318 21.24 122.465 21.24ZM132.95 21.24C131.91 21.24 131.01 21.0133 130.25 20.56C129.504 20.1067 128.924 19.46 128.51 18.62C128.11 17.78 127.91 16.8 127.91 15.68C127.91 14.56 128.11 13.5867 128.51 12.76C128.924 11.92 129.504 11.2733 130.25 10.82C130.997 10.3533 131.877 10.12 132.89 10.12C133.85 10.12 134.697 10.3467 135.43 10.8C136.164 11.24 136.73 11.88 137.13 12.72C137.544 13.56 137.75 14.5733 137.75 15.76V16.3H130.11C130.164 17.34 130.437 18.12 130.93 18.64C131.437 19.16 132.117 19.42 132.97 19.42C133.597 19.42 134.117 19.2733 134.53 18.98C134.944 18.6867 135.23 18.2933 135.39 17.8L137.59 17.94C137.31 18.9267 136.757 19.7267 135.93 20.34C135.117 20.94 134.124 21.24 132.95 21.24ZM130.11 14.7H135.51C135.444 13.7533 135.17 13.0533 134.69 12.6C134.224 12.1467 133.624 11.92 132.89 11.92C132.13 11.92 131.504 12.16 131.01 12.64C130.53 13.1067 130.23 13.7933 130.11 14.7Z" fill="white"/>
</svg>
