<svg width="24" height="24" viewBox="0 0 24 24" fill="none" xmlns="http://www.w3.org/2000/svg">
<path d="M14.0626 0.67079C16.1392 -0.0244179 18.1309 -0.199358 19.8089 0.240655L19.8334 0.247183L19.848 0.250649L19.8484 0.250716L19.8634 0.255192C20.3326 0.382512 20.7644 0.555067 21.1573 0.769084L21.1734 0.777296L21.1738 0.777465L21.1741 0.777668L21.1863 0.785003C21.7467 1.09468 22.2272 1.4894 22.6244 1.95806L22.6409 1.9762L22.6412 1.97647L22.6414 1.97678L22.6619 2.00279C22.711 2.06202 22.7587 2.12245 22.8051 2.18397L22.8073 2.18612L22.808 2.18679L22.8085 2.18757L22.8184 2.20153C22.9307 2.35177 23.0352 2.50872 23.1319 2.67202L23.1403 2.68329H23.1386C23.1674 2.73227 23.1955 2.78185 23.2229 2.83196L23.2257 2.83708C23.2261 2.83788 23.2266 2.8387 23.227 2.8395L23.2353 2.8537H23.2348C23.2415 2.86611 23.2481 2.87857 23.2548 2.89105L23.2602 2.90085C23.2898 2.95693 23.3184 3.01371 23.3463 3.07116L23.3566 3.09178L23.3568 3.09218L23.357 3.09261L23.3585 3.09636C23.3852 3.15198 23.411 3.20827 23.436 3.26512L23.44 3.27311L23.4404 3.27403L23.4441 3.28372C23.5198 3.4573 23.5879 3.63662 23.6483 3.82136C23.6535 3.83744 23.6587 3.85358 23.6639 3.86975L23.6647 3.87058L23.6655 3.87338L23.6685 3.88424C23.7243 4.06163 23.7732 4.24391 23.815 4.43083L23.8173 4.43769L23.8175 4.43845L23.8177 4.43904L23.8179 4.43962L23.8324 4.50852L23.8325 4.50895L23.8342 4.51928C23.8475 4.58267 23.86 4.64662 23.8716 4.71103L23.8739 4.72108H23.8762V4.73596C23.9116 4.93558 23.9393 5.14012 23.9592 5.34921L23.9594 5.35072L23.9595 5.35136V5.35176C23.9792 5.55953 23.9911 5.77181 23.9952 5.98837L23.9957 5.99268L23.9957 5.99323V5.99375L23.9968 6.00461H23.9957L23.9957 6.01746C23.9972 6.11276 23.9972 6.2089 23.9957 6.3058V6.32437L23.9957 6.32493V6.33461H23.9952C23.9911 6.55375 23.9792 6.77695 23.9595 7.00387V7.00901H23.9591C23.9307 7.33421 23.8862 7.66717 23.8254 8.00707L23.818 8.05147L23.8179 8.05177L23.808 8.10204C23.6695 8.84266 23.4538 9.61565 23.1585 10.4129L23.147 10.4463L23.1392 10.4687L23.1288 10.4507C23.127 10.4491 23.1258 10.4471 23.1253 10.4448L22.9135 10.0784L22.6961 9.70881L22.4709 9.34747L22.465 9.33822L22.2339 8.98261L22.2324 8.9803L21.9896 8.61771L21.8447 8.41126L21.7397 8.25908L21.7365 8.25478L21.4788 7.90387L21.3266 7.70083L21.2142 7.5485L21.2114 7.54478L21.2121 7.54054C21.2122 7.54041 21.2122 7.54029 21.2122 7.5402L21.2446 7.34885V7.34187L21.2448 7.3411L21.2701 7.1598L21.2902 7.00901H21.2895L21.292 6.996L21.2931 6.99087L21.2956 6.9782L21.3136 6.79764L21.3136 6.79693L21.3244 6.6204L21.3352 6.45033L21.3389 6.27998L21.3389 6.27847V6.26931L21.3425 6.11737L21.3392 6.00461L21.3389 5.9948L21.3389 5.99406V5.958L21.3317 5.80213L21.3216 5.68192H21.3208V5.67199L21.3207 5.67153V5.65363L21.3064 5.50582L21.2883 5.36818L21.2666 5.23072L21.2478 5.11494L21.2449 5.09699L21.2306 5.04678L21.2305 5.04629L21.2304 5.0458L21.2159 4.96965L21.1871 4.85094L21.1867 4.8495L21.1568 4.7501H21.1541V4.74091L21.1541 4.73922L21.154 4.73363L21.1184 4.62301L21.0821 4.51424L21.0534 4.44611L21.0532 4.44571L21.0531 4.44531L21.0424 4.41324L20.9992 4.31594L20.9565 4.22334L20.9558 4.22199L20.9549 4.22002L20.9089 4.1316L20.862 4.04506L20.8116 3.96214L20.7574 3.88258L20.7032 3.80679L20.5911 3.66205L20.4683 3.53197L20.3782 3.44912L20.2846 3.36629L20.1835 3.28673L20.0897 3.22201L20.0789 3.21457L19.9959 3.16102L19.9669 3.14229L19.8985 3.10629L19.8982 3.10608L19.8474 3.07715L19.7213 3.01223L19.5879 2.95455L19.4469 2.90027L19.4464 2.90011L19.3351 2.8678L19.3348 2.8677L19.3344 2.86756L19.2954 2.85336L19.1359 2.80985L18.9698 2.77011L18.7928 2.73397L18.7802 2.73198L18.6082 2.70499L18.4128 2.68326L18.2069 2.66878L17.994 2.66158H17.7703L17.5408 2.66515L17.302 2.68326L17.1845 2.69365L17.0556 2.70506L16.8061 2.73393L16.5454 2.77378L16.281 2.82456L16.0094 2.88251L16.0082 2.88278L15.7325 2.94725L15.7306 2.94772L15.4481 3.02378L15.1622 3.107L15.1517 3.11038L14.869 3.2012L14.5754 3.30634L14.351 3.39326L14.2813 3.41979L14.2749 3.42228L13.9743 3.54538L13.6706 3.67564L13.6702 3.67585L13.3621 3.81724L13.0579 3.96758L13.0545 3.96937L13.0521 3.97056L12.7428 4.12874L12.4311 4.29556L12.1196 4.46951L11.8081 4.65428L11.5908 4.78835L11.4928 4.84649L11.4105 4.89909L11.1814 5.04571L11.1808 5.04604L11.1202 5.0889L11.1199 5.08912L10.8736 5.25209L10.8677 5.2563L10.6671 5.39717L10.5618 5.46969L10.254 5.69077L10.2534 5.69114L9.96124 5.91038L9.94968 5.91905L9.80481 6.03135L9.64535 6.15467L9.41923 6.33824H9.41996L9.39666 6.35653L9.39543 6.35754L9.34455 6.39754L9.04778 6.6473L8.75433 6.9046L8.46583 7.16801L8.46451 7.16927L8.17813 7.43395L7.89925 7.70932L7.89565 7.71285L7.62022 7.98847L7.35226 8.27089L7.21818 8.416L7.08669 8.55462L7.08402 8.55748L6.82697 8.85078L6.57361 9.14407L6.57075 9.14838H6.57004L6.32329 9.4453L6.27991 9.49956L6.08057 9.74613L5.99009 9.86551L5.86204 10.0331L5.84876 10.0505L5.62055 10.3548L5.39957 10.6628L5.18574 10.9711L4.97936 11.2826L4.78696 11.5835L4.78008 11.5942L4.7782 11.5973L4.5926 11.9043L4.59171 11.9059L4.48297 12.0908L4.40685 12.2178L4.40614 12.2189L4.27293 12.4639L4.27268 12.4644L4.23315 12.529L4.2301 12.5349L4.07371 12.8372L4.07291 12.8387L4.07168 12.8399L4.0694 12.8421L3.91439 13.1522L3.88906 13.2067L3.7695 13.4603L3.63253 13.7667L3.55574 13.946L3.50144 14.0726L3.50135 14.0729L3.38634 14.3713L3.38566 14.3732L3.27391 14.6688L3.27394 14.6741L3.27397 14.685H3.27071L3.17178 14.9678L3.15013 15.0398L3.0813 15.2576L3.04149 15.3987L2.99796 15.5439L2.9473 15.7393L2.9256 15.8226L2.87074 16.0592L2.86764 16.0727L2.86038 16.1018L2.80608 16.3696L2.75905 16.6337L2.75878 16.6356L2.72286 16.8911L2.72219 16.8969L2.70473 17.0575L2.69409 17.1391L2.69389 17.1407L2.67593 17.3816L2.67589 17.382V17.3826L2.67593 17.3936H2.67519L2.66133 17.619L2.6613 17.6196V17.6546L2.66133 17.6909V17.7018L2.6577 17.8471L2.66133 17.9988V18.0644L2.67216 18.2734L2.67469 18.2964L2.6758 18.306L2.67583 18.3063L2.69026 18.4765L2.70836 18.6031L2.70839 18.6034L2.71542 18.667L2.71562 18.6684L2.74805 18.8526L2.78425 19.03L2.82287 19.1916L2.82414 19.1966L2.87091 19.3515L2.90824 19.4567H2.90858L2.9104 19.4628L2.9108 19.4639L2.91097 19.4644L2.92069 19.4969L2.92167 19.5002L2.97593 19.6376L3.03719 19.7674L3.09851 19.8937L3.1636 20.0023L3.16514 20.0048V20.0118L3.18985 20.0489L3.2356 20.1175L3.31163 20.2226L3.39064 20.3195L3.47383 20.4101L3.56038 20.5002L3.56447 20.504L3.64975 20.5825L3.65061 20.5833L3.7446 20.6628L3.8455 20.7386L3.93674 20.7983H3.93721L3.94013 20.8005L3.94913 20.8073L3.95396 20.8109L4.06919 20.8794L4.10009 20.8957L4.1921 20.9445L4.31871 21.006L4.45521 21.0634L4.45595 21.0637L4.56426 21.1044L4.60044 21.118L4.73971 21.1611L4.75189 21.1649L4.91492 21.2083L5.0846 21.2444L5.26537 21.277L5.34048 21.2878H5.34081L5.34167 21.2879L5.45401 21.306L5.61668 21.3208L5.65234 21.3241L5.75217 21.331L5.8586 21.3385L6.07593 21.3458L6.30027 21.3421L6.5354 21.3313L6.77434 21.3168L7.02382 21.2915L7.2773 21.2553L7.53706 21.212L7.53789 21.2118L7.54272 21.2108L7.54662 21.2138L7.5528 21.2185L7.56107 21.2247L7.60171 21.2552L7.60393 21.2569L7.60457 21.2573L7.605 21.2577L7.60863 21.2607L7.69607 21.3267L7.70283 21.3313L7.70517 21.3328L7.7056 21.3331L7.70609 21.3335L7.71759 21.3421H7.7249V21.3476L7.74649 21.364H7.74532L7.89941 21.4804L7.90171 21.4821L7.90589 21.4851L8.25674 21.7394L8.39235 21.8353L8.56833 21.9569L8.56857 21.9571L8.61537 21.993L8.86897 22.1598L8.86925 22.16L8.97768 22.2359L8.99176 22.245L9.34375 22.4715L9.35061 22.4758L9.44868 22.5368L9.70951 22.6998L9.71151 22.701L10.0791 22.9173L10.0875 22.9221L10.1145 22.9376L10.4427 23.1277C10.4457 23.1271 10.4488 23.1279 10.4512 23.1297H10.506L10.469 23.1429L10.447 23.1509L10.3455 23.1871L10.3438 23.1877L10.2876 23.2074C10.2079 23.2362 10.1285 23.2642 10.0493 23.2914L9.97581 23.3176L9.97409 23.3182L9.70729 23.4048L9.60953 23.4373L9.60919 23.4374L9.41255 23.4959H9.42298L9.3408 23.5173L9.2774 23.5337C9.18302 23.5605 9.08904 23.586 8.99551 23.6105L8.97824 23.6152L8.95638 23.6206C8.89197 23.6373 8.82778 23.6533 8.7638 23.6689L8.70127 23.6845H8.71203L8.61647 23.7057L8.61558 23.7059L8.61528 23.706L8.5517 23.7201L8.51745 23.7277L8.25997 23.7822L8.25963 23.7822L8.17598 23.7972C8.10816 23.8103 8.04064 23.8228 7.97338 23.8347L7.90451 23.8475L7.90405 23.8475L7.86958 23.8525C7.78196 23.8671 7.69484 23.8806 7.60817 23.893L7.55268 23.9019L7.55215 23.902L7.50921 23.9067C7.44716 23.9151 7.38537 23.9229 7.32385 23.9301L7.20804 23.9454L7.20773 23.9455L7.20739 23.9455L7.2014 23.9459L7.13001 23.951C7.06056 23.9579 6.99142 23.964 6.92267 23.9694L6.86681 23.9745L6.75789 23.9818L6.69188 23.985C6.64303 23.9877 6.59436 23.9901 6.54588 23.9921L6.53287 23.9927H6.53008L6.52848 23.9928C6.42303 23.9969 6.3185 23.9992 6.21489 23.9998L6.21 23.9999L6.19294 23.9999C6.10301 24.0003 6.0138 23.9992 5.92528 23.9969L5.87616 23.9963L5.87573 23.9963L5.84203 23.9943C5.78927 23.9924 5.73679 23.99 5.68456 23.9872L5.55691 23.9818L5.5562 23.9817L5.48838 23.9746H5.48805L5.48755 23.9745L5.44854 23.971C5.41223 23.968 5.37605 23.9648 5.33998 23.9613L5.24548 23.9528H5.24511L5.24459 23.9528L5.17209 23.9455L5.17169 23.9454L4.93727 23.913H4.93678L4.93598 23.9128L4.86438 23.902H4.86407L4.86315 23.9019L4.63847 23.862L4.56573 23.8475L4.34453 23.8003L4.34401 23.8001L4.27523 23.782L4.06138 23.7276L4.06095 23.7275L4.03626 23.7201L3.98846 23.7058L3.98723 23.7054L3.91744 23.6845H3.9211L3.78342 23.641H3.7829L3.781 23.6402L3.71886 23.616C3.67942 23.6024 3.64025 23.5883 3.60133 23.5739L3.51488 23.5431L3.51279 23.5423L3.44755 23.517L3.25168 23.4371L3.25116 23.4369L3.2507 23.4366L3.18958 23.4043L3.00112 23.3173L3.00065 23.317L3.00018 23.3168L2.95093 23.2878C2.91957 23.2716 2.88845 23.2551 2.85752 23.2384L2.75781 23.1865L2.75734 23.1862L2.69571 23.15L2.52163 23.0448L2.52102 23.0444L2.43117 22.9816C2.40263 22.9626 2.3743 22.9432 2.3462 22.9237L2.29668 22.8923L2.29631 22.8921L2.2959 22.8918L2.08202 22.7287L2.06763 22.7178L2.06735 22.7176L1.98171 22.6449C1.96627 22.6319 1.95093 22.6189 1.93566 22.6057L1.87504 22.5543L1.87457 22.5539L1.8486 22.5293C1.8107 22.4952 1.7733 22.4605 1.73644 22.4252L1.67899 22.3727L1.67868 22.3724L1.67842 22.3721L1.62584 22.3161C1.55347 22.2425 1.48324 22.1666 1.41525 22.0884L1.34474 22.0093L1.34454 22.0091L1.31538 21.9726L1.15216 21.7622L1.15152 21.7614L1.15104 21.7604L1.14755 21.7535L1.13453 21.7349C1.10124 21.6889 1.06861 21.6423 1.03667 21.595L0.999266 21.5416L0.996204 21.5372L0.996001 21.5369L0.995733 21.5366L0.970333 21.4967L0.967947 21.4929L0.959739 21.48L0.88691 21.3624L0.886639 21.3619L0.886436 21.3615L0.88583 21.3603L0.882805 21.3543L0.87998 21.3486C0.877665 21.3447 0.875319 21.3408 0.873016 21.337L0.862284 21.3236L0.861275 21.3223L0.86067 21.3208L0.854715 21.306C0.853267 21.3035 0.851819 21.301 0.850377 21.2985L0.847247 21.2938L0.84701 21.2934L0.84681 21.293L0.836785 21.2751C0.832173 21.2671 0.827568 21.259 0.822993 21.251L0.80708 21.2245L0.80688 21.2241L0.806677 21.2238L0.798807 21.208C0.789605 21.1915 0.780444 21.175 0.77139 21.1583L0.756387 21.1339L0.756218 21.1336L0.730113 21.0847L0.727961 21.0806L0.727088 21.079L0.726919 21.0787L0.722713 21.0703L0.719651 21.0642L0.697989 21.0207L0.697451 21.0196L0.690115 21.0049H0.690521L0.68238 20.9876C0.668788 20.9604 0.65539 20.933 0.64218 20.9055L0.63932 20.8998L0.636966 20.8951L0.636326 20.8938L0.628456 20.8781H0.628892L0.603897 20.8254L0.597137 20.8152L0.596531 20.8143L0.596396 20.8141L0.585934 20.7983H0.589937L0.570829 20.7518L0.547215 20.6967C0.543879 20.689 0.540501 20.6812 0.53719 20.6735L0.501868 20.5957L0.501736 20.5953L0.487403 20.5559L0.472099 20.5191H0.471662L0.469071 20.5119L0.468803 20.5112L0.463048 20.4973H0.463823L0.436473 20.4212L0.432538 20.4103C0.422168 20.3824 0.411939 20.3542 0.401926 20.3259L0.385949 20.2876L0.385678 20.2869L0.367511 20.2325L0.334815 20.1271L0.298686 20.0185L0.298114 20.0169V20.0092L0.286845 19.967C0.273586 19.921 0.260734 19.8747 0.248361 19.828L0.233291 19.7751L0.23319 19.7748L0.225957 19.7458L0.225856 19.7455L0.218422 19.7106C0.201804 19.643 0.186158 19.5749 0.171495 19.5062L0.160831 19.4707L0.160629 19.47L0.160528 19.4693L0.148149 19.3926C0.135511 19.3284 0.123725 19.2637 0.11276 19.1986L0.109934 19.1874L0.10657 19.1739H0.107949L0.102769 19.1376C0.0944809 19.0858 0.0866985 19.0337 0.0794567 18.9814L0.0662701 18.9001L0.0662028 18.8997L0.066169 18.8992L0.062536 18.8559L0.0599458 18.8295C0.0466374 18.7169 0.0357157 18.6032 0.0271135 18.4886L0.0262725 18.4784L0.0257679 18.4704C0.0221386 18.4206 0.0189289 18.3705 0.0161806 18.3203L0.0154069 18.308L0.0153733 18.3076V18.3047C0.0101126 18.2052 0.00660813 18.1049 0.00477682 18.0039L0.00450772 17.9997V17.9912C-0.00200806 17.6013 0.0168935 17.201 0.060383 16.7926L0.066169 16.7291L0.0662363 16.7284L0.0714843 16.6931C0.0821939 16.6006 0.0941501 16.5077 0.107344 16.4145L0.107512 16.413C0.122495 16.3073 0.139112 16.201 0.157265 16.0943L0.160461 16.0687L0.160495 16.0684L0.160562 16.0681L0.181721 15.9556C0.189948 15.9105 0.198503 15.8653 0.207287 15.8199L0.207657 15.8179L0.207725 15.8176C0.257939 15.5588 0.317221 15.2975 0.385377 15.0343L0.385441 15.0339L0.385543 15.0336C0.477178 14.6797 0.584784 14.3222 0.707981 13.9622L0.711006 13.9526H0.7102L0.71558 13.938L0.717834 13.9309H0.718206L0.728736 13.902C0.807194 13.6758 0.89177 13.4486 0.982345 13.2208L0.991125 13.1981L0.991392 13.1975L0.993006 13.194C1.01015 13.1511 1.02748 13.1081 1.04505 13.0651C2.04032 10.6319 3.71517 8.13257 5.92365 5.92332L6.02742 5.82014C6.06437 5.78359 6.10145 5.74722 6.13858 5.71097H6.13631L6.15242 5.69751C7.35905 4.52097 8.64719 3.50249 9.96025 2.66518H9.93342L9.989 2.64681C10.1072 2.5717 10.2257 2.49811 10.3442 2.42595H10.3432L10.349 2.42303C10.4713 2.34866 10.5937 2.27589 10.7163 2.2047L10.7174 2.20406C11.4984 1.75044 12.2842 1.36166 13.0634 1.04271C13.3979 0.905774 13.7312 0.781782 14.0623 0.670925L14.0626 0.67079ZM16.1336 4.18445C16.137 4.18104 16.1422 4.18021 16.1463 4.18236L16.1482 4.18359L16.2535 4.26918C20.6987 7.90543 23.7355 13.0133 23.9836 17.2886L23.989 17.3893C24.0166 17.9661 23.9921 18.5124 23.9184 19.0252H23.919L23.9175 19.031C23.8756 19.3214 23.818 19.601 23.745 19.8693L23.7449 19.8701H23.7485L23.7415 19.8844L23.7414 19.8847L23.7409 19.8858L23.7401 19.8873C23.6124 20.3516 23.439 20.7819 23.2226 21.1755L23.2191 21.1834L23.2186 21.1845L23.2179 21.1855L23.2149 21.1894C23.1919 21.2311 23.1683 21.2724 23.1443 21.3132H23.1451L23.1356 21.3289L23.133 21.335H23.132L23.1291 21.3398L23.1276 21.3421H23.1336L23.1341 21.3422L23.1168 21.3593C23.0863 21.4099 23.0551 21.4599 23.0231 21.5093L23.0081 21.5329L22.9283 21.6527L22.9281 21.653L22.9279 21.6533L22.903 21.6865C22.8692 21.7342 22.8347 21.7812 22.7995 21.8275L22.7686 21.8706L22.7684 21.8709L22.7681 21.8712L22.7085 21.9437C22.6796 21.9796 22.6502 22.015 22.6203 22.05L22.5941 22.0816L22.5937 22.082L22.5796 22.0973C22.5346 22.1488 22.4887 22.1993 22.4417 22.2489L22.4126 22.2813L22.3214 22.3725L22.2199 22.4704L22.2196 22.4707L22.1714 22.5136C22.0933 22.5845 22.013 22.6531 21.9304 22.7192L21.9148 22.732L21.806 22.8192L21.8057 22.8194L21.8054 22.8196L21.7023 22.8918C21.64 22.9362 21.5766 22.9793 21.5121 23.0212L21.4718 23.0481L21.352 23.1244L21.3517 23.1245L21.2355 23.19L21.1841 23.2179C21.161 23.2306 21.1378 23.2432 21.1144 23.2557L21.1085 23.2589L21.1048 23.2608C21.0605 23.2843 21.0158 23.3073 20.9706 23.3297L20.8581 23.3861L20.8576 23.3863L20.7343 23.4406L20.6002 23.4987L20.5998 23.4989L20.4693 23.5496L20.4562 23.5544C20.4157 23.5698 20.375 23.5848 20.3339 23.5995L20.3314 23.6004L20.331 23.6006L20.329 23.6012C20.25 23.6293 20.1698 23.6559 20.0886 23.6811L20.0593 23.6912L20.0587 23.6913L20.003 23.707C19.9543 23.7214 19.9051 23.7352 19.8556 23.7486L19.776 23.7711L19.7755 23.7712L19.7149 23.7848C19.6631 23.7976 19.6109 23.8098 19.5582 23.8215L19.482 23.8401L19.4817 23.8402L19.4813 23.8403L19.4336 23.8484L19.4148 23.8516C19.3504 23.8644 19.2854 23.8764 19.2199 23.8876L19.1843 23.8946L19.1838 23.8947L19.1833 23.8948L19.1347 23.9017C19.0601 23.9135 18.9849 23.9243 18.9089 23.934L18.8793 23.9382L18.8785 23.9383H18.8781L18.826 23.9441C18.8003 23.9471 18.7744 23.95 18.7485 23.9528L18.7159 23.9564L18.5671 23.9709L18.5667 23.9709L18.5174 23.974C18.4566 23.9787 18.3953 23.9828 18.3337 23.9862L18.2479 23.9927L18.2475 23.9927H18.2454L18.1508 23.9944C18.0869 23.9965 18.0225 23.998 17.9577 23.9988L17.9212 23.9999L17.9208 23.9999L17.8782 23.9995C17.7927 23.9998 17.7064 23.9987 17.6194 23.9966L17.5909 23.9963L17.4686 23.9927H17.4673L17.2547 23.9819H17.2535L17.2531 23.9818L17.157 23.9744C17.128 23.9723 17.099 23.9702 17.0699 23.9678L16.9125 23.9564L16.912 23.9564L16.8027 23.943C16.7456 23.937 16.6884 23.9305 16.6311 23.9235L16.5677 23.9165L16.5674 23.9164L16.4784 23.904C16.4645 23.9021 16.4507 23.9001 16.4369 23.8982L16.4116 23.8947L16.4046 23.8937C16.356 23.8867 16.3074 23.8796 16.2587 23.872L16.2169 23.8658H16.2165L16.2156 23.8657L16.0561 23.8403L15.8602 23.804L15.7749 23.7865C15.7286 23.7774 15.6822 23.768 15.6357 23.7583L15.5011 23.7314L15.5007 23.7313L15.3907 23.7044C15.3199 23.6881 15.2489 23.6712 15.1778 23.6536L15.1383 23.6443L15.0781 23.6286C15.0356 23.6177 14.993 23.6066 14.9505 23.5953L14.7756 23.55L14.7753 23.5499L14.605 23.4991L14.4057 23.4411L14.2367 23.3872L14.2349 23.3867L14.2292 23.3848L14.1686 23.3654H14.1701L14.0356 23.3214L14.0353 23.3213L13.946 23.289C13.8909 23.27 13.8358 23.2507 13.7807 23.231L13.6621 23.1908L13.6617 23.1907L13.4915 23.1253L13.2885 23.0492L13.2881 23.0491L13.1361 22.9858C13.1138 22.9767 13.0914 22.9677 13.0691 22.9586L12.9149 22.8969L12.9146 22.8968L12.7407 22.8206L12.5377 22.7336L12.5373 22.7335L12.4274 22.6808C12.3815 22.6598 12.3356 22.6386 12.2897 22.6172L12.1606 22.5595L12.1602 22.5593L11.9861 22.4723L11.7834 22.3745L11.7831 22.3743L11.6091 22.2837L11.4061 22.1785L11.232 22.0842L11.035 21.9767L11.0324 21.9753L11.0309 21.9744L10.9952 21.955H10.9968L10.8573 21.8752L10.8547 21.8737L10.8523 21.8723L10.8193 21.8534H10.8199L10.6554 21.7577L10.4839 21.6576L10.4812 21.6561L10.4794 21.655L10.4467 21.6359H10.4476L10.2817 21.5363L10.1104 21.4292L10.1077 21.4275L10.0984 21.4217L10.0757 21.4074L10.0099 21.3658L10.0089 21.3652L10.008 21.3644L10.0054 21.3617L10.001 21.3591L9.98829 21.3515L9.96195 21.335L9.95909 21.3333L9.91921 21.3078L9.91359 21.3041L9.90811 21.3004L9.86461 21.2714L9.80315 21.2316L9.80023 21.2297L9.77232 21.2116H9.77312L9.75375 21.1987C9.73918 21.1892 9.72463 21.1796 9.71009 21.1701L9.63646 21.1229L9.53845 21.0575L9.53753 21.0569L9.53381 21.0532L9.48576 21.0207C9.45809 21.002 9.43045 20.9833 9.40281 20.9645L9.30188 20.8962L9.29905 20.8943L9.29508 20.8916L9.26981 20.8744L9.1722 20.8073L9.16421 20.8019L9.16113 20.7999L9.13162 20.7802H9.13398L9.04968 20.719C8.98036 20.6699 8.91115 20.6203 8.84213 20.5702L8.80626 20.5463L8.80579 20.546L8.69346 20.4625L8.51938 20.332L8.44351 20.2778L8.44308 20.2774L8.33794 20.194L8.14963 20.0491L8.14932 20.0489L8.11741 20.0226C8.06653 19.9826 8.01568 19.9424 7.96498 19.9019L7.95379 19.8931L7.75073 19.7299L7.73259 19.7154L7.70846 19.696H7.70922L7.54398 19.5594L7.38082 19.4215L7.33369 19.3816L7.22692 19.2875C7.18384 19.2501 7.14083 19.2126 7.09791 19.1749L7.03652 19.1243L7.03609 19.1239L6.91769 19.015C6.89073 18.9909 6.8638 18.9667 6.83696 18.9424L6.69548 18.8158L6.67697 18.7972L6.61139 18.7359C6.49438 18.6275 6.37817 18.5178 6.26285 18.4067L6.23134 18.3769L6.19042 18.3366C6.05831 18.2083 5.92737 18.0783 5.79764 17.9466L5.7054 17.8543L5.54594 17.6875L5.39329 17.5277L5.39 17.5243L5.31754 17.4482L5.08933 17.1982L5.07851 17.1873L5.07826 17.1871L4.9741 17.0687C4.9191 17.0072 4.86438 16.9453 4.80996 16.8831L4.77362 16.8424L4.63939 16.6864L4.62716 16.672C4.58698 16.625 4.54695 16.5778 4.50707 16.5305L4.47621 16.4941L4.46102 16.4762L4.41463 16.4216L4.19671 16.1572H4.19601L4.19278 16.1523L4.18546 16.1414L4.18276 16.1373L4.18402 16.1326L4.22752 15.9694L4.25291 15.8678L4.27105 15.8025L4.32187 15.6319L4.37527 15.4646L4.37632 15.4613L4.37755 15.4574L4.42243 15.3196L4.42708 15.3052L4.43344 15.2862L4.4343 15.2835L4.49228 15.1094L4.55762 14.9279L4.63002 14.7469L4.63349 14.7331L4.63364 14.7324L4.63395 14.7316L4.70282 14.5649L4.75351 14.4381L4.75361 14.4378L4.77897 14.3798L4.85875 14.1948L4.88046 14.1442L4.88064 14.1438L4.94585 14.006L4.94646 14.0047L5.01136 13.862H5.01059L5.01846 13.8462L5.02815 13.8269L5.03295 13.8172L5.03599 13.8112L5.16785 13.5474L5.22144 13.4401L5.32307 13.2477L5.33131 13.2321L5.34149 13.2465L5.34238 13.2477L5.55433 13.5461L5.55528 13.5473L5.77258 13.8444L5.8958 14.004L5.99775 14.1375L6.00098 14.1418L6.23275 14.4352L6.47191 14.7289L6.71454 15.0187L6.85968 15.1828L6.94644 15.2797L6.94669 15.28L6.96482 15.3017L6.9651 15.3021L7.21821 15.5842L7.47898 15.8632L7.57681 15.9646L7.73628 16.1278L7.73699 16.1285L7.73754 16.1293L7.74421 16.1393L8.01509 16.4067L8.09119 16.4792L8.29047 16.6714L8.29274 16.6735L8.56738 16.9268L8.56947 16.9287L8.85206 17.1824L8.85243 17.1827L8.8773 17.2014H8.87389L9.13813 17.4323L9.42507 17.6691L9.42802 17.6715L9.72162 17.9072L10.0157 18.1333L10.0189 18.1356L10.0209 18.1373L10.3154 18.36L10.493 18.4833L10.4933 18.4835L10.6162 18.5739L10.9171 18.7806L11.2179 18.9836L11.5219 19.1755L11.8262 19.364L11.8984 19.4037L11.8988 19.4038L11.9355 19.424H11.9327L12.1304 19.5415L12.4096 19.6974L12.435 19.712L12.739 19.8749L12.9456 19.98L13.0385 20.0301L13.04 20.0308L13.3404 20.1757L13.6374 20.3134L13.9343 20.4437L13.9376 20.4451L14.2306 20.563L14.2313 20.5633L14.5213 20.6757L14.5791 20.6967L14.8107 20.7807L15.0968 20.8749L15.3757 20.9582L15.651 21.0343L15.6527 21.0347L15.6654 21.0379L15.9224 21.1031L16.1906 21.1612L16.4502 21.2116L16.451 21.2118L16.7045 21.2516L16.9147 21.2807L16.9152 21.2807L16.9549 21.2879L17.1932 21.3132L17.4288 21.3313L17.438 21.3318L17.6568 21.3422L17.8756 21.3458H17.8772L18.0911 21.3421H18.0925L18.2932 21.3313L18.4921 21.3132L18.6767 21.2879L18.7771 21.2715L18.8538 21.259L19.0238 21.2228L19.1832 21.1829L19.1839 21.1827L19.3383 21.136L19.4514 21.0983L19.4795 21.089L19.6164 21.0349L19.7469 20.9769L19.8692 20.9157L19.9849 20.8505L20.093 20.7822L20.1475 20.7432L20.1944 20.7097L20.2114 20.6961L20.2242 20.6859H20.2225L20.2486 20.6663L20.2914 20.6342L20.3818 20.5546L20.4686 20.4715L20.4691 20.4709L20.5517 20.3847L20.6312 20.2944L20.7069 20.197L20.7791 20.0958L20.8474 19.9879L20.9127 19.8755L20.9737 19.7534L21.028 19.6268L21.0822 19.4894L21.1329 19.3443L21.1762 19.1927L21.2195 19.0338L21.2253 19.0035L21.2521 18.8636L21.2702 18.7551L21.2703 18.7547L21.2846 18.6826L21.3063 18.4946L21.3064 18.4935L21.3244 18.2992L21.3389 18.0967L21.3425 17.8869L21.3389 17.6659L21.3317 17.438L21.3317 17.4374L21.3144 17.2232H21.3136V17.2132L21.3135 17.2127V17.2058L21.306 17.1333L21.2882 16.9635L21.288 16.9621L21.2774 16.8912L21.2558 16.7186L21.2557 16.7173L21.2551 16.7137L21.2122 16.4602L21.1615 16.1993L21.1037 15.9355L21.1037 15.9352L21.0928 15.8953L21.0348 15.6632L21.0335 15.6583L20.9593 15.3864L20.9587 15.3841L20.8756 15.1056L20.7958 14.8661L20.7814 14.8193L20.6789 14.5401H20.6783L20.6761 14.5326L20.5676 14.2394L20.5279 14.1491L20.5278 14.1487L20.4486 13.9471L20.448 13.9458L20.3178 13.6489L20.1801 13.3482L20.0418 13.0643H20.0406L20.0381 13.0568L20.0348 13.0466L19.8834 12.7472L19.8507 12.6928L19.8506 12.6925L19.8504 12.6922L19.7202 12.4424L19.6513 12.3228L19.5499 12.138L19.5424 12.1255L19.3687 11.8371L19.3652 11.8315L19.2197 11.5958L19.2165 11.5906L19.2063 11.574H19.2072L19.184 11.5327L18.9889 11.2292L18.9861 11.2264L18.9853 11.2256L18.9848 11.2248L18.7855 10.9275L18.5791 10.6268L18.4812 10.4926L18.3628 10.3275L18.3616 10.3258L18.2131 10.1266L18.1407 10.0288L17.9088 9.73159L17.6764 9.44198L17.6753 9.44056L17.6733 9.43804L17.4342 9.14813L17.4335 9.14733L17.3506 9.05405L17.3471 9.05018L17.346 9.04883L17.3313 9.03226H17.332L17.189 8.86323L17.1877 8.86169L17.1865 8.86031L16.9343 8.57915L16.7168 8.34347L16.7165 8.3431L16.6766 8.296L16.4125 8.02094L16.3873 7.99567L16.1445 7.74922L15.8742 7.48606L15.8727 7.48461L15.6915 7.31054L15.5975 7.22015L15.3288 6.98005H15.3285L15.3253 6.97685L15.3146 6.96612L15.0286 6.71267L15.0271 6.71131L14.7425 6.46994L14.7387 6.46681L14.4498 6.23134L14.449 6.2307L14.1556 5.99883L13.8584 5.77403L13.8554 5.77175L13.5612 5.55286L13.3043 5.37546L13.3039 5.37519L13.2616 5.34346L13.2607 5.34278L13.2462 5.33267L13.2468 5.3323L13.2618 5.32428L13.4503 5.22273L13.6425 5.12475L13.7464 5.07279H13.7382L13.7879 5.05204L13.7883 5.05185L13.8314 5.0339L14.0198 4.94333L14.2048 4.85983L14.3897 4.77642L14.39 4.7763L14.5739 4.70051L14.5749 4.70015L14.756 4.62402L14.7563 4.6239L14.9339 4.55507L15.0543 4.51079H15.045L15.111 4.48992L15.1117 4.48967L15.2895 4.428L15.2898 4.42785L15.4638 4.37352L15.6341 4.31914L15.6345 4.31898L15.8049 4.27188L15.9716 4.22472L15.9719 4.22463L16.1276 4.18479L16.129 4.18445H16.1336ZM18.6772 13.2477L18.7787 13.4399L18.8766 13.6322L18.8767 13.6325L18.9673 13.821L19.0535 14.0079L19.0557 14.0101L19.0745 14.0287H19.0651L19.1414 14.1946L19.2212 14.3798L19.301 14.5647L19.3011 14.565L19.3709 14.743H19.3719L19.3738 14.7505L19.4425 14.9277L19.5078 15.1092L19.5089 15.1123L19.5695 15.287L19.6275 15.4612L19.6384 15.4938L19.6806 15.6276L19.6818 15.6316L19.6821 15.6321L19.7291 15.8023L19.7436 15.8494L19.7437 15.8497L19.7763 15.9694L19.7764 15.9697L19.8145 16.1294C19.8179 16.1324 19.8189 16.1371 19.8174 16.1411L19.8175 16.1416L19.8169 16.1422C19.8166 16.1429 19.8162 16.1436 19.8157 16.1442C19.8136 16.1468 19.8114 16.1495 19.8093 16.1521L19.7635 16.211L19.7633 16.2113L19.6534 16.3427C19.4417 16.599 19.2244 16.8515 19.0017 17.0999L18.9729 17.1325L18.9727 17.1328L18.9636 17.1422C18.7893 17.3356 18.6118 17.5265 18.4313 17.7146L18.3818 17.7672L18.3437 17.8054C17.9533 18.2081 17.549 18.5979 17.1329 18.9727L17.1323 18.9739L17.1307 18.9754L17.0784 19.0216C17.0118 19.0812 16.9449 19.1404 16.8778 19.1993L16.848 19.2254L16.829 19.2428H16.8323L16.8082 19.2617L16.8051 19.2645H16.8046L16.7867 19.2786C16.7159 19.34 16.6446 19.4011 16.5731 19.4617L16.5144 19.5121L16.5141 19.5124L16.495 19.5275C16.3798 19.6244 16.2637 19.7202 16.1469 19.8146L16.145 19.8164L16.1406 19.8204L16.1348 19.8189L16.13 19.8176L15.9729 19.7757L15.9718 19.7754L15.805 19.7319L15.6345 19.6847L15.6341 19.6846L15.4637 19.6302L15.3476 19.5915L15.2897 19.5722L15.1121 19.5142L15.1117 19.5141L14.9341 19.4488L14.7528 19.3798L14.7524 19.3797L14.5732 19.3044L14.5713 19.3036L14.4754 19.2645L14.4733 19.2637L14.3905 19.2276L14.3899 19.2274L14.2071 19.1485L14.205 19.1476L14.0163 19.0605L14.0149 19.0598L13.8408 18.9781H13.84L13.838 18.9768L13.8372 18.9763L13.8317 18.9726L13.8269 18.9694L13.6392 18.8791L13.6389 18.8789L13.4504 18.7811L13.2619 18.6831L13.2561 18.6802L13.2561 18.6736L13.256 18.67L13.256 18.6643L13.2606 18.6611L13.6135 18.4088H13.6131L13.6344 18.3939L13.6411 18.3891L14.0108 18.1144L14.0216 18.1064L14.0223 18.1058L14.3982 17.813L14.7714 17.5085L15.1374 17.1931L15.4995 16.8708L15.5828 16.7911L15.851 16.5372L15.9084 16.4798H15.9079L15.9246 16.4635L15.9269 16.4613L15.9301 16.4581L16.1881 16.2071L16.1988 16.1965L16.4056 15.9831L16.4234 15.9647L16.4265 15.9614L16.5394 15.845L16.5827 15.798L16.7385 15.6277L16.8692 15.4897L17.1913 15.1276L17.2094 15.1059L17.3654 14.9245L17.5037 14.7648H17.5031L17.5173 14.7471L17.5204 14.743L17.6659 14.5622L17.811 14.3881L17.8176 14.3781L17.8178 14.3777L17.8181 14.3774L17.9631 14.1925L18.0942 14.0243L18.1044 14.0112L18.3868 13.6309L18.6587 13.2465L18.6689 13.2321L18.6772 13.2477ZM4.40356 0.189504C5.75244 -0.118544 7.33467 -0.0507853 9.04418 0.401745L9.07831 0.409923H9.07496C9.49778 0.522888 9.92834 0.659295 10.365 0.819394L10.4509 0.851161L10.4529 0.852139C10.4546 0.853202 10.4559 0.854724 10.4567 0.856446L10.4692 0.860956L10.4544 0.869334C10.4532 0.870428 10.4518 0.871224 10.4502 0.871689L10.4487 0.872599L10.1415 1.04732L10.0773 1.0839L9.70954 1.30388L9.50076 1.43084L9.22403 1.60469L9.08273 1.69538L8.9339 1.79105L8.78148 1.89325L8.63348 1.99256L8.35884 2.18414L8.35604 2.187L8.35537 2.18767L8.35463 2.18817L8.14969 2.33304L8.11169 2.36061H8.11237L8.10388 2.36622L7.91619 2.50224L7.88001 2.5289L7.81477 2.57819H7.8163L7.78987 2.59738L7.78685 2.59993H7.78642L7.77548 2.60784L7.71399 2.65432V2.65738L7.70806 2.66037L7.70191 2.6634L7.68546 2.67585L7.67166 2.68696H7.6774L7.64814 2.70648L7.64543 2.70873H7.64482L7.63937 2.71233L7.62059 2.72488L7.56101 2.76987L7.54727 2.78209L7.54351 2.78542L7.54182 2.78519L7.5377 2.78727L7.53472 2.78879L7.53146 2.78835L7.51465 2.78626L7.50244 2.78475L7.50186 2.78465L7.33935 2.75577L7.24678 2.74302L7.15458 2.73037L6.96971 2.70866L6.78934 2.69059L6.78885 2.69056L6.6157 2.67612L6.61508 2.67609L6.53072 2.67077L6.4411 2.66518L6.27481 2.66155H6.18055L6.11236 2.65795L6.08054 2.66148L6.07993 2.66155H5.95295L5.79739 2.66875L5.64512 2.67972L5.64475 2.67976H5.64441L5.50062 2.69412L5.35972 2.71216L5.22568 2.73393L5.09582 2.75557L4.98348 2.78121L4.969 2.78455L4.84956 2.81355L4.73602 2.84546L4.73396 2.84603L4.6769 2.86262L4.62169 2.87867L4.51746 2.91458L4.41641 2.95428L4.31855 2.99783L4.22451 3.04127L4.13443 3.08809L4.04773 3.13507L3.96484 3.18558L3.88534 3.23981L3.81054 3.29322L3.80986 3.29371L3.74798 3.34324L3.66509 3.40958L3.53566 3.53188L3.53532 3.53225L3.41272 3.66208L3.29687 3.80691L3.24286 3.88258L3.18902 3.9614L3.16388 4.00832L3.1636 4.00875L3.14322 4.04257L3.14199 4.04478L3.09141 4.13145L3.04455 4.22165L3.02938 4.25697H3.03039L3.02319 4.27148L3.02289 4.27216L3.02262 4.27271L3.00109 4.31576L2.96139 4.41321L2.92173 4.51424L2.91329 4.53954L2.9109 4.54683L2.91073 4.54729L2.88184 4.6231L2.84938 4.73482L2.84769 4.741L2.82405 4.82555L2.81678 4.85085L2.78425 4.9702L2.76157 5.08364H2.76208L2.75942 5.09456L2.75899 5.09656L2.73433 5.22676L2.73362 5.23066L2.71196 5.36818L2.71011 5.38662L2.70842 5.40378L2.70745 5.41359H2.70701L2.69382 5.50582L2.67943 5.65342V5.65397L2.67946 5.70009V5.70046L2.67943 5.70086L2.67216 5.8021L2.66496 5.958L2.66493 5.95834L2.66133 6.11731V6.28001L2.66496 6.45033L2.67519 6.6102H2.67583V6.62019L2.68834 6.77434L2.6903 6.79764L2.70479 6.94266L2.70819 6.97682L2.70839 6.97891L2.73009 7.15965L2.75905 7.34805L2.79165 7.54023L2.79242 7.54478L2.7897 7.54847L2.74984 7.60285L2.52469 7.89953L2.52152 7.90374L2.26418 8.25905L2.01451 8.61734L2.01195 8.62253H2.01104L1.81852 8.90781L1.7688 8.97882L1.76779 8.98039L1.76493 8.98473L1.61931 9.2122L1.53245 9.34249L1.4237 9.52019L1.30421 9.70856L1.3031 9.71053L1.23542 9.82812L1.08804 10.0761L1.08679 10.0783L1.05423 10.1362L0.930975 10.3538L0.878464 10.4448C0.877994 10.4471 0.876829 10.4491 0.875101 10.4507L0.865177 10.4679L0.857002 10.4467L0.820773 10.3524L0.820638 10.3521L0.744612 10.1347L0.722848 10.0767L0.722713 10.0763L0.639388 9.82615L0.639287 9.82585L0.616379 9.75019C0.606114 9.71812 0.595972 9.68609 0.585968 9.65411L0.541463 9.51789L0.541362 9.51749L0.4906 9.33985L0.454369 9.20928L0.389109 8.97719L0.389007 8.97689L0.370912 8.90436L0.302084 8.61432L0.298417 8.59981L0.298316 8.59945L0.225856 8.26222L0.225621 8.26111V8.25367L0.223367 8.24183C0.207745 8.16325 0.192984 8.08498 0.179064 8.00707L0.164296 7.92901L0.157063 7.89999L0.156963 7.89953L0.156895 7.89904L0.109766 7.59812L0.109699 7.59763L0.109665 7.59717L0.106402 7.5489C0.0983654 7.49064 0.090851 7.43256 0.0837962 7.37473L0.0807351 7.35128L0.0711141 7.27734L0.0698023 7.26762L0.0696676 7.26633L0.0682546 7.2556L0.0589365 7.16242L0.041814 6.99087L0.0407377 6.98106L0.038181 6.95465H0.0376427L0.0371382 6.94432L0.0371044 6.94374L0.0360616 6.93288H0.0365664L0.0312849 6.82796C0.0269994 6.76638 0.0233055 6.70504 0.0201838 6.64402L0.0192418 6.62944L0 6.6102H0.0151715L0.0117739 6.45094L0.00814078 6.31315V6.2572C0.00743456 6.19144 0.00744606 6.12601 0.00814078 6.06096V5.95726L0.00820807 5.9564L0.0123121 5.86792C0.0138958 5.8191 0.0158102 5.77046 0.018199 5.72207L0.0190064 5.70009L0.0189727 5.65299V5.65256L0.0190064 5.65216L0.0299056 5.50348L0.0363309 5.41359L0.0370709 5.40307L0.0371717 5.40197L0.0372055 5.40166L0.0408047 5.36541L0.0553035 5.22756L0.0697685 5.1083V5.0936L0.0699366 5.09271L0.0868574 4.99384C0.0896213 4.97429 0.0924601 4.95473 0.0953682 4.93524L0.104653 4.85885L0.106133 4.84646L0.109732 4.82106L0.109833 4.82048L0.127965 4.72981L0.149696 4.61748L0.164195 4.54135L0.164262 4.54105L0.171461 4.50852L0.193226 4.407L0.212064 4.32221H0.211593L0.214991 4.30868L0.225924 4.26521L0.226024 4.26487L0.240523 4.21409L0.247049 4.19078C0.255927 4.15687 0.264995 4.12305 0.274364 4.08945L0.284187 4.05028H0.283414L0.287652 4.03626L0.289603 4.02855H0.289973L0.298585 4.00002L0.308745 3.96691L0.312612 3.95427L0.313049 3.95282L0.315404 3.94517L0.338483 3.87295L0.346184 3.84971C0.352671 3.82954 0.359294 3.8094 0.365965 3.78936L0.378244 3.74638L0.378346 3.74607L0.411042 3.6515L0.411177 3.65114L0.461772 3.52106L0.469037 3.49935L0.469172 3.49892L0.469341 3.49852L0.490431 3.44927C0.508982 3.40291 0.528006 3.35689 0.547618 3.31129L0.559697 3.28159L0.566928 3.26001L0.567232 3.25906L0.567737 3.2582L0.583511 3.22967C0.585122 3.22607 0.586773 3.22247 0.58839 3.21888L0.601038 3.18733H0.599458L0.607328 3.17159L0.609717 3.1656H0.610357L0.63256 3.12114L0.65429 3.07402L0.668924 3.04229H0.666904L0.676493 3.02593L0.699806 2.98602C0.704998 2.97578 0.710194 2.96553 0.715448 2.95533L0.723319 2.93955L0.726313 2.93352L0.731795 2.92396C0.738654 2.91086 0.745562 2.89777 0.752519 2.88473L0.763181 2.86339L0.766209 2.8574H0.766545L0.781314 2.83075L0.795846 2.80174L0.796618 2.8002L0.797829 2.79898L0.800523 2.79622L0.802001 2.7939C0.811012 2.77775 0.820119 2.76165 0.829283 2.74561L0.832041 2.74013L0.832345 2.73952L0.832714 2.73895L0.835374 2.73491C0.839712 2.72735 0.844185 2.71986 0.84856 2.71233H0.847886L0.857811 2.69584L0.860501 2.69059H0.860971L0.86632 2.68174L0.867532 2.67976H0.865008L0.875639 2.6637L0.875842 2.66337L0.876211 2.6628L0.882433 2.65347L0.883242 2.6523L0.88647 2.6458L0.888893 2.64096V2.63621L0.893467 2.63618L0.913853 2.59993H0.913112L0.923037 2.58345L0.923913 2.58196L0.926031 2.57819L0.933969 2.56534L0.934206 2.56494L1.05474 2.38238H1.05231L1.06429 2.36606L1.06702 2.36064L1.06833 2.36061L1.20638 2.17286L1.20685 2.17222L1.20743 2.17162L1.21089 2.16815L1.22529 2.14998C1.25537 2.11085 1.286 2.07214 1.31719 2.03392L1.36247 1.97678L1.36288 1.9763L1.40923 1.92424C1.44174 1.88661 1.47484 1.84945 1.50847 1.81276L1.54046 1.77689L1.54066 1.77665L1.54089 1.77645L1.56142 1.75588C1.59395 1.72146 1.62697 1.68741 1.66052 1.65385C1.67281 1.64156 1.68518 1.62933 1.69759 1.61717L1.72561 1.58803L1.72588 1.58776L1.72615 1.58752L1.76998 1.54772C1.81293 1.50727 1.85656 1.4676 1.90084 1.42872H1.89912L1.92085 1.41065L1.93811 1.39622C1.99313 1.34886 2.04919 1.30274 2.10618 1.25777L2.12888 1.2391L2.12932 1.23873L2.15539 1.21941C2.34924 1.07024 2.55411 0.934677 2.76925 0.812731L2.80443 0.792102L2.8047 0.791936L2.8266 0.780662C2.8963 0.74226 2.96705 0.70526 3.03883 0.66968L3.04765 0.664967L3.04822 0.6647L3.05986 0.659314C3.13347 0.623208 3.20818 0.588584 3.2839 0.555433L3.29826 0.548734L3.29856 0.548602L3.3092 0.544325C3.42025 0.496337 3.53357 0.451584 3.64901 0.409923H3.64554L3.70192 0.391077C3.80891 0.353572 3.91771 0.318777 4.02827 0.286657H4.01938L4.09206 0.268451C4.18469 0.242561 4.27852 0.218515 4.37352 0.196369L4.38748 0.192701L4.38785 0.1926L4.40356 0.189504Z" fill="white"/>
</svg>
