<svg width="24" height="27" viewBox="0 0 24 27" fill="none" xmlns="http://www.w3.org/2000/svg">
<g opacity="0.5" clip-path="url(#clip0_1643_2193)">
<mask id="mask0_1643_2193" style="mask-type:luminance" maskUnits="userSpaceOnUse" x="0" y="0" width="24" height="27">
<path d="M23.9374 0H0V27H23.9374V0Z" fill="white"/>
</mask>
<g mask="url(#mask0_1643_2193)">
<path d="M21.5592 15.1902C21.4972 14.9101 21.3278 14.6654 21.0872 14.5086C20.8505 14.3601 20.5186 14.2924 20.214 14.7218C19.5198 15.6989 19.4404 15.7868 19.4404 15.7868C19.4404 15.7868 18.5903 16.9483 17.9595 17.47C17.3561 17.9906 16.7239 18.477 16.0659 18.9269C14.3408 20.0126 12.3199 20.5349 10.2839 20.4213C9.7533 20.3981 9.2468 20.1936 8.84925 19.842C8.45135 19.4905 8.18641 19.0134 8.09869 18.4903C7.94032 17.6672 7.91355 16.8243 8.01932 15.9929C8.1257 14.9101 8.43928 13.8578 8.94305 12.8931C9.74472 11.2145 10.7375 9.63379 11.9019 8.18224C12.4806 7.49199 13.0854 6.82475 13.7262 6.1921C14.0882 5.79878 14.5605 5.52358 15.0815 5.40242C15.1533 5.44019 15.2167 5.49216 15.2677 5.55517C15.3183 5.61869 15.3556 5.69173 15.3774 5.76989C15.3986 5.84826 15.4039 5.93007 15.3933 6.01056C15.3819 6.09062 15.3544 6.16757 15.3125 6.23679C14.8578 7.2715 14.3873 8.30185 13.9774 9.35674C13.5816 10.2097 13.4293 11.1551 13.5372 12.089C13.6845 12.7408 14.0005 13.3425 14.4537 13.8342C14.9062 14.3263 15.48 14.6914 16.1179 14.8933C16.3327 14.9671 16.5681 14.9536 16.7731 14.8559C16.978 14.7569 17.1356 14.5814 17.2119 14.3673C17.6694 13.3802 18.114 12.3916 18.5614 11.4016C19.0492 10.4461 19.4246 9.4373 19.68 8.39554C19.9297 7.44109 19.8026 6.42731 19.3249 5.56381C18.8036 4.71743 18.1079 3.9914 17.2841 3.43389C16.1005 2.61537 14.8275 2.10667 13.351 2.38192C12.2103 2.59838 11.1229 3.03503 10.1497 3.66737C8.83295 4.51611 7.65611 5.56375 6.66115 6.77287C5.70149 7.94093 4.86433 9.20416 4.16275 10.5427C3.27803 12.139 2.68793 13.8811 2.42064 15.6859C2.24911 16.8384 2.28185 18.012 2.51734 19.1532C2.81185 20.6976 3.63983 22.0899 4.85696 23.0873C6.09388 24.0706 7.61412 24.6318 9.1942 24.6883C10.0459 24.7122 10.8982 24.6688 11.7431 24.5586C12.9862 24.4003 14.1927 24.0293 15.3096 23.462C16.024 23.1247 16.7024 22.7025 17.388 22.3207C17.388 22.3207 20.3916 20.2152 21.2056 17.9369C21.7165 16.5088 21.6674 15.6398 21.5592 15.1902Z" fill="white"/>
<path d="M23.8027 14.6557C23.6038 13.7867 23.0682 13.0318 22.3131 12.5561C21.8581 12.2662 21.3329 12.1048 20.7933 12.0892C21.2745 11.0872 21.6508 10.0383 21.9162 8.95917C22.3125 7.43796 22.1073 5.82285 21.3432 4.44859L21.3173 4.40103L21.2884 4.35493C20.5995 3.23241 19.6783 2.26988 18.5865 1.53186C17.0941 0.501491 15.6435 0 14.1511 0C13.737 0.000597199 13.3239 0.0396745 12.9171 0.116727C11.4831 0.386711 10.116 0.934548 8.89305 1.72929C7.37564 2.70867 6.0192 3.91665 4.87193 5.31036C3.81857 6.59367 2.89831 7.98036 2.12527 9.44912C1.11313 11.2799 0.438504 13.2772 0.133483 15.346C-0.0772783 16.7599 -0.0382086 18.1997 0.248939 19.6001C0.648838 21.6677 1.75913 23.5311 3.38819 24.8687L3.41561 24.8917C5.04213 26.1777 7.03633 26.9136 9.10955 26.9928H9.12399C9.29861 26.9971 9.47182 27 9.64648 27C10.4442 26.9997 11.2412 26.9481 12.0323 26.8458C13.5273 26.6558 14.9787 26.2113 16.3233 25.5315C16.8992 25.2577 17.4231 24.9565 17.9298 24.664C18.1231 24.5531 18.3166 24.4421 18.51 24.334L18.6139 24.2764L18.712 24.2072C19.0815 23.9492 22.3463 21.5974 23.3769 18.7124C23.934 17.1575 24.0754 15.7913 23.8027 14.6557ZM21.2032 17.9371C20.3892 20.2154 17.3856 22.3208 17.3856 22.3208C16.7 22.7027 16.0217 23.125 15.3072 23.4622C14.1903 24.0295 12.9838 24.4005 11.7407 24.5588C10.8958 24.669 10.0436 24.7124 9.19183 24.6885C7.61175 24.6319 6.09154 24.0708 4.85463 23.0875C3.63745 22.0901 2.80948 20.6978 2.51498 19.1533C2.27949 18.0122 2.24675 16.8386 2.41827 15.6861C2.68557 13.8813 3.27566 12.1392 4.16038 10.5429C4.86196 9.20433 5.69912 7.94114 6.65878 6.77305C7.65374 5.56396 8.83058 4.51632 10.1473 3.66755C11.1205 3.03521 12.2079 2.59857 13.3486 2.3821C14.8251 2.10685 16.0982 2.61555 17.2817 3.4341C18.1055 3.99158 18.8012 4.71761 19.3226 5.56399C19.8003 6.42752 19.9274 7.44127 19.6776 8.39572C19.4223 9.43748 19.0469 10.4462 18.559 11.4018C18.1116 12.3918 17.6671 13.3804 17.2095 14.3675C17.1332 14.5816 16.9756 14.7571 16.7708 14.856C16.5657 14.9538 16.3304 14.9672 16.1155 14.8935C15.4776 14.6916 14.9039 14.3264 14.4513 13.8343C13.9981 13.3427 13.6821 12.741 13.5348 12.0892C13.4269 11.1553 13.5792 10.2098 13.975 9.35692C14.3849 8.30203 14.8555 7.27167 15.3101 6.23697C15.3521 6.16778 15.3795 6.09083 15.3909 6.01074C15.4016 5.93025 15.3962 5.84847 15.375 5.77007C15.3532 5.6919 15.3159 5.61887 15.2654 5.55535L15.2639 5.5539C15.2552 5.54381 15.248 5.53517 15.2394 5.52653C15.1983 5.48681 15.1475 5.45835 15.0921 5.44394C15.0368 5.42956 14.9786 5.4297 14.9233 5.44438C14.9188 5.44465 14.9144 5.44563 14.9103 5.44728C14.9031 5.45015 14.8944 5.4516 14.8872 5.45447C14.854 5.46456 14.8223 5.47466 14.7919 5.48616C14.7299 5.50925 14.6678 5.53372 14.6072 5.55967C14.5856 5.56831 14.5668 5.5784 14.5466 5.58849C14.5293 5.59713 14.5134 5.60577 14.4961 5.61445C14.3669 5.68674 14.2442 5.77017 14.1295 5.86373C13.9029 6.03902 13.6879 6.2287 13.4857 6.43154C13.4698 6.44736 13.454 6.46178 13.4396 6.47764C13.3472 6.57129 13.2562 6.66644 13.1667 6.76296C13.1148 6.81483 13.0657 6.86674 13.0181 6.91861C12.8839 7.06128 12.7525 7.20394 12.6212 7.3495C12.5259 7.4547 12.4321 7.56132 12.3383 7.66942L12.334 7.67374C12.2863 7.72848 12.2373 7.78471 12.1896 7.8409C12.0915 7.95329 11.9948 8.06713 11.8995 8.18242C10.7352 9.63397 9.74234 11.2147 8.94068 12.8933C8.43695 13.858 8.12336 14.9103 8.01695 15.993C7.91118 16.8245 7.93798 17.6674 8.09632 18.4904C8.18403 19.0136 8.44898 19.4908 8.84687 19.8422C9.24443 20.1938 9.75093 20.3983 10.2815 20.4215C12.3175 20.5351 14.3384 20.0127 16.0635 18.9271C16.7215 18.4772 17.3538 17.9908 17.9572 17.4701C18.5879 16.9485 19.438 15.787 19.438 15.787C19.438 15.787 19.5174 15.6991 20.2117 14.722C20.5162 14.2926 20.8482 14.3603 21.0849 14.5088C21.3254 14.6656 21.4948 14.9103 21.5568 15.1904C21.6651 15.64 21.7142 16.5089 21.2032 17.9371Z" fill="#262626"/>
</g>
</g>
<defs>
<clipPath id="clip0_1643_2193">
<rect width="24" height="27" fill="white"/>
</clipPath>
</defs>
</svg>
