<svg xmlns="http://www.w3.org/2000/svg" viewBox="0 0 256 193">
  <path fill="#4285F4" d="M58.182 192.05V93.14L27.507 65.077 0 49.504v125.091c0 9.658 7.825 17.455 17.455 17.455z"/>
  <path fill="#34A853" d="M197.818 192.05h40.727c9.658 0 17.455-7.826 17.455-17.455V49.505l-31.156 17.837-27.026 25.798z"/>
  <path fill="#EA4335" d="M58.182 93.14V17.872l69.818 52.364 69.818-52.364V93.14L128 145.504z"/>
  <path fill="#FBBC04" d="M197.818 17.872V93.14L256 49.505V26.59c0-21.585-25.232-33.911-42.515-20.625z"/>
  <path fill="#C5221F" d="M0 49.504l26.759 20.063 31.423 23.572V17.872l-15.59-11.677C25.244-7.218 0 5.218 0 26.81z"/>
</svg>
