<svg width="17" height="25" viewBox="0 0 17 25" fill="none" xmlns="http://www.w3.org/2000/svg">
<path opacity="0.5" d="M8.54629 0.000301295C3.87105 -0.0386886 0.0464983 3.71143 0.000419348 8.38667C-0.0456596 13.0619 3.71155 16.8865 8.38678 16.9325H11.3323V13.7637H8.54629C5.62559 13.8027 3.22949 11.4598 3.19404 8.53908C3.15505 5.61839 5.49799 3.22228 8.41869 3.18684H8.5392C11.4528 3.18684 13.8383 5.55813 13.8383 8.47883V16.2697C13.8383 19.1691 11.4812 21.5263 8.58882 21.5617C7.20291 21.5475 5.88434 20.9981 4.90605 20.0092L2.66236 22.2458C4.22196 23.8125 6.32741 24.6986 8.53566 24.7234H8.64908C13.2641 24.6561 16.9752 20.913 17 16.2981V8.25552C16.8901 3.66889 13.1329 0.00739036 8.54629 0.000301295Z" fill="white"/>
</svg>
