<svg xmlns="http://www.w3.org/2000/svg" width="400" height="400" viewBox="0 0 400 400" fill="none"><metadata><rdf:RDF xmlns:rdf="http://www.w3.org/1999/02/22-rdf-syntax-ns#" xmlns:dc="http://purl.org/dc/elements/1.1/"><rdf:Description><dc:creator>RealFaviconGenerator</dc:creator><dc:source>https://realfavicongenerator.net</dc:source></rdf:Description></rdf:RDF></metadata><rect width="400" height="400" fill="#81B300"></rect><path d="M136.217 99C140.703 99 144.515 100.593 147.651 103.779C150.84 106.911 152.434 110.719 152.434 115.202V123.027C152.434 124 153.671 124.413 154.256 123.637L167.922 105.481C170.571 101.917 174.112 99.8373 178.544 99.2433C182.977 98.5953 187.004 99.5944 190.626 102.24C194.194 104.941 196.274 108.505 196.869 112.933C197.518 117.361 196.491 121.359 193.788 124.923L179.697 143.717C179.158 144.437 179.158 145.426 179.696 146.146L197.761 170.287C200.464 173.851 201.492 177.848 200.843 182.276C200.248 186.704 198.167 190.268 194.599 192.969C190.977 195.615 186.95 196.614 182.517 195.966C178.085 195.372 174.544 193.293 171.895 189.729L154.255 166.378C153.669 165.603 152.434 166.017 152.434 166.988V180.008C152.434 184.49 150.84 188.325 147.651 191.511C144.515 194.643 140.703 196.209 136.217 196.209C131.73 196.209 127.892 194.643 124.703 191.511C121.567 188.325 120 184.49 120 180.008V115.202C120 110.719 121.567 106.911 124.703 103.779C127.892 100.593 131.73 99.0001 136.217 99Z" fill="#1C2024"></path><path fill-rule="evenodd" clip-rule="evenodd" d="M245.654 99.8099C254.628 99.8099 262.277 102.97 268.602 109.288C274.926 115.607 278.089 123.248 278.089 132.213C278.089 141.178 274.926 148.82 268.602 155.139C268.373 155.367 268.144 155.59 267.915 155.807C267.138 156.545 266.996 157.752 267.639 158.611L276.386 170.287C279.089 173.851 280.116 177.848 279.467 182.276C278.872 186.704 276.792 190.268 273.224 192.969C269.602 195.615 265.575 196.614 261.142 195.966C256.71 195.372 253.169 193.293 250.52 189.729L239.436 170.421C238.92 169.522 237.546 169.888 237.546 170.925V180.008C237.546 184.49 235.951 188.325 232.762 191.511C229.627 194.643 225.816 196.209 221.329 196.209C216.842 196.209 213.004 194.643 209.815 191.511C206.68 188.325 205.111 184.49 205.111 180.008V116.011C205.111 111.529 206.68 107.721 209.815 104.589C213.004 101.403 216.842 99.8099 221.329 99.8099H245.654ZM241.209 125.327C237.574 125.327 234.628 128.274 234.628 131.909C234.628 135.544 237.574 138.491 241.209 138.491C244.844 138.491 247.79 135.544 247.79 131.909C247.79 128.274 244.844 125.327 241.209 125.327Z" fill="#1C2024"></path><path d="M192.977 202.791C197.464 202.791 201.274 204.384 204.409 207.57C207.599 210.702 209.194 214.51 209.194 218.992V283.798C209.194 288.281 207.599 292.116 204.409 295.302C201.274 298.434 197.464 300 192.977 300C188.491 300 184.68 298.407 181.544 295.221L154.207 264.106C153.591 263.405 152.435 263.841 152.434 264.775V283.798C152.434 288.281 150.839 292.116 147.65 295.302C144.514 298.434 140.703 300 136.217 300C131.73 300 127.892 298.434 124.703 295.302C121.567 292.116 120 288.281 120 283.798V218.992C120 214.51 121.567 210.702 124.703 207.57C127.892 204.384 131.73 202.791 136.217 202.791C140.703 202.791 144.541 204.357 147.731 207.489L174.986 238.597C175.602 239.299 176.76 238.864 176.76 237.929V218.992C176.76 214.51 178.328 210.702 181.463 207.57C184.653 204.384 188.491 202.791 192.977 202.791Z" fill="#1C2024"></path><path d="M231.348 202.791C235.835 202.791 239.646 204.384 242.781 207.57C245.97 210.702 247.566 214.51 247.566 218.992V264.762C247.566 265.88 248.472 266.787 249.591 266.787H263.783C268.27 266.787 272.081 268.38 275.216 271.566C278.406 274.699 280 278.506 280 282.989C280 287.471 278.406 291.306 275.216 294.492C272.081 297.624 268.27 299.19 263.783 299.19H231.348C226.862 299.19 223.024 297.624 219.835 294.492C216.7 291.306 215.132 287.471 215.131 282.989V218.992C215.131 214.51 216.7 210.702 219.835 207.57C223.024 204.384 226.862 202.791 231.348 202.791Z" fill="#1C2024"></path><path d="M267.423 202.791C274.369 202.791 280 208.416 280 215.355C280 222.295 274.369 227.92 267.423 227.92C260.477 227.92 254.847 222.295 254.847 215.355C254.847 208.416 260.477 202.791 267.423 202.791Z" fill="#1C2024"></path></svg>