<svg width="24" height="24" viewBox="0 0 24 24" fill="none" xmlns="http://www.w3.org/2000/svg">
<g opacity="0.5">
<path fill-rule="evenodd" clip-rule="evenodd" d="M6.099 6H17.9C21.264 6 24 8.692 24 12C24 15.308 21.264 18 17.901 18H6.1C2.736 18 0 15.308 0 12C0 8.692 2.736 6 6.099 6ZM11.518 15.3C11.666 15.454 11.885 15.446 12.079 15.406L12.081 15.407C12.171 15.335 12.043 15.244 11.921 15.157C11.847 15.105 11.776 15.055 11.755 15.01C11.823 14.93 11.622 14.745 11.466 14.602C11.4126 14.5562 11.3625 14.5067 11.316 14.454C11.206 14.335 11.161 14.186 11.116 14.036C11.086 13.936 11.056 13.836 11.006 13.744C10.702 13.05 10.353 12.361 9.863 11.774C9.548 11.384 9.189 11.034 8.83 10.684C8.59663 10.4604 8.3689 10.231 8.147 9.996C7.921 9.767 7.785 9.485 7.648 9.202C7.534 8.966 7.42 8.729 7.252 8.522C6.745 7.787 5.145 7.586 4.91 8.626C4.91 8.658 4.9 8.678 4.871 8.699C4.741 8.793 4.626 8.899 4.529 9.026C4.291 9.352 4.255 9.903 4.551 10.196L4.552 10.177C4.562 10.03 4.572 9.891 4.691 9.786C4.919 9.979 5.267 10.048 5.532 9.903C5.852 10.353 5.954 10.898 6.057 11.443C6.142 11.899 6.227 12.355 6.439 12.759L6.453 12.781C6.577 12.984 6.703 13.191 6.863 13.368C6.922 13.457 7.041 13.552 7.16 13.647C7.317 13.772 7.474 13.897 7.489 14.006V14.149C7.488 14.434 7.487 14.729 7.673 14.962C7.776 15.167 7.523 15.372 7.321 15.347C7.209 15.362 7.088 15.333 6.967 15.305C6.802 15.265 6.638 15.227 6.505 15.302C6.467 15.342 6.414 15.342 6.36 15.344C6.296 15.346 6.231 15.348 6.193 15.414C6.185 15.433 6.167 15.454 6.148 15.477C6.106 15.527 6.061 15.582 6.115 15.623L6.13 15.613C6.212 15.551 6.29 15.493 6.4 15.529C6.386 15.609 6.439 15.631 6.492 15.652L6.519 15.664C6.51788 15.6829 6.5152 15.7016 6.511 15.72C6.502 15.765 6.494 15.808 6.529 15.847C6.54539 15.8299 6.56075 15.8119 6.575 15.793C6.612 15.747 6.648 15.701 6.714 15.683C6.858 15.873 7.003 15.794 7.185 15.696C7.391 15.585 7.644 15.448 7.995 15.641C7.86 15.635 7.74 15.651 7.65 15.761C7.627 15.785 7.608 15.813 7.648 15.845C7.855 15.713 7.942 15.76 8.023 15.805C8.083 15.837 8.138 15.868 8.235 15.829L8.305 15.793C8.46 15.71 8.619 15.627 8.804 15.656C8.665 15.695 8.616 15.781 8.562 15.874C8.536 15.921 8.508 15.969 8.468 16.014C8.447 16.035 8.438 16.06 8.461 16.094C8.751 16.071 8.861 15.999 9.009 15.902C9.079 15.856 9.159 15.803 9.27 15.748C9.394 15.673 9.518 15.721 9.638 15.768C9.768 15.818 9.893 15.866 10.009 15.754C10.046 15.721 10.092 15.72 10.138 15.72C10.154 15.72 10.171 15.72 10.188 15.718C10.151 15.528 9.948 15.53 9.74 15.532C9.5 15.535 9.257 15.538 9.265 15.243C9.487 15.094 9.489 14.836 9.491 14.592C9.491 14.532 9.491 14.475 9.496 14.419C9.659 14.509 9.832 14.579 10.004 14.648C10.166 14.713 10.327 14.778 10.478 14.858C10.636 15.108 10.882 15.438 11.21 15.416C11.218 15.39 11.226 15.369 11.236 15.343C11.255 15.347 11.275 15.351 11.295 15.357C11.381 15.377 11.473 15.4 11.518 15.3ZM17.947 12.471C18.137 12.657 18.394 12.761 18.663 12.761C18.932 12.761 19.189 12.657 19.379 12.471C19.4726 12.38 19.5472 12.2712 19.5982 12.151C19.6492 12.0308 19.6756 11.9016 19.676 11.771C19.6756 11.6404 19.6492 11.5112 19.5982 11.391C19.5472 11.2708 19.4726 11.162 19.379 11.071C19.2391 10.9345 19.0631 10.8409 18.8717 10.8012C18.6804 10.7615 18.4816 10.7774 18.299 10.847L17.719 10.016L17.314 10.288L17.897 11.123C17.7307 11.3111 17.6431 11.5561 17.6524 11.807C17.6617 12.0579 17.7672 12.2957 17.947 12.471ZM16.13 9.781C16.2981 9.86239 16.4852 9.89655 16.6712 9.87981C16.8572 9.86308 17.0351 9.79608 17.186 9.686C17.3584 9.56046 17.4857 9.38266 17.549 9.179C17.6117 8.97615 17.606 8.75835 17.533 8.559C17.4588 8.35865 17.3221 8.18753 17.143 8.071C16.9439 7.94041 16.7057 7.88297 16.4689 7.9085C16.2322 7.93404 16.0117 8.04096 15.845 8.211C15.7368 8.32284 15.6565 8.45869 15.6108 8.60746C15.5651 8.75622 15.5552 8.91369 15.582 9.067C15.6101 9.21985 15.6742 9.36381 15.769 9.487C15.864 9.612 15.988 9.712 16.13 9.781ZM16.13 15.533C16.2981 15.6142 16.4852 15.6482 16.6711 15.6315C16.8571 15.6148 17.035 15.5479 17.186 15.438C17.3584 15.3125 17.4857 15.1347 17.549 14.931C17.6117 14.7282 17.606 14.5103 17.533 14.311C17.4588 14.1106 17.3221 13.9395 17.143 13.823C16.944 13.6922 16.7057 13.6347 16.4689 13.6602C16.2321 13.6857 16.0116 13.7928 15.845 13.963C15.7367 14.0748 15.6564 14.2106 15.6107 14.3594C15.565 14.5082 15.5552 14.6657 15.582 14.819C15.6101 14.9718 15.6742 15.1158 15.769 15.239C15.864 15.364 15.988 15.464 16.13 15.533ZM17.06 12.017V11.525H15.51C15.4707 11.375 15.3964 11.2365 15.293 11.121L15.877 10.274L15.452 9.998L14.869 10.845C14.6903 10.7827 14.4978 10.7713 14.313 10.8119C14.1281 10.8525 13.9582 10.9436 13.822 11.075C13.7287 11.1654 13.6544 11.2735 13.6036 11.3931C13.5528 11.5126 13.5264 11.6411 13.526 11.771C13.526 12.032 13.633 12.283 13.822 12.467C13.9582 12.5984 14.1281 12.6895 14.313 12.7301C14.4978 12.7707 14.6903 12.7593 14.869 12.697L15.452 13.544L15.872 13.268L15.293 12.421C15.3964 12.3055 15.4707 12.167 15.51 12.017H17.06Z" fill="#36ABAB"/>
</g>
</svg>
