<svg width="34" height="34" viewBox="0 0 34 34" fill="none" xmlns="http://www.w3.org/2000/svg">
<circle cx="16.6532" cy="16.9999" r="14.0966" stroke="white" stroke-width="1.16026"/>
<ellipse cx="16.6533" cy="17" rx="14.0966" ry="9.45478" transform="rotate(45 16.6533 17)" stroke="white" stroke-width="1.16026"/>
<path d="M10.8984 17.0508H22.483" stroke="white" stroke-width="1.16026"/>
<path d="M13.748 19.9932L19.6339 14.1074" stroke="white" stroke-width="1.16026"/>
<path d="M19.6328 19.9932L13.747 14.1074" stroke="white" stroke-width="1.16026"/>
<path fill-rule="evenodd" clip-rule="evenodd" d="M7.00863 10.796C4.56184 12.4371 3.13683 14.6416 3.13683 16.9998C3.13683 19.3579 4.56184 21.5624 7.00863 23.2035C9.45169 24.8421 12.8599 25.8744 16.6533 25.8744C20.4467 25.8744 23.8548 24.8421 26.2979 23.2035C28.7447 21.5624 30.1697 19.3579 30.1697 16.9998C30.1697 14.6416 28.7447 12.4371 26.2979 10.796C23.8548 9.15742 20.4467 8.12511 16.6533 8.12511C12.8599 8.12511 9.45169 9.15742 7.00863 10.796ZM6.36234 9.83242C9.02124 8.04906 12.6613 6.96484 16.6533 6.96484C20.6452 6.96484 24.2853 8.04906 26.9442 9.83242C29.5994 11.6133 31.33 14.1362 31.33 16.9998C31.33 19.8633 29.5994 22.3862 26.9442 24.1671C24.2853 25.9505 20.6452 27.0347 16.6533 27.0347C12.6613 27.0347 9.02124 25.9505 6.36234 24.1671C3.70718 22.3862 1.97656 19.8633 1.97656 16.9998C1.97656 14.1362 3.70718 11.6133 6.36234 9.83242Z" fill="white"/>
</svg>
