<svg width="24" height="24" viewBox="0 0 24 24" fill="none" xmlns="http://www.w3.org/2000/svg">
<g clip-path="url(#clip0_1643_2230)">
<path d="M12.6975 13.1173C11.675 14.1397 11.675 15.7974 12.6975 16.8197C13.72 17.8421 15.3779 17.8421 16.4003 16.8197C17.4228 15.7974 17.4228 14.1397 16.4003 13.1173C15.3779 12.0949 13.72 12.0949 12.6975 13.1173ZM15.4655 15.8874C14.9591 16.3937 14.1387 16.3937 13.6324 15.8874C13.126 15.3811 13.126 14.5608 13.6324 14.0545C14.1387 13.5482 14.9591 13.5482 15.4655 14.0545C15.9719 14.5583 15.9719 15.3811 15.4655 15.8874ZM16.3565 0.235509L14.7522 1.83965C14.4382 2.15366 14.4382 2.66971 14.7522 2.98372L21.0161 9.24692C21.3301 9.56093 21.8462 9.56093 22.1603 9.24692L23.7646 7.64278C24.0786 7.32877 24.0786 6.81272 23.7646 6.49871L17.4983 0.235509C17.1842 -0.078503 16.6706 -0.078503 16.3565 0.235509ZM5.11662 20.7339C5.40145 20.4491 5.40145 19.9842 5.11662 19.6994L4.30108 18.8839C4.01625 18.5991 3.55126 18.5991 3.26643 18.8839L1.58179 20.5684L1.57935 20.5708L1.11681 20.1083C0.861189 19.8527 0.444897 19.8527 0.191714 20.1083C-0.0639045 20.3639 -0.0639045 20.7802 0.191714 21.0333L2.96699 23.8083C3.22261 24.0639 3.63891 24.0639 3.89209 23.8083C4.14527 23.5527 4.14771 23.1365 3.89209 22.8833L3.42954 22.4208L3.43198 22.4184L5.11662 20.7339Z" fill="#F5A800"/>
<path d="M13.6021 4.84072L10.0381 8.40439C9.72161 8.72084 9.72161 9.24176 10.0381 9.5582L12.2388 11.7587C13.7945 10.639 15.9757 10.7777 17.3755 12.1774L19.1576 10.3956C19.474 10.0791 19.474 9.5582 19.1576 9.24176L14.7561 4.84072C14.4396 4.52184 13.9186 4.52184 13.6021 4.84072ZM11.3137 12.6862L10.0137 11.3863C9.70943 11.082 9.21037 11.082 8.90606 11.3863L4.32198 15.9723C4.01767 16.2766 4.01767 16.7756 4.32198 17.0799L6.91955 19.6772C7.22385 19.9814 7.72292 19.9814 8.02722 19.6772L10.9754 16.7245C10.3521 15.4368 10.4641 13.8813 11.3137 12.6862Z" fill="#425CC7"/>
</g>
<defs>
<clipPath id="clip0_1643_2230">
<rect width="24" height="24" fill="white"/>
</clipPath>
</defs>
</svg>
