<svg width="44" height="30" viewBox="0 0 44 30" fill="none" xmlns="http://www.w3.org/2000/svg">
<path d="M21.0391 4.79175V0.625091C21.0391 0.279914 21.319 0 21.6642 0C22.0094 0 22.2893 0.279914 22.2893 0.625091V4.79175C22.2893 5.13693 22.0094 5.41683 21.6642 5.41683C21.319 5.41683 21.0391 5.13693 21.0391 4.79175Z" fill="#979740"/>
<path d="M24.2713 5.41326L26.3547 1.80482C26.5272 1.50588 26.9096 1.40343 27.2085 1.57602C27.5075 1.74861 27.6099 2.13098 27.4373 2.42991L25.354 6.03834C25.1814 6.33726 24.7991 6.43974 24.5001 6.26715C24.2012 6.09456 24.0987 5.71218 24.2713 5.41326Z" fill="#979740"/>
<path d="M19.0545 5.41326L16.9712 1.80482C16.7986 1.50588 16.4162 1.40343 16.1173 1.57602C15.8184 1.74861 15.7159 2.13098 15.8885 2.42991L17.9718 6.03834C18.1444 6.33726 18.5268 6.43974 18.8257 6.26715C19.1247 6.09456 19.2271 5.71218 19.0545 5.41326Z" fill="#979740"/>
<path d="M29.0658 27.4819C28.0572 26.6609 26.7782 24.8317 26.2423 23.0321C25.5724 20.7825 24.1237 18.566 23.8018 18.007C23.5161 17.5109 24.4238 15.711 26.2423 17.1466C27.6971 18.2951 28.7308 20.2727 29.0658 21.1178C29.2014 21.46 30.4162 23.5071 30.0625 16.7144C29.9509 14.5664 29.6614 13.0266 29.5252 9.9145C29.4186 7.47277 30.0616 6.64996 31.0474 6.64996C32.0332 6.64996 32.8462 6.97018 32.8462 9.46135C32.8462 6.59332 33.4606 5.94709 34.8082 5.94727C35.9314 5.94745 36.4351 6.90517 36.4351 7.86142V9.48538C36.4351 7.86142 37.5151 7.70974 38.0701 7.70974C38.6254 7.70974 39.7372 8.19157 39.7372 9.48538V12.728C39.7372 11.1677 40.7116 10.7132 41.4463 10.7624C42.4033 10.8264 42.8359 11.5043 42.7039 13.0266C42.6097 14.1133 42.3211 17.291 42.3211 18.3416C42.3211 19.2842 42.7039 21.2369 42.3211 23.0321C42.1003 24.0679 41.5555 26.8117 38.7799 28.0559C36.0046 29.3001 31.1236 29.1571 29.0658 27.4819Z" fill="#FFFF8B"/>
<path d="M41.6962 18.3417C41.6962 17.2556 41.9893 14.0354 42.0814 12.9726C42.1435 12.2542 42.0571 11.8603 41.9416 11.6592C41.8567 11.5117 41.7241 11.4074 41.4046 11.386C41.1739 11.3706 40.9225 11.4364 40.7347 11.6058C40.5586 11.7645 40.3621 12.0834 40.3621 12.7282L40.3609 12.7646L40.0738 17.6603C40.0636 17.8365 39.9793 18.0003 39.8416 18.1109C39.7042 18.2215 39.5266 18.2687 39.3523 18.2412L36.3436 17.765L33.0988 17.334C32.7991 17.2942 32.5708 17.0455 32.557 16.7434L32.3779 12.8746L32.3764 12.8417C32.2966 11.3012 32.221 9.89595 32.221 9.4614C32.221 8.24871 32.0158 7.73712 31.8364 7.52196C31.6933 7.35039 31.4875 7.275 31.0474 7.275C30.8893 7.275 30.778 7.30737 30.6943 7.35627C30.6121 7.40436 30.5182 7.49055 30.4291 7.65918C30.2374 8.02065 30.0979 8.70024 30.1498 9.88731C30.217 11.4271 30.322 12.5773 30.4249 13.6145C30.5275 14.6499 30.6298 15.5898 30.6868 16.6821C30.7756 18.3919 30.7678 19.5706 30.6979 20.3707C30.6628 20.7701 30.6112 21.0928 30.5413 21.348C30.475 21.5897 30.3757 21.8356 30.2032 22.0195C29.9944 22.242 29.6968 22.3483 29.3875 22.2737C29.1422 22.2146 28.9698 22.0594 28.8756 21.9604C28.6786 21.7534 28.5394 21.4861 28.4848 21.3483C28.1673 20.5473 27.185 18.6872 25.8551 17.6373C25.4671 17.3309 25.1844 17.2425 25.0065 17.2291C24.8389 17.2164 24.7172 17.266 24.6217 17.3419C24.5164 17.4256 24.4378 17.5473 24.3988 17.6622C24.385 17.7029 24.3791 17.732 24.3766 17.7505C24.7372 18.3589 26.167 20.5896 26.8413 22.8536C27.3439 24.5412 28.5556 26.2607 29.4602 26.9972C30.3364 27.7103 31.9108 28.1523 33.6844 28.2395C35.4412 28.3258 37.2508 28.0566 38.5243 27.4857C40.9843 26.383 41.4853 23.9544 41.7097 22.9017C41.884 22.0846 41.8873 21.2125 41.8405 20.4032C41.8174 19.9995 41.7826 19.622 41.7523 19.2741C41.7229 18.9361 41.6962 18.6094 41.6962 18.3417ZM35.8102 7.86153C35.8102 7.48236 35.7088 7.14441 35.5411 6.91836C35.3893 6.71394 35.1664 6.57255 34.8082 6.57246C34.5148 6.5724 34.3177 6.60855 34.1782 6.66795C34.0534 6.72123 33.9487 6.80391 33.8533 6.95787C33.6334 7.31307 33.472 8.02659 33.4711 9.44814L33.6265 12.8136C33.6847 13.9362 33.7453 15.1528 33.7852 16.1641L35.8102 16.4329V7.86153ZM37.0603 16.6125L38.866 16.8983L39.112 12.713V9.48543C39.112 9.04224 38.9314 8.77119 38.7178 8.59761C38.4796 8.40411 38.2015 8.33487 38.0701 8.33487C37.831 8.33487 37.5841 8.37204 37.4062 8.49831C37.2691 8.59557 37.0603 8.82555 37.0603 9.48543V16.6125ZM40.3621 10.3613C40.7362 10.175 41.1364 10.1154 41.488 10.139C42.1255 10.1817 42.6874 10.4483 43.0255 11.0363C43.3324 11.5707 43.3963 12.277 43.3267 13.0807C43.2304 14.1914 42.946 17.3266 42.946 18.3417C42.946 18.5453 42.9673 18.8164 42.9976 19.1657C43.027 19.505 43.0639 19.9046 43.0885 20.3311C43.1377 21.1825 43.141 22.1844 42.9325 23.1625C42.715 24.1815 42.1267 27.2405 39.0358 28.6262C37.5337 29.2995 35.515 29.581 33.6232 29.4881C31.7479 29.3959 29.8528 28.9286 28.671 27.9666C27.5587 27.061 26.2126 25.1221 25.6433 23.2106C25.0003 21.0515 23.6077 18.9223 23.2602 18.3189C23.0556 17.9636 23.1196 17.5418 23.215 17.2607C23.3226 16.9436 23.531 16.6119 23.8442 16.363C24.1672 16.1065 24.5957 15.9442 25.1007 15.9823C25.5955 16.0197 26.1083 16.2447 26.6294 16.6561C27.9706 17.715 28.9547 19.3854 29.4371 20.4099C29.4421 20.3629 29.4481 20.3137 29.4526 20.2619C29.5153 19.546 29.5261 18.4333 29.4384 16.7469C29.3835 15.6912 29.2851 14.7872 29.1811 13.7378C29.0772 12.6901 28.9696 11.5143 28.9009 9.942C28.8461 8.68737 28.9748 7.7346 29.3246 7.07424C29.5059 6.732 29.7514 6.45963 30.0634 6.27714C30.3742 6.09555 30.7129 6.02514 31.0474 6.02514C31.5421 6.02514 32.1583 6.0948 32.6488 6.56328C32.6923 6.47022 32.7394 6.3825 32.7907 6.29991C33.0172 5.93388 33.3187 5.67546 33.688 5.51799C34.0429 5.36667 34.4278 5.32221 34.8082 5.32227C35.5729 5.32239 36.1639 5.65989 36.5449 6.17343C36.7915 6.50574 36.9394 6.89622 37.0099 7.2924C37.4158 7.10922 37.8217 7.08498 38.0701 7.08498C38.4943 7.08498 39.0496 7.25667 39.5059 7.62756C39.9868 8.01831 40.3621 8.63493 40.3621 9.48543V10.3613Z" fill="#979740"/>
<path d="M14.2864 27.4819C15.295 26.6609 16.574 24.8317 17.1099 23.0321C17.7798 20.7825 19.2285 18.566 19.5504 18.007C19.8361 17.5109 18.9284 15.711 17.1099 17.1466C15.6552 18.2951 14.6214 20.2727 14.2864 21.1178C14.1508 21.46 12.936 23.5071 13.2895 16.7144C13.4013 14.5664 13.6909 13.0266 13.8269 9.9145C13.9336 7.47277 13.2905 6.64996 12.3047 6.64996C11.319 6.64996 10.5061 6.97018 10.5061 9.46135C10.5061 6.59332 9.89164 5.94709 8.54407 5.94727C7.42087 5.94745 6.91705 6.90517 6.91705 7.86142V9.48538C6.91705 7.86142 5.83717 7.70974 5.28193 7.70974C4.72672 7.70974 3.61513 8.19157 3.61513 9.48538V12.728C3.61513 11.1677 2.64067 10.7132 1.90593 10.7624C0.948858 10.8264 0.516249 11.5043 0.648192 13.0266C0.742374 14.1133 1.03102 17.291 1.03102 18.3416C1.03102 19.2842 0.648192 21.2369 1.03102 23.0321C1.25192 24.0679 1.79668 26.8117 4.57219 28.0559C7.34773 29.3001 12.2286 29.1571 14.2864 27.4819Z" fill="#FFFF8B"/>
<path d="M1.65611 18.3417C1.65611 17.2556 1.36311 14.0354 1.271 12.9726C1.20874 12.2542 1.29519 11.8603 1.41075 11.6592C1.49547 11.5117 1.62813 11.4074 1.94762 11.386C2.1784 11.3706 2.42975 11.4364 2.61761 11.6058C2.79362 11.7645 2.99006 12.0834 2.99006 12.7282L2.99135 12.7646L3.27842 17.6603C3.28877 17.8365 3.37304 18.0003 3.5105 18.1109C3.64793 18.2215 3.82574 18.2687 3.99995 18.2412L7.00874 17.765L10.2534 17.334C10.5532 17.2942 10.7813 17.0455 10.7953 16.7434L10.9743 12.8746L10.9759 12.8417C11.0557 11.3012 11.1311 9.89595 11.1311 9.4614C11.1311 8.24871 11.3365 7.73712 11.5159 7.52196C11.659 7.35039 11.8646 7.275 12.3048 7.275C12.463 7.275 12.5743 7.30737 12.658 7.35627C12.7402 7.40436 12.8339 7.49055 12.9233 7.65918C13.1147 8.02065 13.2543 8.70024 13.2025 9.88731C13.1352 11.4271 13.0302 12.5773 12.9274 13.6145C12.8247 14.6499 12.7224 15.5898 12.6656 16.6821C12.5766 18.3919 12.5845 19.5706 12.6545 20.3707C12.6895 20.7701 12.7412 21.0928 12.811 21.348C12.8772 21.5897 12.9764 21.8356 13.149 22.0195C13.3579 22.242 13.6555 22.3483 13.9648 22.2737C14.2101 22.2146 14.3825 22.0594 14.4767 21.9604C14.6736 21.7534 14.8128 21.4861 14.8675 21.3483C15.1849 20.5473 16.1673 18.6872 17.4972 17.6373C17.8852 17.3309 18.1679 17.2425 18.3458 17.2291C18.5134 17.2164 18.635 17.266 18.7306 17.3419C18.8359 17.4256 18.9144 17.5473 18.9535 17.6622C18.9673 17.7029 18.9732 17.732 18.9756 17.7505C18.6151 18.3589 17.1853 20.5896 16.511 22.8536C16.0084 24.5412 14.7967 26.2607 13.892 26.9972C13.016 27.7103 11.4415 28.1523 9.66785 28.2395C7.91117 28.3258 6.10154 28.0566 4.82804 27.4857C2.36809 26.383 1.86701 23.9544 1.64251 22.9017C1.46828 22.0846 1.46497 21.2125 1.51161 20.4032C1.53488 19.9995 1.56955 19.622 1.59983 19.2741C1.62924 18.9361 1.6561 18.6094 1.65611 18.3417ZM7.54214 7.86153C7.54214 7.48236 7.64354 7.14441 7.81121 6.91836C7.96289 6.71394 8.18573 6.57255 8.54414 6.57246C8.83736 6.5724 9.03468 6.60855 9.17397 6.66795C9.29892 6.72123 9.40365 6.80391 9.49902 6.95787C9.71898 7.31307 9.88028 8.02659 9.88127 9.44814L9.72573 12.8136C9.66756 13.9362 9.60686 15.1528 9.56699 16.1641L7.54214 16.4329V7.86153ZM6.29198 16.6125L4.48625 16.8983L4.24025 12.713V9.48543C4.24025 9.04224 4.42088 8.77119 4.63454 8.59761C4.87268 8.40411 5.15087 8.33487 5.28209 8.33487C5.52125 8.33487 5.76815 8.37204 5.94605 8.49831C6.08303 8.59557 6.29195 8.82555 6.29198 9.48543V16.6125ZM2.99006 10.3613C2.61614 10.175 2.21592 10.1154 1.86415 10.139C1.22675 10.1817 0.664713 10.4483 0.326874 11.0363C0.0198634 11.5707 -0.0441055 12.277 0.0255545 13.0807C0.121815 14.1914 0.406236 17.3266 0.406236 18.3417C0.406233 18.5453 0.385095 18.8164 0.354699 19.1657C0.325164 19.505 0.288219 19.9046 0.263637 20.3311C0.214572 21.1825 0.211245 22.1844 0.419832 23.1625C0.637137 24.1815 1.22558 27.2405 4.31645 28.6262C5.81846 29.2995 7.83713 29.581 9.72917 29.4881C11.6043 29.3959 13.4995 28.9286 14.6812 27.9666C15.7936 27.061 17.1397 25.1221 17.709 23.2106C18.352 21.0515 19.7446 18.9223 20.0921 18.3189C20.2967 17.9636 20.2327 17.5418 20.1373 17.2607C20.0296 16.9436 19.8212 16.6119 19.5081 16.363C19.1851 16.1065 18.7566 15.9442 18.2516 15.9823C17.7568 16.0197 17.244 16.2447 16.7228 16.6561C15.3816 17.715 14.3976 19.3854 13.9151 20.4099C13.9102 20.3629 13.9042 20.3137 13.8996 20.2619C13.837 19.546 13.8261 18.4333 13.9139 16.7469C13.9688 15.6912 14.0672 14.7872 14.1712 13.7378C14.2751 12.6901 14.3827 11.5143 14.4514 9.942C14.5062 8.68737 14.3775 7.7346 14.0277 7.07424C13.8464 6.732 13.601 6.45963 13.2888 6.27714C12.978 6.09555 12.6394 6.02514 12.3048 6.02514C11.8102 6.02514 11.194 6.0948 10.7033 6.56328C10.6601 6.47022 10.6129 6.3825 10.5617 6.29991C10.335 5.93388 10.0336 5.67546 9.66437 5.51799C9.3095 5.36667 8.92457 5.32221 8.54414 5.32227C7.77938 5.32239 7.18838 5.65989 6.80735 6.17343C6.56081 6.50574 6.41273 6.89622 6.34223 7.2924C5.93654 7.10922 5.53064 7.08498 5.28209 7.08498C4.85807 7.08498 4.30277 7.25667 3.84629 7.62756C3.36539 8.01831 2.99009 8.63493 2.99006 9.48543V10.3613Z" fill="#979740"/>
</svg>
