<svg width="24" height="25" viewBox="0 0 24 25" fill="none" xmlns="http://www.w3.org/2000/svg">
<path opacity="0.5" d="M22.4235 10.2303C22.6956 9.38846 22.7897 8.49671 22.6995 7.61457C22.6094 6.73243 22.337 5.88022 21.9007 5.11486C21.2539 3.95801 20.2663 3.04211 19.0802 2.49919C17.8941 1.95628 16.5709 1.81441 15.3013 2.09403C14.58 1.26962 13.6603 0.654734 12.6345 0.311132C11.6087 -0.0324704 10.513 -0.0926924 9.45744 0.136514C8.40186 0.365721 7.42355 0.876286 6.62078 1.61693C5.81801 2.35758 5.21904 3.30223 4.88402 4.356C4.03819 4.53422 3.23913 4.89588 2.54023 5.41683C1.84133 5.93777 1.25869 6.60599 0.831252 7.37683C0.177403 8.53175 -0.102048 9.8704 0.0333008 11.1993C0.16865 12.5281 0.711785 13.7783 1.58418 14.7691C1.31114 15.6105 1.21611 16.5021 1.30544 17.3842C1.39478 18.2664 1.66643 19.1188 2.10222 19.8844C2.74986 21.0417 3.73837 21.9578 4.92529 22.5007C6.11221 23.0436 7.43624 23.1853 8.70656 22.9053C9.27961 23.5684 9.98374 24.0982 10.7719 24.4594C11.5601 24.8206 12.4142 25.0049 13.2773 24.9999C14.5786 25.0011 15.8466 24.5774 16.8983 23.79C17.9501 23.0025 18.731 21.8921 19.1286 20.6189C19.9743 20.4403 20.7732 20.0785 21.4721 19.5576C22.171 19.0367 22.7537 18.3686 23.1813 17.5979C23.8275 16.4447 24.1021 15.1111 23.966 13.7878C23.8299 12.4645 23.29 11.2192 22.4235 10.2303ZM13.2773 23.3637C12.2115 23.3654 11.1792 22.9816 10.3612 22.2795L10.5051 22.1957L15.3492 19.3226C15.4698 19.25 15.5699 19.1463 15.6397 19.0219C15.7095 18.8975 15.7466 18.7566 15.7473 18.6129V11.5954L17.7952 12.8126C17.8053 12.8179 17.814 12.8256 17.8207 12.835C17.8274 12.8444 17.8319 12.8553 17.8337 12.8668V18.682C17.8311 19.9229 17.3502 21.1121 16.4963 21.9896C15.6423 22.867 14.4849 23.361 13.2773 23.3637ZM3.48349 19.0664C2.949 18.1181 2.75709 17.0065 2.94153 15.9271L3.08548 16.0159L7.93437 18.889C8.05434 18.9613 8.19093 18.9995 8.33004 18.9995C8.46915 18.9995 8.60574 18.9613 8.72572 18.889L14.649 15.3801V17.8097C14.6484 17.8223 14.6451 17.8346 14.6393 17.8457C14.6335 17.8568 14.6253 17.8664 14.6153 17.8738L9.70888 20.7814C8.66178 21.4012 7.4181 21.5687 6.2509 21.2471C5.0837 20.9256 4.08839 20.1413 3.48349 19.0664ZM2.20776 8.22453C2.74595 7.27013 3.59544 6.54217 4.60584 6.16954V12.0833C4.60402 12.2261 4.63954 12.3669 4.70871 12.4908C4.77788 12.6148 4.87816 12.7174 4.99908 12.788L10.8936 16.282L8.84565 17.4992C8.83457 17.5052 8.82221 17.5084 8.80966 17.5084C8.79711 17.5084 8.78475 17.5052 8.77367 17.4992L3.87683 14.5966C2.8317 13.9741 2.06922 12.9514 1.75639 11.7525C1.44356 10.5536 1.60586 9.27617 2.20776 8.19995V8.22453ZM19.0327 12.241L13.119 8.71245L15.1622 7.49995C15.1733 7.49391 15.1856 7.49074 15.1982 7.49074C15.2107 7.49074 15.2231 7.49391 15.2342 7.49995L20.131 10.4075C20.8797 10.8515 21.4901 11.5051 21.8909 12.292C22.2916 13.079 22.4663 13.9669 22.3943 14.852C22.3224 15.7371 22.007 16.583 21.4848 17.2908C20.9626 17.9986 20.2552 18.5392 19.4452 18.8494V12.9357C19.4409 12.793 19.4007 12.654 19.3283 12.5322C19.256 12.4104 19.1542 12.3101 19.0327 12.241ZM21.0711 9.09193L20.9271 9.00318L16.0879 6.10548C15.9671 6.03269 15.8297 5.99432 15.6897 5.99432C15.5498 5.99432 15.4123 6.03269 15.2916 6.10548L9.37332 9.61422V7.18475C9.37206 7.17239 9.37407 7.15992 9.37914 7.14864C9.3842 7.13737 9.39214 7.12771 9.40211 7.12068L14.2989 4.21798C15.0495 3.77373 15.9076 3.55823 16.7729 3.59669C17.6382 3.63515 18.475 3.92597 19.1854 4.43515C19.8958 4.94433 20.4503 5.65081 20.7843 6.47197C21.1182 7.29312 21.2178 8.19501 21.0712 9.07214L21.0711 9.09193ZM8.25563 13.3989L6.20781 12.1866C6.19756 12.1803 6.1888 12.1717 6.18214 12.1615C6.17548 12.1513 6.17109 12.1397 6.16928 12.1275V6.32725C6.17041 5.43743 6.41805 4.56633 6.88324 3.8158C7.34843 3.06526 8.01195 2.46631 8.79622 2.08897C9.58049 1.71163 10.4531 1.57149 11.312 1.68495C12.171 1.7984 12.9807 2.16076 13.6466 2.72965L13.5026 2.81351L8.65861 5.68642C8.53804 5.75907 8.43795 5.8627 8.36815 5.98712C8.29835 6.11155 8.26125 6.25249 8.2605 6.3961L8.25563 13.3989ZM9.36835 10.9349L12.0062 9.37266L14.649 10.9349V14.0593L12.0158 15.6215L9.37322 14.0593L9.36835 10.9349Z" fill="white"/>
</svg>
