<svg width="17" height="24" viewBox="0 0 17 24" fill="none" xmlns="http://www.w3.org/2000/svg">
<g opacity="0.5">
<path d="M16.1871 15.6258C16.1948 15.7992 16.1933 15.9803 16.1855 16.1645C16.1948 15.9849 16.1948 15.8038 16.1871 15.6258ZM4.38281 9.58049C4.38281 9.58049 4.38437 9.58049 4.38437 9.58361C4.39211 9.53718 4.39985 9.4907 4.40914 9.44272C4.39829 9.4892 4.39055 9.53407 4.38281 9.58049ZM4.40914 9.44272C4.42774 9.34987 4.44939 9.25541 4.47572 9.16406C4.44939 9.25385 4.42618 9.34675 4.40914 9.44272Z" fill="white"/>
<path d="M16.1881 16.1651C16.1834 16.2642 16.1773 16.3648 16.1695 16.4654C16.1509 16.6837 16.1262 16.9036 16.0937 17.1203C16.0859 17.1745 16.0766 17.2271 16.0689 17.2782C16.055 17.3633 16.0395 17.4485 16.024 17.5305C16.024 17.5429 16.0193 17.5538 16.0178 17.5646C16.0008 17.6528 15.9822 17.7441 15.9636 17.8355C15.9528 17.8804 15.9435 17.9268 15.9327 17.9733C15.9002 18.1111 15.8661 18.2473 15.8305 18.3789C15.8011 18.4888 15.7701 18.5941 15.7376 18.6931C15.6927 18.834 15.6447 18.961 15.5982 19.0631C15.5859 19.0894 15.5735 19.1158 15.5611 19.139C15.5425 19.1762 15.524 19.2087 15.507 19.2365C14.7313 22.4395 12.5656 24 8.89189 24C8.77115 24 8.64886 23.9984 8.525 23.9953C3.95034 23.87 2.52304 21.2846 2.19483 20.4936C1.6158 19.1049 1.2969 15.4731 1.2969 13.4931C1.2969 11.6649 0.895945 9.86594 0.891326 9.84735L0.861877 9.69567C0.679243 8.79156 0.405203 7.42617 0.0739426 5.9942C-0.0994547 5.24028 0.0351966 4.54052 0.445448 4.07611C0.789124 3.68602 1.30158 3.50332 1.88829 3.5606C3.20421 3.69219 3.53235 5.33469 3.72746 6.31616C3.79865 6.66913 3.85437 7.04069 3.91009 7.4014C4.02465 8.14446 4.14233 8.9108 4.38536 9.58111C4.38536 9.58111 4.3859 9.58213 4.38692 9.58423C4.39466 9.53775 4.4024 9.49132 4.41169 9.44334C4.43029 9.35044 4.45194 9.25603 4.47827 9.16468C4.49218 9.1182 4.50616 9.07334 4.52163 9.02842C4.53555 8.98973 4.55102 8.95104 4.5665 8.91386C4.57579 8.89221 4.58509 8.87055 4.59595 8.84884C4.60212 8.83181 4.61142 8.81477 4.61916 8.7978C4.63151 8.77453 4.64393 8.75132 4.65628 8.72967C4.6594 8.72193 4.66402 8.71419 4.67026 8.70795C4.68261 8.68324 4.69653 8.65997 4.712 8.63832C4.73216 8.60581 4.75381 8.57642 4.77708 8.54853C5.29103 7.90605 5.82664 7.90605 6.18273 7.90605C6.37004 7.90605 7.27565 7.9448 7.74474 8.64606C7.77569 8.69404 7.80514 8.74358 7.83147 8.79624C7.85313 8.67856 7.87634 8.5733 7.90423 8.48352C7.95221 8.32254 8.02035 8.18165 8.10084 8.0578C8.11475 8.03764 8.12867 8.01755 8.14264 7.9974C8.17203 7.95871 8.20298 7.92153 8.23393 7.88596C8.5962 7.47883 9.13342 7.32247 9.56994 7.32247C9.65511 7.32247 9.76349 7.32709 9.88735 7.34412C9.91212 7.34724 9.93689 7.3503 9.96166 7.35648C9.98487 7.35959 10.0081 7.36271 10.0313 7.36889C10.0685 7.37507 10.1056 7.38437 10.1427 7.39366C10.1815 7.40296 10.2202 7.41381 10.2589 7.42617C10.3177 7.44476 10.3781 7.46486 10.4384 7.49119C10.457 7.49892 10.4772 7.50822 10.4973 7.51752C10.5174 7.52681 10.5375 7.53611 10.5577 7.5469C10.7976 7.66614 11.036 7.85033 11.228 8.12743C11.245 8.1507 11.2605 8.17391 11.276 8.19868C11.2651 7.8426 11.2466 7.43235 11.228 6.98803C11.1738 5.67218 11.1103 4.18137 11.1676 3.02962C11.2713 0.962907 11.9092 0 13.1739 0C14.7004 0 14.8769 1.67814 14.8769 2.94133C14.8769 4.83315 14.8769 7.42461 15.0317 9.58729C15.0472 9.80867 15.0642 10.0827 15.0827 10.3861C15.1416 11.332 15.2221 12.6262 15.3397 13.4467C15.3583 13.5674 15.3815 13.7222 15.4094 13.9018C15.4156 13.9065 15.4218 13.9126 15.4264 13.9188C15.558 14.0396 15.6772 14.1665 15.7779 14.2981C15.7964 14.3213 15.8119 14.343 15.8274 14.3663C15.8909 14.4545 15.945 14.5443 15.99 14.6372C16.0008 14.6604 16.0116 14.6836 16.0209 14.7052C16.041 14.7502 16.058 14.7966 16.0735 14.8431C16.0812 14.8663 16.089 14.8895 16.0952 14.9127C16.1014 14.9359 16.1076 14.9591 16.1123 14.9824C16.1355 15.0845 16.1525 15.1929 16.1649 15.3028C16.1726 15.3709 16.1788 15.4406 16.1834 15.5118C16.1866 15.549 16.1896 15.5877 16.1896 15.6264C16.1974 15.7998 16.1958 15.9809 16.1881 16.1651Z" fill="white"/>
<path d="M16.1896 15.6264C16.1896 15.5877 16.1866 15.549 16.1834 15.5118C16.1788 15.4406 16.1726 15.3709 16.1649 15.3028C16.1525 15.1929 16.1355 15.0845 16.1123 14.9824C16.1076 14.9591 16.1014 14.9359 16.0952 14.9127C16.089 14.8895 16.0812 14.8663 16.0735 14.8431C16.058 14.7966 16.041 14.7502 16.0209 14.7052C16.0116 14.6836 16.0008 14.6604 15.99 14.6372C15.945 14.5443 15.8909 14.4545 15.8274 14.3663C15.8119 14.343 15.7964 14.3213 15.7779 14.2981C15.6772 14.1665 15.558 14.0396 15.4264 13.9188C15.4218 13.9126 15.4156 13.9065 15.4094 13.9018C15.3815 13.7222 15.3583 13.5674 15.3397 13.4467C15.2221 12.6262 15.1416 11.332 15.0827 10.3861C15.0642 10.0827 15.0472 9.80867 15.0317 9.58729C14.8769 7.42461 14.8769 4.83315 14.8769 2.94133C14.8769 1.67814 14.7004 0 13.1739 0C11.9092 0 11.2713 0.962907 11.1676 3.02962C11.1103 4.18137 11.1738 5.67218 11.228 6.98803C11.2466 7.43235 11.2651 7.8426 11.276 8.19868C11.2605 8.17391 11.245 8.1507 11.228 8.12743C11.036 7.85033 10.7976 7.66614 10.5577 7.5469C10.5375 7.53611 10.5174 7.52681 10.4973 7.51752C10.4772 7.50822 10.457 7.49892 10.4384 7.49119C10.3781 7.46486 10.3177 7.44476 10.2589 7.42617C10.2202 7.41381 10.1815 7.40296 10.1427 7.39366C10.1056 7.38437 10.0685 7.37507 10.0313 7.36889C10.0081 7.36271 9.98487 7.35959 9.96166 7.35648C9.93689 7.3503 9.91212 7.34724 9.88735 7.34412C9.76349 7.32709 9.65511 7.32247 9.56994 7.32247C9.13342 7.32247 8.5962 7.47883 8.23393 7.88596C8.20298 7.92153 8.17203 7.95871 8.14264 7.9974C8.12867 8.01755 8.11475 8.03764 8.10084 8.0578C8.02035 8.18165 7.95221 8.32254 7.90423 8.48352C7.87634 8.5733 7.85313 8.67856 7.83147 8.79624C7.80514 8.74358 7.77569 8.69404 7.74474 8.64606C7.27565 7.9448 6.37004 7.90605 6.18273 7.90605C5.82664 7.90605 5.29103 7.90605 4.77708 8.54853C4.75381 8.57642 4.73216 8.60581 4.712 8.63832C4.69653 8.65997 4.68261 8.68324 4.67026 8.70795C4.66402 8.71419 4.6594 8.72193 4.65628 8.72967C4.64393 8.75132 4.63151 8.77453 4.61916 8.7978C4.61142 8.81477 4.60212 8.83181 4.59595 8.84884C4.58509 8.87055 4.57579 8.89221 4.5665 8.91386C4.55102 8.95104 4.53555 8.98973 4.52163 9.02842C4.50616 9.07334 4.49218 9.1182 4.47827 9.16468C4.45194 9.25603 4.43029 9.35044 4.41169 9.44334C4.4024 9.49132 4.39466 9.53775 4.38692 9.58423C4.38692 9.58423 4.38644 9.58315 4.38536 9.58111C4.14233 8.9108 4.02465 8.14446 3.91009 7.4014C3.85437 7.04069 3.79865 6.66913 3.72746 6.31616C3.53235 5.33469 3.20421 3.69219 1.88829 3.5606C1.30158 3.50332 0.789124 3.68602 0.445448 4.07611C0.0351966 4.54052 -0.0994547 5.24028 0.0739426 5.9942C0.405203 7.42617 0.679243 8.79156 0.861877 9.69567L0.891326 9.84735C0.895945 9.86594 1.2969 11.6649 1.2969 13.4931C1.2969 15.4731 1.6158 19.1049 2.19483 20.4936C2.52304 21.2846 3.95034 23.87 8.525 23.9953C8.64886 23.9984 8.77115 24 8.89189 24C12.5656 24 14.7313 22.4395 15.507 19.2365C15.524 19.2087 15.5425 19.1762 15.5611 19.139C15.5735 19.1158 15.5859 19.0894 15.5982 19.0631C15.6447 18.961 15.6927 18.834 15.7376 18.6931C15.7701 18.5941 15.8011 18.4888 15.8305 18.3789C15.8661 18.2473 15.9002 18.1111 15.9327 17.9733C15.9435 17.9268 15.9528 17.8804 15.9636 17.8355C15.9822 17.7441 16.0008 17.6528 16.0178 17.5646C16.0193 17.5538 16.0225 17.5429 16.024 17.5305C16.0395 17.4485 16.055 17.3633 16.0689 17.2782C16.0766 17.2271 16.0859 17.1745 16.0937 17.1203C16.1262 16.9036 16.1509 16.6837 16.1695 16.4654C16.1773 16.3648 16.1834 16.2642 16.1881 16.1651C16.1958 15.9809 16.1974 15.7998 16.1896 15.6264ZM11.4773 3.04509C11.5995 0.620782 12.4479 0.309617 13.1739 0.309617C14.1369 0.309617 14.5672 1.12083 14.5672 2.94133C14.5672 4.7619 14.5672 7.43703 14.722 9.609C14.7376 9.83032 14.7545 10.1028 14.7747 10.4062C14.8335 11.3568 14.914 12.6587 15.0332 13.4916C15.0394 13.5303 15.0456 13.5721 15.0518 13.617C14.0951 12.925 12.7683 12.4915 12.194 12.3878C12.0826 12.3677 11.8967 12.3537 11.6583 12.3429C11.7698 11.4558 11.8116 10.0115 11.5933 9.02536C11.5949 9.01606 11.5949 9.00676 11.5949 8.99903C11.6026 8.5315 11.5732 7.81009 11.5376 6.97568C11.4834 5.666 11.4215 4.18293 11.4773 3.04509ZM8.04662 9.57181V9.5687C8.05591 9.42475 8.06833 9.28698 8.08536 9.15695C8.08842 9.12288 8.0931 9.09037 8.09772 9.05942C8.1039 9.01138 8.11163 8.96496 8.12093 8.9201C8.12867 8.87517 8.1364 8.83031 8.14726 8.7885C8.155 8.74826 8.16429 8.70951 8.17359 8.67083C8.18133 8.63676 8.19062 8.60425 8.19992 8.5733C8.40889 7.87822 9.06841 7.63207 9.56994 7.63207C9.87649 7.63207 10.553 7.70639 10.9741 8.307C11.0221 8.37358 11.0654 8.44789 11.1041 8.52838C11.118 8.55471 11.1305 8.5826 11.1428 8.61043C11.1552 8.63832 11.1676 8.66927 11.1784 8.69872C11.2001 8.756 11.2202 8.81477 11.2373 8.87829C11.276 9.00988 11.3085 9.15383 11.3364 9.30707C11.4122 9.74827 11.4432 10.2653 11.4432 10.7716C11.4432 11.3475 11.4044 11.9094 11.3487 12.3336C10.4756 12.312 9.17984 12.3321 8.22619 12.3522C8.1364 11.8552 8.07295 11.2949 8.04512 10.7437C8.02496 10.3366 8.0234 9.93714 8.04662 9.57181ZM4.64237 10.1818C4.64393 10.1337 4.64699 10.0858 4.65011 10.0378C4.65784 9.9186 4.6687 9.80249 4.68417 9.68949C4.68573 9.68175 4.68723 9.67552 4.68723 9.66934C4.69809 9.59502 4.7105 9.52227 4.72598 9.45414C4.73372 9.41701 4.74301 9.37982 4.75075 9.34426C4.76778 9.27456 4.78632 9.20799 4.80959 9.14609C4.82038 9.11358 4.83124 9.08264 4.8436 9.05319C4.85601 9.02224 4.86837 8.99285 4.88234 8.96496C4.89626 8.93713 4.91017 8.9108 4.92415 8.88447C4.95354 8.83181 4.98448 8.78538 5.01855 8.74202C5.04488 8.70951 5.07121 8.67857 5.09748 8.64918C5.12381 8.61973 5.15014 8.5919 5.17647 8.56869C5.22908 8.51603 5.28018 8.47422 5.33128 8.43709C5.46593 8.33801 5.59752 8.28379 5.7245 8.2544H5.72606C5.76786 8.24355 5.80961 8.23581 5.85141 8.23119C5.96597 8.21572 6.07591 8.21572 6.18273 8.21572C6.33597 8.21572 7.05895 8.24511 7.45217 8.76835C7.49398 8.82257 7.5311 8.88291 7.56361 8.94793C7.57603 8.9727 7.58682 8.99747 7.59768 9.02068C7.62713 9.08569 7.65034 9.14765 7.66737 9.20955C7.67511 9.22814 7.67973 9.24829 7.68441 9.26683C7.69214 9.2916 7.69676 9.31481 7.70138 9.33808C7.70762 9.36285 7.71224 9.38762 7.71692 9.41239C7.71997 9.4356 7.72465 9.45726 7.72771 9.48047C7.73083 9.5068 7.73395 9.53469 7.73545 9.56096C7.74013 9.6012 7.74319 9.64151 7.74474 9.68175C7.74474 9.69099 7.7463 9.70029 7.7463 9.70958C7.74475 9.71114 7.74475 9.71426 7.7463 9.71576C7.74319 9.77928 7.74169 9.84429 7.74013 9.91087V9.93564C7.73857 9.99598 7.73701 10.0564 7.73701 10.1183V10.2235C7.73701 10.2917 7.73857 10.3598 7.74013 10.4294C7.74013 10.4991 7.74319 10.5688 7.7463 10.64C7.75404 10.9094 7.77108 11.1849 7.79585 11.462C7.816 11.6803 7.85001 12.007 7.90729 12.3599C7.39177 12.3723 7.03106 12.3832 6.98152 12.3847C6.4428 12.3847 5.89789 12.7562 5.89789 13.4683C5.89789 13.6634 5.93814 13.891 6.02019 14.1263C5.71676 14.0009 5.3963 13.7408 5.15788 13.1432C5.05106 12.877 4.96283 12.6061 4.89008 12.3073C4.81577 12.01 4.75537 11.6849 4.70121 11.3103C4.65166 10.9605 4.62845 10.5641 4.64237 10.1818ZM15.8862 16.0305C15.8846 16.1063 15.8816 16.1837 15.8769 16.2611C15.8769 16.2658 15.8754 16.2719 15.8754 16.2781C15.8707 16.3571 15.8645 16.436 15.8584 16.515C15.8568 16.5243 15.8568 16.5336 15.8552 16.5428C15.8398 16.7131 15.8181 16.885 15.7934 17.0537C15.7934 17.0568 15.7933 17.0584 15.7918 17.0599C15.702 17.6776 15.5596 18.2597 15.4295 18.6451C15.4063 18.7148 15.3831 18.7798 15.3614 18.8356C15.3506 18.865 15.3382 18.8928 15.3274 18.9176C15.3118 18.9548 15.2979 18.9857 15.2825 19.0121C15.2685 19.0415 15.2546 19.0631 15.2406 19.0771C15.2406 19.0786 15.2375 19.0817 15.236 19.0833L15.2081 19.1204V19.1545C14.9249 20.3357 14.0657 23.8359 8.5343 23.6857C4.14545 23.5665 2.79084 21.1221 2.47967 20.3759C1.91773 19.0229 1.60657 15.4484 1.60657 13.4931C1.60657 11.5379 1.19782 9.79781 1.19476 9.78234L1.16531 9.63371C0.982674 8.72967 0.707073 7.36115 0.374254 5.92451C0.227187 5.27897 0.340186 4.66437 0.677684 4.28046C0.922275 4.00336 1.26289 3.85935 1.67158 3.85935C1.73192 3.85935 1.79388 3.86247 1.85734 3.87021C2.86047 3.96929 3.19179 5.21707 3.42403 6.37812C3.49366 6.72335 3.54938 7.09179 3.6036 7.44782C3.73676 8.31168 3.87297 9.20337 4.20735 9.96965C4.23674 10.0378 4.27854 10.1012 4.3312 10.1616C4.31417 10.5734 4.34206 10.993 4.39466 11.3537C4.5046 12.1308 4.64699 12.7005 4.87149 13.2594C5.15014 13.956 5.56969 14.3554 6.18735 14.5025C6.45053 14.9886 6.90103 15.4421 7.55899 15.6294C8.12093 15.7905 8.78975 15.7905 9.38107 15.7905C9.91362 15.7905 10.4183 15.7905 10.6118 15.919C11.0252 16.1946 11.0175 16.484 11.0082 16.7627C11.0082 16.7999 11.0066 16.8385 11.0066 16.8742H11.3162C11.3162 16.8417 11.3178 16.806 11.3178 16.7704C11.3271 16.4592 11.3394 16.032 10.7821 15.662C10.5112 15.4809 10.0127 15.4809 9.38107 15.4809C8.8114 15.4809 8.16429 15.4809 7.6426 15.3323C7.17039 15.1975 6.81898 14.8941 6.58369 14.552C6.51093 14.4467 6.44897 14.3368 6.39793 14.2285C6.2694 13.9576 6.2075 13.6851 6.2075 13.4683C6.2075 12.9358 6.60846 12.6943 6.9862 12.6943C6.99855 12.6943 7.39333 12.6819 7.95995 12.6695C8.06365 12.6664 8.17203 12.6634 8.28503 12.6618C9.22165 12.6417 10.4617 12.6231 11.3007 12.6401C11.4122 12.6432 11.5159 12.6463 11.6119 12.6494C11.8488 12.6587 12.033 12.6726 12.1383 12.6912C12.8272 12.8166 14.256 13.3244 15.1215 14.0581C15.14 14.0752 15.1586 14.0922 15.1772 14.1093C15.2066 14.134 15.2345 14.1588 15.2623 14.1882H15.2639C15.2871 14.2099 15.3103 14.2315 15.3304 14.2548C15.3351 14.2579 15.3382 14.261 15.3397 14.2641C15.3599 14.2842 15.3784 14.3027 15.3955 14.3229C15.4172 14.3461 15.4373 14.3693 15.4574 14.3926C15.4759 14.4127 15.4914 14.4328 15.507 14.4529C15.524 14.4731 15.5379 14.4916 15.5518 14.5118C15.5673 14.5319 15.5813 14.552 15.5936 14.5722C15.6091 14.5923 15.6215 14.6124 15.6323 14.6325C15.6586 14.6712 15.6803 14.7115 15.7004 14.7517C15.719 14.7889 15.7361 14.826 15.7515 14.8632C15.7515 14.8678 15.7546 14.8725 15.7562 14.8756C15.7639 14.8957 15.7701 14.9143 15.7763 14.9344C15.7887 14.9731 15.7995 15.0118 15.8088 15.0505C15.8738 15.3416 15.8955 15.6775 15.8862 16.0305Z" fill="black"/>
</g>
</svg>
