<svg width="24" height="26" viewBox="0 0 24 26" fill="none" xmlns="http://www.w3.org/2000/svg">
<path opacity="0.5" fill-rule="evenodd" clip-rule="evenodd" d="M15.1562 0.29578C14.8932 -0.0139091 14.4549 -0.0882346 14.1043 0.109967L13.7786 0.283393L10.2345 2.27779L11.0611 3.71475L13.3654 2.41406L12.8018 5.4614L14.4424 5.7587L15.0185 2.69897L16.7217 4.70576L17.999 3.64043L15.4192 0.593082H15.4067L15.1562 0.29578ZM10.1844 26C11.036 26 11.7248 25.3311 11.7248 24.5135C11.7248 23.6959 11.036 23.027 10.1844 23.027C9.33282 23.027 8.64403 23.6959 8.64403 24.5135C8.63151 25.3311 9.33282 26 10.1844 26ZM12.2508 17.8366L11.6998 20.8963L10.0467 20.599L10.5977 17.5517L8.29337 18.8648L7.4543 17.4278L10.9734 15.4334L11.299 15.2476C11.6497 15.0494 12.088 15.1237 12.351 15.4334L12.6014 15.7307L15.2188 18.7657L13.9414 19.8434L12.2508 17.8366ZM13.5908 10.5279L13.0398 13.5876L11.3867 13.2903L11.9377 10.2554L9.64591 11.5561L8.81936 10.1191L12.3259 8.13712V8.11234H12.351L12.6766 7.92653C13.0272 7.72833 13.4656 7.80265 13.7285 8.11234L13.979 8.39726L16.5839 11.4446L15.3065 12.5223L13.5908 10.5279ZM2.78306 22.6182H2.77054L2.4324 22.5191C2.06922 22.42 1.83128 22.0731 1.85632 21.7015L2.15689 17.5641L3.74736 17.6755L3.55951 20.1902L6.02663 18.5303L6.9158 19.831L4.49877 21.4538L6.96589 22.1599L6.52757 23.6711L2.78306 22.6182ZM19.1512 24.3277L19.0385 24.6869C18.9258 25.0338 18.6002 25.2691 18.2245 25.2444L17.8738 25.2196L17.8488 25.232L17.8362 25.2196L13.954 24.9594L14.0542 23.3862L16.634 23.5596L14.9433 21.2184L16.2332 20.3017L17.9615 22.7049L18.7129 20.2769L20.2282 20.7353L19.1512 24.3277ZM23.7097 15.805L23.8976 16.1395C24.0854 16.474 24.0103 16.8951 23.7097 17.1429L23.4342 17.3782V17.3906H23.4217L20.4035 19.9177L19.3516 18.6913L21.3303 17.0314L18.3622 16.5111L18.6503 14.9255L21.6434 15.4458L20.391 13.216L21.8062 12.4356L23.7097 15.805ZM20.6415 8.89276L17.9615 10.3173L17.185 8.90515L19.8275 7.50535L17.4104 6.52673L18.0241 5.04022L21.706 6.51434L21.7185 6.50196L21.731 6.52673L22.0692 6.66299C22.4323 6.81165 22.6327 7.18327 22.5701 7.5549L22.5075 7.92653L21.8187 11.7047L20.2157 11.4198L20.6415 8.89276ZM2.65782 12.2126L5.6384 12.7081L5.36289 14.2937L2.35726 13.7859L3.63465 16.0156L2.2195 16.8084L0.290894 13.4514L0.103042 13.1293C-0.0848098 12.7948 -0.0096692 12.3737 0.27837 12.1259L0.553886 11.8906V11.8782H0.566409L3.54699 9.33871L4.61148 10.5651L2.65782 12.2126ZM7.15374 5.34991L9.13244 7.53012L7.91767 8.60784L5.88887 6.37808L5.42551 8.91753L3.8225 8.63262L4.52382 4.8668L4.59896 4.48278C4.66158 4.11115 4.98719 3.83863 5.36289 3.82624L5.71354 3.81385L5.72607 3.80146L5.73859 3.81385L9.72105 3.65281L9.78366 5.2632L7.15374 5.34991Z" fill="white"/>
</svg>
