<svg width="24" height="24" viewBox="0 0 24 24" fill="none" xmlns="http://www.w3.org/2000/svg">
<g>
<path d="M7.99585 13.1409C7.1186 13.3898 6.54308 13.8263 6.16395 14.2625C6.52708 13.9447 7.01348 13.6531 7.66963 13.4671C8.34073 13.2769 8.91325 13.2783 9.38632 13.3695V12.9996C8.98277 12.9627 8.5201 12.9921 7.99585 13.1409ZM6.12385 10.0311L2.8659 10.8894C2.8659 10.8894 2.92528 10.9733 3.0352 11.0852L5.79755 10.3573C5.79755 10.3573 5.7584 10.8617 5.41848 11.3129C6.06148 10.8264 6.12385 10.0311 6.12385 10.0311ZM8.85098 17.6878C4.26615 18.9227 1.84048 13.6094 1.10609 10.8516C0.766788 9.57857 0.618673 8.61447 0.579195 7.9923C0.574953 7.9277 0.576913 7.87325 0.58148 7.82335C0.343645 7.8377 0.229779 7.96132 0.252945 8.3186C0.292423 8.94042 0.44054 9.90447 0.77984 11.1779C1.51391 13.9353 3.9399 19.2486 8.52475 18.0137C9.5227 17.7449 10.2724 17.2552 10.8352 16.6301C10.3165 17.0986 9.66723 17.4676 8.85098 17.6878ZM9.71255 6.7793V7.1056H11.5109C11.474 6.99007 11.4368 6.88597 11.3999 6.7793H9.71255Z" fill="#2D4552"/>
<path d="M11.9136 9.46637C12.7224 9.69605 13.1501 10.2631 13.3762 10.7649L14.278 11.021C14.278 11.021 14.155 9.2648 12.5664 8.81357C11.0804 8.39135 10.1659 9.63927 10.0546 9.80077C10.4869 9.49277 11.1182 9.24062 11.9136 9.46637ZM19.0918 10.773C17.6044 10.3488 16.6902 11.5994 16.5806 11.7586C17.0133 11.451 17.6442 11.1987 18.4393 11.4255C19.2467 11.6555 19.6741 12.2219 19.9009 12.724L20.804 12.9811C20.804 12.9811 20.679 11.2245 19.0918 10.773ZM18.1959 15.4035L10.6944 13.3063C10.6944 13.3063 10.7756 13.7181 11.0872 14.2512L17.4031 16.0169C17.9231 15.716 18.1959 15.4035 18.1959 15.4035ZM12.9951 19.9175C7.05541 18.325 7.77348 10.757 8.73461 7.17085C9.13033 5.69295 9.53718 4.59447 9.87456 3.85812C9.67326 3.8167 9.50653 3.92272 9.34178 4.25777C8.98356 4.98435 8.52548 6.16732 8.08216 7.82337C7.12131 11.4095 6.40321 18.9772 12.3427 20.5697C15.1422 21.3197 17.3231 20.1798 18.9489 18.3896C17.4057 19.7873 15.4355 20.571 12.9951 19.9175Z" fill="#2D4552"/>
<path d="M9.71406 15.9159V14.3887L5.47089 15.5919C5.47089 15.5919 5.78441 13.7702 7.99736 13.1424C8.66846 12.9522 9.24106 12.9535 9.71406 13.0449V6.78086H11.8386C11.6073 6.06603 11.3835 5.51571 11.1956 5.13331C10.8847 4.50038 10.5659 4.91996 9.84234 5.52516C9.33269 5.95093 8.04466 6.85921 6.10644 7.38151C4.16816 7.90413 2.60119 7.76553 1.94738 7.65231C1.0205 7.49241 0.535687 7.28886 0.581042 7.99386C0.620512 8.61568 0.768637 9.57981 1.10793 10.8531C1.842 13.6106 4.26799 18.9239 8.85281 17.6891C10.0504 17.3664 10.8958 16.7286 11.4817 15.9156L9.71406 15.9159ZM2.86709 10.891L6.12536 10.0327C6.12536 10.0327 6.03039 11.2861 4.80891 11.6081C3.58711 11.9298 2.86709 10.891 2.86709 10.891Z" fill="#E2574C"/>
<path d="M21.9718 6.8525C21.1248 7.00098 19.0929 7.18595 16.5818 6.51288C14.07 5.8402 12.4035 4.6637 11.7432 4.1107C10.8072 3.32673 10.3955 2.78188 9.99026 3.606C9.63203 4.33288 9.17393 5.51588 8.73053 7.17193C7.76976 10.7581 7.05168 18.3258 12.9911 19.9182C18.9292 21.5094 22.0905 14.5961 23.0514 11.0096C23.4948 9.35388 23.6892 8.1001 23.7427 7.29168C23.8037 6.3759 23.1747 6.64173 21.9718 6.8525ZM10.0385 9.81945C10.0385 9.81945 10.9745 8.3637 12.562 8.8149C14.1506 9.26613 14.2736 11.0223 14.2736 11.0223L10.0385 9.81945ZM13.9137 16.352C11.1214 15.534 10.6907 13.3074 10.6907 13.3074L18.1918 15.4046C18.1918 15.4042 16.6777 17.1597 13.9137 16.352ZM16.5658 11.776C16.5658 11.776 17.5005 10.3212 19.0877 10.7737C20.6749 11.2256 20.7999 12.9818 20.7999 12.9818L16.5658 11.776Z" fill="#2EAD33"/>
<path d="M8.23161 14.8086L5.47121 15.591C5.47121 15.591 5.77106 13.8828 7.80456 13.2058L6.24148 7.33984L6.10641 7.38089C4.16816 7.90359 2.60118 7.76492 1.94738 7.65169C1.0205 7.49187 0.535694 7.28824 0.581041 7.99332C0.620519 8.61514 0.768636 9.57919 1.10793 10.8526C1.842 13.61 4.26801 18.9233 8.85281 17.6885L8.98788 17.646L8.23161 14.8086ZM2.86741 10.8904L6.12568 10.032C6.12568 10.032 6.03071 11.2855 4.80926 11.6075C3.58743 11.9292 2.86741 10.8904 2.86741 10.8904Z" fill="#D65348"/>
<path d="M14.0397 16.3826L13.9134 16.3519C11.121 15.534 10.6904 13.3074 10.6904 13.3074L14.5584 14.3886L16.6062 6.5194L16.5815 6.51288C14.0697 5.8402 12.4032 4.6637 11.7428 4.1107C10.8068 3.32673 10.3951 2.78188 9.98991 3.606C9.63203 4.33288 9.17393 5.51588 8.73053 7.17193C7.76976 10.7581 7.05168 18.3258 12.9911 19.9182L13.1128 19.9456L14.0397 16.3826ZM10.0385 9.81948C10.0385 9.81948 10.9745 8.3637 12.562 8.8149C14.1506 9.26613 14.2736 11.0223 14.2736 11.0223L10.0385 9.81948Z" fill="#1D8D22"/>
<path d="M8.36932 14.7684L7.62905 14.9785C7.80392 15.9644 8.11217 16.9106 8.59602 17.7464C8.68022 17.7278 8.76375 17.7119 8.84952 17.6884C9.07432 17.6277 9.28277 17.5526 9.48347 17.4707C8.94287 16.6685 8.58525 15.7445 8.36932 14.7684ZM8.08025 7.82453C7.69985 9.24436 7.35952 11.288 7.4532 13.3378C7.62087 13.265 7.798 13.1972 7.99475 13.1414L8.1318 13.1108C7.96473 10.9212 8.32587 8.69006 8.73272 7.17201C8.83585 6.78798 8.93925 6.43078 9.04232 6.09766C8.8763 6.20333 8.69752 6.31163 8.4939 6.42321C8.35657 6.84706 8.2179 7.31033 8.08025 7.82453Z" fill="#C04B41"/>
</g>
</svg>
