<svg width="24" height="28" viewBox="0 0 24 28" fill="none" xmlns="http://www.w3.org/2000/svg">
<g opacity="0.5">
<path d="M16.5004 19.918V25.114L12 27.712V22.516L16.5004 19.918Z" fill="#9E0D38"/>
<path d="M24.0004 6.92773V24.2477L19.5 26.8458V9.52574L24.0004 6.92773Z" fill="#9E0D38"/>
<path d="M24 6.92801L19.4996 9.52601L11.9993 5.196L4.50043 9.52601L0 6.92801L11.9993 0L24 6.92801Z" fill="#FF516B"/>
<path d="M11.9993 22.5157V27.7118L0 20.7837V6.92773L4.50043 9.52574V18.1857L11.9993 22.5157Z" fill="#DC244C"/>
<path d="M16.4995 11.2582L11.999 13.8562L7.5 11.2582L11.999 8.66016L16.4995 11.2582Z" fill="#FF516B"/>
<path d="M11.999 13.8558V19.0518L7.5 16.4538V11.2578L11.999 13.8558Z" fill="#DC244C"/>
<path d="M16.5004 11.2578V16.4538L12 19.0518V13.8558L16.5004 11.2578Z" fill="#9E0D38"/>
</g>
</svg>
