<svg xmlns="http://www.w3.org/2000/svg" viewBox="0 0 270 270">
  <path fill="#E01E5A" d="M99.4 151.2a12.9 12.9 0 1 1-12.9-12.9h12.9z"/>
  <path fill="#E01E5A" d="M105.9 151.2a12.9 12.9 0 0 1 25.8 0v32.3a12.9 12.9 0 0 1-25.8 0z"/>
  <path fill="#36C5F0" d="M118.8 99.4a12.9 12.9 0 1 1 12.9-12.9v12.9z"/>
  <path fill="#36C5F0" d="M118.8 105.9a12.9 12.9 0 0 1 0 25.8H86.5a12.9 12.9 0 0 1 0-25.8z"/>
  <path fill="#2EB67D" d="M170.6 118.8a12.9 12.9 0 1 1 12.9 12.9h-12.9z"/>
  <path fill="#2EB67D" d="M164.1 118.8a12.9 12.9 0 0 1-25.8 0V86.5a12.9 12.9 0 0 1 25.8 0z"/>
  <path fill="#ECB22E" d="M151.2 170.6a12.9 12.9 0 1 1-12.9 12.9v-12.9z"/>
  <path fill="#ECB22E" d="M151.2 164.1a12.9 12.9 0 0 1 0-25.8h32.3a12.9 12.9 0 0 1 0 25.8z"/>
</svg>
