
<svg width="154" height="47" viewBox="0 0 154 47" fill="none" xmlns="http://www.w3.org/2000/svg">
<g clip-path="url(#clip0_840_16)">
<path d="M95.5172 36.7181C86.5787 43.38 73.6228 46.9344 62.4681 46.9344C46.8274 46.9344 32.7468 41.0849 22.0942 31.356C21.2572 30.591 22.0071 29.5484 23.0115 30.1441C34.5077 36.9077 48.7222 40.9766 63.4055 40.9766C73.3082 40.9766 84.2018 38.9049 94.2182 34.6058C95.7314 33.9558 96.9969 35.6078 95.5172 36.7181Z" fill="white"/>
<path d="M99.2334 32.4186C98.0952 30.9427 91.6809 31.7213 88.8018 32.0666C87.9247 32.1749 87.7908 31.4031 88.5809 30.8479C93.6895 27.2123 102.072 28.2617 103.05 29.4803C104.027 30.7058 102.795 39.2025 97.9947 43.2579C97.2582 43.8807 96.5552 43.549 96.8833 42.723C97.9613 40.0014 100.378 33.9013 99.2334 32.4186Z" fill="white"/>
<path d="M89.0028 5.18167V1.64758C89.0028 1.11273 89.4045 0.753906 89.8866 0.753906H105.534C106.036 0.753906 106.438 1.1195 106.438 1.64758V4.6739C106.431 5.18167 106.009 5.84516 105.26 6.89455L97.1512 18.6004C100.164 18.5259 103.345 18.9795 106.076 20.5367C106.692 20.8887 106.86 21.4033 106.907 21.911V25.6821C106.907 26.1966 106.344 26.7992 105.755 26.4878C100.941 23.9354 94.5467 23.6578 89.2238 26.5148C88.6814 26.8127 88.1123 26.2169 88.1123 25.7024V22.1209C88.1123 21.5455 88.119 20.5638 88.6881 19.6904L98.0819 6.06858H89.9067C89.4045 6.06858 89.0028 5.70976 89.0028 5.18167Z" fill="white"/>
<path d="M31.9233 27.2325H27.1628C26.7075 27.1986 26.346 26.8533 26.3125 26.4133V1.70852C26.3125 1.21429 26.7209 0.821606 27.2298 0.821606H31.6689C32.1309 0.841903 32.4992 1.20074 32.5326 1.64758V4.87701H32.6197C33.778 1.7559 35.954 0.300293 38.8867 0.300293C41.8662 0.300293 43.7275 1.7559 45.0666 4.87701C46.2183 1.7559 48.8362 0.300293 51.6416 0.300293C53.6369 0.300293 55.8196 1.13304 57.152 3.00164C58.6585 5.08011 58.3505 8.09966 58.3505 10.7468L58.3438 26.3388C58.3438 26.833 57.9354 27.2325 57.4266 27.2325H52.6727C52.1974 27.1986 51.8157 26.8127 51.8157 26.3388V13.2451C51.8157 12.2025 51.9094 9.60267 51.6818 8.6142C51.3269 6.95549 50.2624 6.48833 48.8831 6.48833C47.7314 6.48833 46.5263 7.26691 46.0375 8.51265C45.5487 9.75838 45.5956 11.8436 45.5956 13.2451V26.3388C45.5956 26.833 45.1871 27.2325 44.6783 27.2325H39.9245C39.4424 27.1986 39.0675 26.8127 39.0675 26.3388L39.0608 13.2451C39.0608 10.4896 39.5094 6.43417 36.1281 6.43417C32.7067 6.43417 32.8406 10.388 32.8406 13.2451V26.3388C32.8406 26.833 32.4322 27.2325 31.9233 27.2325Z" fill="white"/>
<path d="M119.909 0.300293C126.973 0.300293 130.796 6.43417 130.796 14.2335C130.796 21.7689 126.571 27.747 119.909 27.747C112.973 27.747 109.196 21.6131 109.196 13.9695C109.196 6.27845 113.019 0.300293 119.909 0.300293ZM119.949 5.34416C116.441 5.34416 116.22 10.1781 116.22 13.1909C116.22 16.2105 116.173 22.6558 119.909 22.6558C123.598 22.6558 123.772 17.4562 123.772 14.2877C123.772 12.2025 123.685 9.71099 123.063 7.73406C122.527 6.01442 121.462 5.34416 119.949 5.34416Z" fill="white"/>
<path d="M139.956 27.2325H135.215C134.74 27.1986 134.358 26.8127 134.358 26.3388L134.352 1.62727C134.392 1.17366 134.787 0.821606 135.269 0.821606H139.681C140.096 0.841903 140.438 1.12627 140.532 1.51218V5.28999H140.619C141.951 1.91162 143.819 0.300293 147.107 0.300293C149.242 0.300293 151.325 1.07888 152.664 3.21151C153.909 5.18844 153.909 8.51265 153.909 10.9026V26.4539C153.856 26.8872 153.461 27.2325 152.992 27.2325H148.218C147.783 27.1986 147.421 26.8737 147.374 26.4539V13.0352C147.374 10.3339 147.682 6.38001 144.395 6.38001C143.237 6.38001 142.172 7.16536 141.643 8.35693C140.973 9.86671 140.886 11.3697 140.886 13.0352V26.3388C140.88 26.833 140.465 27.2325 139.956 27.2325Z" fill="white"/>
<path d="M76.5291 15.432V14.3894C73.0876 14.3894 69.4519 15.1341 69.4519 19.2369C69.4519 21.3154 70.5165 22.7236 72.3444 22.7236C73.6835 22.7236 74.882 21.8909 75.6385 20.5368C76.5759 18.8713 76.5291 17.3074 76.5291 15.432ZM81.3297 27.1649C81.015 27.4493 80.5597 27.4696 80.2049 27.28C78.6247 25.953 78.3435 25.3369 77.4731 24.0709C74.8619 26.7655 73.0139 27.5711 69.626 27.5711C65.6221 27.5711 62.502 25.0729 62.502 20.0697C62.502 16.1632 64.5976 13.5025 67.5771 12.2026C70.1616 11.0516 73.7705 10.8485 76.5291 10.5303V9.90747C76.5291 8.76329 76.6161 7.40923 75.9532 6.42078C75.3707 5.53387 74.2593 5.16827 73.2817 5.16827C71.4672 5.16827 69.8469 6.10934 69.4519 8.05918C69.3715 8.49248 69.0569 8.91901 68.6283 8.93932L64.0084 8.43832C63.6201 8.35031 63.1916 8.0321 63.2987 7.42955C64.3633 1.76959 69.4184 0.0634766 73.9446 0.0634766C76.2612 0.0634766 79.2876 0.686343 81.1155 2.46016C83.4321 4.64696 83.2112 7.56495 83.2112 10.7402V18.2417C83.2112 20.4962 84.1352 21.4847 85.0056 22.7033C85.3136 23.1366 85.3805 23.6579 84.9922 23.9829C84.0213 24.8021 82.2939 26.3254 81.3431 27.1785L81.3297 27.1649Z" fill="white"/>
<path d="M14.1199 15.432V14.3894C10.6784 14.3894 7.04271 15.1341 7.04271 19.2369C7.04271 21.3154 8.1073 22.7236 9.93517 22.7236C11.2743 22.7236 12.4728 21.8909 13.2294 20.5368C14.1667 18.8713 14.1199 17.3074 14.1199 15.432ZM18.9206 27.1649C18.6059 27.4493 18.1506 27.4696 17.7957 27.28C16.2156 25.953 15.9344 25.3369 15.0639 24.0709C12.4527 26.7655 10.6047 27.5711 7.2168 27.5711C3.21288 27.5711 0.0927734 25.0729 0.0927734 20.0697C0.0927734 16.1632 2.18847 13.5025 5.16797 12.2026C7.75244 11.0516 11.3613 10.8485 14.1199 10.5303V9.90747C14.1199 8.76329 14.2069 7.40923 13.5441 6.42078C12.9615 5.53387 11.8501 5.16827 10.8725 5.16827C9.05807 5.16827 7.43775 6.10934 7.04271 8.05918C6.96237 8.49248 6.64768 8.91901 6.21917 8.93932L1.59926 8.43832C1.21092 8.35031 0.78241 8.0321 0.889538 7.42955C1.95413 1.76959 7.00923 0.0634766 11.5354 0.0634766C13.852 0.0634766 16.8784 0.686343 18.7063 2.46016C21.0229 4.64696 20.802 7.56495 20.802 10.7402V18.2417C20.802 20.4962 21.726 21.4847 22.5964 22.7033C22.9044 23.1366 22.9713 23.6579 22.583 23.9829C21.6121 24.8021 19.8847 26.3254 18.9339 27.1785L18.9206 27.1649Z" fill="white"/>
</g>
<defs>
<clipPath id="clip0_840_16">
<rect width="154" height="47" fill="white"/>
</clipPath>
</defs>
</svg>
