<svg width="674" height="636" viewBox="0 0 674 636" fill="none" xmlns="http://www.w3.org/2000/svg">
<rect x="0.25" y="555.75" width="475.5" height="119.5" rx="7.75" transform="rotate(-90 0.25 555.75)" stroke="#2E2E2F" stroke-width="0.5"/>
<path d="M12.784 545.333V545.261H8.8V544.757H13V545.765L9.016 546.977V547.049H13V547.553H8.8V546.545L12.784 545.333ZM8.8 543.273V540.729H9.268V542.769H10.66V540.765H11.128V542.769H12.532V540.693H13V543.273H8.8ZM8.8 538.843L10.66 537.901V537.793L8.8 536.851V536.299L10.858 537.349H10.93L13 536.299V536.851L11.128 537.793V537.901L13 538.843V539.395L10.93 538.345H10.858L8.8 539.395V538.843ZM8.8 535.169V532.217H9.268V533.441H13V533.945H9.268V535.169H8.8ZM12.664 529.959C12.548 529.959 12.45 529.919 12.37 529.839C12.286 529.755 12.244 529.655 12.244 529.539C12.244 529.423 12.286 529.325 12.37 529.245C12.45 529.161 12.548 529.119 12.664 529.119C12.78 529.119 12.88 529.161 12.964 529.245C13.044 529.325 13.084 529.423 13.084 529.539C13.084 529.655 13.044 529.755 12.964 529.839C12.88 529.919 12.78 529.959 12.664 529.959ZM11.74 524.191C12.176 524.191 12.51 524.299 12.742 524.515C12.97 524.727 13.084 525.039 13.084 525.451C13.084 525.863 12.97 526.189 12.742 526.429C12.51 526.665 12.176 526.783 11.74 526.783H11.416V526.279H11.74C12.004 526.279 12.216 526.211 12.376 526.075C12.536 525.939 12.616 525.731 12.616 525.451C12.616 525.171 12.536 524.975 12.376 524.863C12.216 524.751 12.004 524.695 11.74 524.695H9.268V525.127H8.8V523.831H9.268V524.191H11.74ZM10.012 520.242C9.876 520.242 9.756 520.27 9.652 520.326C9.548 520.378 9.462 520.45 9.394 520.542C9.326 520.634 9.274 520.74 9.238 520.86C9.202 520.98 9.184 521.106 9.184 521.238C9.184 521.354 9.2 521.464 9.232 521.568C9.26 521.672 9.302 521.766 9.358 521.85C9.414 521.93 9.484 521.994 9.568 522.042C9.648 522.09 9.742 522.114 9.85 522.114H9.886C10.002 522.114 10.102 522.09 10.186 522.042C10.266 521.994 10.336 521.924 10.396 521.832C10.452 521.736 10.5 521.618 10.54 521.478C10.576 521.338 10.608 521.174 10.636 520.986C10.704 520.546 10.834 520.222 11.026 520.014C11.214 519.806 11.468 519.702 11.788 519.702H11.86C12.04 519.702 12.206 519.734 12.358 519.798C12.506 519.858 12.634 519.95 12.742 520.074C12.85 520.194 12.934 520.344 12.994 520.524C13.054 520.704 13.084 520.912 13.084 521.148C13.084 521.416 13.046 521.654 12.97 521.862C12.89 522.066 12.782 522.238 12.646 522.378C12.506 522.514 12.344 522.618 12.16 522.69C11.972 522.762 11.768 522.798 11.548 522.798H11.368V522.294H11.512C11.88 522.294 12.156 522.194 12.34 521.994C12.524 521.79 12.616 521.508 12.616 521.148C12.616 520.836 12.548 520.602 12.412 520.446C12.272 520.286 12.088 520.206 11.86 520.206H11.824C11.604 520.206 11.436 520.288 11.32 520.452C11.204 520.612 11.12 520.874 11.068 521.238C11.04 521.45 10.998 521.642 10.942 521.814C10.882 521.982 10.806 522.126 10.714 522.246C10.618 522.366 10.504 522.458 10.372 522.522C10.24 522.586 10.084 522.618 9.904 522.618H9.832C9.668 522.618 9.518 522.584 9.382 522.516C9.246 522.448 9.128 522.354 9.028 522.234C8.928 522.11 8.852 521.964 8.8 521.796C8.744 521.624 8.716 521.436 8.716 521.232C8.716 520.996 8.75 520.786 8.818 520.602C8.886 520.414 8.978 520.256 9.094 520.128C9.206 520 9.34 519.904 9.496 519.84C9.648 519.772 9.808 519.738 9.976 519.738H10.228V520.242H10.012ZM8.8 514.19V511.61H9.268V513.686H10.66V511.646H11.128V513.686H13V514.19H8.8ZM13 507.456V507.96H11.596C11.492 507.96 11.412 507.984 11.356 508.032C11.3 508.08 11.272 508.164 11.272 508.284V509.592H13V510.096H8.8V508.596C8.8 508.38 8.832 508.192 8.896 508.032C8.956 507.872 9.038 507.74 9.142 507.636C9.246 507.528 9.368 507.448 9.508 507.396C9.644 507.34 9.788 507.312 9.94 507.312H10.12C10.276 507.312 10.432 507.356 10.588 507.444C10.744 507.528 10.864 507.66 10.948 507.84H11.02C11.04 507.72 11.088 507.626 11.164 507.558C11.24 507.49 11.348 507.456 11.488 507.456H13ZM10.804 509.592V508.656C10.804 508.372 10.744 508.162 10.624 508.026C10.5 507.886 10.32 507.816 10.084 507.816H9.976C9.764 507.816 9.594 507.886 9.466 508.026C9.334 508.162 9.268 508.372 9.268 508.656V509.592H10.804ZM10.432 506.092C9.888 506.092 9.466 505.962 9.166 505.702C8.866 505.442 8.716 505.08 8.716 504.616C8.716 504.152 8.866 503.79 9.166 503.53C9.466 503.27 9.888 503.14 10.432 503.14H11.368C11.928 503.14 12.354 503.27 12.646 503.53C12.938 503.79 13.084 504.152 13.084 504.616C13.084 505.08 12.938 505.442 12.646 505.702C12.354 505.962 11.928 506.092 11.368 506.092H10.432ZM12.616 504.616C12.616 504.292 12.506 504.05 12.286 503.89C12.062 503.726 11.744 503.644 11.332 503.644H10.468C10.084 503.644 9.774 503.726 9.538 503.89C9.302 504.05 9.184 504.292 9.184 504.616C9.184 504.94 9.302 505.184 9.538 505.348C9.774 505.508 10.084 505.588 10.468 505.588H11.332C11.744 505.588 12.062 505.508 12.286 505.348C12.506 505.184 12.616 504.94 12.616 504.616ZM12.784 499.641V499.569H8.8V499.065H13V500.073L9.016 501.285V501.357H13V501.861H8.8V500.853L12.784 499.641ZM8.8 497.785V494.833H9.268V496.057H13V496.561H9.268V497.785H8.8ZM8.8 493.427V490.883H9.268V492.923H10.66V490.919H11.128V492.923H12.532V490.847H13V493.427H8.8ZM12.784 487.179V487.107H8.8V486.603H13V487.611L9.016 488.823V488.895H13V489.399H8.8V488.391L12.784 487.179ZM8.8 485.245V483.865C8.8 483.345 8.924 482.965 9.172 482.725C9.42 482.485 9.816 482.365 10.36 482.365H11.44C11.984 482.365 12.38 482.485 12.628 482.725C12.876 482.965 13 483.345 13 483.865V485.245H12.526V484.885H9.268V485.245H8.8ZM12.532 483.937C12.532 483.753 12.514 483.595 12.478 483.463C12.442 483.327 12.382 483.215 12.298 483.127C12.21 483.039 12.094 482.975 11.95 482.935C11.806 482.891 11.624 482.869 11.404 482.869H10.396C10.176 482.869 9.994 482.891 9.85 482.935C9.706 482.975 9.592 483.039 9.508 483.127C9.42 483.215 9.358 483.327 9.322 483.463C9.286 483.595 9.268 483.753 9.268 483.937V484.381H12.532V483.937Z" fill="#5B5C64"/>
<rect x="2" y="213" width="131" height="116" rx="6" transform="rotate(-90 2 213)" fill="#1B1B1C"/>
<path d="M7.956 205.832V207.632L9 207.938V208.478L4.8 207.206V206.258L9 204.986V205.526L7.956 205.832ZM5.016 206.768L7.488 207.494V205.97L5.016 206.696V206.768ZM4.8 203.514H7.584C7.924 203.514 8.182 203.436 8.358 203.28C8.53 203.12 8.616 202.886 8.616 202.578C8.616 202.27 8.53 202.038 8.358 201.882C8.182 201.722 7.924 201.642 7.584 201.642H4.8V201.138H7.584C8.072 201.138 8.444 201.266 8.7 201.522C8.956 201.778 9.084 202.13 9.084 202.578C9.084 203.026 8.956 203.378 8.7 203.634C8.444 203.89 8.072 204.018 7.584 204.018H4.8V203.514ZM4.8 199.9V196.948H5.268V198.172H9V198.676H5.268V199.9H4.8ZM4.8 195.668V195.164H6.66V193.376H4.8V192.872H9V193.376H7.128V195.164H9V195.668H4.8Z" fill="#5B5C64"/>
<g clip-path="url(#clip0_1330_6245)">
<path d="M136.532 587.649V587.289H133.268V587.649H132.8V585.951C132.8 585.751 132.828 585.575 132.884 585.423C132.94 585.267 133.016 585.137 133.112 585.033C133.208 584.925 133.324 584.845 133.46 584.793C133.592 584.737 133.736 584.709 133.892 584.709H133.964C134.08 584.709 134.186 584.727 134.282 584.763C134.378 584.799 134.464 584.849 134.54 584.913C134.616 584.977 134.682 585.053 134.738 585.141C134.79 585.225 134.83 585.317 134.858 585.417H134.93C134.986 585.217 135.094 585.049 135.254 584.913C135.41 584.777 135.602 584.709 135.83 584.709H135.902C136.058 584.709 136.204 584.737 136.34 584.793C136.472 584.845 136.588 584.925 136.688 585.033C136.784 585.137 136.86 585.267 136.916 585.423C136.972 585.575 137 585.751 137 585.951V587.649H136.532ZM136.532 586.785V585.987C136.532 585.751 136.474 585.559 136.358 585.411C136.238 585.263 136.074 585.189 135.866 585.189H135.83C135.614 585.189 135.444 585.259 135.32 585.399C135.192 585.539 135.128 585.729 135.128 585.969V586.785H136.532ZM134.66 586.785V585.969C134.66 585.729 134.598 585.539 134.474 585.399C134.35 585.259 134.18 585.189 133.964 585.189H133.928C133.724 585.189 133.564 585.263 133.448 585.411C133.328 585.559 133.268 585.751 133.268 585.987V586.785H134.66ZM135.956 581.101V582.901L137 583.207V583.747L132.8 582.475V581.527L137 580.255V580.795L135.956 581.101ZM133.016 582.037L135.488 582.763V581.239L133.016 581.965V582.037ZM136.616 577.823C136.616 577.651 136.588 577.505 136.532 577.385C136.472 577.261 136.394 577.161 136.298 577.085C136.198 577.005 136.086 576.947 135.962 576.911C135.834 576.871 135.7 576.851 135.56 576.851H135.488V576.347H135.56C135.772 576.347 135.972 576.379 136.16 576.443C136.344 576.507 136.506 576.601 136.646 576.725C136.782 576.849 136.89 577.003 136.97 577.187C137.046 577.371 137.084 577.583 137.084 577.823C137.084 578.287 136.938 578.649 136.646 578.909C136.354 579.169 135.928 579.299 135.368 579.299H134.432C133.888 579.299 133.466 579.169 133.166 578.909C132.866 578.649 132.716 578.287 132.716 577.823C132.716 577.583 132.756 577.371 132.836 577.187C132.912 577.003 133.02 576.849 133.16 576.725C133.296 576.601 133.458 576.507 133.646 576.443C133.83 576.379 134.028 576.347 134.24 576.347H134.312V576.851H134.24C134.104 576.855 133.972 576.877 133.844 576.917C133.716 576.953 133.604 577.011 133.508 577.091C133.408 577.167 133.33 577.265 133.274 577.385C133.214 577.505 133.184 577.651 133.184 577.823C133.184 578.147 133.302 578.391 133.538 578.555C133.774 578.715 134.084 578.795 134.468 578.795H135.332C135.744 578.795 136.062 578.715 136.286 578.555C136.506 578.391 136.616 578.147 136.616 577.823ZM137 574.491V574.995H132.8V574.491H134.66V574.353L132.8 572.739V572.115H132.836L134.864 573.855H134.936L136.964 572.043H137V572.679L135.128 574.353V574.491H137ZM132.8 570.811V568.267H133.268V570.307H134.66V568.303H135.128V570.307H136.532V568.231H137V570.811H132.8ZM136.784 564.563V564.491H132.8V563.987H137V564.995L133.016 566.207V566.279H137V566.783H132.8V565.775L136.784 564.563ZM132.8 562.63V561.25C132.8 560.73 132.924 560.35 133.172 560.11C133.42 559.87 133.816 559.75 134.36 559.75H135.44C135.984 559.75 136.38 559.87 136.628 560.11C136.876 560.35 137 560.73 137 561.25V562.63H136.526V562.27H133.268V562.63H132.8ZM136.532 561.322C136.532 561.138 136.514 560.98 136.478 560.848C136.442 560.712 136.382 560.6 136.298 560.512C136.21 560.424 136.094 560.36 135.95 560.32C135.806 560.276 135.624 560.254 135.404 560.254H134.396C134.176 560.254 133.994 560.276 133.85 560.32C133.706 560.36 133.592 560.424 133.508 560.512C133.42 560.6 133.358 560.712 133.322 560.848C133.286 560.98 133.268 561.138 133.268 561.322V561.766H136.532V561.322ZM134.012 551.934C133.876 551.934 133.756 551.962 133.652 552.018C133.548 552.07 133.462 552.142 133.394 552.234C133.326 552.326 133.274 552.432 133.238 552.552C133.202 552.672 133.184 552.798 133.184 552.93C133.184 553.046 133.2 553.156 133.232 553.26C133.26 553.364 133.302 553.458 133.358 553.542C133.414 553.622 133.484 553.686 133.568 553.734C133.648 553.782 133.742 553.806 133.85 553.806H133.886C134.002 553.806 134.102 553.782 134.186 553.734C134.266 553.686 134.336 553.616 134.396 553.524C134.452 553.428 134.5 553.31 134.54 553.17C134.576 553.03 134.608 552.866 134.636 552.678C134.704 552.238 134.834 551.914 135.026 551.706C135.214 551.498 135.468 551.394 135.788 551.394H135.86C136.04 551.394 136.206 551.426 136.358 551.49C136.506 551.55 136.634 551.642 136.742 551.766C136.85 551.886 136.934 552.036 136.994 552.216C137.054 552.396 137.084 552.604 137.084 552.84C137.084 553.108 137.046 553.346 136.97 553.554C136.89 553.758 136.782 553.93 136.646 554.07C136.506 554.206 136.344 554.31 136.16 554.382C135.972 554.454 135.768 554.49 135.548 554.49H135.368V553.986H135.512C135.88 553.986 136.156 553.886 136.34 553.686C136.524 553.482 136.616 553.2 136.616 552.84C136.616 552.528 136.548 552.294 136.412 552.138C136.272 551.978 136.088 551.898 135.86 551.898H135.824C135.604 551.898 135.436 551.98 135.32 552.144C135.204 552.304 135.12 552.566 135.068 552.93C135.04 553.142 134.998 553.334 134.942 553.506C134.882 553.674 134.806 553.818 134.714 553.938C134.618 554.058 134.504 554.15 134.372 554.214C134.24 554.278 134.084 554.31 133.904 554.31H133.832C133.668 554.31 133.518 554.276 133.382 554.208C133.246 554.14 133.128 554.046 133.028 553.926C132.928 553.802 132.852 553.656 132.8 553.488C132.744 553.316 132.716 553.128 132.716 552.924C132.716 552.688 132.75 552.478 132.818 552.294C132.886 552.106 132.978 551.948 133.094 551.82C133.206 551.692 133.34 551.596 133.496 551.532C133.648 551.464 133.808 551.43 133.976 551.43H134.228V551.934H134.012ZM132.8 550.042V547.498H133.268V549.538H134.66V547.534H135.128V549.538H136.532V547.462H137V550.042H132.8ZM137 543.302V543.806H135.596C135.492 543.806 135.412 543.83 135.356 543.878C135.3 543.926 135.272 544.01 135.272 544.13V545.438H137V545.942H132.8V544.442C132.8 544.226 132.832 544.038 132.896 543.878C132.956 543.718 133.038 543.586 133.142 543.482C133.246 543.374 133.368 543.294 133.508 543.242C133.644 543.186 133.788 543.158 133.94 543.158H134.12C134.276 543.158 134.432 543.202 134.588 543.29C134.744 543.374 134.864 543.506 134.948 543.686H135.02C135.04 543.566 135.088 543.472 135.164 543.404C135.24 543.336 135.348 543.302 135.488 543.302H137ZM134.804 545.438V544.502C134.804 544.218 134.744 544.008 134.624 543.872C134.5 543.732 134.32 543.662 134.084 543.662H133.976C133.764 543.662 133.594 543.732 133.466 543.872C133.334 544.008 133.268 544.218 133.268 544.502V545.438H134.804ZM132.8 542.137V541.597L136.784 540.499V540.427L132.8 539.329V538.789L137 539.977V540.949L132.8 542.137ZM132.8 537.641V534.977H133.268V536.057H136.532V534.977H137V537.641H136.532V536.561H133.268V537.641H132.8ZM136.616 532.131C136.616 531.959 136.588 531.813 136.532 531.693C136.472 531.569 136.394 531.469 136.298 531.393C136.198 531.313 136.086 531.255 135.962 531.219C135.834 531.179 135.7 531.159 135.56 531.159H135.488V530.655H135.56C135.772 530.655 135.972 530.687 136.16 530.751C136.344 530.815 136.506 530.909 136.646 531.033C136.782 531.157 136.89 531.311 136.97 531.495C137.046 531.679 137.084 531.891 137.084 532.131C137.084 532.595 136.938 532.957 136.646 533.217C136.354 533.477 135.928 533.607 135.368 533.607H134.432C133.888 533.607 133.466 533.477 133.166 533.217C132.866 532.957 132.716 532.595 132.716 532.131C132.716 531.891 132.756 531.679 132.836 531.495C132.912 531.311 133.02 531.157 133.16 531.033C133.296 530.909 133.458 530.815 133.646 530.751C133.83 530.687 134.028 530.655 134.24 530.655H134.312V531.159H134.24C134.104 531.163 133.972 531.185 133.844 531.225C133.716 531.261 133.604 531.319 133.508 531.399C133.408 531.475 133.33 531.573 133.274 531.693C133.214 531.813 133.184 531.959 133.184 532.131C133.184 532.455 133.302 532.699 133.538 532.863C133.774 533.023 134.084 533.103 134.468 533.103H135.332C135.744 533.103 136.062 533.023 136.286 532.863C136.506 532.699 136.616 532.455 136.616 532.131ZM132.8 529.273V526.729H133.268V528.769H134.66V526.765H135.128V528.769H136.532V526.693H137V529.273H132.8ZM134.012 522.857C133.876 522.857 133.756 522.885 133.652 522.941C133.548 522.993 133.462 523.065 133.394 523.157C133.326 523.249 133.274 523.355 133.238 523.475C133.202 523.595 133.184 523.721 133.184 523.853C133.184 523.969 133.2 524.079 133.232 524.183C133.26 524.287 133.302 524.381 133.358 524.465C133.414 524.545 133.484 524.609 133.568 524.657C133.648 524.705 133.742 524.729 133.85 524.729H133.886C134.002 524.729 134.102 524.705 134.186 524.657C134.266 524.609 134.336 524.539 134.396 524.447C134.452 524.351 134.5 524.233 134.54 524.093C134.576 523.953 134.608 523.789 134.636 523.601C134.704 523.161 134.834 522.837 135.026 522.629C135.214 522.421 135.468 522.317 135.788 522.317H135.86C136.04 522.317 136.206 522.349 136.358 522.413C136.506 522.473 136.634 522.565 136.742 522.689C136.85 522.809 136.934 522.959 136.994 523.139C137.054 523.319 137.084 523.527 137.084 523.763C137.084 524.031 137.046 524.269 136.97 524.477C136.89 524.681 136.782 524.853 136.646 524.993C136.506 525.129 136.344 525.233 136.16 525.305C135.972 525.377 135.768 525.413 135.548 525.413H135.368V524.909H135.512C135.88 524.909 136.156 524.809 136.34 524.609C136.524 524.405 136.616 524.123 136.616 523.763C136.616 523.451 136.548 523.217 136.412 523.061C136.272 522.901 136.088 522.821 135.86 522.821H135.824C135.604 522.821 135.436 522.903 135.32 523.067C135.204 523.227 135.12 523.489 135.068 523.853C135.04 524.065 134.998 524.257 134.942 524.429C134.882 524.597 134.806 524.741 134.714 524.861C134.618 524.981 134.504 525.073 134.372 525.137C134.24 525.201 134.084 525.233 133.904 525.233H133.832C133.668 525.233 133.518 525.199 133.382 525.131C133.246 525.063 133.128 524.969 133.028 524.849C132.928 524.725 132.852 524.579 132.8 524.411C132.744 524.239 132.716 524.051 132.716 523.847C132.716 523.611 132.75 523.401 132.818 523.217C132.886 523.029 132.978 522.871 133.094 522.743C133.206 522.615 133.34 522.519 133.496 522.455C133.648 522.387 133.808 522.353 133.976 522.353H134.228V522.857H134.012Z" fill="#5B5C64"/>
<rect x="145" y="594" width="358" height="309" rx="6" transform="rotate(-90 145 594)" fill="#1B1B1C"/>
<rect x="408" y="592" width="44" height="44" rx="4" transform="rotate(-90 408 592)" fill="#1B1B1C"/>
<rect x="408.25" y="591.75" width="43.5" height="43.5" rx="3.75" transform="rotate(-90 408.25 591.75)" stroke="#E24516" stroke-opacity="0.5" stroke-width="0.5"/>
<path d="M430 560C430.1 560 430.193 560.053 430.245 560.139L430.753 560.985C430.842 560.993 430.932 561.001 431.021 561.011L431.684 560.28C431.751 560.206 431.853 560.173 431.951 560.192C432.049 560.212 432.13 560.282 432.164 560.376L432.496 561.304C432.583 561.329 432.671 561.353 432.757 561.381L433.548 560.796C433.628 560.736 433.734 560.722 433.827 560.761C433.92 560.799 433.985 560.884 434 560.983L434.145 561.958C434.225 561.999 434.305 562.041 434.384 562.085L435.275 561.665C435.366 561.622 435.472 561.63 435.556 561.686C435.639 561.741 435.687 561.836 435.683 561.937L435.634 562.923C435.704 562.979 435.773 563.035 435.841 563.093L436.8 562.854C436.897 562.829 437 562.858 437.071 562.929C437.142 563 437.171 563.103 437.146 563.2L436.906 564.158C436.964 564.226 437.02 564.295 437.076 564.365L438.063 564.317C438.164 564.313 438.259 564.361 438.314 564.444C438.37 564.528 438.378 564.634 438.335 564.725L437.914 565.615C437.958 565.694 438 565.774 438.041 565.854L439.017 566C439.116 566.015 439.201 566.08 439.239 566.173C439.278 566.266 439.264 566.372 439.204 566.452L438.618 567.242C438.646 567.328 438.67 567.416 438.695 567.503L439.624 567.836C439.718 567.87 439.788 567.951 439.808 568.049C439.827 568.147 439.794 568.249 439.72 568.316L438.988 568.979C438.998 569.067 439.006 569.157 439.014 569.246L439.861 569.755C439.947 569.807 440 569.9 440 570C440 570.1 439.947 570.193 439.861 570.245L439.014 570.753C439.006 570.843 438.998 570.932 438.988 571.021L439.72 571.684C439.794 571.751 439.827 571.853 439.808 571.951C439.788 572.049 439.718 572.13 439.624 572.164L438.695 572.496C438.67 572.583 438.646 572.67 438.618 572.756L439.204 573.548C439.264 573.628 439.278 573.734 439.239 573.827C439.201 573.92 439.116 573.985 439.017 574L438.041 574.145C438 574.225 437.958 574.304 437.914 574.383L438.335 575.275C438.378 575.366 438.37 575.472 438.314 575.556C438.259 575.639 438.164 575.687 438.063 575.683L437.076 575.634C437.02 575.704 436.964 575.773 436.906 575.841L437.146 576.8C437.171 576.897 437.142 577 437.071 577.071C437 577.142 436.897 577.171 436.8 577.146L435.841 576.906C435.773 576.964 435.704 577.02 435.634 577.076L435.683 578.063C435.687 578.164 435.639 578.259 435.556 578.314C435.472 578.37 435.366 578.378 435.275 578.335L434.383 577.914C434.304 577.958 434.225 578 434.145 578.041L434 579.017C433.985 579.116 433.92 579.201 433.827 579.239C433.734 579.278 433.628 579.264 433.548 579.204L432.756 578.618C432.67 578.646 432.583 578.67 432.496 578.695L432.164 579.624C432.13 579.718 432.049 579.788 431.951 579.808C431.853 579.827 431.751 579.794 431.684 579.72L431.021 578.988C430.932 578.998 430.843 579.006 430.753 579.014L430.245 579.861C430.193 579.947 430.1 580 430 580C429.9 580 429.807 579.947 429.755 579.861L429.246 579.014C429.157 579.006 429.067 578.998 428.979 578.988L428.316 579.72C428.249 579.794 428.147 579.827 428.049 579.808C427.951 579.788 427.87 579.718 427.836 579.624L427.503 578.695C427.416 578.67 427.328 578.646 427.242 578.618L426.452 579.204C426.372 579.264 426.266 579.278 426.173 579.239C426.08 579.201 426.015 579.116 426 579.017L425.854 578.041C425.774 578 425.694 577.958 425.615 577.914L424.725 578.335C424.634 578.378 424.528 578.37 424.444 578.314C424.361 578.259 424.313 578.164 424.317 578.063L424.365 577.076C424.295 577.02 424.226 576.964 424.158 576.906L423.2 577.146C423.103 577.171 423 577.142 422.929 577.071C422.858 577 422.829 576.897 422.854 576.8L423.093 575.841C423.035 575.773 422.979 575.704 422.923 575.634L421.937 575.683C421.836 575.687 421.741 575.639 421.686 575.556C421.63 575.472 421.622 575.366 421.665 575.275L422.085 574.384C422.041 574.305 421.999 574.225 421.958 574.145L420.983 574C420.884 573.985 420.799 573.92 420.761 573.827C420.722 573.734 420.736 573.628 420.796 573.548L421.381 572.757C421.353 572.671 421.329 572.583 421.304 572.496L420.376 572.164C420.282 572.13 420.212 572.049 420.192 571.951C420.173 571.853 420.206 571.751 420.28 571.684L421.011 571.021C421.001 570.932 420.993 570.842 420.985 570.753L420.139 570.245C420.053 570.193 420 570.1 420 570C420 569.9 420.053 569.807 420.139 569.755L420.985 569.246C420.993 569.157 421.001 569.067 421.011 568.979L420.28 568.316C420.206 568.249 420.173 568.147 420.192 568.049C420.212 567.951 420.282 567.87 420.376 567.836L421.304 567.503C421.329 567.416 421.353 567.328 421.381 567.242L420.796 566.452C420.736 566.372 420.722 566.266 420.761 566.173C420.799 566.08 420.884 566.015 420.983 566L421.958 565.854C421.999 565.774 422.041 565.694 422.085 565.615L421.665 564.725C421.622 564.634 421.63 564.528 421.686 564.444C421.741 564.361 421.836 564.313 421.937 564.317L422.923 564.365C422.979 564.295 423.035 564.226 423.093 564.158L422.854 563.2C422.829 563.103 422.858 563 422.929 562.929C423 562.858 423.103 562.829 423.2 562.854L424.158 563.093C424.226 563.035 424.295 562.979 424.365 562.923L424.317 561.937C424.313 561.836 424.361 561.741 424.444 561.686C424.528 561.63 424.634 561.622 424.725 561.665L425.615 562.085C425.694 562.041 425.774 561.999 425.854 561.958L426 560.983C426.015 560.884 426.08 560.799 426.173 560.761C426.266 560.722 426.372 560.736 426.452 560.796L427.242 561.381C427.328 561.353 427.416 561.329 427.503 561.304L427.836 560.376C427.87 560.282 427.951 560.212 428.049 560.192C428.147 560.173 428.249 560.206 428.316 560.28L428.979 561.011C429.067 561.001 429.157 560.993 429.246 560.985L429.755 560.139C429.807 560.053 429.9 560 430 560ZM428.381 572.19H430.096V574.286H424.052C424.242 574.55 424.45 574.801 424.673 575.037L425.992 574.829C426.304 574.78 426.596 574.992 426.646 575.304L426.854 576.625C427.808 577.078 428.874 577.333 430 577.333C431.126 577.333 432.191 577.078 433.145 576.625L433.354 575.304C433.404 574.992 433.696 574.78 434.008 574.829L435.326 575.037C435.55 574.801 435.758 574.55 435.948 574.286H432.952C431.238 574.286 432.381 570.667 430.286 570.667H428.381V572.19ZM424.169 567.681C424.312 567.962 424.2 568.306 423.919 568.449L422.729 569.055C422.689 569.364 422.667 569.68 422.667 570C422.667 570.763 422.783 571.499 422.999 572.19H425.333V567.238H423.943L424.169 567.681ZM430.404 563.737C430.181 563.96 429.819 563.96 429.596 563.737L428.65 562.792C427.013 563.097 425.568 563.945 424.508 565.143H432.381C434.667 565.143 436.381 568.19 433.523 569.714C433.714 569.714 434.477 570.476 434.667 571.429C434.858 572.381 436.571 572.571 436.571 571.048V570.667H437.302C437.322 570.447 437.333 570.225 437.333 570C437.333 569.68 437.31 569.364 437.271 569.055L436.081 568.449C435.8 568.306 435.688 567.962 435.831 567.681L436.438 566.487C435.4 564.589 433.547 563.201 431.349 562.792L430.404 563.737ZM428.381 568.762H430.857C432.381 568.762 432.381 567.238 430.857 567.238H428.381V568.762Z" fill="#E24516" fill-opacity="0.5"/>
<path d="M154.207 243.956H152.407L152.101 245H151.561L152.833 240.8H153.781L155.053 245H154.513L154.207 243.956ZM153.271 241.016L152.545 243.488H154.069L153.343 241.016H153.271ZM156.639 243.272V245H156.135V240.8H157.635C157.851 240.8 158.039 240.832 158.199 240.896C158.359 240.956 158.491 241.038 158.595 241.142C158.703 241.246 158.783 241.368 158.835 241.508C158.891 241.644 158.919 241.788 158.919 241.94V242.12C158.919 242.272 158.891 242.418 158.835 242.558C158.783 242.698 158.703 242.822 158.595 242.93C158.487 243.034 158.353 243.118 158.193 243.182C158.033 243.242 157.847 243.272 157.635 243.272H156.639ZM156.639 242.804H157.575C158.135 242.804 158.415 242.564 158.415 242.084V241.976C158.415 241.764 158.345 241.594 158.205 241.466C158.069 241.334 157.859 241.268 157.575 241.268H156.639V242.804ZM160.793 243.272V245H160.289V240.8H161.789C162.005 240.8 162.193 240.832 162.353 240.896C162.513 240.956 162.645 241.038 162.749 241.142C162.857 241.246 162.937 241.368 162.989 241.508C163.045 241.644 163.073 241.788 163.073 241.94V242.12C163.073 242.272 163.045 242.418 162.989 242.558C162.937 242.698 162.857 242.822 162.749 242.93C162.641 243.034 162.507 243.118 162.347 243.182C162.187 243.242 162.001 243.272 161.789 243.272H160.793ZM160.793 242.804H161.729C162.289 242.804 162.569 242.564 162.569 242.084V241.976C162.569 241.764 162.499 241.594 162.359 241.466C162.223 241.334 162.013 241.268 161.729 241.268H160.793V242.804ZM164.37 245.288H167.166V245.72H164.37V245.288ZM170.912 242.012C170.912 241.876 170.884 241.756 170.828 241.652C170.776 241.548 170.704 241.462 170.612 241.394C170.52 241.326 170.414 241.274 170.294 241.238C170.174 241.202 170.048 241.184 169.916 241.184C169.8 241.184 169.69 241.2 169.586 241.232C169.482 241.26 169.388 241.302 169.304 241.358C169.224 241.414 169.16 241.484 169.112 241.568C169.064 241.648 169.04 241.742 169.04 241.85V241.886C169.04 242.002 169.064 242.102 169.112 242.186C169.16 242.266 169.23 242.336 169.322 242.396C169.418 242.452 169.536 242.5 169.676 242.54C169.816 242.576 169.98 242.608 170.168 242.636C170.608 242.704 170.932 242.834 171.14 243.026C171.348 243.214 171.452 243.468 171.452 243.788V243.86C171.452 244.04 171.42 244.206 171.356 244.358C171.296 244.506 171.204 244.634 171.08 244.742C170.96 244.85 170.81 244.934 170.63 244.994C170.45 245.054 170.242 245.084 170.006 245.084C169.738 245.084 169.5 245.046 169.292 244.97C169.088 244.89 168.916 244.782 168.776 244.646C168.64 244.506 168.536 244.344 168.464 244.16C168.392 243.972 168.356 243.768 168.356 243.548V243.368H168.86V243.512C168.86 243.88 168.96 244.156 169.16 244.34C169.364 244.524 169.646 244.616 170.006 244.616C170.318 244.616 170.552 244.548 170.708 244.412C170.868 244.272 170.948 244.088 170.948 243.86V243.824C170.948 243.604 170.866 243.436 170.702 243.32C170.542 243.204 170.28 243.12 169.916 243.068C169.704 243.04 169.512 242.998 169.34 242.942C169.172 242.882 169.028 242.806 168.908 242.714C168.788 242.618 168.696 242.504 168.632 242.372C168.568 242.24 168.536 242.084 168.536 241.904V241.832C168.536 241.668 168.57 241.518 168.638 241.382C168.706 241.246 168.8 241.128 168.92 241.028C169.044 240.928 169.19 240.852 169.358 240.8C169.53 240.744 169.718 240.716 169.922 240.716C170.158 240.716 170.368 240.75 170.552 240.818C170.74 240.886 170.898 240.978 171.026 241.094C171.154 241.206 171.25 241.34 171.314 241.496C171.382 241.648 171.416 241.808 171.416 241.976V242.228H170.912V242.012ZM172.804 240.8H175.348V241.268H173.308V242.66H175.312V243.128H173.308V244.532H175.384V245H172.804V240.8ZM179.544 245H179.04V243.596C179.04 243.492 179.016 243.412 178.968 243.356C178.92 243.3 178.836 243.272 178.716 243.272H177.408V245H176.904V240.8H178.404C178.62 240.8 178.808 240.832 178.968 240.896C179.128 240.956 179.26 241.038 179.364 241.142C179.472 241.246 179.552 241.368 179.604 241.508C179.66 241.644 179.688 241.788 179.688 241.94V242.12C179.688 242.276 179.644 242.432 179.556 242.588C179.472 242.744 179.34 242.864 179.16 242.948V243.02C179.28 243.04 179.374 243.088 179.442 243.164C179.51 243.24 179.544 243.348 179.544 243.488V245ZM177.408 242.804H178.344C178.628 242.804 178.838 242.744 178.974 242.624C179.114 242.5 179.184 242.32 179.184 242.084V241.976C179.184 241.764 179.114 241.594 178.974 241.466C178.838 241.334 178.628 241.268 178.344 241.268H177.408V242.804ZM180.71 240.8H181.25L182.348 244.784H182.42L183.518 240.8H184.058L182.87 245H181.898L180.71 240.8ZM185.265 240.8H187.809V241.268H185.769V242.66H187.773V243.128H185.769V244.532H187.845V245H185.265V240.8ZM192.005 245H191.501V243.596C191.501 243.492 191.477 243.412 191.429 243.356C191.381 243.3 191.297 243.272 191.177 243.272H189.869V245H189.365V240.8H190.865C191.081 240.8 191.269 240.832 191.429 240.896C191.589 240.956 191.721 241.038 191.825 241.142C191.933 241.246 192.013 241.368 192.065 241.508C192.121 241.644 192.149 241.788 192.149 241.94V242.12C192.149 242.276 192.105 242.432 192.017 242.588C191.933 242.744 191.801 242.864 191.621 242.948V243.02C191.741 243.04 191.835 243.088 191.903 243.164C191.971 243.24 192.005 243.348 192.005 243.488V245ZM189.869 242.804H190.805C191.089 242.804 191.299 242.744 191.435 242.624C191.575 242.5 191.645 242.32 191.645 242.084V241.976C191.645 241.764 191.575 241.594 191.435 241.466C191.299 241.334 191.089 241.268 190.805 241.268H189.869V242.804Z" fill="#5B5C64"/>
<rect x="126" y="234" width="192" height="163" rx="6" transform="rotate(-90 126 234)" fill="#1B1B1C"/>
<path d="M133.956 225.024V226.824L135 227.13V227.67L130.8 226.398V225.45L135 224.178V224.718L133.956 225.024ZM131.016 225.96L133.488 226.686V225.162L131.016 225.888V225.96ZM132.984 222.172V220.3H135V220.768H134.496V220.84C134.672 220.908 134.814 221.028 134.922 221.2C135.03 221.372 135.084 221.572 135.084 221.8C135.084 222.252 134.938 222.608 134.646 222.868C134.354 223.124 133.928 223.252 133.368 223.252H132.432C131.888 223.252 131.466 223.122 131.166 222.862C130.866 222.602 130.716 222.24 130.716 221.776C130.716 221.536 130.756 221.324 130.836 221.14C130.912 220.956 131.02 220.802 131.16 220.678C131.296 220.554 131.458 220.46 131.646 220.396C131.83 220.332 132.028 220.3 132.24 220.3H132.312V220.804H132.24C132.104 220.804 131.972 220.824 131.844 220.864C131.716 220.9 131.604 220.958 131.508 221.038C131.408 221.114 131.33 221.214 131.274 221.338C131.214 221.458 131.184 221.604 131.184 221.776C131.184 222.1 131.302 222.344 131.538 222.508C131.774 222.668 132.084 222.748 132.468 222.748H133.332C133.744 222.748 134.062 222.668 134.286 222.508C134.506 222.344 134.616 222.096 134.616 221.764C134.616 221.464 134.52 221.23 134.328 221.062C134.136 220.89 133.868 220.804 133.524 220.804H133.452V222.172H132.984ZM130.8 218.888V216.344H131.268V218.384H132.66V216.38H133.128V218.384H134.532V216.308H135V218.888H130.8ZM134.784 212.64V212.568H130.8V212.064H135V213.072L131.016 214.284V214.356H135V214.86H130.8V213.852L134.784 212.64ZM130.8 210.785V207.833H131.268V209.057H135V209.561H131.268V210.785H130.8ZM135.288 206.553V203.757H135.72V206.553H135.288ZM130.8 202.561V201.601L134.784 201.037V200.965L130.8 200.401V199.441H135V199.909H131.016V199.981L135 200.545V201.457L131.016 202.021V202.093H135V202.561H130.8ZM133.956 195.947V197.747L135 198.053V198.593L130.8 197.321V196.373L135 195.101V195.641L133.956 195.947ZM131.016 196.883L133.488 197.609V196.085L131.016 196.811V196.883ZM134.784 191.871V191.799H130.8V191.295H135V192.303L131.016 193.515V193.587H135V194.091H130.8V193.083L134.784 191.871ZM133.956 187.639V189.439L135 189.745V190.285L130.8 189.013V188.065L135 186.793V187.333L133.956 187.639ZM131.016 188.575L133.488 189.301V187.777L131.016 188.503V188.575ZM132.984 184.788V182.916H135V183.384H134.496V183.456C134.672 183.524 134.814 183.644 134.922 183.816C135.03 183.988 135.084 184.188 135.084 184.416C135.084 184.868 134.938 185.224 134.646 185.484C134.354 185.74 133.928 185.868 133.368 185.868H132.432C131.888 185.868 131.466 185.738 131.166 185.478C130.866 185.218 130.716 184.856 130.716 184.392C130.716 184.152 130.756 183.94 130.836 183.756C130.912 183.572 131.02 183.418 131.16 183.294C131.296 183.17 131.458 183.076 131.646 183.012C131.83 182.948 132.028 182.916 132.24 182.916H132.312V183.42H132.24C132.104 183.42 131.972 183.44 131.844 183.48C131.716 183.516 131.604 183.574 131.508 183.654C131.408 183.73 131.33 183.83 131.274 183.954C131.214 184.074 131.184 184.22 131.184 184.392C131.184 184.716 131.302 184.96 131.538 185.124C131.774 185.284 132.084 185.364 132.468 185.364H133.332C133.744 185.364 134.062 185.284 134.286 185.124C134.506 184.96 134.616 184.712 134.616 184.38C134.616 184.08 134.52 183.846 134.328 183.678C134.136 183.506 133.868 183.42 133.524 183.42H133.452V184.788H132.984ZM130.8 181.504V178.96H131.268V181H132.66V178.996H133.128V181H134.532V178.924H135V181.504H130.8ZM135 174.764V175.268H133.596C133.492 175.268 133.412 175.292 133.356 175.34C133.3 175.388 133.272 175.472 133.272 175.592V176.9H135V177.404H130.8V175.904C130.8 175.688 130.832 175.5 130.896 175.34C130.956 175.18 131.038 175.048 131.142 174.944C131.246 174.836 131.368 174.756 131.508 174.704C131.644 174.648 131.788 174.62 131.94 174.62H132.12C132.276 174.62 132.432 174.664 132.588 174.752C132.744 174.836 132.864 174.968 132.948 175.148H133.02C133.04 175.028 133.088 174.934 133.164 174.866C133.24 174.798 133.348 174.764 133.488 174.764H135ZM132.804 176.9V175.964C132.804 175.68 132.744 175.47 132.624 175.334C132.5 175.194 132.32 175.124 132.084 175.124H131.976C131.764 175.124 131.594 175.194 131.466 175.334C131.334 175.47 131.268 175.68 131.268 175.964V176.9H132.804Z" fill="#5B5C64"/>
<rect x="291" y="234" width="192" height="163" rx="6" transform="rotate(-90 291 234)" fill="#1B1B1C"/>
<path d="M297.012 225.165C296.876 225.165 296.756 225.193 296.652 225.249C296.548 225.301 296.462 225.373 296.394 225.465C296.326 225.557 296.274 225.663 296.238 225.783C296.202 225.903 296.184 226.029 296.184 226.161C296.184 226.277 296.2 226.387 296.232 226.491C296.26 226.595 296.302 226.689 296.358 226.773C296.414 226.853 296.484 226.917 296.568 226.965C296.648 227.013 296.742 227.037 296.85 227.037H296.886C297.002 227.037 297.102 227.013 297.186 226.965C297.266 226.917 297.336 226.847 297.396 226.755C297.452 226.659 297.5 226.541 297.54 226.401C297.576 226.261 297.608 226.097 297.636 225.909C297.704 225.469 297.834 225.145 298.026 224.937C298.214 224.729 298.468 224.625 298.788 224.625H298.86C299.04 224.625 299.206 224.657 299.358 224.721C299.506 224.781 299.634 224.873 299.742 224.997C299.85 225.117 299.934 225.267 299.994 225.447C300.054 225.627 300.084 225.835 300.084 226.071C300.084 226.339 300.046 226.577 299.97 226.785C299.89 226.989 299.782 227.161 299.646 227.301C299.506 227.437 299.344 227.541 299.16 227.613C298.972 227.685 298.768 227.721 298.548 227.721H298.368V227.217H298.512C298.88 227.217 299.156 227.117 299.34 226.917C299.524 226.713 299.616 226.431 299.616 226.071C299.616 225.759 299.548 225.525 299.412 225.369C299.272 225.209 299.088 225.129 298.86 225.129H298.824C298.604 225.129 298.436 225.211 298.32 225.375C298.204 225.535 298.12 225.797 298.068 226.161C298.04 226.373 297.998 226.565 297.942 226.737C297.882 226.905 297.806 227.049 297.714 227.169C297.618 227.289 297.504 227.381 297.372 227.445C297.24 227.509 297.084 227.541 296.904 227.541H296.832C296.668 227.541 296.518 227.507 296.382 227.439C296.246 227.371 296.128 227.277 296.028 227.157C295.928 227.033 295.852 226.887 295.8 226.719C295.744 226.547 295.716 226.359 295.716 226.155C295.716 225.919 295.75 225.709 295.818 225.525C295.886 225.337 295.978 225.179 296.094 225.051C296.206 224.923 296.34 224.827 296.496 224.763C296.648 224.695 296.808 224.661 296.976 224.661H297.228V225.165H297.012ZM297.432 223.477C296.888 223.477 296.466 223.347 296.166 223.087C295.866 222.827 295.716 222.465 295.716 222.001C295.716 221.537 295.866 221.175 296.166 220.915C296.466 220.655 296.888 220.525 297.432 220.525H298.368C298.88 220.525 299.282 220.635 299.574 220.855C299.862 221.071 300.028 221.375 300.072 221.767H300.324C300.444 221.767 300.504 221.713 300.504 221.605V221.101H300.936V221.773C300.936 221.909 300.892 222.021 300.804 222.109C300.716 222.193 300.604 222.235 300.468 222.235H300.072C300.024 222.631 299.856 222.937 299.568 223.153C299.28 223.369 298.88 223.477 298.368 223.477H297.432ZM299.616 222.001C299.616 221.677 299.506 221.435 299.286 221.275C299.062 221.111 298.744 221.029 298.332 221.029H297.468C297.084 221.029 296.774 221.111 296.538 221.275C296.302 221.435 296.184 221.677 296.184 222.001C296.184 222.325 296.302 222.569 296.538 222.733C296.774 222.893 297.084 222.973 297.468 222.973H298.332C298.744 222.973 299.062 222.893 299.286 222.733C299.506 222.569 299.616 222.325 299.616 222.001ZM295.8 219.161V218.657H299.532V216.461H300V219.161H295.8ZM300.288 215.091V212.295H300.72V215.091H300.288ZM297.432 211.015C296.888 211.015 296.466 210.885 296.166 210.625C295.866 210.365 295.716 210.003 295.716 209.539C295.716 209.075 295.866 208.713 296.166 208.453C296.466 208.193 296.888 208.063 297.432 208.063H298.368C298.88 208.063 299.282 208.173 299.574 208.393C299.862 208.609 300.028 208.913 300.072 209.305H300.324C300.444 209.305 300.504 209.251 300.504 209.143V208.639H300.936V209.311C300.936 209.447 300.892 209.559 300.804 209.647C300.716 209.731 300.604 209.773 300.468 209.773H300.072C300.024 210.169 299.856 210.475 299.568 210.691C299.28 210.907 298.88 211.015 298.368 211.015H297.432ZM299.616 209.539C299.616 209.215 299.506 208.973 299.286 208.813C299.062 208.649 298.744 208.567 298.332 208.567H297.468C297.084 208.567 296.774 208.649 296.538 208.813C296.302 208.973 296.184 209.215 296.184 209.539C296.184 209.863 296.302 210.107 296.538 210.271C296.774 210.431 297.084 210.511 297.468 210.511H298.332C298.744 210.511 299.062 210.431 299.286 210.271C299.506 210.107 299.616 209.863 299.616 209.539ZM295.8 206.321H298.584C298.924 206.321 299.182 206.243 299.358 206.087C299.53 205.927 299.616 205.693 299.616 205.385C299.616 205.077 299.53 204.845 299.358 204.689C299.182 204.529 298.924 204.449 298.584 204.449H295.8V203.945H298.584C299.072 203.945 299.444 204.073 299.7 204.329C299.956 204.585 300.084 204.937 300.084 205.385C300.084 205.833 299.956 206.185 299.7 206.441C299.444 206.697 299.072 206.825 298.584 206.825H295.8V206.321ZM295.8 202.504V199.96H296.268V202H297.66V199.996H298.128V202H299.532V199.924H300V202.504H295.8ZM300 195.764V196.268H298.596C298.492 196.268 298.412 196.292 298.356 196.34C298.3 196.388 298.272 196.472 298.272 196.592V197.9H300V198.404H295.8V196.904C295.8 196.688 295.832 196.5 295.896 196.34C295.956 196.18 296.038 196.048 296.142 195.944C296.246 195.836 296.368 195.756 296.508 195.704C296.644 195.648 296.788 195.62 296.94 195.62H297.12C297.276 195.62 297.432 195.664 297.588 195.752C297.744 195.836 297.864 195.968 297.948 196.148H298.02C298.04 196.028 298.088 195.934 298.164 195.866C298.24 195.798 298.348 195.764 298.488 195.764H300ZM297.804 197.9V196.964C297.804 196.68 297.744 196.47 297.624 196.334C297.5 196.194 297.32 196.124 297.084 196.124H296.976C296.764 196.124 296.594 196.194 296.466 196.334C296.334 196.47 296.268 196.68 296.268 196.964V197.9H297.804ZM298.524 193.176V193.284L295.8 194.598V194.034L298.092 192.96V192.888L295.8 191.814V191.25L298.524 192.564V192.672H300V193.176H298.524ZM300.288 190.168V187.372H300.72V190.168H300.288ZM295.8 185.888V183.344H296.268V185.384H297.66V183.38H298.128V185.384H299.532V183.308H300V185.888H295.8ZM299.784 179.641V179.569H295.8V179.065H300V180.073L296.016 181.285V181.357H300V181.861H295.8V180.853L299.784 179.641ZM297.984 176.711V174.839H300V175.307H299.496V175.379C299.672 175.447 299.814 175.567 299.922 175.739C300.03 175.911 300.084 176.111 300.084 176.339C300.084 176.791 299.938 177.147 299.646 177.407C299.354 177.663 298.928 177.791 298.368 177.791H297.432C296.888 177.791 296.466 177.661 296.166 177.401C295.866 177.141 295.716 176.779 295.716 176.315C295.716 176.075 295.756 175.863 295.836 175.679C295.912 175.495 296.02 175.341 296.16 175.217C296.296 175.093 296.458 174.999 296.646 174.935C296.83 174.871 297.028 174.839 297.24 174.839H297.312V175.343H297.24C297.104 175.343 296.972 175.363 296.844 175.403C296.716 175.439 296.604 175.497 296.508 175.577C296.408 175.653 296.33 175.753 296.274 175.877C296.214 175.997 296.184 176.143 296.184 176.315C296.184 176.639 296.302 176.883 296.538 177.047C296.774 177.207 297.084 177.287 297.468 177.287H298.332C298.744 177.287 299.062 177.207 299.286 177.047C299.506 176.883 299.616 176.635 299.616 176.303C299.616 176.003 299.52 175.769 299.328 175.601C299.136 175.429 298.868 175.343 298.524 175.343H298.452V176.711H297.984ZM295.8 173.487V170.823H296.268V171.903H299.532V170.823H300V173.487H299.532V172.407H296.268V173.487H295.8ZM299.784 167.179V167.107H295.8V166.603H300V167.611L296.016 168.823V168.895H300V169.399H295.8V168.391L299.784 167.179ZM295.8 165.119V162.575H296.268V164.615H297.66V162.611H298.128V164.615H299.532V162.539H300V165.119H295.8Z" fill="#5B5C64"/>
</g>
<rect x="124.25" y="595.75" width="555.5" height="331.5" rx="7.75" transform="rotate(-90 124.25 595.75)" stroke="#2E2E2F" stroke-width="0.5"/>
<g clip-path="url(#clip1_1330_6245)">
<path d="M482.132 583.8H483.092L483.656 587.784H483.728L484.292 583.8H485.252V588H484.784V584.016H484.712L484.148 588H483.236L482.672 584.016H482.6V588H482.132V583.8ZM486.573 583.8H489.117V584.268H487.077V585.66H489.081V586.128H487.077V587.532H489.153V588H486.573V583.8ZM492.989 585.012C492.989 584.876 492.961 584.756 492.905 584.652C492.853 584.548 492.781 584.462 492.689 584.394C492.597 584.326 492.491 584.274 492.371 584.238C492.251 584.202 492.125 584.184 491.993 584.184C491.877 584.184 491.767 584.2 491.663 584.232C491.559 584.26 491.465 584.302 491.381 584.358C491.301 584.414 491.237 584.484 491.189 584.568C491.141 584.648 491.117 584.742 491.117 584.85V584.886C491.117 585.002 491.141 585.102 491.189 585.186C491.237 585.266 491.307 585.336 491.399 585.396C491.495 585.452 491.613 585.5 491.753 585.54C491.893 585.576 492.057 585.608 492.245 585.636C492.685 585.704 493.009 585.834 493.217 586.026C493.425 586.214 493.529 586.468 493.529 586.788V586.86C493.529 587.04 493.497 587.206 493.433 587.358C493.373 587.506 493.281 587.634 493.157 587.742C493.037 587.85 492.887 587.934 492.707 587.994C492.527 588.054 492.319 588.084 492.083 588.084C491.815 588.084 491.577 588.046 491.369 587.97C491.165 587.89 490.993 587.782 490.853 587.646C490.717 587.506 490.613 587.344 490.541 587.16C490.469 586.972 490.433 586.768 490.433 586.548V586.368H490.937V586.512C490.937 586.88 491.037 587.156 491.237 587.34C491.441 587.524 491.723 587.616 492.083 587.616C492.395 587.616 492.629 587.548 492.785 587.412C492.945 587.272 493.025 587.088 493.025 586.86V586.824C493.025 586.604 492.943 586.436 492.779 586.32C492.619 586.204 492.357 586.12 491.993 586.068C491.781 586.04 491.589 585.998 491.417 585.942C491.249 585.882 491.105 585.806 490.985 585.714C490.865 585.618 490.773 585.504 490.709 585.372C490.645 585.24 490.613 585.084 490.613 584.904V584.832C490.613 584.668 490.647 584.518 490.715 584.382C490.783 584.246 490.877 584.128 490.997 584.028C491.121 583.928 491.267 583.852 491.435 583.8C491.607 583.744 491.795 583.716 491.999 583.716C492.235 583.716 492.445 583.75 492.629 583.818C492.817 583.886 492.975 583.978 493.103 584.094C493.231 584.206 493.327 584.34 493.391 584.496C493.459 584.648 493.493 584.808 493.493 584.976V585.228H492.989V585.012ZM497.053 586.956H495.253L494.947 588H494.407L495.679 583.8H496.627L497.899 588H497.359L497.053 586.956ZM496.117 584.016L495.391 586.488H496.915L496.189 584.016H496.117ZM501.297 585.012C501.297 584.876 501.269 584.756 501.213 584.652C501.161 584.548 501.089 584.462 500.997 584.394C500.905 584.326 500.799 584.274 500.679 584.238C500.559 584.202 500.433 584.184 500.301 584.184C500.185 584.184 500.075 584.2 499.971 584.232C499.867 584.26 499.773 584.302 499.689 584.358C499.609 584.414 499.545 584.484 499.497 584.568C499.449 584.648 499.425 584.742 499.425 584.85V584.886C499.425 585.002 499.449 585.102 499.497 585.186C499.545 585.266 499.615 585.336 499.707 585.396C499.803 585.452 499.921 585.5 500.061 585.54C500.201 585.576 500.365 585.608 500.553 585.636C500.993 585.704 501.317 585.834 501.525 586.026C501.733 586.214 501.837 586.468 501.837 586.788V586.86C501.837 587.04 501.805 587.206 501.741 587.358C501.681 587.506 501.589 587.634 501.465 587.742C501.345 587.85 501.195 587.934 501.015 587.994C500.835 588.054 500.627 588.084 500.391 588.084C500.123 588.084 499.885 588.046 499.677 587.97C499.473 587.89 499.301 587.782 499.161 587.646C499.025 587.506 498.921 587.344 498.849 587.16C498.777 586.972 498.741 586.768 498.741 586.548V586.368H499.245V586.512C499.245 586.88 499.345 587.156 499.545 587.34C499.749 587.524 500.031 587.616 500.391 587.616C500.703 587.616 500.937 587.548 501.093 587.412C501.253 587.272 501.333 587.088 501.333 586.86V586.824C501.333 586.604 501.251 586.436 501.087 586.32C500.927 586.204 500.665 586.12 500.301 586.068C500.089 586.04 499.897 585.998 499.725 585.942C499.557 585.882 499.413 585.806 499.293 585.714C499.173 585.618 499.081 585.504 499.017 585.372C498.953 585.24 498.921 585.084 498.921 584.904V584.832C498.921 584.668 498.955 584.518 499.023 584.382C499.091 584.246 499.185 584.128 499.305 584.028C499.429 583.928 499.575 583.852 499.743 583.8C499.915 583.744 500.103 583.716 500.307 583.716C500.543 583.716 500.753 583.75 500.937 583.818C501.125 583.886 501.283 583.978 501.411 584.094C501.539 584.206 501.635 584.34 501.699 584.496C501.767 584.648 501.801 584.808 501.801 584.976V585.228H501.297V585.012ZM504.059 585.984H505.931V588H505.463V587.496H505.391C505.323 587.672 505.203 587.814 505.031 587.922C504.859 588.03 504.659 588.084 504.431 588.084C503.979 588.084 503.623 587.938 503.363 587.646C503.107 587.354 502.979 586.928 502.979 586.368V585.432C502.979 584.888 503.109 584.466 503.369 584.166C503.629 583.866 503.991 583.716 504.455 583.716C504.695 583.716 504.907 583.756 505.091 583.836C505.275 583.912 505.429 584.02 505.553 584.16C505.677 584.296 505.771 584.458 505.835 584.646C505.899 584.83 505.931 585.028 505.931 585.24V585.312H505.427V585.24C505.427 585.104 505.407 584.972 505.367 584.844C505.331 584.716 505.273 584.604 505.193 584.508C505.117 584.408 505.017 584.33 504.893 584.274C504.773 584.214 504.627 584.184 504.455 584.184C504.131 584.184 503.887 584.302 503.723 584.538C503.563 584.774 503.483 585.084 503.483 585.468V586.332C503.483 586.744 503.563 587.062 503.723 587.286C503.887 587.506 504.135 587.616 504.467 587.616C504.767 587.616 505.001 587.52 505.169 587.328C505.341 587.136 505.427 586.868 505.427 586.524V586.452H504.059V585.984ZM507.343 583.8H509.887V584.268H507.847V585.66H509.851V586.128H507.847V587.532H509.923V588H507.343V583.8ZM516.1 586.272V588H515.596V583.8H517.096C517.312 583.8 517.5 583.832 517.66 583.896C517.82 583.956 517.952 584.038 518.056 584.142C518.164 584.246 518.244 584.368 518.296 584.508C518.352 584.644 518.38 584.788 518.38 584.94V585.12C518.38 585.272 518.352 585.418 518.296 585.558C518.244 585.698 518.164 585.822 518.056 585.93C517.948 586.034 517.814 586.118 517.654 586.182C517.494 586.242 517.308 586.272 517.096 586.272H516.1ZM516.1 585.804H517.036C517.596 585.804 517.876 585.564 517.876 585.084V584.976C517.876 584.764 517.806 584.594 517.666 584.466C517.53 584.334 517.32 584.268 517.036 584.268H516.1V585.804ZM522.39 588H521.886V586.596C521.886 586.492 521.862 586.412 521.814 586.356C521.766 586.3 521.682 586.272 521.562 586.272H520.254V588H519.75V583.8H521.25C521.466 583.8 521.654 583.832 521.814 583.896C521.974 583.956 522.106 584.038 522.21 584.142C522.318 584.246 522.398 584.368 522.45 584.508C522.506 584.644 522.534 584.788 522.534 584.94V585.12C522.534 585.276 522.49 585.432 522.402 585.588C522.318 585.744 522.186 585.864 522.006 585.948V586.02C522.126 586.04 522.22 586.088 522.288 586.164C522.356 586.24 522.39 586.348 522.39 586.488V588ZM520.254 585.804H521.19C521.474 585.804 521.684 585.744 521.82 585.624C521.96 585.5 522.03 585.32 522.03 585.084V584.976C522.03 584.764 521.96 584.594 521.82 584.466C521.684 584.334 521.474 584.268 521.19 584.268H520.254V585.804ZM523.754 585.432C523.754 584.888 523.884 584.466 524.144 584.166C524.404 583.866 524.766 583.716 525.23 583.716C525.694 583.716 526.056 583.866 526.316 584.166C526.576 584.466 526.706 584.888 526.706 585.432V586.368C526.706 586.928 526.576 587.354 526.316 587.646C526.056 587.938 525.694 588.084 525.23 588.084C524.766 588.084 524.404 587.938 524.144 587.646C523.884 587.354 523.754 586.928 523.754 586.368V585.432ZM525.23 587.616C525.554 587.616 525.796 587.506 525.956 587.286C526.12 587.062 526.202 586.744 526.202 586.332V585.468C526.202 585.084 526.12 584.774 525.956 584.538C525.796 584.302 525.554 584.184 525.23 584.184C524.906 584.184 524.662 584.302 524.498 584.538C524.338 584.774 524.258 585.084 524.258 585.468V586.332C524.258 586.744 524.338 587.062 524.498 587.286C524.662 587.506 524.906 587.616 525.23 587.616ZM529.408 587.616C529.58 587.616 529.726 587.588 529.846 587.532C529.97 587.472 530.07 587.394 530.146 587.298C530.226 587.198 530.284 587.086 530.32 586.962C530.36 586.834 530.38 586.7 530.38 586.56V586.488H530.884V586.56C530.884 586.772 530.852 586.972 530.788 587.16C530.724 587.344 530.63 587.506 530.506 587.646C530.382 587.782 530.228 587.89 530.044 587.97C529.86 588.046 529.648 588.084 529.408 588.084C528.944 588.084 528.582 587.938 528.322 587.646C528.062 587.354 527.932 586.928 527.932 586.368V585.432C527.932 584.888 528.062 584.466 528.322 584.166C528.582 583.866 528.944 583.716 529.408 583.716C529.648 583.716 529.86 583.756 530.044 583.836C530.228 583.912 530.382 584.02 530.506 584.16C530.63 584.296 530.724 584.458 530.788 584.646C530.852 584.83 530.884 585.028 530.884 585.24V585.312H530.38V585.24C530.376 585.104 530.354 584.972 530.314 584.844C530.278 584.716 530.22 584.604 530.14 584.508C530.064 584.408 529.966 584.33 529.846 584.274C529.726 584.214 529.58 584.184 529.408 584.184C529.084 584.184 528.84 584.302 528.676 584.538C528.516 584.774 528.436 585.084 528.436 585.468V586.332C528.436 586.744 528.516 587.062 528.676 587.286C528.84 587.506 529.084 587.616 529.408 587.616ZM532.265 583.8H534.809V584.268H532.769V585.66H534.773V586.128H532.769V587.532H534.845V588H532.265V583.8ZM538.681 585.012C538.681 584.876 538.653 584.756 538.597 584.652C538.545 584.548 538.473 584.462 538.381 584.394C538.289 584.326 538.183 584.274 538.063 584.238C537.943 584.202 537.817 584.184 537.685 584.184C537.569 584.184 537.459 584.2 537.355 584.232C537.251 584.26 537.157 584.302 537.073 584.358C536.993 584.414 536.929 584.484 536.881 584.568C536.833 584.648 536.809 584.742 536.809 584.85V584.886C536.809 585.002 536.833 585.102 536.881 585.186C536.929 585.266 536.999 585.336 537.091 585.396C537.187 585.452 537.305 585.5 537.445 585.54C537.585 585.576 537.749 585.608 537.937 585.636C538.377 585.704 538.701 585.834 538.909 586.026C539.117 586.214 539.221 586.468 539.221 586.788V586.86C539.221 587.04 539.189 587.206 539.125 587.358C539.065 587.506 538.973 587.634 538.849 587.742C538.729 587.85 538.579 587.934 538.399 587.994C538.219 588.054 538.011 588.084 537.775 588.084C537.507 588.084 537.269 588.046 537.061 587.97C536.857 587.89 536.685 587.782 536.545 587.646C536.409 587.506 536.305 587.344 536.233 587.16C536.161 586.972 536.125 586.768 536.125 586.548V586.368H536.629V586.512C536.629 586.88 536.729 587.156 536.929 587.34C537.133 587.524 537.415 587.616 537.775 587.616C538.087 587.616 538.321 587.548 538.477 587.412C538.637 587.272 538.717 587.088 538.717 586.86V586.824C538.717 586.604 538.635 586.436 538.471 586.32C538.311 586.204 538.049 586.12 537.685 586.068C537.473 586.04 537.281 585.998 537.109 585.942C536.941 585.882 536.797 585.806 536.677 585.714C536.557 585.618 536.465 585.504 536.401 585.372C536.337 585.24 536.305 585.084 536.305 584.904V584.832C536.305 584.668 536.339 584.518 536.407 584.382C536.475 584.246 536.569 584.128 536.689 584.028C536.813 583.928 536.959 583.852 537.127 583.8C537.299 583.744 537.487 583.716 537.691 583.716C537.927 583.716 538.137 583.75 538.321 583.818C538.509 583.886 538.667 583.978 538.795 584.094C538.923 584.206 539.019 584.34 539.083 584.496C539.151 584.648 539.185 584.808 539.185 584.976V585.228H538.681V585.012ZM542.835 585.012C542.835 584.876 542.807 584.756 542.751 584.652C542.699 584.548 542.627 584.462 542.535 584.394C542.443 584.326 542.337 584.274 542.217 584.238C542.097 584.202 541.971 584.184 541.839 584.184C541.723 584.184 541.613 584.2 541.509 584.232C541.405 584.26 541.311 584.302 541.227 584.358C541.147 584.414 541.083 584.484 541.035 584.568C540.987 584.648 540.963 584.742 540.963 584.85V584.886C540.963 585.002 540.987 585.102 541.035 585.186C541.083 585.266 541.153 585.336 541.245 585.396C541.341 585.452 541.459 585.5 541.599 585.54C541.739 585.576 541.903 585.608 542.091 585.636C542.531 585.704 542.855 585.834 543.063 586.026C543.271 586.214 543.375 586.468 543.375 586.788V586.86C543.375 587.04 543.343 587.206 543.279 587.358C543.219 587.506 543.127 587.634 543.003 587.742C542.883 587.85 542.733 587.934 542.553 587.994C542.373 588.054 542.165 588.084 541.929 588.084C541.661 588.084 541.423 588.046 541.215 587.97C541.011 587.89 540.839 587.782 540.699 587.646C540.563 587.506 540.459 587.344 540.387 587.16C540.315 586.972 540.279 586.768 540.279 586.548V586.368H540.783V586.512C540.783 586.88 540.883 587.156 541.083 587.34C541.287 587.524 541.569 587.616 541.929 587.616C542.241 587.616 542.475 587.548 542.631 587.412C542.791 587.272 542.871 587.088 542.871 586.86V586.824C542.871 586.604 542.789 586.436 542.625 586.32C542.465 586.204 542.203 586.12 541.839 586.068C541.627 586.04 541.435 585.998 541.263 585.942C541.095 585.882 540.951 585.806 540.831 585.714C540.711 585.618 540.619 585.504 540.555 585.372C540.491 585.24 540.459 585.084 540.459 584.904V584.832C540.459 584.668 540.493 584.518 540.561 584.382C540.629 584.246 540.723 584.128 540.843 584.028C540.967 583.928 541.113 583.852 541.281 583.8C541.453 583.744 541.641 583.716 541.845 583.716C542.081 583.716 542.291 583.75 542.475 583.818C542.663 583.886 542.821 583.978 542.949 584.094C543.077 584.206 543.173 584.34 543.237 584.496C543.305 584.648 543.339 584.808 543.339 584.976V585.228H542.835V585.012ZM544.667 583.8H547.331V584.268H546.251V587.532H547.331V588H544.667V587.532H545.747V584.268H544.667V583.8ZM550.975 587.784H551.047V583.8H551.551V588H550.543L549.331 584.016H549.259V588H548.755V583.8H549.763L550.975 587.784ZM553.905 585.984H555.777V588H555.309V587.496H555.237C555.169 587.672 555.049 587.814 554.877 587.922C554.705 588.03 554.505 588.084 554.277 588.084C553.825 588.084 553.469 587.938 553.209 587.646C552.953 587.354 552.825 586.928 552.825 586.368V585.432C552.825 584.888 552.955 584.466 553.215 584.166C553.475 583.866 553.837 583.716 554.301 583.716C554.541 583.716 554.753 583.756 554.937 583.836C555.121 583.912 555.275 584.02 555.399 584.16C555.523 584.296 555.617 584.458 555.681 584.646C555.745 584.83 555.777 585.028 555.777 585.24V585.312H555.273V585.24C555.273 585.104 555.253 584.972 555.213 584.844C555.177 584.716 555.119 584.604 555.039 584.508C554.963 584.408 554.863 584.33 554.739 584.274C554.619 584.214 554.473 584.184 554.301 584.184C553.977 584.184 553.733 584.302 553.569 584.538C553.409 584.774 553.329 585.084 553.329 585.468V586.332C553.329 586.744 553.409 587.062 553.569 587.286C553.733 587.506 553.981 587.616 554.313 587.616C554.613 587.616 554.847 587.52 555.015 587.328C555.187 587.136 555.273 586.868 555.273 586.524V586.452H553.905V585.984Z" fill="#5B5C64"/>
<rect x="462" y="575" width="179" height="56" rx="6" transform="rotate(-90 462 575)" fill="#1B1B1C"/>
<path d="M466.8 568.484V567.524L470.784 566.96V566.888L466.8 566.324V565.364H471V565.832H467.016V565.904L471 566.468V567.38L467.016 567.944V568.016H471V568.484H466.8ZM466.8 564.042V561.498H467.268V563.538H468.66V561.534H469.128V563.538H470.532V561.462H471V564.042H466.8ZM468.012 557.626C467.876 557.626 467.756 557.654 467.652 557.71C467.548 557.762 467.462 557.834 467.394 557.926C467.326 558.018 467.274 558.124 467.238 558.244C467.202 558.364 467.184 558.49 467.184 558.622C467.184 558.738 467.2 558.848 467.232 558.952C467.26 559.056 467.302 559.15 467.358 559.234C467.414 559.314 467.484 559.378 467.568 559.426C467.648 559.474 467.742 559.498 467.85 559.498H467.886C468.002 559.498 468.102 559.474 468.186 559.426C468.266 559.378 468.336 559.308 468.396 559.216C468.452 559.12 468.5 559.002 468.54 558.862C468.576 558.722 468.608 558.558 468.636 558.37C468.704 557.93 468.834 557.606 469.026 557.398C469.214 557.19 469.468 557.086 469.788 557.086H469.86C470.04 557.086 470.206 557.118 470.358 557.182C470.506 557.242 470.634 557.334 470.742 557.458C470.85 557.578 470.934 557.728 470.994 557.908C471.054 558.088 471.084 558.296 471.084 558.532C471.084 558.8 471.046 559.038 470.97 559.246C470.89 559.45 470.782 559.622 470.646 559.762C470.506 559.898 470.344 560.002 470.16 560.074C469.972 560.146 469.768 560.182 469.548 560.182H469.368V559.678H469.512C469.88 559.678 470.156 559.578 470.34 559.378C470.524 559.174 470.616 558.892 470.616 558.532C470.616 558.22 470.548 557.986 470.412 557.83C470.272 557.67 470.088 557.59 469.86 557.59H469.824C469.604 557.59 469.436 557.672 469.32 557.836C469.204 557.996 469.12 558.258 469.068 558.622C469.04 558.834 468.998 559.026 468.942 559.198C468.882 559.366 468.806 559.51 468.714 559.63C468.618 559.75 468.504 559.842 468.372 559.906C468.24 559.97 468.084 560.002 467.904 560.002H467.832C467.668 560.002 467.518 559.968 467.382 559.9C467.246 559.832 467.128 559.738 467.028 559.618C466.928 559.494 466.852 559.348 466.8 559.18C466.744 559.008 466.716 558.82 466.716 558.616C466.716 558.38 466.75 558.17 466.818 557.986C466.886 557.798 466.978 557.64 467.094 557.512C467.206 557.384 467.34 557.288 467.496 557.224C467.648 557.156 467.808 557.122 467.976 557.122H468.228V557.626H468.012ZM468.012 553.472C467.876 553.472 467.756 553.5 467.652 553.556C467.548 553.608 467.462 553.68 467.394 553.772C467.326 553.864 467.274 553.97 467.238 554.09C467.202 554.21 467.184 554.336 467.184 554.468C467.184 554.584 467.2 554.694 467.232 554.798C467.26 554.902 467.302 554.996 467.358 555.08C467.414 555.16 467.484 555.224 467.568 555.272C467.648 555.32 467.742 555.344 467.85 555.344H467.886C468.002 555.344 468.102 555.32 468.186 555.272C468.266 555.224 468.336 555.154 468.396 555.062C468.452 554.966 468.5 554.848 468.54 554.708C468.576 554.568 468.608 554.404 468.636 554.216C468.704 553.776 468.834 553.452 469.026 553.244C469.214 553.036 469.468 552.932 469.788 552.932H469.86C470.04 552.932 470.206 552.964 470.358 553.028C470.506 553.088 470.634 553.18 470.742 553.304C470.85 553.424 470.934 553.574 470.994 553.754C471.054 553.934 471.084 554.142 471.084 554.378C471.084 554.646 471.046 554.884 470.97 555.092C470.89 555.296 470.782 555.468 470.646 555.608C470.506 555.744 470.344 555.848 470.16 555.92C469.972 555.992 469.768 556.028 469.548 556.028H469.368V555.524H469.512C469.88 555.524 470.156 555.424 470.34 555.224C470.524 555.02 470.616 554.738 470.616 554.378C470.616 554.066 470.548 553.832 470.412 553.676C470.272 553.516 470.088 553.436 469.86 553.436H469.824C469.604 553.436 469.436 553.518 469.32 553.682C469.204 553.842 469.12 554.104 469.068 554.468C469.04 554.68 468.998 554.872 468.942 555.044C468.882 555.212 468.806 555.356 468.714 555.476C468.618 555.596 468.504 555.688 468.372 555.752C468.24 555.816 468.084 555.848 467.904 555.848H467.832C467.668 555.848 467.518 555.814 467.382 555.746C467.246 555.678 467.128 555.584 467.028 555.464C466.928 555.34 466.852 555.194 466.8 555.026C466.744 554.854 466.716 554.666 466.716 554.462C466.716 554.226 466.75 554.016 466.818 553.832C466.886 553.644 466.978 553.486 467.094 553.358C467.206 553.23 467.34 553.134 467.496 553.07C467.648 553.002 467.808 552.968 467.976 552.968H468.228V553.472H468.012ZM469.956 549.409V551.209L471 551.515V552.055L466.8 550.783V549.835L471 548.563V549.103L469.956 549.409ZM467.016 550.345L469.488 551.071V549.547L467.016 550.273V550.345ZM468.984 546.557V544.685H471V545.153H470.496V545.225C470.672 545.293 470.814 545.413 470.922 545.585C471.03 545.757 471.084 545.957 471.084 546.185C471.084 546.637 470.938 546.993 470.646 547.253C470.354 547.509 469.928 547.637 469.368 547.637H468.432C467.888 547.637 467.466 547.507 467.166 547.247C466.866 546.987 466.716 546.625 466.716 546.161C466.716 545.921 466.756 545.709 466.836 545.525C466.912 545.341 467.02 545.187 467.16 545.063C467.296 544.939 467.458 544.845 467.646 544.781C467.83 544.717 468.028 544.685 468.24 544.685H468.312V545.189H468.24C468.104 545.189 467.972 545.209 467.844 545.249C467.716 545.285 467.604 545.343 467.508 545.423C467.408 545.499 467.33 545.599 467.274 545.723C467.214 545.843 467.184 545.989 467.184 546.161C467.184 546.485 467.302 546.729 467.538 546.893C467.774 547.053 468.084 547.133 468.468 547.133H469.332C469.744 547.133 470.062 547.053 470.286 546.893C470.506 546.729 470.616 546.481 470.616 546.149C470.616 545.849 470.52 545.615 470.328 545.447C470.136 545.275 469.868 545.189 469.524 545.189H469.452V546.557H468.984ZM466.8 543.273V540.729H467.268V542.769H468.66V540.765H469.128V542.769H470.532V540.693H471V543.273H466.8ZM471.288 539.245V536.449H471.72V539.245H471.288ZM468.432 535.169C467.888 535.169 467.466 535.039 467.166 534.779C466.866 534.519 466.716 534.157 466.716 533.693C466.716 533.229 466.866 532.867 467.166 532.607C467.466 532.347 467.888 532.217 468.432 532.217H469.368C469.88 532.217 470.282 532.327 470.574 532.547C470.862 532.763 471.028 533.067 471.072 533.459H471.324C471.444 533.459 471.504 533.405 471.504 533.297V532.793H471.936V533.465C471.936 533.601 471.892 533.713 471.804 533.801C471.716 533.885 471.604 533.927 471.468 533.927H471.072C471.024 534.323 470.856 534.629 470.568 534.845C470.28 535.061 469.88 535.169 469.368 535.169H468.432ZM470.616 533.693C470.616 533.369 470.506 533.127 470.286 532.967C470.062 532.803 469.744 532.721 469.332 532.721H468.468C468.084 532.721 467.774 532.803 467.538 532.967C467.302 533.127 467.184 533.369 467.184 533.693C467.184 534.017 467.302 534.261 467.538 534.425C467.774 534.585 468.084 534.665 468.468 534.665H469.332C469.744 534.665 470.062 534.585 470.286 534.425C470.506 534.261 470.616 534.017 470.616 533.693ZM466.8 530.475H469.584C469.924 530.475 470.182 530.397 470.358 530.241C470.53 530.081 470.616 529.847 470.616 529.539C470.616 529.231 470.53 528.999 470.358 528.843C470.182 528.683 469.924 528.603 469.584 528.603H466.8V528.099H469.584C470.072 528.099 470.444 528.227 470.7 528.483C470.956 528.739 471.084 529.091 471.084 529.539C471.084 529.987 470.956 530.339 470.7 530.595C470.444 530.851 470.072 530.979 469.584 530.979H466.8V530.475ZM466.8 526.658V524.114H467.268V526.154H468.66V524.15H469.128V526.154H470.532V524.078H471V526.658H466.8ZM466.8 522.168H469.584C469.924 522.168 470.182 522.09 470.358 521.934C470.53 521.774 470.616 521.54 470.616 521.232C470.616 520.924 470.53 520.692 470.358 520.536C470.182 520.376 469.924 520.296 469.584 520.296H466.8V519.792H469.584C470.072 519.792 470.444 519.92 470.7 520.176C470.956 520.432 471.084 520.784 471.084 521.232C471.084 521.68 470.956 522.032 470.7 522.288C470.444 522.544 470.072 522.672 469.584 522.672H466.8V522.168ZM466.8 518.35V515.806H467.268V517.846H468.66V515.842H469.128V517.846H470.532V515.77H471V518.35H466.8Z" fill="#5B5C64"/>
<rect x="520" y="575" width="179" height="56" rx="6" transform="rotate(-90 520 575)" fill="#1B1B1C"/>
<path d="M529 565.811V566.729L525.016 567.119V567.191L529 567.581V568.499L524.8 568.925V568.469L528.784 568.067V567.995L524.8 567.617V566.693L528.784 566.315V566.243L524.8 565.841V565.385L529 565.811ZM526.432 564.477C525.888 564.477 525.466 564.347 525.166 564.087C524.866 563.827 524.716 563.465 524.716 563.001C524.716 562.537 524.866 562.175 525.166 561.915C525.466 561.655 525.888 561.525 526.432 561.525H527.368C527.928 561.525 528.354 561.655 528.646 561.915C528.938 562.175 529.084 562.537 529.084 563.001C529.084 563.465 528.938 563.827 528.646 564.087C528.354 564.347 527.928 564.477 527.368 564.477H526.432ZM528.616 563.001C528.616 562.677 528.506 562.435 528.286 562.275C528.062 562.111 527.744 562.029 527.332 562.029H526.468C526.084 562.029 525.774 562.111 525.538 562.275C525.302 562.435 525.184 562.677 525.184 563.001C525.184 563.325 525.302 563.569 525.538 563.733C525.774 563.893 526.084 563.973 526.468 563.973H527.332C527.744 563.973 528.062 563.893 528.286 563.733C528.506 563.569 528.616 563.325 528.616 563.001ZM529 557.533V558.037H527.596C527.492 558.037 527.412 558.061 527.356 558.109C527.3 558.157 527.272 558.241 527.272 558.361V559.669H529V560.173H524.8V558.673C524.8 558.457 524.832 558.269 524.896 558.109C524.956 557.949 525.038 557.817 525.142 557.713C525.246 557.605 525.368 557.525 525.508 557.473C525.644 557.417 525.788 557.389 525.94 557.389H526.12C526.276 557.389 526.432 557.433 526.588 557.521C526.744 557.605 526.864 557.737 526.948 557.917H527.02C527.04 557.797 527.088 557.703 527.164 557.635C527.24 557.567 527.348 557.533 527.488 557.533H529ZM526.804 559.669V558.733C526.804 558.449 526.744 558.239 526.624 558.103C526.5 557.963 526.32 557.893 526.084 557.893H525.976C525.764 557.893 525.594 557.963 525.466 558.103C525.334 558.239 525.268 558.449 525.268 558.733V559.669H526.804ZM529 555.491V555.995H524.8V555.491H526.66V555.353L524.8 553.739V553.115H524.836L526.864 554.855H526.936L528.964 553.043H529V553.679L527.128 555.353V555.491H529ZM524.8 551.811V549.267H525.268V551.307H526.66V549.303H527.128V551.307H528.532V549.231H529V551.811H524.8ZM529 545.071V545.575H527.596C527.492 545.575 527.412 545.599 527.356 545.647C527.3 545.695 527.272 545.779 527.272 545.899V547.207H529V547.711H524.8V546.211C524.8 545.995 524.832 545.807 524.896 545.647C524.956 545.487 525.038 545.355 525.142 545.251C525.246 545.143 525.368 545.063 525.508 545.011C525.644 544.955 525.788 544.927 525.94 544.927H526.12C526.276 544.927 526.432 544.971 526.588 545.059C526.744 545.143 526.864 545.275 526.948 545.455H527.02C527.04 545.335 527.088 545.241 527.164 545.173C527.24 545.105 527.348 545.071 527.488 545.071H529ZM526.804 547.207V546.271C526.804 545.987 526.744 545.777 526.624 545.641C526.5 545.501 526.32 545.431 526.084 545.431H525.976C525.764 545.431 525.594 545.501 525.466 545.641C525.334 545.777 525.268 545.987 525.268 546.271V547.207H526.804ZM529.288 543.63V540.834H529.72V543.63H529.288ZM527.272 538.9H529V539.404H524.8V537.904C524.8 537.688 524.832 537.5 524.896 537.34C524.956 537.18 525.038 537.048 525.142 536.944C525.246 536.836 525.368 536.756 525.508 536.704C525.644 536.648 525.788 536.62 525.94 536.62H526.12C526.272 536.62 526.418 536.648 526.558 536.704C526.698 536.756 526.822 536.836 526.93 536.944C527.034 537.052 527.118 537.186 527.182 537.346C527.242 537.506 527.272 537.692 527.272 537.904V538.9ZM526.804 538.9V537.964C526.804 537.404 526.564 537.124 526.084 537.124H525.976C525.764 537.124 525.594 537.194 525.466 537.334C525.334 537.47 525.268 537.68 525.268 537.964V538.9H526.804ZM529 532.61V533.114H527.596C527.492 533.114 527.412 533.138 527.356 533.186C527.3 533.234 527.272 533.318 527.272 533.438V534.746H529V535.25H524.8V533.75C524.8 533.534 524.832 533.346 524.896 533.186C524.956 533.026 525.038 532.894 525.142 532.79C525.246 532.682 525.368 532.602 525.508 532.55C525.644 532.494 525.788 532.466 525.94 532.466H526.12C526.276 532.466 526.432 532.51 526.588 532.598C526.744 532.682 526.864 532.814 526.948 532.994H527.02C527.04 532.874 527.088 532.78 527.164 532.712C527.24 532.644 527.348 532.61 527.488 532.61H529ZM526.804 534.746V533.81C526.804 533.526 526.744 533.316 526.624 533.18C526.5 533.04 526.32 532.97 526.084 532.97H525.976C525.764 532.97 525.594 533.04 525.466 533.18C525.334 533.316 525.268 533.526 525.268 533.81V534.746H526.804ZM526.432 531.246C525.888 531.246 525.466 531.116 525.166 530.856C524.866 530.596 524.716 530.234 524.716 529.77C524.716 529.306 524.866 528.944 525.166 528.684C525.466 528.424 525.888 528.294 526.432 528.294H527.368C527.928 528.294 528.354 528.424 528.646 528.684C528.938 528.944 529.084 529.306 529.084 529.77C529.084 530.234 528.938 530.596 528.646 530.856C528.354 531.116 527.928 531.246 527.368 531.246H526.432ZM528.616 529.77C528.616 529.446 528.506 529.204 528.286 529.044C528.062 528.88 527.744 528.798 527.332 528.798H526.468C526.084 528.798 525.774 528.88 525.538 529.044C525.302 529.204 525.184 529.446 525.184 529.77C525.184 530.094 525.302 530.338 525.538 530.502C525.774 530.662 526.084 530.742 526.468 530.742H527.332C527.744 530.742 528.062 530.662 528.286 530.502C528.506 530.338 528.616 530.094 528.616 529.77ZM528.616 525.592C528.616 525.42 528.588 525.274 528.532 525.154C528.472 525.03 528.394 524.93 528.298 524.854C528.198 524.774 528.086 524.716 527.962 524.68C527.834 524.64 527.7 524.62 527.56 524.62H527.488V524.116H527.56C527.772 524.116 527.972 524.148 528.16 524.212C528.344 524.276 528.506 524.37 528.646 524.494C528.782 524.618 528.89 524.772 528.97 524.956C529.046 525.14 529.084 525.352 529.084 525.592C529.084 526.056 528.938 526.418 528.646 526.678C528.354 526.938 527.928 527.068 527.368 527.068H526.432C525.888 527.068 525.466 526.938 525.166 526.678C524.866 526.418 524.716 526.056 524.716 525.592C524.716 525.352 524.756 525.14 524.836 524.956C524.912 524.772 525.02 524.618 525.16 524.494C525.296 524.37 525.458 524.276 525.646 524.212C525.83 524.148 526.028 524.116 526.24 524.116H526.312V524.62H526.24C526.104 524.624 525.972 524.646 525.844 524.686C525.716 524.722 525.604 524.78 525.508 524.86C525.408 524.936 525.33 525.034 525.274 525.154C525.214 525.274 525.184 525.42 525.184 525.592C525.184 525.916 525.302 526.16 525.538 526.324C525.774 526.484 526.084 526.564 526.468 526.564H527.332C527.744 526.564 528.062 526.484 528.286 526.324C528.506 526.16 528.616 525.916 528.616 525.592ZM524.8 522.735V520.191H525.268V522.231H526.66V520.227H527.128V522.231H528.532V520.155H529V522.735H524.8ZM526.012 516.319C525.876 516.319 525.756 516.347 525.652 516.403C525.548 516.455 525.462 516.527 525.394 516.619C525.326 516.711 525.274 516.817 525.238 516.937C525.202 517.057 525.184 517.183 525.184 517.315C525.184 517.431 525.2 517.541 525.232 517.645C525.26 517.749 525.302 517.843 525.358 517.927C525.414 518.007 525.484 518.071 525.568 518.119C525.648 518.167 525.742 518.191 525.85 518.191H525.886C526.002 518.191 526.102 518.167 526.186 518.119C526.266 518.071 526.336 518.001 526.396 517.909C526.452 517.813 526.5 517.695 526.54 517.555C526.576 517.415 526.608 517.251 526.636 517.063C526.704 516.623 526.834 516.299 527.026 516.091C527.214 515.883 527.468 515.779 527.788 515.779H527.86C528.04 515.779 528.206 515.811 528.358 515.875C528.506 515.935 528.634 516.027 528.742 516.151C528.85 516.271 528.934 516.421 528.994 516.601C529.054 516.781 529.084 516.989 529.084 517.225C529.084 517.493 529.046 517.731 528.97 517.939C528.89 518.143 528.782 518.315 528.646 518.455C528.506 518.591 528.344 518.695 528.16 518.767C527.972 518.839 527.768 518.875 527.548 518.875H527.368V518.371H527.512C527.88 518.371 528.156 518.271 528.34 518.071C528.524 517.867 528.616 517.585 528.616 517.225C528.616 516.913 528.548 516.679 528.412 516.523C528.272 516.363 528.088 516.283 527.86 516.283H527.824C527.604 516.283 527.436 516.365 527.32 516.529C527.204 516.689 527.12 516.951 527.068 517.315C527.04 517.527 526.998 517.719 526.942 517.891C526.882 518.059 526.806 518.203 526.714 518.323C526.618 518.443 526.504 518.535 526.372 518.599C526.24 518.663 526.084 518.695 525.904 518.695H525.832C525.668 518.695 525.518 518.661 525.382 518.593C525.246 518.525 525.128 518.431 525.028 518.311C524.928 518.187 524.852 518.041 524.8 517.873C524.744 517.701 524.716 517.513 524.716 517.309C524.716 517.073 524.75 516.863 524.818 516.679C524.886 516.491 524.978 516.333 525.094 516.205C525.206 516.077 525.34 515.981 525.496 515.917C525.648 515.849 525.808 515.815 525.976 515.815H526.228V516.319H526.012ZM526.012 512.165C525.876 512.165 525.756 512.193 525.652 512.249C525.548 512.301 525.462 512.373 525.394 512.465C525.326 512.557 525.274 512.663 525.238 512.783C525.202 512.903 525.184 513.029 525.184 513.161C525.184 513.277 525.2 513.387 525.232 513.491C525.26 513.595 525.302 513.689 525.358 513.773C525.414 513.853 525.484 513.917 525.568 513.965C525.648 514.013 525.742 514.037 525.85 514.037H525.886C526.002 514.037 526.102 514.013 526.186 513.965C526.266 513.917 526.336 513.847 526.396 513.755C526.452 513.659 526.5 513.541 526.54 513.401C526.576 513.261 526.608 513.097 526.636 512.909C526.704 512.469 526.834 512.145 527.026 511.937C527.214 511.729 527.468 511.625 527.788 511.625H527.86C528.04 511.625 528.206 511.657 528.358 511.721C528.506 511.781 528.634 511.873 528.742 511.997C528.85 512.117 528.934 512.267 528.994 512.447C529.054 512.627 529.084 512.835 529.084 513.071C529.084 513.339 529.046 513.577 528.97 513.785C528.89 513.989 528.782 514.161 528.646 514.301C528.506 514.437 528.344 514.541 528.16 514.613C527.972 514.685 527.768 514.721 527.548 514.721H527.368V514.217H527.512C527.88 514.217 528.156 514.117 528.34 513.917C528.524 513.713 528.616 513.431 528.616 513.071C528.616 512.759 528.548 512.525 528.412 512.369C528.272 512.209 528.088 512.129 527.86 512.129H527.824C527.604 512.129 527.436 512.211 527.32 512.375C527.204 512.535 527.12 512.797 527.068 513.161C527.04 513.373 526.998 513.565 526.942 513.737C526.882 513.905 526.806 514.049 526.714 514.169C526.618 514.289 526.504 514.381 526.372 514.445C526.24 514.509 526.084 514.541 525.904 514.541H525.832C525.668 514.541 525.518 514.507 525.382 514.439C525.246 514.371 525.128 514.277 525.028 514.157C524.928 514.033 524.852 513.887 524.8 513.719C524.744 513.547 524.716 513.359 524.716 513.155C524.716 512.919 524.75 512.709 524.818 512.525C524.886 512.337 524.978 512.179 525.094 512.051C525.206 511.923 525.34 511.827 525.496 511.763C525.648 511.695 525.808 511.661 525.976 511.661H526.228V512.165H526.012ZM524.8 510.273V507.729H525.268V509.769H526.66V507.765H527.128V509.769H528.532V507.693H529V510.273H524.8ZM526.012 503.857C525.876 503.857 525.756 503.885 525.652 503.941C525.548 503.993 525.462 504.065 525.394 504.157C525.326 504.249 525.274 504.355 525.238 504.475C525.202 504.595 525.184 504.721 525.184 504.853C525.184 504.969 525.2 505.079 525.232 505.183C525.26 505.287 525.302 505.381 525.358 505.465C525.414 505.545 525.484 505.609 525.568 505.657C525.648 505.705 525.742 505.729 525.85 505.729H525.886C526.002 505.729 526.102 505.705 526.186 505.657C526.266 505.609 526.336 505.539 526.396 505.447C526.452 505.351 526.5 505.233 526.54 505.093C526.576 504.953 526.608 504.789 526.636 504.601C526.704 504.161 526.834 503.837 527.026 503.629C527.214 503.421 527.468 503.317 527.788 503.317H527.86C528.04 503.317 528.206 503.349 528.358 503.413C528.506 503.473 528.634 503.565 528.742 503.689C528.85 503.809 528.934 503.959 528.994 504.139C529.054 504.319 529.084 504.527 529.084 504.763C529.084 505.031 529.046 505.269 528.97 505.477C528.89 505.681 528.782 505.853 528.646 505.993C528.506 506.129 528.344 506.233 528.16 506.305C527.972 506.377 527.768 506.413 527.548 506.413H527.368V505.909H527.512C527.88 505.909 528.156 505.809 528.34 505.609C528.524 505.405 528.616 505.123 528.616 504.763C528.616 504.451 528.548 504.217 528.412 504.061C528.272 503.901 528.088 503.821 527.86 503.821H527.824C527.604 503.821 527.436 503.903 527.32 504.067C527.204 504.227 527.12 504.489 527.068 504.853C527.04 505.065 526.998 505.257 526.942 505.429C526.882 505.597 526.806 505.741 526.714 505.861C526.618 505.981 526.504 506.073 526.372 506.137C526.24 506.201 526.084 506.233 525.904 506.233H525.832C525.668 506.233 525.518 506.199 525.382 506.131C525.246 506.063 525.128 505.969 525.028 505.849C524.928 505.725 524.852 505.579 524.8 505.411C524.744 505.239 524.716 505.051 524.716 504.847C524.716 504.611 524.75 504.401 524.818 504.217C524.886 504.029 524.978 503.871 525.094 503.743C525.206 503.615 525.34 503.519 525.496 503.455C525.648 503.387 525.808 503.353 525.976 503.353H526.228V503.857H526.012Z" fill="#5B5C64"/>
</g>
<rect x="460.25" y="595.75" width="201.5" height="117.5" rx="7.75" transform="rotate(-90 460.25 595.75)" stroke="#2E2E2F" stroke-width="0.5"/>
<g clip-path="url(#clip2_1330_6245)">
<path d="M590.8 627.091V625.711C590.8 625.191 590.924 624.811 591.172 624.571C591.42 624.331 591.816 624.211 592.36 624.211H593.44C593.984 624.211 594.38 624.331 594.628 624.571C594.876 624.811 595 625.191 595 625.711V627.091H594.526V626.731H591.268V627.091H590.8ZM594.532 625.783C594.532 625.599 594.514 625.441 594.478 625.309C594.442 625.173 594.382 625.061 594.298 624.973C594.21 624.885 594.094 624.821 593.95 624.781C593.806 624.737 593.624 624.715 593.404 624.715H592.396C592.176 624.715 591.994 624.737 591.85 624.781C591.706 624.821 591.592 624.885 591.508 624.973C591.42 625.061 591.358 625.173 591.322 625.309C591.286 625.441 591.268 625.599 591.268 625.783V626.227H594.532V625.783ZM593.956 620.639V622.439L595 622.745V623.285L590.8 622.013V621.065L595 619.793V620.333L593.956 620.639ZM591.016 621.575L593.488 622.301V620.777L591.016 621.503V621.575ZM590.8 618.861V615.909H591.268V617.133H595V617.637H591.268V618.861H590.8ZM593.956 612.332V614.132L595 614.438V614.978L590.8 613.706V612.758L595 611.486V612.026L593.956 612.332ZM591.016 613.268L593.488 613.994V612.47L591.016 613.196V613.268ZM590.8 606.238V605.734H594.532V603.538H595V606.238H590.8ZM593.956 599.87V601.67L595 601.976V602.516L590.8 601.244V600.296L595 599.024V599.564L593.956 599.87ZM591.016 600.806L593.488 601.532V600.008L591.016 600.734V600.806ZM593.524 596.868V596.976L590.8 598.29V597.726L593.092 596.652V596.58L590.8 595.506V594.942L593.524 596.256V596.364H595V596.868H593.524ZM590.8 593.735V591.191H591.268V593.231H592.66V591.227H593.128V593.231H594.532V591.155H595V593.735H590.8ZM595 586.995V587.499H593.596C593.492 587.499 593.412 587.523 593.356 587.571C593.3 587.619 593.272 587.703 593.272 587.823V589.131H595V589.635H590.8V588.135C590.8 587.919 590.832 587.731 590.896 587.571C590.956 587.411 591.038 587.279 591.142 587.175C591.246 587.067 591.368 586.987 591.508 586.935C591.644 586.879 591.788 586.851 591.94 586.851H592.12C592.276 586.851 592.432 586.895 592.588 586.983C592.744 587.067 592.864 587.199 592.948 587.379H593.02C593.04 587.259 593.088 587.165 593.164 587.097C593.24 587.029 593.348 586.995 593.488 586.995H595ZM592.804 589.131V588.195C592.804 587.911 592.744 587.701 592.624 587.565C592.5 587.425 592.32 587.355 592.084 587.355H591.976C591.764 587.355 591.594 587.425 591.466 587.565C591.334 587.701 591.268 587.911 591.268 588.195V589.131H592.804Z" fill="#5B5C64"/>
<rect x="603" y="634" width="156.5" height="86" rx="6" transform="rotate(-90 603 634)" fill="#1B1B1C"/>
<path d="M610.272 626.861H612V627.365H607.8V625.865C607.8 625.649 607.832 625.461 607.896 625.301C607.956 625.141 608.038 625.009 608.142 624.905C608.246 624.797 608.368 624.717 608.508 624.665C608.644 624.609 608.788 624.581 608.94 624.581H609.12C609.272 624.581 609.418 624.609 609.558 624.665C609.698 624.717 609.822 624.797 609.93 624.905C610.034 625.013 610.118 625.147 610.182 625.307C610.242 625.467 610.272 625.653 610.272 625.865V626.861ZM609.804 626.861V625.925C609.804 625.365 609.564 625.085 609.084 625.085H608.976C608.764 625.085 608.594 625.155 608.466 625.295C608.334 625.431 608.268 625.641 608.268 625.925V626.861H609.804ZM609.432 623.361C608.888 623.361 608.466 623.231 608.166 622.971C607.866 622.711 607.716 622.349 607.716 621.885C607.716 621.421 607.866 621.059 608.166 620.799C608.466 620.539 608.888 620.409 609.432 620.409H610.368C610.928 620.409 611.354 620.539 611.646 620.799C611.938 621.059 612.084 621.421 612.084 621.885C612.084 622.349 611.938 622.711 611.646 622.971C611.354 623.231 610.928 623.361 610.368 623.361H609.432ZM611.616 621.885C611.616 621.561 611.506 621.319 611.286 621.159C611.062 620.995 610.744 620.913 610.332 620.913H609.468C609.084 620.913 608.774 620.995 608.538 621.159C608.302 621.319 608.184 621.561 608.184 621.885C608.184 622.209 608.302 622.453 608.538 622.617C608.774 622.777 609.084 622.857 609.468 622.857H610.332C610.744 622.857 611.062 622.777 611.286 622.617C611.506 622.453 611.616 622.209 611.616 621.885ZM609.012 616.742C608.876 616.742 608.756 616.77 608.652 616.826C608.548 616.878 608.462 616.95 608.394 617.042C608.326 617.134 608.274 617.24 608.238 617.36C608.202 617.48 608.184 617.606 608.184 617.738C608.184 617.854 608.2 617.964 608.232 618.068C608.26 618.172 608.302 618.266 608.358 618.35C608.414 618.43 608.484 618.494 608.568 618.542C608.648 618.59 608.742 618.614 608.85 618.614H608.886C609.002 618.614 609.102 618.59 609.186 618.542C609.266 618.494 609.336 618.424 609.396 618.332C609.452 618.236 609.5 618.118 609.54 617.978C609.576 617.838 609.608 617.674 609.636 617.486C609.704 617.046 609.834 616.722 610.026 616.514C610.214 616.306 610.468 616.202 610.788 616.202H610.86C611.04 616.202 611.206 616.234 611.358 616.298C611.506 616.358 611.634 616.45 611.742 616.574C611.85 616.694 611.934 616.844 611.994 617.024C612.054 617.204 612.084 617.412 612.084 617.648C612.084 617.916 612.046 618.154 611.97 618.362C611.89 618.566 611.782 618.738 611.646 618.878C611.506 619.014 611.344 619.118 611.16 619.19C610.972 619.262 610.768 619.298 610.548 619.298H610.368V618.794H610.512C610.88 618.794 611.156 618.694 611.34 618.494C611.524 618.29 611.616 618.008 611.616 617.648C611.616 617.336 611.548 617.102 611.412 616.946C611.272 616.786 611.088 616.706 610.86 616.706H610.824C610.604 616.706 610.436 616.788 610.32 616.952C610.204 617.112 610.12 617.374 610.068 617.738C610.04 617.95 609.998 618.142 609.942 618.314C609.882 618.482 609.806 618.626 609.714 618.746C609.618 618.866 609.504 618.958 609.372 619.022C609.24 619.086 609.084 619.118 608.904 619.118H608.832C608.668 619.118 608.518 619.084 608.382 619.016C608.246 618.948 608.128 618.854 608.028 618.734C607.928 618.61 607.852 618.464 607.8 618.296C607.744 618.124 607.716 617.936 607.716 617.732C607.716 617.496 607.75 617.286 607.818 617.102C607.886 616.914 607.978 616.756 608.094 616.628C608.206 616.5 608.34 616.404 608.496 616.34C608.648 616.272 608.808 616.238 608.976 616.238H609.228V616.742H609.012ZM607.8 615.054V612.102H608.268V613.326H612V613.83H608.268V615.054H607.8ZM609.984 609.826V607.954H612V608.422H611.496V608.494C611.672 608.562 611.814 608.682 611.922 608.854C612.03 609.026 612.084 609.226 612.084 609.454C612.084 609.906 611.938 610.262 611.646 610.522C611.354 610.778 610.928 610.906 610.368 610.906H609.432C608.888 610.906 608.466 610.776 608.166 610.516C607.866 610.256 607.716 609.894 607.716 609.43C607.716 609.19 607.756 608.978 607.836 608.794C607.912 608.61 608.02 608.456 608.16 608.332C608.296 608.208 608.458 608.114 608.646 608.05C608.83 607.986 609.028 607.954 609.24 607.954H609.312V608.458H609.24C609.104 608.458 608.972 608.478 608.844 608.518C608.716 608.554 608.604 608.612 608.508 608.692C608.408 608.768 608.33 608.868 608.274 608.992C608.214 609.112 608.184 609.258 608.184 609.43C608.184 609.754 608.302 609.998 608.538 610.162C608.774 610.322 609.084 610.402 609.468 610.402H610.332C610.744 610.402 611.062 610.322 611.286 610.162C611.506 609.998 611.616 609.75 611.616 609.418C611.616 609.118 611.52 608.884 611.328 608.716C611.136 608.544 610.868 608.458 610.524 608.458H610.452V609.826H609.984ZM612 603.956V604.46H610.596C610.492 604.46 610.412 604.484 610.356 604.532C610.3 604.58 610.272 604.664 610.272 604.784V606.092H612V606.596H607.8V605.096C607.8 604.88 607.832 604.692 607.896 604.532C607.956 604.372 608.038 604.24 608.142 604.136C608.246 604.028 608.368 603.948 608.508 603.896C608.644 603.84 608.788 603.812 608.94 603.812H609.12C609.276 603.812 609.432 603.856 609.588 603.944C609.744 604.028 609.864 604.16 609.948 604.34H610.02C610.04 604.22 610.088 604.126 610.164 604.058C610.24 603.99 610.348 603.956 610.488 603.956H612ZM609.804 606.092V605.156C609.804 604.872 609.744 604.662 609.624 604.526C609.5 604.386 609.32 604.316 609.084 604.316H608.976C608.764 604.316 608.594 604.386 608.466 604.526C608.334 604.662 608.268 604.872 608.268 605.156V606.092H609.804ZM607.8 602.388V599.844H608.268V601.884H609.66V599.88H610.128V601.884H611.532V599.808H612V602.388H607.8ZM609.012 595.973C608.876 595.973 608.756 596.001 608.652 596.057C608.548 596.109 608.462 596.181 608.394 596.273C608.326 596.365 608.274 596.471 608.238 596.591C608.202 596.711 608.184 596.837 608.184 596.969C608.184 597.085 608.2 597.195 608.232 597.299C608.26 597.403 608.302 597.497 608.358 597.581C608.414 597.661 608.484 597.725 608.568 597.773C608.648 597.821 608.742 597.845 608.85 597.845H608.886C609.002 597.845 609.102 597.821 609.186 597.773C609.266 597.725 609.336 597.655 609.396 597.563C609.452 597.467 609.5 597.349 609.54 597.209C609.576 597.069 609.608 596.905 609.636 596.717C609.704 596.277 609.834 595.953 610.026 595.745C610.214 595.537 610.468 595.433 610.788 595.433H610.86C611.04 595.433 611.206 595.465 611.358 595.529C611.506 595.589 611.634 595.681 611.742 595.805C611.85 595.925 611.934 596.075 611.994 596.255C612.054 596.435 612.084 596.643 612.084 596.879C612.084 597.147 612.046 597.385 611.97 597.593C611.89 597.797 611.782 597.969 611.646 598.109C611.506 598.245 611.344 598.349 611.16 598.421C610.972 598.493 610.768 598.529 610.548 598.529H610.368V598.025H610.512C610.88 598.025 611.156 597.925 611.34 597.725C611.524 597.521 611.616 597.239 611.616 596.879C611.616 596.567 611.548 596.333 611.412 596.177C611.272 596.017 611.088 595.937 610.86 595.937H610.824C610.604 595.937 610.436 596.019 610.32 596.183C610.204 596.343 610.12 596.605 610.068 596.969C610.04 597.181 609.998 597.373 609.942 597.545C609.882 597.713 609.806 597.857 609.714 597.977C609.618 598.097 609.504 598.189 609.372 598.253C609.24 598.317 609.084 598.349 608.904 598.349H608.832C608.668 598.349 608.518 598.315 608.382 598.247C608.246 598.179 608.128 598.085 608.028 597.965C607.928 597.841 607.852 597.695 607.8 597.527C607.744 597.355 607.716 597.167 607.716 596.963C607.716 596.727 607.75 596.517 607.818 596.333C607.886 596.145 607.978 595.987 608.094 595.859C608.206 595.731 608.34 595.635 608.496 595.571C608.648 595.503 608.808 595.469 608.976 595.469H609.228V595.973H609.012Z" fill="#5B5C64"/>
<rect x="603" y="475.5" width="156.5" height="86" rx="6" transform="rotate(-90 603 475.5)" fill="#1B1B1C"/>
<path d="M611.616 467.169C611.616 466.997 611.588 466.851 611.532 466.731C611.472 466.607 611.394 466.507 611.298 466.431C611.198 466.351 611.086 466.293 610.962 466.257C610.834 466.217 610.7 466.197 610.56 466.197H610.488V465.693H610.56C610.772 465.693 610.972 465.725 611.16 465.789C611.344 465.853 611.506 465.947 611.646 466.071C611.782 466.195 611.89 466.349 611.97 466.533C612.046 466.717 612.084 466.929 612.084 467.169C612.084 467.633 611.938 467.995 611.646 468.255C611.354 468.515 610.928 468.645 610.368 468.645H609.432C608.888 468.645 608.466 468.515 608.166 468.255C607.866 467.995 607.716 467.633 607.716 467.169C607.716 466.929 607.756 466.717 607.836 466.533C607.912 466.349 608.02 466.195 608.16 466.071C608.296 465.947 608.458 465.853 608.646 465.789C608.83 465.725 609.028 465.693 609.24 465.693H609.312V466.197H609.24C609.104 466.201 608.972 466.223 608.844 466.263C608.716 466.299 608.604 466.357 608.508 466.437C608.408 466.513 608.33 466.611 608.274 466.731C608.214 466.851 608.184 466.997 608.184 467.169C608.184 467.493 608.302 467.737 608.538 467.901C608.774 468.061 609.084 468.141 609.468 468.141H610.332C610.744 468.141 611.062 468.061 611.286 467.901C611.506 467.737 611.616 467.493 611.616 467.169ZM607.8 464.353V463.849H611.532V461.653H612V464.353H607.8ZM607.8 460.217V457.553H608.268V458.633H611.532V457.553H612V460.217H611.532V459.137H608.268V460.217H607.8ZM611.616 454.708C611.616 454.536 611.588 454.39 611.532 454.27C611.472 454.146 611.394 454.046 611.298 453.97C611.198 453.89 611.086 453.832 610.962 453.796C610.834 453.756 610.7 453.736 610.56 453.736H610.488V453.232H610.56C610.772 453.232 610.972 453.264 611.16 453.328C611.344 453.392 611.506 453.486 611.646 453.61C611.782 453.734 611.89 453.888 611.97 454.072C612.046 454.256 612.084 454.468 612.084 454.708C612.084 455.172 611.938 455.534 611.646 455.794C611.354 456.054 610.928 456.184 610.368 456.184H609.432C608.888 456.184 608.466 456.054 608.166 455.794C607.866 455.534 607.716 455.172 607.716 454.708C607.716 454.468 607.756 454.256 607.836 454.072C607.912 453.888 608.02 453.734 608.16 453.61C608.296 453.486 608.458 453.392 608.646 453.328C608.83 453.264 609.028 453.232 609.24 453.232H609.312V453.736H609.24C609.104 453.74 608.972 453.762 608.844 453.802C608.716 453.838 608.604 453.896 608.508 453.976C608.408 454.052 608.33 454.15 608.274 454.27C608.214 454.39 608.184 454.536 608.184 454.708C608.184 455.032 608.302 455.276 608.538 455.44C608.774 455.6 609.084 455.68 609.468 455.68H610.332C610.744 455.68 611.062 455.6 611.286 455.44C611.506 455.276 611.616 455.032 611.616 454.708ZM612 451.376V451.88H607.8V451.376H609.66V451.238L607.8 449.624V449H607.836L609.864 450.74H609.936L611.964 448.928H612V449.564L610.128 451.238V451.376H612ZM607.8 447.822V447.318H609.66V445.53H607.8V445.026H612V445.53H610.128V447.318H612V447.822H607.8ZM609.432 443.746C608.888 443.746 608.466 443.616 608.166 443.356C607.866 443.096 607.716 442.734 607.716 442.27C607.716 441.806 607.866 441.444 608.166 441.184C608.466 440.924 608.888 440.794 609.432 440.794H610.368C610.928 440.794 611.354 440.924 611.646 441.184C611.938 441.444 612.084 441.806 612.084 442.27C612.084 442.734 611.938 443.096 611.646 443.356C611.354 443.616 610.928 443.746 610.368 443.746H609.432ZM611.616 442.27C611.616 441.946 611.506 441.704 611.286 441.544C611.062 441.38 610.744 441.298 610.332 441.298H609.468C609.084 441.298 608.774 441.38 608.538 441.544C608.302 441.704 608.184 441.946 608.184 442.27C608.184 442.594 608.302 442.838 608.538 443.002C608.774 443.162 609.084 443.242 609.468 443.242H610.332C610.744 443.242 611.062 443.162 611.286 443.002C611.506 442.838 611.616 442.594 611.616 442.27ZM607.8 439.052H610.584C610.924 439.052 611.182 438.974 611.358 438.818C611.53 438.658 611.616 438.424 611.616 438.116C611.616 437.808 611.53 437.576 611.358 437.42C611.182 437.26 610.924 437.18 610.584 437.18H607.8V436.676H610.584C611.072 436.676 611.444 436.804 611.7 437.06C611.956 437.316 612.084 437.668 612.084 438.116C612.084 438.564 611.956 438.916 611.7 439.172C611.444 439.428 611.072 439.556 610.584 439.556H607.8V439.052ZM609.012 432.973C608.876 432.973 608.756 433.001 608.652 433.057C608.548 433.109 608.462 433.181 608.394 433.273C608.326 433.365 608.274 433.471 608.238 433.591C608.202 433.711 608.184 433.837 608.184 433.969C608.184 434.085 608.2 434.195 608.232 434.299C608.26 434.403 608.302 434.497 608.358 434.581C608.414 434.661 608.484 434.725 608.568 434.773C608.648 434.821 608.742 434.845 608.85 434.845H608.886C609.002 434.845 609.102 434.821 609.186 434.773C609.266 434.725 609.336 434.655 609.396 434.563C609.452 434.467 609.5 434.349 609.54 434.209C609.576 434.069 609.608 433.905 609.636 433.717C609.704 433.277 609.834 432.953 610.026 432.745C610.214 432.537 610.468 432.433 610.788 432.433H610.86C611.04 432.433 611.206 432.465 611.358 432.529C611.506 432.589 611.634 432.681 611.742 432.805C611.85 432.925 611.934 433.075 611.994 433.255C612.054 433.435 612.084 433.643 612.084 433.879C612.084 434.147 612.046 434.385 611.97 434.593C611.89 434.797 611.782 434.969 611.646 435.109C611.506 435.245 611.344 435.349 611.16 435.421C610.972 435.493 610.768 435.529 610.548 435.529H610.368V435.025H610.512C610.88 435.025 611.156 434.925 611.34 434.725C611.524 434.521 611.616 434.239 611.616 433.879C611.616 433.567 611.548 433.333 611.412 433.177C611.272 433.017 611.088 432.937 610.86 432.937H610.824C610.604 432.937 610.436 433.019 610.32 433.183C610.204 433.343 610.12 433.605 610.068 433.969C610.04 434.181 609.998 434.373 609.942 434.545C609.882 434.713 609.806 434.857 609.714 434.977C609.618 435.097 609.504 435.189 609.372 435.253C609.24 435.317 609.084 435.349 608.904 435.349H608.832C608.668 435.349 608.518 435.315 608.382 435.247C608.246 435.179 608.128 435.085 608.028 434.965C607.928 434.841 607.852 434.695 607.8 434.527C607.744 434.355 607.716 434.167 607.716 433.963C607.716 433.727 607.75 433.517 607.818 433.333C607.886 433.145 607.978 432.987 608.094 432.859C608.206 432.731 608.34 432.635 608.496 432.571C608.648 432.503 608.808 432.469 608.976 432.469H609.228V432.973H609.012ZM607.8 431.081V428.537H608.268V430.577H609.66V428.573H610.128V430.577H611.532V428.501H612V431.081H607.8Z" fill="#5B5C64"/>
<rect x="603" y="317" width="156.5" height="86" rx="6" transform="rotate(-90 603 317)" fill="#1B1B1C"/>
<path d="M609.012 308.088C608.876 308.088 608.756 308.116 608.652 308.172C608.548 308.224 608.462 308.296 608.394 308.388C608.326 308.48 608.274 308.586 608.238 308.706C608.202 308.826 608.184 308.952 608.184 309.084C608.184 309.2 608.2 309.31 608.232 309.414C608.26 309.518 608.302 309.612 608.358 309.696C608.414 309.776 608.484 309.84 608.568 309.888C608.648 309.936 608.742 309.96 608.85 309.96H608.886C609.002 309.96 609.102 309.936 609.186 309.888C609.266 309.84 609.336 309.77 609.396 309.678C609.452 309.582 609.5 309.464 609.54 309.324C609.576 309.184 609.608 309.02 609.636 308.832C609.704 308.392 609.834 308.068 610.026 307.86C610.214 307.652 610.468 307.548 610.788 307.548H610.86C611.04 307.548 611.206 307.58 611.358 307.644C611.506 307.704 611.634 307.796 611.742 307.92C611.85 308.04 611.934 308.19 611.994 308.37C612.054 308.55 612.084 308.758 612.084 308.994C612.084 309.262 612.046 309.5 611.97 309.708C611.89 309.912 611.782 310.084 611.646 310.224C611.506 310.36 611.344 310.464 611.16 310.536C610.972 310.608 610.768 310.644 610.548 310.644H610.368V310.14H610.512C610.88 310.14 611.156 310.04 611.34 309.84C611.524 309.636 611.616 309.354 611.616 308.994C611.616 308.682 611.548 308.448 611.412 308.292C611.272 308.132 611.088 308.052 610.86 308.052H610.824C610.604 308.052 610.436 308.134 610.32 308.298C610.204 308.458 610.12 308.72 610.068 309.084C610.04 309.296 609.998 309.488 609.942 309.66C609.882 309.828 609.806 309.972 609.714 310.092C609.618 310.212 609.504 310.304 609.372 310.368C609.24 310.432 609.084 310.464 608.904 310.464H608.832C608.668 310.464 608.518 310.43 608.382 310.362C608.246 310.294 608.128 310.2 608.028 310.08C607.928 309.956 607.852 309.81 607.8 309.642C607.744 309.47 607.716 309.282 607.716 309.078C607.716 308.842 607.75 308.632 607.818 308.448C607.886 308.26 607.978 308.102 608.094 307.974C608.206 307.846 608.34 307.75 608.496 307.686C608.648 307.618 608.808 307.584 608.976 307.584H609.228V308.088H609.012ZM609.912 305.338H609.216L608.34 303.97H608.268V306.346H607.8V303.538H608.568L609.444 304.906H609.516V304.666C609.516 304.506 609.542 304.352 609.594 304.204C609.646 304.056 609.722 303.926 609.822 303.814C609.922 303.698 610.046 303.606 610.194 303.538C610.338 303.466 610.506 303.43 610.698 303.43H610.806C610.986 303.43 611.154 303.466 611.31 303.538C611.466 303.61 611.602 303.71 611.718 303.838C611.83 303.966 611.92 304.118 611.988 304.294C612.052 304.466 612.084 304.654 612.084 304.858C612.084 305.094 612.048 305.306 611.976 305.494C611.904 305.682 611.806 305.842 611.682 305.974C611.554 306.106 611.406 306.208 611.238 306.28C611.066 306.348 610.884 306.382 610.692 306.382H610.368V305.878H610.656C610.808 305.878 610.944 305.854 611.064 305.806C611.18 305.754 611.28 305.684 611.364 305.596C611.444 305.504 611.506 305.396 611.55 305.272C611.594 305.148 611.616 305.014 611.616 304.87C611.616 304.738 611.594 304.616 611.55 304.504C611.506 304.388 611.446 304.288 611.37 304.204C611.29 304.12 611.198 304.054 611.094 304.006C610.986 303.958 610.872 303.934 610.752 303.934H610.716C610.464 303.934 610.268 304.014 610.128 304.174C609.984 304.334 609.912 304.534 609.912 304.774V305.338Z" fill="#5B5C64"/>
<rect x="603" y="158.5" width="156.5" height="86" rx="6" transform="rotate(-90 603 158.5)" fill="#1B1B1C"/>
<path d="M612 148.995V149.499H610.596C610.492 149.499 610.412 149.523 610.356 149.571C610.3 149.619 610.272 149.703 610.272 149.823V151.131H612V151.635H607.8V150.135C607.8 149.919 607.832 149.731 607.896 149.571C607.956 149.411 608.038 149.279 608.142 149.175C608.246 149.067 608.368 148.987 608.508 148.935C608.644 148.879 608.788 148.851 608.94 148.851H609.12C609.276 148.851 609.432 148.895 609.588 148.983C609.744 149.067 609.864 149.199 609.948 149.379H610.02C610.04 149.259 610.088 149.165 610.164 149.097C610.24 149.029 610.348 148.995 610.488 148.995H612ZM609.804 151.131V150.195C609.804 149.911 609.744 149.701 609.624 149.565C609.5 149.425 609.32 149.355 609.084 149.355H608.976C608.764 149.355 608.594 149.425 608.466 149.565C608.334 149.701 608.268 149.911 608.268 150.195V151.131H609.804ZM607.8 147.427V144.883H608.268V146.923H609.66V144.919H610.128V146.923H611.532V144.847H612V147.427H607.8ZM607.8 143.399V142.019C607.8 141.499 607.924 141.119 608.172 140.879C608.42 140.639 608.816 140.519 609.36 140.519H610.44C610.984 140.519 611.38 140.639 611.628 140.879C611.876 141.119 612 141.499 612 142.019V143.399H611.526V143.039H608.268V143.399H607.8ZM611.532 142.091C611.532 141.907 611.514 141.749 611.478 141.617C611.442 141.481 611.382 141.369 611.298 141.281C611.21 141.193 611.094 141.129 610.95 141.089C610.806 141.045 610.624 141.023 610.404 141.023H609.396C609.176 141.023 608.994 141.045 608.85 141.089C608.706 141.129 608.592 141.193 608.508 141.281C608.42 141.369 608.358 141.481 608.322 141.617C608.286 141.749 608.268 141.907 608.268 142.091V142.535H611.532V142.091ZM607.8 139.179V136.515H608.268V137.595H611.532V136.515H612V139.179H611.532V138.099H608.268V139.179H607.8ZM609.012 132.703C608.876 132.703 608.756 132.731 608.652 132.787C608.548 132.839 608.462 132.911 608.394 133.003C608.326 133.095 608.274 133.201 608.238 133.321C608.202 133.441 608.184 133.567 608.184 133.699C608.184 133.815 608.2 133.925 608.232 134.029C608.26 134.133 608.302 134.227 608.358 134.311C608.414 134.391 608.484 134.455 608.568 134.503C608.648 134.551 608.742 134.575 608.85 134.575H608.886C609.002 134.575 609.102 134.551 609.186 134.503C609.266 134.455 609.336 134.385 609.396 134.293C609.452 134.197 609.5 134.079 609.54 133.939C609.576 133.799 609.608 133.635 609.636 133.447C609.704 133.007 609.834 132.683 610.026 132.475C610.214 132.267 610.468 132.163 610.788 132.163H610.86C611.04 132.163 611.206 132.195 611.358 132.259C611.506 132.319 611.634 132.411 611.742 132.535C611.85 132.655 611.934 132.805 611.994 132.985C612.054 133.165 612.084 133.373 612.084 133.609C612.084 133.877 612.046 134.115 611.97 134.323C611.89 134.527 611.782 134.699 611.646 134.839C611.506 134.975 611.344 135.079 611.16 135.151C610.972 135.223 610.768 135.259 610.548 135.259H610.368V134.755H610.512C610.88 134.755 611.156 134.655 611.34 134.455C611.524 134.251 611.616 133.969 611.616 133.609C611.616 133.297 611.548 133.063 611.412 132.907C611.272 132.747 611.088 132.667 610.86 132.667H610.824C610.604 132.667 610.436 132.749 610.32 132.913C610.204 133.073 610.12 133.335 610.068 133.699C610.04 133.911 609.998 134.103 609.942 134.275C609.882 134.443 609.806 134.587 609.714 134.707C609.618 134.827 609.504 134.919 609.372 134.983C609.24 135.047 609.084 135.079 608.904 135.079H608.832C608.668 135.079 608.518 135.045 608.382 134.977C608.246 134.909 608.128 134.815 608.028 134.695C607.928 134.571 607.852 134.425 607.8 134.257C607.744 134.085 607.716 133.897 607.716 133.693C607.716 133.457 607.75 133.247 607.818 133.063C607.886 132.875 607.978 132.717 608.094 132.589C608.206 132.461 608.34 132.365 608.496 132.301C608.648 132.233 608.808 132.199 608.976 132.199H609.228V132.703H609.012Z" fill="#5B5C64"/>
</g>
<rect x="582.25" y="635.75" width="635.5" height="91.5" rx="7.75" transform="rotate(-90 582.25 635.75)" stroke="#2E2E2F" stroke-width="0.5"/>
<defs>
<clipPath id="clip0_1330_6245">
<rect x="124" y="596" width="556" height="332" rx="8" transform="rotate(-90 124 596)" fill="white"/>
</clipPath>
<clipPath id="clip1_1330_6245">
<rect x="460" y="596" width="202" height="118" rx="8" transform="rotate(-90 460 596)" fill="white"/>
</clipPath>
<clipPath id="clip2_1330_6245">
<rect x="582" y="636" width="636" height="92" rx="8" transform="rotate(-90 582 636)" fill="white"/>
</clipPath>
</defs>
</svg>
