<svg width="1352" height="291" viewBox="0 0 1352 291" fill="none" xmlns="http://www.w3.org/2000/svg">
<path d="M1289.73 115.748C1296.32 105.003 1304.87 96.5785 1315.37 90.4737C1326.12 84.3688 1338.33 81.3164 1352 81.3164V135.161H1338.45C1322.33 135.161 1310.12 138.946 1301.82 146.516C1293.76 154.086 1289.73 167.272 1289.73 186.075V287.171H1238.45V84.2467H1289.73V115.748Z" fill="#161617"/>
<path d="M991.682 184.976C991.682 164.463 995.711 146.271 1003.77 130.398C1012.07 114.526 1023.18 102.316 1037.1 93.7694C1051.26 85.2226 1067.01 80.9492 1084.35 80.9492C1099.49 80.9492 1112.68 84.0016 1123.91 90.1065C1135.39 96.2113 1144.55 103.903 1151.38 113.183V84.2458H1203.03V287.171H1151.38V257.501C1144.79 267.025 1135.63 274.961 1123.91 281.31C1112.43 287.415 1099.13 290.467 1083.99 290.467C1066.89 290.467 1051.26 286.072 1037.1 277.281C1023.18 268.49 1012.07 256.158 1003.77 240.285C995.711 224.169 991.682 205.732 991.682 184.976ZM1151.38 185.708C1151.38 173.254 1148.94 162.632 1144.06 153.841C1139.17 144.806 1132.58 137.968 1124.28 133.329C1115.98 128.445 1107.06 126.003 1097.54 126.003C1088.02 126.003 1079.22 128.323 1071.17 132.962C1063.11 137.602 1056.51 144.439 1051.39 153.475C1046.5 162.266 1044.06 172.766 1044.06 184.976C1044.06 197.185 1046.5 207.93 1051.39 217.209C1056.51 226.244 1063.11 233.204 1071.17 238.088C1079.47 242.972 1088.26 245.413 1097.54 245.413C1107.06 245.413 1115.98 243.094 1124.28 238.454C1132.58 233.57 1139.17 226.733 1144.06 217.942C1148.94 208.907 1151.38 198.162 1151.38 185.708Z" fill="#161617"/>
<path d="M889.794 81.3164C913.969 81.3164 933.504 89.0085 948.4 104.393C963.296 119.533 970.743 140.778 970.743 168.127V287.171H919.463V175.087C919.463 158.97 915.434 146.638 907.376 138.091C899.317 129.3 888.329 124.905 874.41 124.905C860.247 124.905 849.014 129.3 840.711 138.091C832.653 146.638 828.624 158.97 828.624 175.087V287.171H777.344V84.2467H828.624V109.521C835.461 100.73 844.13 93.8924 854.63 89.0085C865.375 83.8804 877.096 81.3164 889.794 81.3164Z" fill="#161617"/>
<path d="M716.056 60.0671C707.02 60.0671 699.45 57.2591 693.346 51.6431C687.485 45.7828 684.555 38.5797 684.555 30.0335C684.555 21.4874 687.485 14.4063 693.346 8.7903C699.45 2.9301 707.02 0 716.056 0C725.091 0 732.539 2.9301 738.399 8.7903C744.504 14.4063 747.556 21.4874 747.556 30.0335C747.556 38.5797 744.504 45.7828 738.399 51.6431C732.539 57.2591 725.091 60.0671 716.056 60.0671ZM741.329 84.2404V287.15H690.049V84.2404H741.329Z" fill="#161617"/>
<path d="M572.892 81.3164C597.8 81.3164 617.824 89.0085 632.963 104.393C648.347 119.533 656.04 140.778 656.04 168.127V287.171H604.759V175.087C604.759 159.214 600.73 147.127 592.672 138.824C584.614 130.277 573.625 126.004 559.706 126.004C545.787 126.004 534.676 130.277 526.374 138.824C518.316 147.127 514.286 159.214 514.286 175.087V287.171H463.006V175.087C463.006 159.214 458.977 147.127 450.919 138.824C442.86 130.277 431.872 126.004 417.953 126.004C403.79 126.004 392.557 130.277 384.254 138.824C376.196 147.127 372.167 159.214 372.167 175.087V287.171H320.887V84.2467H372.167V108.788C378.76 100.241 387.185 93.5261 397.441 88.6422C407.941 83.7583 419.418 81.3164 431.872 81.3164C447.744 81.3164 461.907 84.7351 474.361 91.5725C486.815 98.1658 496.46 107.689 503.298 120.143C509.891 108.422 519.414 99.0204 531.868 91.9388C544.566 84.8572 558.241 81.3164 572.892 81.3164Z" fill="#161617"/>
<path d="M74.1055 184.976C74.1055 164.463 78.1346 146.271 86.1929 130.398C94.4955 114.526 105.606 102.316 119.525 93.7694C133.688 85.2226 149.439 80.9492 166.776 80.9492C181.916 80.9492 195.102 84.0016 206.335 90.1065C217.812 96.2113 226.969 103.903 233.807 113.183V84.2458H285.453V287.171H233.807V257.501C227.214 267.025 218.056 274.961 206.335 281.31C194.858 287.415 181.55 290.467 166.41 290.467C149.316 290.467 133.688 286.072 119.525 277.281C105.606 268.49 94.4955 256.158 86.1929 240.285C78.1346 224.169 74.1055 205.732 74.1055 184.976ZM233.807 185.708C233.807 173.254 231.365 162.632 226.481 153.841C221.597 144.806 215.004 137.968 206.701 133.329C198.399 128.445 189.486 126.003 179.962 126.003C170.439 126.003 161.648 128.323 153.59 132.962C145.531 137.602 138.938 144.439 133.81 153.475C128.926 162.266 126.485 172.766 126.485 184.976C126.485 197.185 128.926 207.93 133.81 217.209C138.938 226.244 145.531 233.204 153.59 238.088C161.892 242.972 170.683 245.413 179.962 245.413C189.486 245.413 198.399 243.094 206.701 238.454C215.004 233.57 221.597 226.733 226.481 217.942C231.365 208.907 233.807 198.162 233.807 185.708Z" fill="#161617"/>
<path d="M51.2805 16.1172V287.151H0V16.1172H51.2805Z" fill="#161617"/>
</svg>
