<svg width="101" height="25" viewBox="0 0 101 25" fill="none" xmlns="http://www.w3.org/2000/svg">
<path d="M24.9 3.00001H31.1C33.4 3.00001 34.9 3.10017 36.2 4.50003C37.1 5.50002 37.6 6.70002 37.6 8.10003C37.6 9.5 37.1 10.7 36.1 11.7C35.1 12.7 33.8 13.3 30.5 13.3H27.5V21.6H24.9V3.00001ZM27.5 11.2H30.5C32.2 11.2 34.8 11.1002 34.8 8.00003C34.8 5.10003 32.4 5.10004 31 5.10004H27.5V11.2ZM45.9 21.6C45.7 21 45.7 20.3 45.7 19.7C44.5 21.8 42.8 22 41.7 22C38.7 22 37.1 20.3 37.1 18.2C37.1 17.2 37.5 15.5 39.4 14.4C40.8 13.6 42.8 13.6 43.9 13.6C44.5 13.6 44.9 13.6 45.6 13.7002C45.6 12.1002 45.6 11.4002 45.1 10.8002C44.6 10.2002 43.6 10.0001 42.9 10.0001C40.5 10.0001 40.3 11.7002 40.3 12.2002H37.9C38 11.5002 38.1 10.6001 38.8 9.80017C39.8 8.70018 41.6 8.40018 43 8.40018C44.9 8.40018 46.9 9.00017 47.6 10.3002C48 11.1002 48 11.7002 48 12.3002L47.9 18.5002C47.9 18.7001 47.9 20.4002 48.1 21.7002H45.9V21.6ZM44.2 15.2C43.2 15.2 39.5 15.2 39.5 17.8C39.5 18.6 40 20 42.2 20C43.4 20 44.4 19.5 45 18.6C45.5 17.7 45.6 17 45.6 15.2C45.2 15.3002 44.8 15.2 44.2 15.2ZM50.1 3.00001H52.5V21.6H50.1V3.00001ZM62.9 21.6C62.7 21 62.7 20.3 62.7 19.7C61.5 21.8 59.8 22 58.7 22C55.7 22 54.1 20.3 54.1 18.2C54.1 17.2 54.5 15.5 56.4 14.4C57.8 13.6 59.8 13.6 60.9 13.6C61.5 13.6 61.9 13.6 62.6 13.7002C62.6 12.1002 62.6 11.4002 62.1 10.8002C61.6 10.2002 60.6 10.0001 59.9 10.0001C57.5 10.0001 57.3 11.7002 57.3 12.2002H54.9C55 11.5002 55.1 10.6001 55.8 9.80017C56.8 8.70018 58.6 8.40018 60 8.40018C61.9 8.40018 63.9 9.00017 64.6 10.3002C65 11.1002 65 11.7002 65 12.3002L64.9 18.5002C64.9 18.7001 64.9 20.4002 65.1 21.7002H62.9V21.6ZM61.3 15.2C60.3 15.2 56.6 15.2 56.6 17.8C56.6 18.6 57.1 20 59.3 20C60.5 20 61.5 19.5 62.1 18.6C62.6 17.7 62.7 17 62.7 15.2C62.2 15.3002 61.9 15.2 61.3 15.2ZM67.2 10.2V8.70004H69.6V10.8C69.9 10.3 70.8 8.50001 73.7 8.50001C74.9 8.50001 78.4 8.90002 78.4 12.9V21.7H75.9V13.5C75.9 12.7 75.8 11.9 75.2 11.3C74.6 10.7 73.7 10.4 72.9 10.4C71.1 10.4 69.5 11.7 69.5 14.3V21.7H67.1V10.2H67.2ZM79.2 8.70004H81.5V5.9L83.9 5.10004V8.60004H86.8V10.4H83.9V18.1C83.9 18.7 83.9 19.8 85.6 19.8C86.1 19.8 86.6 19.6999 86.8 19.6999V21.5999C86.4 21.7 85.7 21.7998 84.8 21.7998C82.5 21.7998 81.5 21.0998 81.5 18.9998V10.3998H79.2V8.70004ZM88.5 3.00001H91.4V5.70002H88.5V3.00001ZM88.7 8.70004H91.1V21.6H88.7V8.70004ZM93.4 11.3C93.4 10.4 93.3 9.50001 93.3 8.70004H95.7L95.8 11.2C96.3 9.39999 97.8 8.80001 98.9 8.70004C99.6 8.59988 100.2 8.59986 100.6 8.59986V10.9999C100.5 10.9999 100.3 10.8997 100.1 10.8997C99.9 10.8997 99.7 10.8997 99.4 10.8997C96.5 10.8997 95.9 12.5997 95.9 14.7997V21.6997H93.5V11.2997L93.4 11.3ZM10 0.5C5 0.5 0.899999 4.60001 0.899999 9.60002C0.899999 14.6 5 18.7 10 18.7C15 18.7 19.1 14.6 19.1 9.60002C19.1 4.60001 15 0.5 10 0.5ZM10 15.9C6.5 15.9 3.7 13.1 3.7 9.60002C3.7 6.10003 6.5 3.30004 10 3.30004C13.5 3.30004 16.3 6.10003 16.3 9.60002C16.2 13.1 13.4 15.9 10 15.9ZM18.1 17.9L10 21.4L1.9 17.9L0.5 20.4L10 24.4L19.5 20.4L18.1 17.9Z" fill="white"/>
</svg>
