<svg width="808" height="161" viewBox="0 0 808 161" fill="none" xmlns="http://www.w3.org/2000/svg">
<g clip-path="url(#clip0_905_31)">
<path d="M154.197 7V154H7V7H154.197Z" stroke="white" stroke-width="14"/>
<path fill-rule="evenodd" clip-rule="evenodd" d="M87.1476 88.4996V124.272H73.5466V88.4996L38.8389 36.728H55.4119L80.3975 74.9655L105.282 36.728H121.855L87.1476 88.4996Z" fill="white"/>
<path fill-rule="evenodd" clip-rule="evenodd" d="M255.726 53.994C240.815 53.994 229.632 65.5155 229.632 80.408C229.632 95.3005 240.815 106.923 255.726 106.923C265.297 106.923 273.608 101.992 278.092 93.6905L290.887 101.288C283.734 113.514 270.334 121.463 255.726 121.463C232.755 121.413 214.52 103.2 214.52 80.408C214.52 57.5662 232.755 39.353 255.726 39.353C270.485 39.353 283.734 47.2018 290.887 59.5283L278.092 67.1255C273.558 58.824 265.297 53.994 255.726 53.994Z" fill="white"/>
<path fill-rule="evenodd" clip-rule="evenodd" d="M340.052 90.7725C340.052 81.4647 333.251 74.4209 324.486 74.4209C315.469 74.4209 308.669 81.4647 308.669 90.7725C308.669 100.08 315.469 107.124 324.486 107.124C333.1 107.124 340.052 100.08 340.052 90.7725ZM294.01 90.7725C294.01 73.9681 307.51 60.4844 324.486 60.4844C341.21 60.4844 354.711 73.9681 354.711 90.7725C354.711 107.577 341.21 121.061 324.486 121.061C307.51 121.061 294.01 107.577 294.01 90.7725Z" fill="white"/>
<path fill-rule="evenodd" clip-rule="evenodd" d="M449.817 85.9426V119.753H435.208V88.5085C435.208 79.7541 430.927 74.2198 424.479 74.2198C417.88 74.2198 413.044 79.7541 413.044 88.5085V119.753H398.939V88.5085C398.939 79.7541 394.506 74.2198 388.008 74.2198C381.51 74.2198 376.774 79.7541 376.774 88.5085V119.753H362.166V61.8932H376.774V69.2891C380.351 63.7548 385.892 60.2832 392.693 60.2832C400.098 60.2832 405.941 64.4591 409.518 70.9495C413.195 65.1635 419.995 60.2832 428.559 60.2832C441.404 60.2832 449.817 71.6035 449.817 85.9426Z" fill="white"/>
<path fill-rule="evenodd" clip-rule="evenodd" d="M501.753 91.3762C501.753 81.7162 495.758 74.7731 487.346 74.7731C479.135 74.7731 472.939 81.364 472.939 91.2253C472.939 101.036 479.286 107.677 487.598 107.677C495.758 107.627 501.753 100.835 501.753 91.3762ZM490.419 121.262C482.359 121.262 476.415 117.589 472.989 112.507V119.752H458.381V39.2524H472.989V68.9368C476.516 64.2074 482.46 60.7862 490.167 60.7862C505.128 60.7862 516.563 73.6662 516.815 91.024C517.067 108.583 505.38 121.262 490.419 121.262Z" fill="white"/>
<path fill-rule="evenodd" clip-rule="evenodd" d="M522.859 119.752H537.467V61.893H522.859V119.752ZM520.995 45.4912C520.995 40.5605 525.126 36.8374 530.113 36.8374C534.949 36.8374 538.979 40.5102 538.979 45.4912C538.979 50.4218 534.949 54.1449 530.113 54.1449C525.176 54.0946 520.995 50.4218 520.995 45.4912Z" fill="white"/>
<path fill-rule="evenodd" clip-rule="evenodd" d="M600.436 86.1941V119.753H586.331V89.3135C586.331 80.0057 581.445 74.2198 574.392 74.2198C566.635 74.2198 561.144 81.2635 561.144 89.5651V119.753H547.039V61.8932H561.144V69.1885C565.073 63.7548 571.37 60.2832 578.724 60.2832C591.721 60.2832 600.436 71.352 600.436 86.1941Z" fill="white"/>
<path fill-rule="evenodd" clip-rule="evenodd" d="M644.764 94.0928V92.835L630.005 95.7028C625.068 96.86 622.046 99.3756 622.046 102.747C622.046 106.319 625.32 108.985 630.71 108.834C638.468 108.583 644.764 101.841 644.764 94.0928ZM658.869 84.8353V119.752H644.764V113.061C640.483 117.689 633.783 121.111 626.378 121.262C616.555 121.262 607.891 114.822 607.891 103.753C607.891 93.2878 615.749 87.3006 627.436 84.9863L644.412 81.7663C643.253 76.9363 639.576 73.2634 633.984 73.2634C628.443 73.2634 623.255 76.735 620.132 81.1122L609.503 73.4144C614.943 65.8172 624.514 60.7356 634.035 60.7356C648.24 60.635 658.869 70.4459 658.869 84.8353Z" fill="white"/>
<path fill-rule="evenodd" clip-rule="evenodd" d="M688.59 74.9743V99.2249C688.59 103.954 690.655 106.118 694.937 106.118H702.191V119.702H692.922C680.58 119.702 674.485 113.665 674.485 100.986V74.9743H663.906V61.893H673.981V47.6043L688.59 43.1265V61.893H702.191V74.9743H688.59Z" fill="white"/>
<path fill-rule="evenodd" clip-rule="evenodd" d="M753.018 90.7725C753.018 81.4647 746.218 74.4209 737.453 74.4209C728.436 74.4209 721.635 81.4647 721.635 90.7725C721.635 100.08 728.436 107.124 737.453 107.124C746.067 107.124 753.018 100.08 753.018 90.7725ZM706.977 90.7725C706.977 73.9681 720.477 60.4844 737.453 60.4844C754.177 60.4844 767.677 73.9681 767.677 90.7725C767.677 107.577 754.177 121.061 737.453 121.061C720.477 121.061 706.977 107.577 706.977 90.7725Z" fill="white"/>
<path fill-rule="evenodd" clip-rule="evenodd" d="M807.977 60.6353V74.6724C794.93 74.6724 789.338 81.0118 789.338 89.3134V119.752H775.233V61.8931H789.338V69.1381C793.318 63.9559 799.715 60.6353 807.977 60.6353Z" fill="white"/>
</g>
<defs>
<clipPath id="clip0_905_31">
<rect width="808" height="161" fill="white"/>
</clipPath>
</defs>
</svg>
