<svg width="118" height="118" viewBox="0 0 118 118" fill="none" xmlns="http://www.w3.org/2000/svg">
<path fill-rule="evenodd" clip-rule="evenodd" d="M29 23.0659C29 21.9613 29.8954 21.0659 31 21.0659H67C87.9868 21.0659 105 38.0791 105 59.0659C105 59.7368 104.983 60.4036 104.948 61.0659H29V59.0659V23.0659ZM29 67.0659V73.0659H102.338C103.102 71.1383 103.713 69.1333 104.156 67.0659H29ZM29 79.0659H99.3171C97.9821 81.2186 96.4379 83.2281 94.713 85.0659H29V79.0659ZM29 91.0659V95.0659C29 96.1705 29.8954 97.0659 31 97.0659H67C74.551 97.0659 81.5877 94.8635 87.5026 91.0659H29Z" fill="white"/>
</svg>
