<svg width="485" height="98" viewBox="0 0 485 98" fill="none" xmlns="http://www.w3.org/2000/svg">
<path fill-rule="evenodd" clip-rule="evenodd" d="M114.52 90.0659V96.0661H98.3224V90.0659H114.52ZM123.575 90.0659C125.403 92.2065 127.666 93.8933 130.365 95.1264C133.855 96.6776 137.778 97.4531 142.133 97.4531C145.712 97.4531 148.83 96.9609 151.485 95.9766C154.169 94.9624 156.391 93.6349 158.151 91.9943C158.822 91.3683 159.436 90.7255 159.994 90.0659H123.575ZM162.85 90.0659V96.0661H178.421V90.0659H162.85ZM178.421 84.0659V78.0659H160.518C160.447 78.1902 160.374 78.3138 160.299 78.4368C159.016 80.5845 157.182 82.3146 154.796 83.6271C154.506 83.7828 154.21 83.9291 153.907 84.0659H178.421ZM178.421 66.0659V72.0659H162.253C162.263 71.8494 162.268 71.6314 162.268 71.4119V66.0659H178.421ZM178.421 60.0659V50.0689C178.421 45.505 177.585 41.7017 175.915 38.6591C174.274 35.6165 172.097 33.2152 169.382 31.4553C166.668 29.6655 163.67 28.3828 160.389 27.6072C157.107 26.8317 153.811 26.4439 150.5 26.4439C145.698 26.4439 141.313 27.1598 137.345 28.5916C133.378 29.9936 130.022 32.1115 127.278 34.9453C124.534 37.7493 122.565 41.2393 121.372 45.4155L136.495 47.5632C137.301 45.2067 138.852 43.1634 141.149 41.4332C143.475 39.7031 146.622 38.8381 150.59 38.8381C154.348 38.8381 157.227 39.7628 159.225 41.6122C161.224 43.4617 162.223 46.0717 162.223 49.4425V49.7109C162.223 51.2621 161.641 52.4105 160.478 53.1562C159.345 53.8722 157.525 54.4091 155.019 54.767C152.514 55.0952 149.247 55.468 145.22 55.8857C141.879 56.2436 138.643 56.8253 135.511 57.6307C133.137 58.2241 130.947 59.0359 128.94 60.0659H178.421ZM185.888 66.0659V72.0659H202.085V66.0659H185.888ZM202.085 60.0659H185.888V27.3388H201.369V39.017H202.174C203.606 35.0795 205.978 32.0071 209.289 29.7997C212.6 27.5625 216.552 26.4439 221.146 26.4439C225.799 26.4439 229.722 27.5774 232.914 29.8445C236.135 32.0817 238.402 35.1392 239.715 39.017H240.431C241.952 35.1989 244.518 32.1563 248.127 29.8892C251.766 27.5923 256.076 26.4439 261.058 26.4439C267.382 26.4439 272.542 28.4425 276.54 32.4396C280.537 36.4368 282.535 42.2685 282.535 49.9347V60.0659H266.293V52.4403C266.293 48.1747 265.16 45.0575 262.892 43.0888C260.625 41.0902 257.851 40.0909 254.57 40.0909C250.662 40.0909 247.605 41.3139 245.397 43.7599C243.22 46.1761 242.131 49.3232 242.131 53.201V60.0659H226.247V51.7692C226.247 48.2195 225.173 45.3857 223.025 43.2678C220.907 41.1499 218.133 40.0909 214.703 40.0909C212.376 40.0909 210.258 40.6875 208.349 41.8807C206.44 43.044 204.919 44.6996 203.785 46.8473C202.652 48.9652 202.085 51.4411 202.085 54.2749V60.0659ZM226.247 66.0659V72.0659H242.131V66.0659H226.247ZM266.293 66.0659V72.0659H282.535V66.0659H266.293ZM290.148 66.0659V72.0659H306.345V66.0659H290.148ZM314.181 66.0659V72.0659H330.379V66.0659H314.181ZM330.379 60.0659H314.181V27.3388H329.663V39.017H330.468C332.049 35.169 334.57 32.1115 338.03 29.8445C341.52 27.5774 345.83 26.4439 350.961 26.4439C355.704 26.4439 359.835 27.4581 363.355 29.4865C366.905 31.5149 369.649 34.4531 371.588 38.3011C373.557 42.1491 374.526 46.8175 374.496 52.3061V60.0659H358.299V54.8118C358.299 50.218 357.106 46.6236 354.719 44.0284C352.363 41.4332 349.097 40.1357 344.92 40.1357C342.087 40.1357 339.566 40.7621 337.359 42.0149C335.181 43.2379 333.466 45.0128 332.213 47.3395C330.99 49.6662 330.379 52.4851 330.379 55.7962V60.0659ZM358.299 66.0659V72.0659H374.496V66.0659H358.299ZM381.74 66.0659C381.505 66.4199 381.281 66.785 381.068 67.1612C380.265 68.5846 379.687 70.2195 379.334 72.0659H395.708C395.856 71.8382 396.017 71.6202 396.192 71.4119C397.296 70.0696 398.802 69.0256 400.711 68.2798C402.62 67.5341 404.783 66.9972 407.199 66.669C408.273 66.5199 409.541 66.3409 411.002 66.1321C411.155 66.1104 411.307 66.0883 411.459 66.0659H381.74ZM422.054 66.0659V71.4119C422.054 71.6314 422.049 71.8494 422.04 72.0659H438.207V66.0659H422.054ZM445.674 66.0659V72.0659H461.871V66.0659H445.674ZM461.871 60.0659H445.674V27.3388H461.379V38.7933H462.095C463.348 34.826 465.496 31.7685 468.538 29.6207C471.611 27.4432 475.116 26.3544 479.053 26.3544C479.948 26.3544 480.947 26.3991 482.051 26.4886C483.185 26.5483 484.124 26.6527 484.87 26.8018V41.7017C484.184 41.4631 483.095 41.2543 481.604 41.0753C480.142 40.8665 478.725 40.7621 477.353 40.7621C474.4 40.7621 471.745 41.4034 469.388 42.6861C467.062 43.9389 465.227 45.6839 463.885 47.9212C462.543 50.1584 461.871 52.7386 461.871 55.6619V60.0659ZM438.207 60.0659H388.726C390.733 59.0359 392.923 58.2241 395.297 57.6307C398.429 56.8253 401.666 56.2436 405.007 55.8857C409.034 55.468 412.3 55.0952 414.806 54.767C417.311 54.4091 419.131 53.8722 420.265 53.1562C421.428 52.4105 422.01 51.2621 422.01 49.7109V49.4425C422.01 46.0717 421.01 43.4617 419.012 41.6122C417.013 39.7628 414.135 38.8381 410.376 38.8381C406.409 38.8381 403.262 39.7031 400.935 41.4332C398.638 43.1634 397.087 45.2067 396.282 47.5632L381.158 45.4155C382.351 41.2393 384.32 37.7493 387.064 34.9453C389.809 32.1115 393.164 29.9936 397.132 28.5916C401.099 27.1598 405.484 26.4439 410.287 26.4439C413.598 26.4439 416.894 26.8317 420.175 27.6072C423.456 28.3828 426.454 29.6655 429.169 31.4553C431.883 33.2152 434.061 35.6165 435.701 38.6591C437.372 41.7017 438.207 45.505 438.207 50.0689V60.0659ZM306.345 60.0659H290.148V27.3388H306.345V60.0659ZM151.673 66.0659C151.521 66.0883 151.368 66.1104 151.216 66.1321C149.754 66.3409 148.487 66.5199 147.413 66.669C144.997 66.9972 142.834 67.5341 140.925 68.2798C139.016 69.0256 137.509 70.0696 136.406 71.4119C136.231 71.6202 136.069 71.8382 135.922 72.0659H119.548C119.9 70.2195 120.478 68.5846 121.282 67.1612C121.495 66.785 121.719 66.4199 121.954 66.0659H151.673ZM114.52 66.0659V72.0659H98.3224V66.0659H114.52ZM114.52 60.0659V4.42969H98.3224V60.0659H114.52ZM75.9483 60.0659C75.9826 59.4036 76 58.7368 76 58.0659C76 37.0791 58.9868 20.0659 38 20.0659H2C0.895431 20.0659 0 20.9613 0 22.0659V58.0659V60.0659H75.9483ZM0 66.0659V72.0659H73.338C74.1023 70.1383 74.7134 68.1333 75.1564 66.0659H0ZM185.888 84.0659V78.0659H202.085V84.0659H185.888ZM226.247 84.0659V78.0659H242.131V84.0659H226.247ZM266.293 84.0659V78.0659H282.535V84.0659H266.293ZM290.148 84.0659V78.0659H306.345V84.0659H290.148ZM314.181 84.0659V78.0659H330.379V84.0659H314.181ZM358.299 84.0659V78.0659H374.496V84.0659H358.299ZM379.984 84.0659C379.39 82.2441 379.045 80.2441 378.949 78.0659H394.644C394.968 80.2898 396.021 82.0242 397.803 83.2692C398.224 83.5632 398.667 83.8287 399.132 84.0659H379.984ZM420.086 78.4368C420.161 78.3138 420.234 78.1902 420.305 78.0659H438.207V84.0659H413.694C413.996 83.9291 414.292 83.7828 414.582 83.6271C416.968 82.3146 418.803 80.5845 420.086 78.4368ZM445.674 84.0659V78.0659H461.871V84.0659H445.674ZM119.162 78.0659H134.858C135.182 80.2898 136.234 82.0242 138.016 83.2692C138.437 83.5632 138.88 83.8287 139.346 84.0659H120.197C119.604 82.2441 119.259 80.2441 119.162 78.0659ZM114.52 84.0659V78.0659H98.3224V84.0659H114.52ZM0 84.0659V78.0659H70.3171C68.9821 80.2186 67.4379 82.2281 65.713 84.0659H0ZM185.888 90.0659V96.0661H202.085V90.0659H185.888ZM226.247 90.0659V96.0661H242.131V90.0659H226.247ZM266.293 90.0659V96.0661H282.535V90.0659H266.293ZM290.148 90.0659V96.0661H306.345V90.0659H290.148ZM314.181 90.0659V96.0661H330.379V90.0659H314.181ZM358.299 90.0659V96.0661H374.496V90.0659H358.299ZM383.361 90.0659C385.189 92.2065 387.453 93.8933 390.152 95.1264C393.642 96.6776 397.564 97.4531 401.919 97.4531C405.499 97.4531 408.616 96.9609 411.271 95.9766C413.956 94.9624 416.178 93.6349 417.938 91.9943C418.609 91.3683 419.223 90.7255 419.78 90.0659H383.361ZM422.636 90.0659V96.0661H438.207V90.0659H422.636ZM445.674 90.0659V96.0661H461.871V90.0659H445.674ZM0 90.0659V94.0659C0 95.1705 0.89543 96.0659 2 96.0659H38C45.551 96.0659 52.5877 93.8635 58.5026 90.0659H0ZM298.291 17.5845C295.726 17.5845 293.518 16.7344 291.669 15.0341C289.819 13.304 288.895 11.2308 288.895 8.81463C288.895 6.36861 289.819 4.29545 291.669 2.59517C293.518 0.865055 295.726 0 298.291 0C300.886 0 303.094 0.865055 304.913 2.59517C306.763 4.29545 307.687 6.36861 307.687 8.81463C307.687 11.2308 306.763 13.304 304.913 15.0341C303.094 16.7344 300.886 17.5845 298.291 17.5845Z" fill="white"/>
</svg>
