<svg width="349" height="61" viewBox="0 0 349 61" fill="none" xmlns="http://www.w3.org/2000/svg">
<path d="M20.5492 17.7982L20.5505 17.7996C20.6292 17.7987 20.708 17.7969 20.7869 17.7969C32.3974 17.7969 41.8096 27.2193 41.8096 38.8425C41.8096 50.4657 32.3974 59.8882 20.7869 59.8882C20.7081 59.8882 20.6294 59.8858 20.5508 59.8849L20.5492 59.8865L20.5476 59.8882H3.95233C2.68184 59.8881 1.53691 59.352 0.730101 58.4935C5.46725e-05 57.7167 0.0435637 56.5553 0.360618 55.537C1.97527 50.3514 2.84587 44.8373 2.84587 39.1194C2.84587 33.2436 1.92753 27.5824 0.226242 22.2722C-0.0714996 21.3429 -0.147289 20.2949 0.448351 19.5223C1.25734 18.4729 2.52568 17.7969 3.95233 17.7969H20.5478L20.5492 17.7982Z" fill="white"/>
<path d="M335.527 24.1419C336.901 21.9011 338.681 20.144 340.869 18.8708C343.107 17.5976 345.651 16.9609 348.5 16.9609V28.1908H345.676C342.319 28.1908 339.775 28.9802 338.045 30.559C336.367 32.1378 335.527 34.888 335.527 38.8095V59.8941H324.844V17.5721H335.527V24.1419Z" fill="white"/>
<path d="M273.434 38.5786C273.434 34.3005 274.273 30.5063 275.952 27.1959C277.681 23.8856 279.996 21.3391 282.896 19.5566C285.847 17.7741 289.128 16.8828 292.74 16.8828C295.894 16.8828 298.641 17.5194 300.981 18.7926C303.372 20.0659 305.28 21.6701 306.705 23.6054V17.5704H317.464V59.8924H306.705V53.7045C305.331 55.6908 303.423 57.346 300.981 58.6701C298.59 59.9433 295.818 60.5799 292.664 60.5799C289.103 60.5799 285.847 59.6632 282.896 57.8298C279.996 55.9963 277.681 53.4244 275.952 50.114C274.273 46.7527 273.434 42.9076 273.434 38.5786ZM306.705 38.7314C306.705 36.134 306.196 33.9186 305.178 32.0851C304.161 30.2008 302.787 28.7747 301.058 27.8071C299.328 26.7885 297.471 26.2792 295.487 26.2792C293.503 26.2792 291.672 26.763 289.993 27.7307C288.314 28.6984 286.94 30.1244 285.872 32.0087C284.855 33.8422 284.346 36.0321 284.346 38.5786C284.346 41.125 284.855 43.3659 285.872 45.3012C286.94 47.1856 288.314 48.6371 289.993 49.6557C291.723 50.6742 293.554 51.1835 295.487 51.1835C297.471 51.1835 299.328 50.6997 301.058 49.7321C302.787 48.7135 304.161 47.2875 305.178 45.454C306.196 43.5696 306.705 41.3288 306.705 38.7314Z" fill="white"/>
<path d="M252.208 16.9609C257.245 16.9609 261.315 18.5652 264.418 21.7737C267.521 24.9313 269.073 29.3622 269.073 35.0662V59.8941H258.389V36.5177C258.389 33.1564 257.55 30.5845 255.871 28.8019C254.192 26.9685 251.903 26.0518 249.003 26.0518C246.053 26.0518 243.713 26.9685 241.983 28.8019C240.304 30.5845 239.465 33.1564 239.465 36.5177V59.8941H228.781V17.5721H239.465V22.8432C240.889 21.0098 242.695 19.5838 244.883 18.5652C247.121 17.4957 249.563 16.9609 252.208 16.9609Z" fill="white"/>
<path d="M216.012 12.5277C214.13 12.5277 212.552 11.942 211.281 10.7707C210.06 9.54852 209.449 8.04622 209.449 6.26383C209.449 4.48144 210.06 3.0046 211.281 1.83332C212.552 0.611105 214.13 0 216.012 0C217.894 0 219.446 0.611105 220.667 1.83332C221.939 3.0046 222.575 4.48144 222.575 6.26383C222.575 8.04622 221.939 9.54852 220.667 10.7707C219.446 11.942 217.894 12.5277 216.012 12.5277ZM221.277 17.5693V59.8883H210.594V17.5693H221.277Z" fill="white"/>
<path d="M186.187 16.9609C191.376 16.9609 195.547 18.5652 198.702 21.7737C201.907 24.9313 203.509 29.3622 203.509 35.0662V59.8941H192.826V36.5177C192.826 33.2073 191.986 30.6863 190.307 28.9547C188.629 27.1722 186.339 26.281 183.44 26.281C180.54 26.281 178.225 27.1722 176.495 28.9547C174.817 30.6863 173.977 33.2073 173.977 36.5177V59.8941H163.294V36.5177C163.294 33.2073 162.454 30.6863 160.776 28.9547C159.097 27.1722 156.807 26.281 153.908 26.281C150.957 26.281 148.617 27.1722 146.887 28.9547C145.208 30.6863 144.369 33.2073 144.369 36.5177V59.8941H133.686V17.5721H144.369V22.6905C145.743 20.9079 147.498 19.5074 149.634 18.4888C151.822 17.4702 154.213 16.9609 156.807 16.9609C160.114 16.9609 163.065 17.6739 165.659 19.1C168.254 20.475 170.263 22.4613 171.688 25.0587C173.061 22.6141 175.046 20.6533 177.64 19.1763C180.285 17.6994 183.134 16.9609 186.187 16.9609Z" fill="white"/>
<path d="M82.2715 38.5786C82.2715 34.3005 83.1109 30.5063 84.7897 27.1959C86.5194 23.8856 88.8341 21.3391 91.7339 19.5566C94.6846 17.7741 97.9659 16.8828 101.578 16.8828C104.732 16.8828 107.479 17.5194 109.819 18.7926C112.21 20.0659 114.118 21.6701 115.543 23.6054V17.5704H126.302V59.8924H115.543V53.7045C114.169 55.6908 112.261 57.346 109.819 58.6701C107.428 59.9433 104.656 60.5799 101.502 60.5799C97.9404 60.5799 94.6846 59.6632 91.7339 57.8298C88.8341 55.9963 86.5194 53.4244 84.7897 50.114C83.1109 46.7527 82.2715 42.9076 82.2715 38.5786ZM115.543 38.7314C115.543 36.134 115.034 33.9186 114.016 32.0851C112.999 30.2008 111.625 28.7747 109.896 27.8071C108.166 26.7885 106.309 26.2792 104.325 26.2792C102.341 26.2792 100.51 26.763 98.8307 27.7307C97.1519 28.6984 95.7783 30.1244 94.71 32.0087C93.6925 33.8422 93.1838 36.0321 93.1838 38.5786C93.1838 41.125 93.6925 43.3659 94.71 45.3012C95.7783 47.1856 97.1519 48.6371 98.8307 49.6557C100.56 50.6742 102.392 51.1835 104.325 51.1835C106.309 51.1835 108.166 50.6997 109.896 49.7321C111.625 48.7135 112.999 47.2875 114.016 45.454C115.034 43.5696 115.543 41.3288 115.543 38.7314Z" fill="white"/>
<path d="M77.5174 3.36719V59.8944H66.834V3.36719H77.5174Z" fill="white"/>
</svg>
