<svg width="532" height="94" viewBox="0 0 532 94" fill="none" xmlns="http://www.w3.org/2000/svg">
<path fill-rule="evenodd" clip-rule="evenodd" d="M102.308 0.901855V91.9999H118.814V0.901855H102.308ZM142.637 89.1019C147.089 91.8739 152.087 93.2599 157.631 93.2599C161.999 93.2599 165.905 92.3779 169.349 90.6139C171.638 89.3853 173.612 87.8783 175.271 86.0929V91.9999H191.651V31.1419H175.271V36.9926C173.612 35.1888 171.638 33.7006 169.349 32.5279C165.905 30.7639 161.999 29.8819 157.631 29.8819C152.087 29.8819 147.089 31.2679 142.637 34.0399C138.185 36.8119 134.699 40.5919 132.179 45.3799C129.659 50.1679 128.399 55.5859 128.399 61.6339C128.399 67.5979 129.659 72.9739 132.179 77.7619C134.699 82.5499 138.185 86.3299 142.637 89.1019ZM171.869 73.4779C169.013 76.5019 165.275 78.0139 160.655 78.0139C157.631 78.0139 154.943 77.3419 152.591 75.9979C150.323 74.5699 148.517 72.6379 147.173 70.2019C145.913 67.6819 145.283 64.7839 145.283 61.5079C145.283 58.3159 145.913 55.5019 147.173 53.0659C148.517 50.5459 150.323 48.6139 152.591 47.2699C154.943 45.8419 157.631 45.1279 160.655 45.1279C163.763 45.1279 166.451 45.8419 168.719 47.2699C171.071 48.6139 172.877 50.5459 174.137 53.0659C175.481 55.5019 176.153 58.3159 176.153 61.5079C176.153 66.3799 174.725 70.3699 171.869 73.4779ZM204.993 31.1419V91.9999H221.499V56.0899C221.499 53.7379 222.003 51.7219 223.011 50.0419C224.019 48.3619 225.405 47.1019 227.169 46.2619C228.933 45.3379 230.907 44.8759 233.091 44.8759C236.367 44.8759 239.097 45.8839 241.281 47.8999C243.549 49.8319 244.683 52.5619 244.683 56.0899V91.9999H261.189V56.0899C261.189 53.7379 261.693 51.7219 262.701 50.0419C263.709 48.3619 265.095 47.1019 266.859 46.2619C268.707 45.3379 270.681 44.8759 272.781 44.8759C276.057 44.8759 278.787 45.8839 280.971 47.8999C283.239 49.8319 284.373 52.5619 284.373 56.0899V91.9999H300.879V53.4439C300.879 48.5719 299.829 44.3719 297.729 40.8439C295.629 37.3159 292.773 34.6279 289.161 32.7799C285.549 30.8479 281.475 29.8819 276.939 29.8819C272.403 29.8819 268.287 30.8899 264.591 32.9059C261.652 34.442 259.165 36.5091 257.129 39.1072C255.246 36.4377 252.861 34.3285 249.975 32.7799C246.531 30.8479 242.709 29.8819 238.509 29.8819C234.057 29.8819 230.067 30.8479 226.539 32.7799C224.656 33.7665 222.976 34.9805 221.499 36.422V31.1419H204.993ZM312.999 31.1419V91.9999H329.631V31.1419H312.999ZM314.637 18.6679C316.401 20.4319 318.627 21.3139 321.315 21.3139C324.087 21.3139 326.313 20.4319 327.993 18.6679C329.757 16.8199 330.639 14.5519 330.639 11.8639C330.639 9.25986 329.757 7.03386 327.993 5.18586C326.313 3.33786 324.087 2.41386 321.315 2.41386C318.627 2.41386 316.401 3.33786 314.637 5.18586C312.873 7.03386 311.991 9.25986 311.991 11.8639C311.991 14.5519 312.873 16.8199 314.637 18.6679ZM383.943 57.0979V91.9999H400.449V53.4439C400.449 49.3279 399.441 45.5059 397.425 41.9779C395.409 38.3659 392.637 35.4679 389.109 33.2839C385.581 31.0159 381.591 29.8819 377.139 29.8819C372.519 29.8819 368.361 30.8899 364.665 32.9059C362.725 33.9887 361.003 35.3018 359.499 36.8451V31.1419H342.993V91.9999H359.499V57.0979C359.499 54.6619 360.003 52.5199 361.011 50.6719C362.103 48.8239 363.573 47.3959 365.421 46.3879C367.269 45.3799 369.369 44.8759 371.721 44.8759C375.333 44.8759 378.273 46.0099 380.541 48.2779C382.809 50.5459 383.943 53.4859 383.943 57.0979ZM422.943 89.1019C427.395 91.8739 432.393 93.2599 437.937 93.2599C442.305 93.2599 446.211 92.3779 449.655 90.6139C451.944 89.3853 453.918 87.8784 455.577 86.093V91.9999H471.957V31.1419H455.577V36.9926C453.918 35.1888 451.944 33.7006 449.655 32.5279C446.211 30.7639 442.305 29.8819 437.937 29.8819C432.393 29.8819 427.395 31.2679 422.943 34.0399C418.491 36.8119 415.005 40.5919 412.485 45.3799C409.965 50.1679 408.705 55.5859 408.705 61.6339C408.705 67.5979 409.965 72.9739 412.485 77.7619C415.005 82.5499 418.491 86.3299 422.943 89.1019ZM452.175 73.4779C449.319 76.5019 445.581 78.0139 440.961 78.0139C437.937 78.0139 435.249 77.3419 432.897 75.9979C430.629 74.5699 428.823 72.6379 427.479 70.2019C426.219 67.6819 425.589 64.7839 425.589 61.5079C425.589 58.3159 426.219 55.5019 427.479 53.0659C428.823 50.5459 430.629 48.6139 432.897 47.2699C435.249 45.8419 437.937 45.1279 440.961 45.1279C444.069 45.1279 446.757 45.8419 449.025 47.2699C451.377 48.6139 453.183 50.5459 454.443 53.0659C455.787 55.5019 456.459 58.3159 456.459 61.5079C456.459 66.3799 455.031 70.3699 452.175 73.4779ZM485.299 31.1419V91.9999H501.805V58.3579C501.805 53.8219 502.897 50.4619 505.081 48.2779C507.349 46.0099 510.247 44.8759 513.775 44.8759C515.455 44.8759 516.925 45.1279 518.185 45.6319C519.529 46.1359 520.663 46.8919 521.587 47.8999L531.919 36.0559C529.987 33.8719 527.845 32.3179 525.493 31.3939C523.141 30.3859 520.495 29.8819 517.555 29.8819C510.751 29.8819 505.543 32.0659 501.931 36.4339C501.889 36.4839 501.847 36.5342 501.805 36.5847V31.1419H485.299ZM0.653968 84.1461C0.0802819 85.9866 0.00220402 88.0862 1.32507 89.4885C2.78376 91.0347 4.85185 91.9999 7.14535 91.9999H37.1454C58.1322 91.9999 75.1454 74.9867 75.1454 53.9999C75.1454 33.013 58.1322 15.9999 37.1454 15.9999H7.14535C4.56777 15.9999 2.27491 17.2189 0.811824 19.1119C-0.266346 20.5068 -0.129499 22.4002 0.408998 24.079C3.48464 33.6675 5.14534 43.8898 5.14534 54.4999C5.14534 64.8247 3.57273 74.7823 0.653968 84.1461Z" fill="white"/>
</svg>
