<svg width="90" height="90" viewBox="0 0 90 90" fill="none" xmlns="http://www.w3.org/2000/svg">
<path d="M44.716 63.5763C44.7371 65.0942 44.7581 66.2001 44.7792 66.7423C44.8002 66.8073 44.8002 66.8941 44.7792 66.9591C44.7792 67.0459 44.7792 67.1109 44.7792 67.1109C44.7792 67.4145 44.8212 67.7181 44.9053 68C44.9895 67.7181 45.0316 67.4145 45.0316 67.1109C45.0316 67.0025 45.0736 65.4195 45.1367 62.8823C45.1157 62.904 45.0947 62.9257 45.0947 62.9474C44.9474 63.1425 44.8212 63.3594 44.716 63.5763ZM40.3411 31.9161C40.6776 31.5474 40.9931 31.1137 41.2245 30.6584C41.0562 31.0487 40.4042 32.5233 41.0352 32.6534C41.7293 32.7835 42.5075 32.5666 43.9168 30.7234C43.8747 28.3597 43.8326 26.2997 43.8116 24.7383H43.0544C43.0123 24.7383 42.9913 24.7383 42.9492 24.7383C42.5286 24.7383 41.8345 24.695 41.3717 23.9794C40.8669 23.1987 40.8459 22.3964 40.8249 21.8109C40.8038 20.9651 40.5935 19.4255 39.5628 18.5581C38.8477 17.9726 36.9126 17.5172 35.1248 18.2545C34.5358 18.493 33.358 19.1219 32.2011 19.7074C31.1495 20.2495 29.8033 20.9218 29.3827 20.9218C30.0768 20.5965 31.0022 20.1194 32.0118 19.5339C33.1687 18.8834 34.3886 18.1895 34.9986 17.9292C36.2185 17.4305 38.5532 17.2787 39.7521 18.2762C40.888 19.2303 41.1193 20.8784 41.1404 21.7675C41.1614 22.353 41.1824 23.0686 41.6241 23.7842C42.0238 24.3914 42.6548 24.3914 43.0334 24.3914H43.7906C43.7906 24.1962 43.7906 24.0227 43.7906 23.8276C43.1175 23.8709 42.15 23.9143 41.7293 22.9818C41.2245 21.8542 41.7714 18.9701 40.0887 17.7558C38.406 16.5414 35.7137 16.845 33.3159 18.2762C30.9391 19.6857 27.7841 21.5289 23.8929 23.1336C20.0017 24.7383 17.5829 25.3889 17.1201 25.4539C16.6784 25.5407 17.4777 25.8443 19.1394 25.8876C20.801 25.931 22.1892 25.8009 22.1892 25.8009L34.3886 20.0761C34.3886 20.0761 23.8719 25.4756 22.9885 26.0611C22.1051 26.6466 21.3899 26.8418 21.453 27.3839C21.5161 27.926 22.1892 27.861 24.0401 27.8176C25.8911 27.7742 26.2907 27.6008 26.9217 27.4056C27.5527 27.2104 34.3886 23.9577 34.3886 23.9577C34.3886 23.9577 27.069 27.7092 26.0173 28.5766C24.9656 29.444 26.1014 29.7259 26.8166 29.7476C27.5527 29.7693 29.5088 29.6608 30.6026 29.097C31.6963 28.5332 35.1038 26.278 35.1038 26.278C35.1038 26.278 31.7384 28.7718 31.0864 29.3356C30.5605 29.791 30.2871 30.1813 30.4133 30.6584C30.6026 31.2655 31.6122 31.2005 32.9583 30.7017C32.9583 30.7017 34.3465 30.203 34.8724 29.7259C35.3982 29.2271 36.8706 27.8827 36.8706 27.8827C36.8706 27.8827 35.1248 29.7476 34.6831 30.5499C34.2624 31.3523 34.1783 31.5474 34.3886 32.0028C34.6831 32.6534 36.9126 31.9811 37.5436 31.2872C38.0064 30.7451 38.4481 30.1813 38.8477 29.5741C38.8477 29.5741 38.1746 30.7017 38.0274 31.3523C37.8802 32.0028 37.7119 32.5233 38.3219 32.5883C38.9949 32.6967 39.6259 32.7184 40.3411 31.9161ZM44.5057 46.6836C44.5688 46.6402 44.6319 46.5969 44.695 46.5535C44.8212 46.4667 44.9264 46.4017 45.0105 46.315C45.1788 46.2065 45.3471 46.0764 45.5153 45.968C45.5364 44.7319 45.5784 43.4742 45.5995 42.2382C45.2629 42.0864 44.9054 41.9346 44.5267 41.7828C44.5057 41.7828 44.4847 41.7611 44.4636 41.7611C44.4216 41.7394 44.4005 41.7394 44.3585 41.7177C44.1061 41.631 43.8747 41.5226 43.6013 41.4358C43.2858 41.3057 42.9703 41.1973 42.6548 41.0672C40.5514 42.2165 40.1308 42.7586 40.1308 43.8212C40.1308 45.3174 41.3717 45.9897 43.5171 47.3992C43.8537 47.139 44.1902 46.9005 44.5057 46.6836ZM41.9186 44.0163C41.9186 44.0163 41.7714 43.0622 44.1481 41.9563C44.2112 41.9346 44.2743 41.8912 44.3374 41.8695C44.3585 43.3658 44.3795 44.8621 44.4216 46.3583C43.2437 45.5343 41.9186 44.7536 41.9186 44.0163ZM45.5153 62.4269C45.4102 62.5571 45.305 62.6872 45.1998 62.7956C45.8098 63.6413 45.7677 64.4653 45.4312 65.5279C45.7467 65.1593 46.3777 64.2268 45.8519 63.0124C45.7467 62.8173 45.6415 62.6221 45.5153 62.4269ZM44.5478 53.5361C44.7791 53.7746 45.0526 54.0565 45.326 54.3384C45.4943 54.5119 45.6626 54.6854 45.8519 54.8805C45.8729 54.9022 45.915 54.9239 45.957 54.9673C47.3873 53.6879 48.6914 52.4735 48.6914 50.9556C48.6914 49.7629 47.5766 48.6786 46.4618 47.8112C46.3567 47.8763 46.2515 47.9413 46.1463 48.0281C45.8939 48.2016 45.6626 48.3533 45.4522 48.5051C45.4522 48.5051 45.4312 48.5051 45.4312 48.5268C45.3891 48.5702 45.326 48.5919 45.284 48.6353C44.9895 48.8521 44.7161 49.0473 44.4636 49.2424C44.5057 50.6953 44.5267 52.1482 44.5478 53.5361ZM45.4522 48.7437C46.8404 49.7846 47.3873 50.4568 47.3873 51.1941C47.3873 51.9531 46.6091 52.8422 45.3471 54.1433C45.3681 52.4085 45.4102 50.6086 45.4522 48.7437ZM53.1294 27.9044C53.1294 27.9044 54.6018 29.2488 55.1276 29.7476C55.6535 30.2463 57.0417 30.7234 57.0417 30.7234C58.3878 31.2222 59.3974 31.2872 59.5867 30.68C59.7339 30.203 59.4395 29.7909 58.9136 29.3572C58.2616 28.7934 54.8962 26.2997 54.8962 26.2997C54.8962 26.2997 58.3037 28.5549 59.3974 29.1187C60.4911 29.6825 62.4473 29.791 63.1834 29.7693C63.9196 29.7476 65.0344 29.4657 63.9827 28.5983C62.931 27.7309 55.6114 23.9794 55.6114 23.9794C55.6114 23.9794 62.4262 27.2538 63.0783 27.4273C63.7093 27.6224 64.1089 27.7742 65.9599 27.8393C67.8108 27.8827 68.4628 27.9477 68.547 27.4056C68.6311 26.8852 67.8949 26.69 67.0115 26.0828C66.1281 25.4973 55.6114 20.0977 55.6114 20.0977L67.8108 25.8226C67.8108 25.8226 69.199 25.9527 70.8606 25.9093C72.5223 25.866 73.3216 25.5624 72.8799 25.4756C72.4382 25.3889 69.9983 24.76 66.1071 23.1553C62.2159 21.5506 59.0609 19.7291 56.6841 18.2979C54.3073 16.8883 51.594 16.5631 49.9113 17.7774C48.2286 18.9918 48.7755 21.8542 48.2707 23.0035C47.85 23.936 46.8825 23.8926 46.2094 23.8492C46.2094 24.0227 46.2094 24.2179 46.1884 24.4131H46.9666C47.3452 24.4131 47.9762 24.4131 48.3759 23.8059C48.8176 23.112 48.8386 22.3747 48.8596 21.7892C48.8807 20.9001 49.112 19.252 50.2479 18.2979C51.4468 17.3004 53.7815 17.4522 55.0014 17.9509C55.6114 18.1895 56.8313 18.8834 57.9882 19.5556C58.9978 20.1411 59.9232 20.6182 60.6174 20.9435C60.1757 20.9435 58.8505 20.2712 57.7989 19.7291C56.6631 19.1219 55.4852 18.5147 54.8752 18.2762C53.0874 17.5389 51.1523 17.9943 50.4372 18.5798C49.3855 19.4472 49.1962 20.9868 49.1751 21.8325C49.1541 22.418 49.1331 23.2421 48.6283 24.001C48.1866 24.7166 47.4925 24.76 47.0508 24.76C47.0087 24.76 46.9877 24.76 46.9456 24.76H46.1884C46.1463 26.3213 46.1043 28.3597 46.0622 30.68C47.4925 32.5666 48.3128 32.8052 48.9858 32.6534C49.6168 32.5233 48.9858 31.0487 48.7965 30.6584C49.0489 31.1137 49.3434 31.5258 49.6799 31.9161C50.3741 32.7184 51.0261 32.6967 51.6571 32.61C52.2881 32.5233 52.0988 32.0245 51.9516 31.374C51.8043 30.7234 51.1313 29.5958 51.1313 29.5958C51.5309 30.1813 51.9726 30.7668 52.4353 31.3089C53.0663 32.0028 55.2959 32.6967 55.5904 32.0245C55.7797 31.5908 55.7166 31.374 55.2959 30.5716C54.8962 29.7693 53.1294 27.9044 53.1294 27.9044ZM45.0316 21.2687C45.3681 21.2687 45.7046 21.1603 45.9781 20.9651C46.2515 20.77 46.4829 20.4881 46.6091 20.1845C46.7353 19.8592 46.7773 19.5122 46.7142 19.1653C46.6511 18.8183 46.4829 18.5147 46.2515 18.2545C46.0201 18.016 45.7046 17.8425 45.3681 17.7774C45.0316 17.7124 44.695 17.7341 44.3795 17.8859C44.064 18.016 43.7906 18.2545 43.6223 18.5364C43.433 18.8183 43.3278 19.1653 43.3278 19.5122C43.3278 19.7508 43.3699 19.9676 43.454 20.1845C43.5382 20.4013 43.6644 20.5965 43.8326 20.7483C44.0009 20.9218 44.1692 21.0519 44.3795 21.1386C44.5688 21.2254 44.8002 21.2687 45.0316 21.2687ZM50.6265 34.4532C50.6265 34.4532 50.5844 33.2389 48.6703 33.1088C46.7142 32.9787 46.6301 33.8461 46.6722 34.1713C46.8194 34.1713 46.9456 34.2147 46.9456 34.2581C46.9456 34.3014 46.8404 34.3448 46.7142 34.3448C46.8194 34.6701 47.1139 35.0604 47.9552 35.4941C48.6493 35.8411 48.9858 35.8194 49.3855 35.7543C49.3855 35.7543 49.8482 36.0362 49.8482 36.4916C49.8482 36.9253 49.112 37.771 45.6626 39.5492C45.8729 29.9644 46.0622 21.5506 46.0622 21.5506H46.2725C46.3567 21.5506 46.4408 21.5073 46.5039 21.4422C46.567 21.3772 46.6091 21.2904 46.6091 21.2037V21.0952C46.6091 21.0519 46.6091 21.0085 46.588 20.9651C46.567 20.9218 46.546 20.8784 46.5039 20.8567C46.3146 21.0736 46.1043 21.247 45.8519 21.3772C45.5995 21.5073 45.326 21.5506 45.0526 21.5506C44.7792 21.5506 44.5057 21.4856 44.2533 21.3772C44.0009 21.2687 43.7695 21.0736 43.6013 20.8567C43.5592 20.9001 43.5382 20.9218 43.5171 20.9651C43.4961 21.0085 43.4961 21.0519 43.4961 21.0952V21.2037C43.4961 21.2904 43.5382 21.3772 43.6013 21.4422C43.6644 21.5073 43.7485 21.5506 43.8326 21.5506H44.043C44.043 21.5506 44.1902 29.7259 44.3374 39.1372C44.6319 39.289 44.9264 39.4408 45.2629 39.6143C45.305 39.636 45.3681 39.6576 45.4102 39.6793C46.1884 40.0697 46.8404 40.3949 47.3873 40.6985C49.2382 39.9612 51.0471 39.1155 51.594 37.9228C52.5615 35.711 50.6265 34.4532 50.6265 34.4532ZM48.0604 33.9545C47.85 33.9545 47.6818 33.8461 47.6818 33.7159C47.6818 33.5858 47.85 33.4774 48.0604 33.4774C48.2707 33.4774 48.439 33.5858 48.439 33.7159C48.439 33.8461 48.2707 33.9545 48.0604 33.9545ZM44.716 61.4077C44.8843 61.1909 45.0316 60.974 45.1998 60.7789C45.2209 59.5428 45.2629 58.155 45.284 56.6587C45.0736 56.4419 44.8422 56.225 44.5898 55.9865C44.5057 55.9214 44.4426 55.8347 44.3585 55.7696C44.2533 55.6612 44.1481 55.5745 44.043 55.4877C43.454 56.0515 42.2972 57.3093 42.2972 58.3935C42.2972 59.6729 43.4961 60.974 44.4005 61.9065C44.4847 61.7113 44.5898 61.5595 44.716 61.4077ZM44.5898 56.2467C44.6319 58.0899 44.653 59.7814 44.674 61.2343C43.9799 60.2801 43.2437 59.3043 43.2437 58.6321C43.2437 58.0032 43.6013 57.2876 44.5898 56.2467ZM45.0736 39.8962C40.9721 37.8578 40.1308 36.9253 40.1308 36.4699C40.1308 36.0146 40.5935 35.7327 40.5935 35.7327C40.9931 35.8194 41.3297 35.8194 42.0238 35.4724C42.8651 35.0604 43.1596 34.6484 43.2647 34.3231C43.1385 34.3231 43.0334 34.2798 43.0334 34.2364C43.0334 34.193 43.1596 34.1496 43.3068 34.1496V34.128C43.3278 33.8027 43.2227 32.957 41.2876 33.0871C39.3735 33.2172 39.3315 34.4316 39.3315 34.4316C39.3315 34.4316 37.3964 35.711 38.406 37.8795C39.2894 39.8094 43.433 40.8286 45.8308 41.9346C48.2076 43.0405 48.0604 43.9947 48.0604 43.9947C48.0604 44.8187 46.4618 45.6861 45.1998 46.5969C43.9378 47.5076 41.2666 49.0906 41.2666 50.9556C41.2666 52.6687 42.9282 53.9915 44.5478 55.466C46.1884 56.9406 46.7142 57.8297 46.7142 58.6537C46.7142 59.7814 44.9054 61.2993 43.9799 63.1859C43.0544 65.0725 44.8843 68 44.3164 66.4604C43.7275 64.9207 44.043 63.8365 44.8002 62.7522C45.7257 61.4294 47.7028 60.1283 47.7028 58.3718C47.7028 56.8973 45.6205 55.1625 45.6205 55.1625C43.7695 53.2542 42.5917 52.1699 42.5917 51.2158C42.5917 50.2616 43.4751 49.4159 45.957 47.7462C48.4179 46.0981 49.8692 45.4476 49.8692 43.8429C49.8692 42.4333 49.1751 41.9346 45.0736 39.8962ZM41.9186 33.4991C42.1289 33.4991 42.2972 33.6075 42.2972 33.7376C42.2972 33.8677 42.1289 33.9762 41.9186 33.9762C41.7083 33.9762 41.54 33.8677 41.54 33.7376C41.54 33.6075 41.7083 33.4991 41.9186 33.4991Z" fill="url(#paint0_linear_1715_2654)"/>
<path d="M71.6024 64.6944V59.0852H69.4062V58.2891H74.7044V59.0852H72.5083V64.6944H71.6024Z" fill="#92949C"/>
<path d="M62.9062 64.6944V58.2891H63.6566L67.8933 63.5506H67.4998V58.2891H68.4148V64.6944H67.6645L63.4278 59.4329H63.8213V64.6944H62.9062Z" fill="#92949C"/>
<path d="M55.2344 64.6944L58.1351 58.2891H59.041L61.9508 64.6944H60.99L58.4004 58.8015H58.7665L56.1769 64.6944H55.2344ZM56.4697 63.0931L56.7168 62.361H60.322L60.5874 63.0931H56.4697Z" fill="#92949C"/>
<path d="M53.375 64.6944V58.2891H54.29V64.6944H53.375Z" fill="#92949C"/>
<path d="M47.9375 64.6944V58.2891H48.8525V63.8983H52.3206V64.6944H47.9375Z" fill="#92949C"/>
<path d="M41.4219 64.6944V58.2891H43.92C44.4812 58.2891 44.9601 58.3775 45.3566 58.5544C45.7531 58.7313 46.0581 58.9875 46.2716 59.3231C46.4851 59.6586 46.5919 60.0582 46.5919 60.5218C46.5919 60.9854 46.4851 61.385 46.2716 61.7205C46.0581 62.0499 45.7531 62.3061 45.3566 62.4891C44.9601 62.666 44.4812 62.7545 43.92 62.7545H41.9252L42.3369 62.3244V64.6944H41.4219ZM42.3369 62.4159L41.9252 61.9584H43.8925C44.4781 61.9584 44.9204 61.8334 45.2193 61.5832C45.5243 61.3331 45.6769 60.9793 45.6769 60.5218C45.6769 60.0643 45.5243 59.7104 45.2193 59.4603C44.9204 59.2102 44.4781 59.0852 43.8925 59.0852H41.9252L42.3369 58.6276V62.4159Z" fill="#92949C"/>
<path d="M32.6797 64.6944V58.2891H33.43L36.3033 63.1297H35.9007L38.7373 58.2891H39.4876L39.4968 64.6944H38.6184L38.6092 59.6708H38.8197L36.2941 63.9166H35.8732L33.3294 59.6708H33.5581V64.6944H32.6797Z" fill="#92949C"/>
<path d="M27.8936 64.7705C27.4056 64.7705 26.9511 64.6881 26.5302 64.5234C26.1154 64.3587 25.7554 64.13 25.4504 63.8371C25.1454 63.5382 24.9075 63.1905 24.7367 62.794C24.5659 62.3975 24.4805 61.9643 24.4805 61.4946C24.4805 61.0249 24.5659 60.5918 24.7367 60.1953C24.9075 59.7987 25.1454 59.4541 25.4504 59.1612C25.7554 58.8623 26.1154 58.6305 26.5302 58.4658C26.945 58.3011 27.3995 58.2188 27.8936 58.2188C28.3816 58.2188 28.83 58.3011 29.2387 58.4658C29.6535 58.6244 30.0135 58.8532 30.3185 59.1521C30.6296 59.4449 30.8675 59.7896 31.0322 60.1861C31.203 60.5826 31.2884 61.0188 31.2884 61.4946C31.2884 61.9704 31.203 62.4066 31.0322 62.8031C30.8675 63.1997 30.6296 63.5474 30.3185 63.8463C30.0135 64.1391 29.6535 64.3679 29.2387 64.5326C28.83 64.6912 28.3816 64.7705 27.8936 64.7705ZM27.8936 63.9561C28.2474 63.9561 28.5738 63.8951 28.8727 63.7731C29.1777 63.6511 29.44 63.4803 29.6596 63.2607C29.8854 63.035 30.0592 62.7726 30.1812 62.4737C30.3093 62.1748 30.3734 61.8484 30.3734 61.4946C30.3734 61.1408 30.3093 60.8144 30.1812 60.5155C30.0592 60.2166 29.8854 59.9573 29.6596 59.7377C29.44 59.512 29.1777 59.3382 28.8727 59.2162C28.5738 59.0941 28.2474 59.0331 27.8936 59.0331C27.5337 59.0331 27.2012 59.0941 26.8962 59.2162C26.5973 59.3382 26.335 59.512 26.1093 59.7377C25.8835 59.9573 25.7066 60.2166 25.5785 60.5155C25.4565 60.8144 25.3955 61.1408 25.3955 61.4946C25.3955 61.8484 25.4565 62.1748 25.5785 62.4737C25.7066 62.7726 25.8835 63.035 26.1093 63.2607C26.335 63.4803 26.5973 63.6511 26.8962 63.7731C27.2012 63.8951 27.5337 63.9561 27.8936 63.9561Z" fill="#92949C"/>
<path d="M21.3857 64.7705C20.8977 64.7705 20.4462 64.6912 20.0314 64.5326C19.6227 64.3679 19.2658 64.1391 18.9608 63.8463C18.6619 63.5474 18.427 63.1997 18.2562 62.8031C18.0854 62.4066 18 61.9704 18 61.4946C18 61.0188 18.0854 60.5826 18.2562 60.1861C18.427 59.7896 18.6649 59.4449 18.97 59.1521C19.275 58.8532 19.6318 58.6244 20.0406 58.4658C20.4554 58.3011 20.9068 58.2188 21.3948 58.2188C21.889 58.2188 22.3434 58.3042 22.7583 58.475C23.1792 58.6397 23.536 58.8867 23.8289 59.2162L23.2341 59.7926C22.9901 59.5364 22.7155 59.3473 22.4105 59.2253C22.1055 59.0972 21.7791 59.0331 21.4314 59.0331C21.0715 59.0331 20.736 59.0941 20.4249 59.2162C20.1199 59.3382 19.8545 59.509 19.6288 59.7286C19.4031 59.9482 19.2262 60.2105 19.0981 60.5155C18.9761 60.8144 18.915 61.1408 18.915 61.4946C18.915 61.8484 18.9761 62.1779 19.0981 62.4829C19.2262 62.7818 19.4031 63.0411 19.6288 63.2607C19.8545 63.4803 20.1199 63.6511 20.4249 63.7731C20.736 63.8951 21.0715 63.9561 21.4314 63.9561C21.7791 63.9561 22.1055 63.8951 22.4105 63.7731C22.7155 63.645 22.9901 63.4498 23.2341 63.1875L23.8289 63.7639C23.536 64.0934 23.1792 64.3435 22.7583 64.5143C22.3434 64.6851 21.8859 64.7705 21.3857 64.7705Z" fill="#92949C"/>
<path d="M40.8203 54.4053L43.721 48H44.6269L47.5368 54.4053H46.576L43.9864 48.5124H44.3524L41.7628 54.4053H40.8203ZM42.0556 52.804L42.3027 52.072H45.908L46.1733 52.804H42.0556Z" fill="#92949C"/>
<path d="M34.0039 54.4053L36.9046 48H37.8105L40.7204 54.4053H39.7596L37.17 48.5124H37.536L34.9464 54.4053H34.0039ZM35.2392 52.804L35.4863 52.072H39.0916L39.3569 52.804H35.2392Z" fill="#92949C"/>
<path d="M28.7773 54.4053V48H31.2754C31.8367 48 32.3155 48.0885 32.7121 48.2654C33.1086 48.4423 33.4136 48.6985 33.6271 49.034C33.8406 49.3695 33.9474 49.7691 33.9474 50.2327C33.9474 50.6963 33.8406 51.0959 33.6271 51.4314C33.4136 51.7608 33.1086 52.0171 32.7121 52.2001C32.3155 52.377 31.8367 52.4654 31.2754 52.4654H29.2806L29.6924 52.0354V54.4053H28.7773ZM29.6924 52.1269L29.2806 51.6693H31.248C31.8336 51.6693 32.2759 51.5443 32.5748 51.2942C32.8798 51.0441 33.0323 50.6902 33.0323 50.2327C33.0323 49.7752 32.8798 49.4214 32.5748 49.1713C32.2759 48.9211 31.8336 48.7961 31.248 48.7961H29.2806L29.6924 48.3386V52.1269Z" fill="#92949C"/>
<path d="M25.9453 54.4053V48H26.8604V54.4053H25.9453Z" fill="#92949C"/>
<path d="M23.1131 48H24.0281V54.4053H23.1131V48ZM19.4346 54.4053H18.5195V48H19.4346V54.4053ZM23.1954 51.5504H19.3431V50.7543H23.1954V51.5504Z" fill="#92949C"/>
<circle cx="45" cy="45" r="44.5" stroke="#434447"/>
<defs>
<linearGradient id="paint0_linear_1715_2654" x1="45" y1="17" x2="45" y2="59" gradientUnits="userSpaceOnUse">
<stop stop-color="#92949C"/>
<stop offset="1" stop-color="#92949C" stop-opacity="0"/>
</linearGradient>
</defs>
</svg>
