<svg width="90" height="90" viewBox="0 0 90 90" fill="none" xmlns="http://www.w3.org/2000/svg">
<path d="M22.2881 40.6406L26.8805 30.3151H27.9281L32.5204 40.6406H31.4011L27.1818 30.9494H27.6124L23.3932 40.6406H22.2881ZM24.0964 37.8822L24.4121 36.9972H30.253L30.5687 37.8822H24.0964Z" fill="#92949C"/>
<path d="M34.1822 40.6406V30.3151H35.2442V40.6406H34.1822Z" fill="#92949C"/>
<path d="M42.8755 40.7291C42.1197 40.7291 41.4213 40.6013 40.7803 40.3456C40.1393 40.0801 39.5843 39.7113 39.1155 39.2393C38.6467 38.7673 38.2784 38.2116 38.0105 37.5724C37.7522 36.9332 37.623 36.235 37.623 35.4778C37.623 34.7206 37.7522 34.0224 38.0105 33.3832C38.2784 32.744 38.6467 32.1884 39.1155 31.7164C39.5939 31.2444 40.1536 30.8805 40.7946 30.6248C41.4356 30.3593 42.1341 30.2266 42.8899 30.2266C43.617 30.2266 44.3011 30.3544 44.9421 30.6101C45.5831 30.8559 46.1236 31.2296 46.5637 31.7311L45.8892 32.4244C45.4779 31.9917 45.0234 31.682 44.5259 31.4951C44.0284 31.2985 43.4926 31.2001 42.9186 31.2001C42.3158 31.2001 41.7561 31.3083 41.2395 31.5246C40.7229 31.7311 40.2732 32.0311 39.8905 32.4244C39.5078 32.8079 39.2064 33.2603 38.9864 33.7815C38.7759 34.2929 38.6707 34.8583 38.6707 35.4778C38.6707 36.0974 38.7759 36.6677 38.9864 37.1889C39.2064 37.7003 39.5078 38.1526 39.8905 38.546C40.2732 38.9295 40.7229 39.2294 41.2395 39.4458C41.7561 39.6523 42.3158 39.7556 42.9186 39.7556C43.4926 39.7556 44.0284 39.6572 44.5259 39.4605C45.0234 39.2639 45.4779 38.9492 45.8892 38.5165L46.5637 39.2098C46.1236 39.7113 45.5831 40.0899 44.9421 40.3456C44.3011 40.6013 43.6122 40.7291 42.8755 40.7291Z" fill="#92949C"/>
<path d="M48.8276 40.6406V30.3151H52.5876C53.4391 30.3151 54.171 30.4577 54.7833 30.7428C55.3956 31.0182 55.8644 31.4214 56.1897 31.9524C56.5246 32.4736 56.692 33.1079 56.692 33.8553C56.692 34.583 56.5246 35.2123 56.1897 35.7433C55.8644 36.2645 55.3956 36.6677 54.7833 36.9529C54.171 37.2381 53.4391 37.3807 52.5876 37.3807H49.416L49.8896 36.8644V40.6406H48.8276ZM49.8896 36.9529L49.416 36.4219H52.5589C53.5635 36.4219 54.3241 36.2006 54.8407 35.7581C55.3669 35.3057 55.63 34.6715 55.63 33.8553C55.63 33.0292 55.3669 32.39 54.8407 31.9377C54.3241 31.4853 53.5635 31.2591 52.5589 31.2591H49.416L49.8896 30.7428V36.9529Z" fill="#92949C"/>
<path d="M56.8765 40.6406L61.4688 30.3151H62.5164L67.1088 40.6406H65.9894L61.7702 30.9494H62.2007L57.9815 40.6406H56.8765ZM58.6847 37.8822L59.0004 36.9972H64.8413L65.157 37.8822H58.6847Z" fill="#92949C"/>
<path d="M25.5654 59.2266C24.6087 59.2266 23.6938 59.0791 22.8208 58.784C21.9478 58.4767 21.2601 58.0834 20.7578 57.604L21.4215 56.1658C21.8999 56.596 22.5098 56.9525 23.2513 57.2352C23.9928 57.5179 24.7642 57.6593 25.5654 57.6593C26.2949 57.6593 26.8869 57.5732 27.3414 57.4012C27.7958 57.2291 28.1307 56.9955 28.3459 56.7005C28.5612 56.3932 28.6688 56.049 28.6688 55.6679C28.6688 55.2254 28.5253 54.8689 28.2383 54.5985C27.9632 54.3281 27.5985 54.113 27.144 53.9532C26.7015 53.7811 26.2112 53.6336 25.6731 53.5106C25.1349 53.3877 24.5907 53.2464 24.0406 53.0866C23.5025 52.9145 23.0061 52.6993 22.5517 52.4412C22.1092 52.1831 21.7504 51.8389 21.4754 51.4087C21.2003 50.9661 21.0628 50.4007 21.0628 49.7123C21.0628 49.0485 21.2302 48.4401 21.5651 47.8869C21.9119 47.3215 22.4381 46.8728 23.1437 46.5409C23.8612 46.1967 24.7701 46.0246 25.8704 46.0246C26.5999 46.0246 27.3234 46.123 28.041 46.3196C28.7585 46.5163 29.3804 46.799 29.9066 47.1678L29.3146 48.6429C28.7765 48.2741 28.2084 48.0098 27.6105 47.85C27.0125 47.6779 26.4325 47.5919 25.8704 47.5919C25.1648 47.5919 24.5848 47.6841 24.1303 47.8685C23.6759 48.0529 23.341 48.2987 23.1257 48.606C22.9224 48.9133 22.8208 49.2575 22.8208 49.6386C22.8208 50.0934 22.9583 50.456 23.2334 50.7264C23.5204 50.9969 23.8852 51.212 24.3276 51.3718C24.7821 51.5316 25.2784 51.6791 25.8166 51.8143C26.3547 51.9372 26.8929 52.0786 27.4311 52.2384C27.9812 52.3982 28.4775 52.6072 28.92 52.8653C29.3744 53.1234 29.7392 53.4676 30.0143 53.8978C30.2893 54.3281 30.4269 54.8812 30.4269 55.5573C30.4269 56.2088 30.2534 56.8173 29.9066 57.3827C29.5598 57.9359 29.0216 58.3845 28.2921 58.7287C27.5746 59.0606 26.6657 59.2266 25.5654 59.2266Z" fill="#92949C"/>
<path d="M38.7163 59.2266C37.7595 59.2266 36.8686 59.0606 36.0434 58.7287C35.2302 58.3968 34.5246 57.9359 33.9266 57.3458C33.3286 56.7435 32.8622 56.0429 32.5274 55.2439C32.1925 54.4449 32.0251 53.5721 32.0251 52.6256C32.0251 51.6791 32.1925 50.8063 32.5274 50.0073C32.8622 49.2083 33.3286 48.5138 33.9266 47.9238C34.5246 47.3215 35.2302 46.8544 36.0434 46.5225C36.8566 46.1906 37.7476 46.0246 38.7163 46.0246C39.673 46.0246 40.552 46.1906 41.3533 46.5225C42.1665 46.8421 42.8721 47.303 43.4701 47.9054C44.08 48.4954 44.5464 49.1899 44.8693 49.9889C45.2042 50.7879 45.3716 51.6668 45.3716 52.6256C45.3716 53.5844 45.2042 54.4633 44.8693 55.2623C44.5464 56.0613 44.08 56.762 43.4701 57.3643C42.8721 57.9543 42.1665 58.4153 41.3533 58.7472C40.552 59.0668 39.673 59.2266 38.7163 59.2266ZM38.7163 57.5855C39.4099 57.5855 40.0497 57.4626 40.6357 57.2168C41.2337 56.9709 41.7479 56.6267 42.1785 56.1842C42.621 55.7294 42.9618 55.2008 43.201 54.5985C43.4521 53.9962 43.5777 53.3385 43.5777 52.6256C43.5777 51.9126 43.4521 51.255 43.201 50.6527C42.9618 50.0504 42.621 49.5279 42.1785 49.0854C41.7479 48.6306 41.2337 48.2803 40.6357 48.0344C40.0497 47.7886 39.4099 47.6657 38.7163 47.6657C38.0107 47.6657 37.3589 47.7886 36.7609 48.0344C36.1749 48.2803 35.6607 48.6306 35.2182 49.0854C34.7757 49.5279 34.4289 50.0504 34.1777 50.6527C33.9386 51.255 33.819 51.9126 33.819 52.6256C33.819 53.3385 33.9386 53.9962 34.1777 54.5985C34.4289 55.2008 34.7757 55.7294 35.2182 56.1842C35.6607 56.6267 36.1749 56.9709 36.7609 57.2168C37.3589 57.4626 38.0107 57.5855 38.7163 57.5855Z" fill="#92949C"/>
<path d="M53.7283 59.2266C52.7715 59.2266 51.8866 59.0668 51.0733 58.7472C50.2721 58.4153 49.5725 57.9543 48.9745 57.3643C48.3885 56.762 47.9281 56.0613 47.5932 55.2623C47.2583 54.4633 47.0909 53.5844 47.0909 52.6256C47.0909 51.6668 47.2583 50.7879 47.5932 49.9889C47.9281 49.1899 48.3945 48.4954 48.9924 47.9054C49.5904 47.303 50.29 46.8421 51.0913 46.5225C51.9045 46.1906 52.7895 46.0246 53.7462 46.0246C54.7149 46.0246 55.6059 46.1967 56.4191 46.5409C57.2443 46.8728 57.9439 47.3706 58.518 48.0344L57.3519 49.196C56.8736 48.6798 56.3354 48.2987 55.7374 48.0529C55.1395 47.7947 54.4997 47.6657 53.818 47.6657C53.1124 47.6657 52.4546 47.7886 51.8447 48.0344C51.2467 48.2803 50.7265 48.6244 50.284 49.067C49.8415 49.5095 49.4947 50.0381 49.2436 50.6527C49.0044 51.255 48.8848 51.9126 48.8848 52.6256C48.8848 53.3385 49.0044 54.0023 49.2436 54.6169C49.4947 55.2193 49.8415 55.7417 50.284 56.1842C50.7265 56.6267 51.2467 56.9709 51.8447 57.2168C52.4546 57.4626 53.1124 57.5855 53.818 57.5855C54.4997 57.5855 55.1395 57.4626 55.7374 57.2168C56.3354 56.9586 56.8736 56.5653 57.3519 56.0367L58.518 57.1983C57.9439 57.8621 57.2443 58.3661 56.4191 58.7103C55.6059 59.0545 54.7089 59.2266 53.7283 59.2266Z" fill="#92949C"/>
<path d="M59.7346 59.0791V57.8252L64.8471 52.7547C65.3016 52.3121 65.6365 51.9249 65.8517 51.593C66.0789 51.2489 66.2284 50.9354 66.3002 50.6527C66.3839 50.3577 66.4258 50.0749 66.4258 49.8045C66.4258 49.1407 66.1985 48.6183 65.7441 48.2372C65.2896 47.8562 64.6259 47.6657 63.7529 47.6657C63.0832 47.6657 62.4792 47.7824 61.9411 48.016C61.4029 48.2372 60.9365 48.5876 60.5418 49.067L59.322 47.9791C59.8004 47.3522 60.4402 46.8728 61.2414 46.5409C62.0547 46.1967 62.9456 46.0246 63.9143 46.0246C64.7874 46.0246 65.5468 46.1721 66.1926 46.4672C66.8384 46.7499 67.3347 47.1617 67.6815 47.7025C68.0403 48.2434 68.2197 48.8826 68.2197 49.6201C68.2197 50.0381 68.1658 50.4499 68.0582 50.8555C67.9506 51.2611 67.7473 51.6914 67.4483 52.1462C67.1493 52.601 66.7188 53.1111 66.1567 53.6766L61.6002 58.194L61.1697 57.4749H68.7578V59.0791H59.7346Z" fill="#92949C"/>
<circle cx="45" cy="45" r="44.5" stroke="#434447"/>
</svg>
