<svg width="20" height="20" viewBox="0 0 20 20" fill="none" xmlns="http://www.w3.org/2000/svg">
<g clip-path="url(#clip0_3204_793)">
<path d="M0 0H20V20H0V0Z" fill="#FF5A00"/>
<path d="M5.91016 4.97897C5.99581 4.97897 6.08146 4.93642 6.16712 4.93642C6.59538 4.93642 7.02365 4.93642 7.45191 4.97897C7.53757 4.97897 7.53757 5.02153 7.58039 5.06408C8.22279 6.38323 8.86519 7.74493 9.55041 9.10663C9.67889 9.4045 9.80737 9.65982 9.97868 9.91514C10.1072 9.70238 10.2356 9.48961 10.3641 9.23429C11.0922 7.78748 11.8202 6.38323 12.5483 4.93642C13.0194 4.93642 13.4905 4.89387 14.0044 4.97897C13.9187 5.27684 13.7474 5.48961 13.6189 5.74493C12.6768 7.57472 11.6917 9.4045 10.7067 11.2343C10.6639 11.3194 10.6639 11.362 10.6639 11.4471C10.6639 12.7662 10.6639 14.0854 10.6639 15.362C10.1928 15.362 9.72172 15.362 9.25063 15.362C9.25063 14.0854 9.25063 12.8088 9.25063 11.5322C9.25063 11.4045 9.25063 11.2343 9.16497 11.1066C8.26562 9.44706 7.40909 7.78748 6.50973 6.08536C6.33842 5.74493 6.12429 5.36195 5.91016 4.97897Z" fill="#FFFEFE"/>
</g>
<defs>
<clipPath id="clip0_3204_793">
<rect width="20" height="20" fill="white"/>
</clipPath>
</defs>
</svg>
