<svg width="568" height="203" viewBox="0 0 568 203" fill="none" xmlns="http://www.w3.org/2000/svg">
<rect width="568" height="203" fill="#090D0D"/>
<g clip-path="url(#clip0_150_2)">
<path d="M76.14 94.8197L76.44 96.3797L88.15 157.38H66.99L55.83 99.2297L54.29 91.1797C58.31 82.1797 63.95 74.0597 70.85 67.1997C82.87 55.2197 98.7 47.0597 116.36 44.6797V66.1097C99.11 69.2997 84.52 80.0597 76.15 94.8097L76.14 94.8197Z" fill="#29BDBD"/>
<path d="M88.15 157.38H66.99L55.82 99.2396L54.28 91.1896L45.83 47.1396H66.99L70.84 67.2096L72.08 73.6696L76.14 94.8196L76.44 96.3796L88.15 157.38Z" fill="#DCF0EE"/>
<path d="M178.51 159.83C167.12 159.83 157.04 157.41 148.25 152.56C139.46 147.71 132.57 141.07 127.59 132.63C122.6 124.2 120.1 114.5 120.1 103.53C120.1 94.8203 121.5 86.8703 124.32 79.7003C127.13 72.5303 131.03 66.3103 136.02 61.0403C141.01 55.7703 146.98 51.6902 153.94 48.8102C160.9 45.9302 168.45 44.4902 176.61 44.4902C183.78 44.4902 190.45 45.8603 196.64 48.6003C202.82 51.3403 208.2 55.1002 212.77 59.8802C217.34 64.6602 220.85 70.3202 223.31 76.8502C225.77 83.3902 226.93 90.5202 226.79 98.2502L226.58 107.53H136.12L131.27 90.2402H207.81L204.65 93.8203V88.7603C204.23 84.1203 202.68 79.9803 200.01 76.3203C197.34 72.6703 193.96 69.7802 189.89 67.6802C185.81 65.5702 181.38 64.5202 176.61 64.5202C169.02 64.5202 162.62 65.9602 157.42 68.8402C152.22 71.7202 148.28 75.9402 145.61 81.4902C142.94 87.0502 141.6 93.9002 141.6 102.05C141.6 109.78 143.21 116.49 146.45 122.19C149.68 127.88 154.25 132.28 160.16 135.37C166.06 138.46 172.88 140.01 180.61 140.01C186.09 140.01 191.19 139.1 195.9 137.27C200.61 135.44 205.7 132.14 211.19 127.36L222.15 142.75C218.78 146.12 214.66 149.08 209.82 151.61C204.97 154.14 199.84 156.14 194.43 157.62C189.02 159.1 183.71 159.83 178.51 159.83Z" fill="#DCF0EE"/>
<path d="M235.44 157.72V47.0199H257.37V70.6399L253.36 73.1699C254.48 69.5199 256.28 65.9999 258.74 62.6299C261.2 59.2599 264.22 56.2699 267.81 53.6699C271.39 51.0699 275.26 48.9999 279.41 47.4499C283.55 45.9099 287.81 45.1299 292.17 45.1299C298.5 45.1299 304.05 46.1799 308.83 48.2899C313.61 50.3999 317.54 53.5599 320.64 57.7799C323.73 61.9999 325.98 67.2699 327.39 73.5899L324.02 72.7499L325.5 69.1699C327.04 65.9399 329.19 62.8799 331.93 59.9999C334.67 57.1199 337.8 54.5499 341.31 52.2999C344.82 50.0499 348.55 48.2899 352.49 47.0299C356.42 45.7599 360.29 45.1299 364.09 45.1299C372.38 45.1299 379.24 46.8199 384.65 50.1899C390.06 53.5599 394.14 58.6999 396.88 65.5799C399.62 72.4699 400.99 81.0399 400.99 91.2999V157.72H379.06V92.5699C379.06 86.2399 378.25 81.0799 376.64 77.0699C375.02 73.0599 372.6 70.0799 369.36 68.1099C366.12 66.1399 361.98 65.1599 356.92 65.1599C352.98 65.1599 349.29 65.8299 345.85 67.1599C342.4 68.4999 339.42 70.3599 336.89 72.7499C334.36 75.1399 332.39 77.9199 330.99 81.0799C329.58 84.2399 328.88 87.7199 328.88 91.5199V157.73H306.95V92.1499C306.95 86.3899 306.11 81.4999 304.42 77.4999C302.73 73.4899 300.27 70.4399 297.04 68.3299C293.8 66.2199 289.87 65.1699 285.23 65.1699C281.29 65.1699 277.64 65.8399 274.27 67.1699C270.9 68.5099 267.94 70.3299 265.41 72.6499C262.88 74.9699 260.91 77.7099 259.51 80.8699C258.1 84.0299 257.4 87.4399 257.4 91.0999V157.73H235.47L235.44 157.72Z" fill="#DCF0EE"/>
<path d="M465.27 159.83C454.44 159.83 444.78 157.34 436.28 152.34C427.77 147.35 421.06 140.53 416.14 131.89C411.22 123.25 408.76 113.37 408.76 102.26C408.76 91.1504 411.22 81.2804 416.14 72.6304C421.06 63.9904 427.77 57.1704 436.28 52.1804C444.78 47.1904 454.45 44.6904 465.27 44.6904C476.09 44.6904 485.55 47.1904 494.05 52.1804C502.55 57.1704 509.27 63.9904 514.19 72.6304C519.11 81.2704 521.57 91.1504 521.57 102.26C521.57 113.37 519.11 123.24 514.19 131.89C509.27 140.53 502.56 147.36 494.05 152.34C485.54 157.33 475.95 159.83 465.27 159.83ZM465.27 140.01C471.88 140.01 477.78 138.36 482.98 135.06C488.18 131.76 492.26 127.26 495.21 121.57C498.16 115.88 499.57 109.45 499.43 102.28C499.57 94.9705 498.16 88.4705 495.21 82.7805C492.26 77.0905 488.18 72.6304 482.98 69.3904C477.78 66.1604 471.87 64.5404 465.27 64.5404C458.67 64.5404 452.72 66.1904 447.45 69.4904C442.18 72.7904 438.07 77.2904 435.11 82.9804C432.16 88.6704 430.75 95.1004 430.89 102.27C430.75 109.44 432.16 115.87 435.11 121.56C438.06 127.25 442.17 131.75 447.45 135.05C452.72 138.35 458.66 140 465.27 140V140.01Z" fill="#DCF0EE"/>
</g>
<defs>
<clipPath id="clip0_150_2">
<rect width="476" height="116" fill="white" transform="translate(46 44)"/>
</clipPath>
</defs>
</svg>
