<svg preserveAspectRatio="none" overflow="visible" style="display: block;" width="18" height="41" viewBox="0 0 18 41" fill="none" xmlns="http://www.w3.org/2000/svg">
<g id="Group 131">
<path id="$" d="M8.01316 41V35.6822C5.53947 35.4657 3.59211 34.6538 2.17105 33.2465C0.776316 31.8122 0.0526315 29.9314 0 27.604H3.55263C3.55263 28.93 3.93421 30.0125 4.69737 30.8515C5.48684 31.6904 6.59211 32.2046 8.01316 32.3941V21.7584L6.94737 21.4337C4.97368 20.8112 3.44737 19.7693 2.36842 18.3079C1.31579 16.8465 0.789474 15.1281 0.789474 13.1525C0.789474 10.9875 1.43421 9.20132 2.72368 7.79406C4.03947 6.3868 5.80263 5.57492 8.01316 5.35842V0H10.3816V5.31782C12.5658 5.53433 14.3158 6.34621 15.6316 7.75347C16.9474 9.16073 17.6184 10.9739 17.6447 13.1931H14.0921C14.0921 11.9211 13.7632 10.8927 13.1053 10.1079C12.4737 9.29604 11.5658 8.79538 10.3816 8.60594V18.6733L11.9605 19.201C13.8816 19.8234 15.3684 20.8789 16.4211 22.3673C17.4737 23.8558 18 25.6013 18 27.604C18 29.8231 17.3026 31.6634 15.9079 33.1248C14.5395 34.5861 12.6974 35.4386 10.3816 35.6822V41H8.01316ZM10.3816 32.3941C11.6711 32.1776 12.6711 31.6634 13.3816 30.8515C14.0921 30.0396 14.4474 28.9842 14.4474 27.6851C14.4474 26.4944 14.1316 25.4525 13.5 24.5594C12.8947 23.6663 12.0132 23.0439 10.8553 22.6921L10.3816 22.5297V32.3941ZM8.01316 19.5257V8.60594C6.85526 8.79538 5.94737 9.25545 5.28947 9.98614C4.65789 10.7168 4.3421 11.664 4.3421 12.8277C4.3421 14.235 4.76316 15.4257 5.60526 16.4C6.44737 17.3472 7.6579 17.9426 9.23684 18.1861L8.01316 19.5257Z" fill="#0E0F21"/>
</g>
</svg>
